<svg xmlns="http://www.w3.org/2000/svg" fill="none" viewBox="0 0 330 200" height="200" width="330">
<path fill="#524F49" d="M15.3121 105.064C15.4429 103.735 15.6389 102.406 15.9222 101.033V100.989C15.8786 100.989 15.835 100.989 15.8132 101.011C13.8089 101.207 10.6499 101.447 8.29695 101.752C4.20116 102.297 0.475662 102.841 0.170651 103.212C-0.679017 104.214 4.94183 104.955 13.4819 105.064L15.3121 105.064Z"></path>
<path fill="#8F8B85" d="M58.341 66.0221C44.8548 66.0221 31.5436 73.6473 23.33 84.824C23.33 84.824 4.20169 86.1965 3.19913 87.8958C0.192652 93.6692 0.105469 103.364 0.105469 103.364V103.342C0.127252 103.298 0.149043 103.255 0.170826 103.211C0.475837 102.841 4.20134 102.296 8.29713 101.751C10.6283 101.446 13.8091 101.207 15.8134 101.011C15.857 101.011 15.8788 101.011 15.9223 100.989C22.5671 100.335 35.2472 99.4203 42.4799 99.2242C60.236 98.7449 75.5514 98.8756 86.1831 99.3549C89.2768 80.7928 77.1202 66.022 58.3399 66.022L58.341 66.0221Z"></path>
<path fill="#E6E5E3" d="M86.2051 99.3552C75.5951 98.8759 60.2796 98.7234 42.5019 99.2245C35.247 99.4206 22.5675 100.336 15.9227 100.989C15.792 101.73 15.5523 102.95 15.3562 104.54V104.628C15.2909 105.172 15.2473 105.717 15.2037 106.262V106.37C15.1819 106.893 15.1602 107.416 15.1602 107.939C15.1602 108.266 15.1602 108.593 15.1819 108.919C15.1819 109.203 15.1819 109.464 15.2037 109.726C15.2255 110.292 15.2691 110.88 15.3127 111.447C15.3344 111.599 15.3562 111.773 15.378 111.926C15.4216 112.362 15.4869 112.797 15.5523 113.233C15.5741 113.407 15.6177 113.582 15.6394 113.756C15.7048 114.17 15.792 114.584 15.8791 114.998C15.9227 115.172 15.9445 115.325 15.988 115.477C16.097 115.891 16.2059 116.327 16.3148 116.741C16.3366 116.806 16.3584 116.871 16.3802 116.959C23.0686 116.305 31.2818 115.673 40.9767 115.281C41.0857 115.281 45.2251 115.129 45.2686 115.129C54.2449 114.845 74.4624 114.998 79.9306 115.063C80.8021 115.063 81.3468 115.085 81.3468 115.085C85.9437 115.15 87.8173 115.194 92.5888 115.455C94.7892 115.564 98.4493 115.717 98.6454 116.196V116.218C98.6454 116.24 98.6454 116.24 98.6236 116.261C101.652 110.662 101.695 101.403 101.695 101.403C101.87 100.597 96.0964 99.8127 86.2051 99.3552Z"></path>
<path fill="#8F8B85" d="M81.0598 83.8869H85.0685C81.343 73.212 71.4516 66.0001 58.3586 66.0001C44.8725 66.0001 31.5612 73.6471 23.3477 84.802C29.2518 84.2573 36.9645 83.7998 44.5236 83.6691C46.0051 83.6473 48.8373 83.0373 50.4277 80.6844C53.3906 76.2835 56.31 71.8389 60.449 70.3575C60.5143 70.3357 60.6015 70.2922 60.6668 70.2704C66.9849 67.8957 75.3076 73.7558 81.0598 83.8869Z"></path>
<path fill="#524F49" d="M79.9251 115.085C71.886 127.394 57.7683 136 43.4545 136C37.0057 136 31.3415 134.257 26.7876 131.207C21.7767 127.852 18.1384 122.907 16.3516 116.981C23.04 116.327 31.2532 115.695 40.9481 115.303C41.0788 115.303 45.2183 115.151 45.24 115.151C54.2596 114.868 74.4771 115.02 79.9236 115.085L79.9251 115.085Z"></path>
<path fill="#ADABA5" d="M98.6606 116.195C98.4645 115.716 94.8044 115.585 92.604 115.455C87.811 115.193 85.9374 115.15 81.362 115.084C81.362 115.084 80.8173 115.084 79.9458 115.063C79.1397 116.283 78.29 117.459 77.375 118.614C90.0109 118.243 98.3125 117.35 98.6606 116.195Z"></path>
<path fill="#FAFAF9" d="M263.278 108.286C261.644 99.4633 269.749 89.681 279.945 86.8707C291.818 84.4742 301.819 89.0493 303.627 98.156C304.89 107.066 298.027 116.391 286.524 119.071C275.653 121.097 265.173 117.197 263.278 108.286ZM278.572 97.5672C274.585 102.099 273.561 108.025 276.284 110.769C279.008 113.514 284.433 112.076 288.397 107.545C292.362 103.013 293.408 97.0873 290.685 94.3429C287.983 91.5978 282.559 93.0357 278.572 97.5672ZM223.322 95.8461C223.257 94.6479 222.668 93.7546 221.601 93.1882C220.533 92.6218 218.965 92.3167 216.939 92.3167H214.869L212.908 101.532H214.564C217.44 101.532 219.64 101.053 221.187 100.072C222.712 99.0701 223.431 97.6762 223.322 95.8461ZM200.686 118.286C200.686 118.286 197.593 118.417 198.007 115.475L203.41 90.1596C203.715 88.6999 205.153 87.5234 206.612 87.5234H219.662C222.058 87.5234 224.15 87.6759 225.936 87.9591C227.745 88.2205 229.313 88.6781 230.642 89.3316C231.971 89.9852 232.995 90.8348 233.736 91.9024C234.477 92.9482 234.891 94.5168 234.999 96.0854C235.217 99.6365 233.605 102.512 230.141 104.669C226.677 106.848 221.71 107.676 215.218 107.676H211.623L209.336 118.286L200.686 118.286ZM150.229 95.737C150.142 94.4952 149.619 93.6238 148.639 93.1227C147.658 92.5998 146.264 92.3383 144.412 92.3383H141.471L139.706 100.617H142.626C145.153 100.617 147.07 100.203 148.399 99.3318C149.706 98.4603 150.316 97.2621 150.229 95.737ZM135.937 118.286H127.157C126.547 118.264 124.26 118.046 124.63 115.475L130.033 90.1596C130.338 88.6999 131.776 87.5234 133.236 87.5234H148.094C150.251 87.5234 152.125 87.6541 153.737 87.8938C155.371 88.1334 156.787 88.5691 157.985 89.1792C159.183 89.7892 159.968 90.3556 160.774 91.5539C161.602 92.7739 161.798 93.6889 161.907 95.1704C162.168 98.6997 160.643 101.096 157.506 103.101C154.608 104.626 150.6 104.865 149.641 104.887C149.641 104.887 148.661 105.105 149.793 105.388C149.793 105.388 151.188 105.737 152.342 106.761C154.804 108.721 156.613 110.747 162.19 118.264H149.009C149.009 118.264 146.743 113.711 142.038 106.936C140.992 105.432 139.293 105.672 138.661 105.607L135.937 118.286ZM318.416 112.36H329.069L328.35 115.781C328.067 117.175 326.607 118.308 325.191 118.308H308.437C307.827 118.286 305.54 118.068 305.91 115.497L311.313 90.1814C311.618 88.7217 313.056 87.5453 314.516 87.5453H323.775L318.416 112.36ZM180.446 100.138H194.433L193.736 103.362C193.453 104.779 191.993 105.999 190.533 105.999H179.205L177.832 112.36H191.819L191.1 115.781C190.816 117.175 189.357 118.308 187.941 118.308H167.832C167.222 118.286 164.935 118.068 165.305 115.497L170.708 90.1814C171.013 88.7217 172.451 87.5453 173.911 87.5453H197.135L196.438 90.835C196.133 92.2947 194.695 93.4712 193.235 93.4712H181.885L180.446 100.138ZM266.154 87.5455L265.457 90.8352C265.043 92.3603 263.91 93.4277 262.255 93.4714H261.514C254.869 93.4932 254.455 95.3014 253.17 101.467L251.579 108.787C249.64 118.111 241.231 118.286 240.512 118.286H223.671L224.39 114.997C224.826 113.384 226.024 112.469 227.593 112.36H231.645C238.29 112.339 238.704 110.53 239.989 104.365L241.579 97.0448C243.584 87.7421 253.714 87.5455 255.261 87.5455L266.154 87.5455Z"></path>
</svg>
