<svg xmlns="http://www.w3.org/2000/svg" fill="none" viewBox="0 0 37 36" height="36" width="37">
<circle stroke-width="2" stroke="#FAFAF9" r="7.1455" cy="18" cx="26.4789"></circle>
<mask fill="white" id="path-2-inside-1_223_5937">
<path d="M17.3158 11.8818C14.4782 12.4256 12.3336 14.92 12.3334 17.916C12.3334 20.9121 14.4782 23.4064 17.3158 23.9502V25.9785C13.5035 25.4334 10.5425 22.2487 10.3441 18.335L10.3334 17.916C10.3336 13.8126 13.3684 10.419 17.3158 9.85449V11.8818Z"></path>
</mask>
<path fill="black" d="M17.3158 11.8818C14.4782 12.4256 12.3336 14.92 12.3334 17.916C12.3334 20.9121 14.4782 23.4064 17.3158 23.9502V25.9785C13.5035 25.4334 10.5425 22.2487 10.3441 18.335L10.3334 17.916C10.3336 13.8126 13.3684 10.419 17.3158 9.85449V11.8818Z"></path>
<path mask="url(#path-2-inside-1_223_5937)" fill="#FAFAF9" d="M17.3158 11.8818L17.8268 14.5485L20.031 14.1261V11.8818H17.3158ZM12.3334 17.916L9.61821 17.9158V17.9161L12.3334 17.916ZM17.3158 23.9502H20.031V21.706L17.8269 21.2836L17.3158 23.9502ZM17.3158 25.9785L16.9315 28.6663L20.031 29.1095V25.9785H17.3158ZM10.3441 18.335L7.62984 18.4046L7.63071 18.4385L7.63243 18.4724L10.3441 18.335ZM10.3334 17.916L7.61821 17.9159L7.6182 17.9507L7.6191 17.9856L10.3334 17.916ZM17.3158 9.85449H20.031V6.72341L16.9314 7.16667L17.3158 9.85449ZM17.3158 11.8818L16.8048 9.21518C12.7128 9.99929 9.61853 13.5923 9.61821 17.9158L12.3334 17.916L15.0485 17.9162C15.0487 16.2476 16.2436 14.8518 17.8268 14.5485L17.3158 11.8818ZM12.3334 17.916L9.61821 17.9161C9.6183 22.24 12.7129 25.8326 16.8047 26.6168L17.3158 23.9502L17.8269 21.2836C16.2434 20.9801 15.0486 19.5843 15.0485 17.916L12.3334 17.916ZM17.3158 23.9502H14.6006V25.9785H17.3158H20.031V23.9502H17.3158ZM17.3158 25.9785L17.7001 23.2907C15.1618 22.9277 13.1878 20.8018 13.0558 18.1975L10.3441 18.335L7.63243 18.4724C7.89716 23.6957 11.8451 27.9391 16.9315 28.6663L17.3158 25.9785ZM10.3441 18.335L13.0584 18.2654L13.0476 17.8464L10.3334 17.916L7.6191 17.9856L7.62984 18.4046L10.3441 18.335ZM10.3334 17.916L13.0485 17.9162C13.0487 15.1835 15.0706 12.9184 17.7002 12.5423L17.3158 9.85449L16.9314 7.16667C11.6663 7.91963 7.61851 12.4418 7.61821 17.9159L10.3334 17.916ZM17.3158 9.85449H14.6006V11.8818H17.3158H20.031V9.85449H17.3158Z"></path>
<mask fill="white" id="path-4-inside-2_223_5937">
<path d="M9.3158 11.8818C6.47821 12.4256 4.3336 14.92 4.33337 17.916C4.33344 20.9121 6.47819 23.4063 9.3158 23.9502V25.9785C5.50346 25.4334 2.54247 22.2487 2.34412 18.335L2.33337 17.916C2.3336 13.8126 5.36844 10.419 9.3158 9.85449V11.8818Z"></path>
</mask>
<path fill="black" d="M9.3158 11.8818C6.47821 12.4256 4.3336 14.92 4.33337 17.916C4.33344 20.9121 6.47819 23.4063 9.3158 23.9502V25.9785C5.50346 25.4334 2.54247 22.2487 2.34412 18.335L2.33337 17.916C2.3336 13.8126 5.36844 10.419 9.3158 9.85449V11.8818Z"></path>
<path mask="url(#path-4-inside-2_223_5937)" fill="#FAFAF9" d="M9.3158 11.8818L9.82677 14.5485L12.031 14.1261V11.8818H9.3158ZM4.33337 17.916L1.61821 17.9158V17.9161L4.33337 17.916ZM9.3158 23.9502H12.031V21.706L9.82687 21.2836L9.3158 23.9502ZM9.3158 25.9785L8.93147 28.6663L12.031 29.1095V25.9785H9.3158ZM2.34412 18.335L-0.370159 18.4046L-0.369289 18.4385L-0.367571 18.4724L2.34412 18.335ZM2.33337 17.916L-0.381793 17.9159L-0.381795 17.9507L-0.380901 17.9856L2.33337 17.916ZM9.3158 9.85449H12.031V6.72341L8.93141 7.16667L9.3158 9.85449ZM9.3158 11.8818L8.80482 9.21518C4.71277 9.99929 1.61853 13.5923 1.61821 17.9158L4.33337 17.916L7.04854 17.9162C7.04867 16.2476 8.24365 14.8518 9.82677 14.5485L9.3158 11.8818ZM4.33337 17.916L1.61821 17.9161C1.6183 22.24 4.71295 25.8326 8.80472 26.6168L9.3158 23.9502L9.82687 21.2836C8.24343 20.9801 7.04858 19.5843 7.04854 17.916L4.33337 17.916ZM9.3158 23.9502H6.60063V25.9785H9.3158H12.031V23.9502H9.3158ZM9.3158 25.9785L9.70012 23.2907C7.16179 22.9277 5.18779 20.8018 5.0558 18.1975L2.34412 18.335L-0.367571 18.4724C-0.102845 23.6957 3.84513 27.9391 8.93147 28.6663L9.3158 25.9785ZM2.34412 18.335L5.05839 18.2654L5.04765 17.8464L2.33337 17.916L-0.380901 17.9856L-0.370159 18.4046L2.34412 18.335ZM2.33337 17.916L5.04854 17.9162C5.04869 15.1835 7.07057 12.9184 9.70018 12.5423L9.3158 9.85449L8.93141 7.16667C3.66631 7.91963 -0.381487 12.4418 -0.381793 17.9159L2.33337 17.916ZM9.3158 9.85449H6.60063V11.8818H9.3158H12.031V9.85449H9.3158Z"></path>
</svg>
