<svg xmlns="http://www.w3.org/2000/svg" fill="none" viewBox="0 0 36 36" height="36" width="36">
<path stroke-linejoin="round" stroke-linecap="round" stroke-width="2" stroke="#FAFAF9" d="M16.05 30.0001H6C5.20435 30.0001 4.44129 29.6841 3.87868 29.1215C3.31607 28.5589 3 27.7958 3 27.0001V7.50014C3 6.70449 3.31607 5.94143 3.87868 5.37882C4.44129 4.81621 5.20435 4.50014 6 4.50014H11.85C12.3517 4.49523 12.8467 4.61623 13.2895 4.85207C13.7324 5.08792 14.1091 5.43108 14.385 5.85014L15.6 7.65014C15.8732 8.06494 16.245 8.40543 16.6823 8.64105C17.1195 8.87667 17.6083 9.00006 18.105 9.00014H30C30.7956 9.00014 31.5587 9.31621 32.1213 9.87882C32.6839 10.4414 33 11.2045 33 12.0001V18.1501M30 26.0993C30 29.0988 28.0313 30.5986 25.6913 31.4684C25.5687 31.5127 25.4356 31.5106 25.3144 31.4624C22.9688 30.5986 21 29.0988 21 26.0993V21.9C21 21.7409 21.0593 21.5883 21.1648 21.4758C21.2702 21.3633 21.4133 21.3001 21.5625 21.3001C22.6875 21.3001 24.0938 20.5802 25.0725 19.6684C25.1917 19.5598 25.3433 19.5001 25.5 19.5001C25.6567 19.5001 25.8083 19.5598 25.9275 19.6684C26.9119 20.5862 28.3125 21.3001 29.4375 21.3001C29.5867 21.3001 29.7298 21.3633 29.8352 21.4758C29.9407 21.5883 30 21.7409 30 21.9V26.0993Z"></path>
</svg>
