<svg xmlns="http://www.w3.org/2000/svg" fill="none" viewBox="0 0 36 36" height="36" width="36">
<path stroke-linejoin="round" stroke-linecap="round" stroke-width="2" stroke="#FAFAF9" d="M18.75 33H27C27.7956 33 28.5587 32.6839 29.1213 32.1213C29.6839 31.5587 30 30.7956 30 30V10.5L22.5 3H9C8.20435 3 7.44129 3.31607 6.87868 3.87868C6.31607 4.44129 6 5.20435 6 6V20.25M21 3V9C21 9.79565 21.3161 10.5587 21.8787 11.1213C22.4413 11.6839 23.2044 12 24 12H30M20.067 23.439C20.3629 23.1431 20.5976 22.7919 20.7577 22.4053C20.9178 22.0187 21.0002 21.6044 21.0002 21.186C21.0002 20.7676 20.9178 20.3533 20.7577 19.9667C20.5976 19.5801 20.3629 19.2289 20.067 18.933C19.7711 18.6371 19.4199 18.4024 19.0333 18.2423C18.6467 18.0822 18.2324 17.9998 17.814 17.9998C17.3956 17.9998 16.9813 18.0822 16.5947 18.2423C16.2081 18.4024 15.8569 18.6371 15.561 18.933L8.046 26.451C7.68937 26.8074 7.42833 27.248 7.287 27.732L6.0315 32.037C5.99385 32.1661 5.9916 32.3029 6.02496 32.4331C6.05833 32.5634 6.1261 32.6823 6.22117 32.7773C6.31624 32.8724 6.43512 32.9402 6.56536 32.9735C6.69561 33.0069 6.83243 33.0046 6.9615 32.967L11.2665 31.7115C11.7505 31.5702 12.1911 31.3091 12.5475 30.9525L20.067 23.439Z"></path>
</svg>
