<svg xmlns="http://www.w3.org/2000/svg" fill="none" viewBox="0 0 36 36" height="36" width="36">
<path stroke-linejoin="round" stroke-linecap="round" stroke-width="2" stroke="#FAFAF9" d="M15.3 9.45L9.45 15.3M10.5 18C10.5 20.0711 8.82107 21.75 6.75 21.75C4.67893 21.75 3 20.0711 3 18C3 15.9289 4.67893 14.25 6.75 14.25C8.82107 14.25 10.5 15.9289 10.5 18ZM10.5 18H25.5M25.5 18C25.5 20.0711 27.1789 21.75 29.25 21.75C31.3211 21.75 33 20.0711 33 18C33 15.9289 31.3211 14.25 29.25 14.25C27.1789 14.25 25.5 15.9289 25.5 18ZM20.7 26.55L26.55 20.7M21.75 6.75C21.75 8.82107 20.0711 10.5 18 10.5C15.9289 10.5 14.25 8.82107 14.25 6.75C14.25 4.67893 15.9289 3 18 3C20.0711 3 21.75 4.67893 21.75 6.75ZM21.75 29.25C21.75 31.3211 20.0711 33 18 33C15.9289 33 14.25 31.3211 14.25 29.25C14.25 27.1789 15.9289 25.5 18 25.5C20.0711 25.5 21.75 27.1789 21.75 29.25Z"></path>
</svg>
