<svg width="676" height="507" viewBox="0 0 676 507" fill="none" xmlns="http://www.w3.org/2000/svg">
<rect width="675" height="506.25" transform="translate(0.960938 0.72998)" fill="#CCCAC6"></rect>
<rect x="90.9609" y="90.98" width="495" height="211" rx="14" fill="white"></rect>
<rect x="90.9609" y="331.98" width="495" height="85" rx="14" fill="white"></rect>
<path d="M125.989 123.508H119.213V121.38H135.285V123.508H128.537V140.98H125.989V123.508ZM137.631 121.38H140.039V128.156C140.039 128.324 140.039 128.492 140.039 128.66C140.039 128.809 140.039 128.921 140.039 128.996C140.039 129.052 140.039 129.155 140.039 129.304C140.412 128.632 140.972 128.091 141.719 127.68C142.465 127.251 143.287 127.036 144.183 127.036C145.209 127.036 146.096 127.251 146.843 127.68C147.589 128.091 148.159 128.707 148.551 129.528C148.961 130.349 149.167 131.329 149.167 132.468V140.98H146.759V132.776C146.759 131.469 146.516 130.508 146.031 129.892C145.545 129.257 144.771 128.94 143.707 128.94C142.96 128.94 142.307 129.117 141.747 129.472C141.205 129.827 140.785 130.303 140.487 130.9C140.188 131.497 140.039 132.151 140.039 132.86V140.98H137.631V121.38ZM158.819 141.4C157.475 141.4 156.308 141.12 155.319 140.56C154.348 140 153.592 139.179 153.051 138.096C152.528 137.013 152.267 135.707 152.267 134.176C152.267 132.813 152.537 131.591 153.079 130.508C153.639 129.425 154.404 128.576 155.375 127.96C156.364 127.344 157.465 127.036 158.679 127.036C160.004 127.036 161.133 127.335 162.067 127.932C163 128.511 163.709 129.341 164.195 130.424C164.68 131.488 164.923 132.748 164.923 134.204V134.68H154.675C154.693 135.688 154.88 136.556 155.235 137.284C155.608 138.012 156.103 138.572 156.719 138.964C157.353 139.337 158.063 139.524 158.847 139.524C159.761 139.524 160.545 139.319 161.199 138.908C161.852 138.479 162.253 137.779 162.403 136.808H164.783C164.689 137.648 164.409 138.413 163.943 139.104C163.476 139.795 162.804 140.355 161.927 140.784C161.068 141.195 160.032 141.4 158.819 141.4ZM162.347 132.972C162.347 131.74 162.02 130.76 161.367 130.032C160.732 129.304 159.836 128.94 158.679 128.94C157.577 128.94 156.672 129.323 155.963 130.088C155.253 130.853 154.852 131.815 154.758 132.972H162.347ZM181.789 141.4C180.221 141.4 178.839 141.129 177.645 140.588C176.45 140.047 175.526 139.272 174.873 138.264C174.219 137.237 173.883 136.043 173.865 134.68H176.469C176.525 135.613 176.777 136.425 177.225 137.116C177.691 137.807 178.317 138.339 179.101 138.712C179.885 139.085 180.79 139.272 181.817 139.272C183.403 139.272 184.626 138.955 185.485 138.32C186.362 137.667 186.801 136.799 186.801 135.716C186.801 134.839 186.465 134.157 185.793 133.672C185.139 133.168 184.178 132.767 182.909 132.468L179.997 131.796C178.373 131.423 177.057 130.788 176.049 129.892C175.041 128.977 174.537 127.811 174.537 126.392C174.537 125.347 174.845 124.413 175.461 123.592C176.077 122.752 176.926 122.099 178.009 121.632C179.11 121.165 180.342 120.932 181.705 120.932C183.105 120.932 184.337 121.175 185.401 121.66C186.483 122.145 187.333 122.836 187.949 123.732C188.565 124.628 188.91 125.673 188.985 126.868H186.381C186.325 126.103 186.091 125.44 185.681 124.88C185.289 124.301 184.747 123.863 184.057 123.564C183.366 123.247 182.563 123.088 181.649 123.088C180.809 123.088 180.053 123.219 179.381 123.48C178.709 123.741 178.177 124.105 177.785 124.572C177.411 125.039 177.225 125.571 177.225 126.168C177.225 127.008 177.505 127.689 178.065 128.212C178.625 128.735 179.483 129.127 180.641 129.388L184.113 130.172C185.774 130.564 187.081 131.208 188.033 132.104C189.003 132.981 189.489 134.129 189.489 135.548C189.489 136.631 189.171 137.62 188.537 138.516C187.921 139.393 187.034 140.093 185.877 140.616C184.719 141.139 183.357 141.4 181.789 141.4ZM198.385 141.4C197.041 141.4 195.874 141.12 194.885 140.56C193.914 140 193.158 139.179 192.617 138.096C192.094 137.013 191.833 135.707 191.833 134.176C191.833 132.813 192.104 131.591 192.645 130.508C193.205 129.425 193.97 128.576 194.941 127.96C195.93 127.344 197.032 127.036 198.245 127.036C199.57 127.036 200.7 127.335 201.633 127.932C202.566 128.511 203.276 129.341 203.761 130.424C204.246 131.488 204.489 132.748 204.489 134.204V134.68H194.241C194.26 135.688 194.446 136.556 194.801 137.284C195.174 138.012 195.669 138.572 196.285 138.964C196.92 139.337 197.629 139.524 198.413 139.524C199.328 139.524 200.112 139.319 200.765 138.908C201.418 138.479 201.82 137.779 201.969 136.808H204.349C204.256 137.648 203.976 138.413 203.509 139.104C203.042 139.795 202.37 140.355 201.493 140.784C200.634 141.195 199.598 141.4 198.385 141.4ZM201.913 132.972C201.913 131.74 201.586 130.76 200.933 130.032C200.298 129.304 199.402 128.94 198.245 128.94C197.144 128.94 196.238 129.323 195.529 130.088C194.82 130.853 194.418 131.815 194.325 132.972H201.913ZM207.795 121.38H210.203V140.98H207.795V121.38ZM207.795 121.38H208.999V123.368H207.795V121.38ZM207.795 138.992H210.203V140.98H207.795V138.992ZM214.357 121.38H216.765V140.98H214.357V121.38ZM214.357 121.38H215.561V123.368H214.357V121.38ZM214.357 138.992H216.765V140.98H214.357V138.992ZM226.604 141.4C225.26 141.4 224.093 141.12 223.104 140.56C222.133 140 221.377 139.179 220.836 138.096C220.313 137.013 220.052 135.707 220.052 134.176C220.052 132.813 220.322 131.591 220.864 130.508C221.424 129.425 222.189 128.576 223.16 127.96C224.149 127.344 225.25 127.036 226.464 127.036C227.789 127.036 228.918 127.335 229.852 127.932C230.785 128.511 231.494 129.341 231.98 130.424C232.465 131.488 232.708 132.748 232.708 134.204V134.68H222.46C222.478 135.688 222.665 136.556 223.02 137.284C223.393 138.012 223.888 138.572 224.504 138.964C225.138 139.337 225.848 139.524 226.632 139.524C227.546 139.524 228.33 139.319 228.984 138.908C229.637 138.479 230.038 137.779 230.188 136.808H232.568C232.474 137.648 232.194 138.413 231.728 139.104C231.261 139.795 230.589 140.355 229.712 140.784C228.853 141.195 227.817 141.4 226.604 141.4ZM230.132 132.972C230.132 131.74 229.805 130.76 229.152 130.032C228.517 129.304 227.621 128.94 226.464 128.94C225.362 128.94 224.457 129.323 223.748 130.088C223.038 130.853 222.637 131.815 222.544 132.972H230.132ZM236.013 127.484H238.421V128.072C238.421 128.613 238.421 129.164 238.421 129.724C238.776 128.921 239.317 128.277 240.045 127.792C240.792 127.288 241.66 127.036 242.649 127.036C242.911 127.036 243.116 127.045 243.265 127.064V129.444C243.004 129.407 242.752 129.388 242.509 129.388C241.632 129.388 240.885 129.556 240.269 129.892C239.672 130.209 239.215 130.704 238.897 131.376C238.58 132.029 238.421 132.851 238.421 133.84V140.98H236.013V127.484ZM256.386 141.4C255.191 141.4 254.165 141.195 253.306 140.784C252.447 140.373 251.785 139.804 251.318 139.076C250.851 138.348 250.609 137.499 250.59 136.528H252.942C252.979 137.461 253.297 138.199 253.894 138.74C254.51 139.263 255.35 139.524 256.414 139.524C257.347 139.524 258.094 139.328 258.654 138.936C259.233 138.525 259.522 137.984 259.522 137.312C259.522 136.771 259.326 136.332 258.934 135.996C258.561 135.641 257.973 135.389 257.17 135.24L255.126 134.848C253.838 134.605 252.83 134.157 252.102 133.504C251.374 132.851 251.01 132.02 251.01 131.012C251.01 130.247 251.234 129.565 251.682 128.968C252.13 128.371 252.746 127.904 253.53 127.568C254.333 127.213 255.238 127.036 256.246 127.036C257.329 127.036 258.262 127.213 259.046 127.568C259.83 127.904 260.437 128.399 260.866 129.052C261.314 129.687 261.566 130.461 261.622 131.376H259.242C259.149 130.573 258.822 129.967 258.262 129.556C257.721 129.145 256.993 128.94 256.078 128.94C255.275 128.94 254.631 129.117 254.146 129.472C253.661 129.827 253.418 130.293 253.418 130.872C253.418 131.395 253.605 131.805 253.978 132.104C254.351 132.403 254.93 132.627 255.714 132.776L257.814 133.168C259.102 133.411 260.101 133.849 260.81 134.484C261.538 135.119 261.902 135.977 261.902 137.06C261.902 137.863 261.678 138.6 261.23 139.272C260.782 139.925 260.138 140.448 259.298 140.84C258.477 141.213 257.506 141.4 256.386 141.4ZM265.189 121.38H267.597V128.156C267.597 128.324 267.597 128.492 267.597 128.66C267.597 128.809 267.597 128.921 267.597 128.996C267.597 129.052 267.597 129.155 267.597 129.304C267.971 128.632 268.531 128.091 269.277 127.68C270.024 127.251 270.845 127.036 271.741 127.036C272.768 127.036 273.655 127.251 274.401 127.68C275.148 128.091 275.717 128.707 276.109 129.528C276.52 130.349 276.725 131.329 276.725 132.468V140.98H274.317V132.776C274.317 131.469 274.075 130.508 273.589 129.892C273.104 129.257 272.329 128.94 271.265 128.94C270.519 128.94 269.865 129.117 269.305 129.472C268.764 129.827 268.344 130.303 268.045 130.9C267.747 131.497 267.597 132.151 267.597 132.86V140.98H265.189V121.38ZM284.529 141.4C283.67 141.4 282.886 141.232 282.177 140.896C281.468 140.56 280.908 140.084 280.497 139.468C280.086 138.833 279.881 138.105 279.881 137.284C279.881 136.071 280.292 135.119 281.113 134.428C281.953 133.737 283.036 133.289 284.361 133.084L287.245 132.636C287.749 132.561 288.104 132.421 288.309 132.216C288.514 132.011 288.617 131.703 288.617 131.292C288.617 130.564 288.365 129.995 287.861 129.584C287.357 129.155 286.704 128.94 285.901 128.94C284.893 128.94 284.118 129.192 283.577 129.696C283.036 130.181 282.746 130.853 282.709 131.712H280.301C280.338 130.872 280.572 130.097 281.001 129.388C281.43 128.679 282.046 128.109 282.849 127.68C283.67 127.251 284.622 127.036 285.705 127.036C286.806 127.036 287.749 127.241 288.533 127.652C289.336 128.063 289.942 128.651 290.353 129.416C290.764 130.181 290.969 131.087 290.969 132.132V140.98H288.673V140.308C288.673 139.916 288.673 139.533 288.673 139.16C288.337 139.869 287.805 140.42 287.077 140.812C286.368 141.204 285.518 141.4 284.529 141.4ZM284.865 139.524C285.574 139.524 286.209 139.375 286.769 139.076C287.348 138.759 287.796 138.329 288.113 137.788C288.449 137.228 288.617 136.593 288.617 135.884V133.896C288.542 134.027 288.374 134.139 288.113 134.232C287.87 134.325 287.544 134.409 287.133 134.484L285.173 134.848C284.314 135.016 283.633 135.296 283.129 135.688C282.625 136.08 282.373 136.612 282.373 137.284C282.373 137.956 282.606 138.497 283.073 138.908C283.558 139.319 284.156 139.524 284.865 139.524ZM294.939 121.38H297.347V140.98H294.939V121.38ZM294.939 121.38H296.143V123.368H294.939V121.38ZM294.939 138.992H297.347V140.98H294.939V138.992ZM301.502 121.38H303.91V140.98H301.502V121.38ZM301.502 121.38H302.706V123.368H301.502V121.38ZM301.502 138.992H303.91V140.98H301.502V138.992ZM320.057 141.4C318.862 141.4 317.798 141.12 316.865 140.56C315.931 140 315.194 139.179 314.653 138.096C314.111 137.013 313.841 135.725 313.841 134.232C313.841 132.869 314.093 131.647 314.597 130.564C315.119 129.463 315.857 128.604 316.809 127.988C317.761 127.353 318.862 127.036 320.113 127.036C321.139 127.036 322.026 127.269 322.773 127.736C323.538 128.184 324.098 128.707 324.453 129.304C324.453 128.931 324.453 128.567 324.453 128.212V121.38H326.861V140.98H324.453V140.196C324.453 139.823 324.453 139.459 324.453 139.104C324.079 139.757 323.491 140.308 322.689 140.756C321.905 141.185 321.027 141.4 320.057 141.4ZM320.477 139.524C321.279 139.524 321.989 139.309 322.605 138.88C323.239 138.432 323.734 137.807 324.089 137.004C324.443 136.201 324.621 135.268 324.621 134.204C324.621 132.617 324.238 131.348 323.473 130.396C322.707 129.425 321.709 128.94 320.477 128.94C319.674 128.94 318.955 129.164 318.321 129.612C317.705 130.041 317.219 130.657 316.865 131.46C316.51 132.263 316.333 133.187 316.333 134.232C316.333 135.277 316.501 136.201 316.837 137.004C317.191 137.807 317.677 138.432 318.293 138.88C318.927 139.309 319.655 139.524 320.477 139.524ZM336.69 141.4C335.346 141.4 334.179 141.12 333.19 140.56C332.219 140 331.463 139.179 330.922 138.096C330.399 137.013 330.138 135.707 330.138 134.176C330.138 132.813 330.408 131.591 330.95 130.508C331.51 129.425 332.275 128.576 333.246 127.96C334.235 127.344 335.336 127.036 336.55 127.036C337.875 127.036 339.004 127.335 339.938 127.932C340.871 128.511 341.58 129.341 342.066 130.424C342.551 131.488 342.794 132.748 342.794 134.204V134.68H332.546C332.564 135.688 332.751 136.556 333.106 137.284C333.479 138.012 333.974 138.572 334.59 138.964C335.224 139.337 335.934 139.524 336.718 139.524C337.632 139.524 338.416 139.319 339.07 138.908C339.723 138.479 340.124 137.779 340.274 136.808H342.654C342.56 137.648 342.28 138.413 341.814 139.104C341.347 139.795 340.675 140.355 339.798 140.784C338.939 141.195 337.903 141.4 336.69 141.4ZM340.218 132.972C340.218 131.74 339.891 130.76 339.238 130.032C338.603 129.304 337.707 128.94 336.55 128.94C335.448 128.94 334.543 129.323 333.834 130.088C333.124 130.853 332.723 131.815 332.63 132.972H340.218ZM346.099 121.38H348.507V140.98H346.099V121.38ZM346.099 121.38H347.303V123.368H346.099V121.38ZM346.099 138.992H348.507V140.98H346.099V138.992ZM352.662 127.484H355.07V140.98H352.662V127.484ZM352.662 138.992H355.07V140.98H352.662V138.992ZM352.662 127.484H353.866V129.472H352.662V127.484ZM352.438 122.052H355.238V124.936H352.438V122.052ZM357.544 127.484H360.176L363.62 137.256C363.77 137.685 363.919 138.124 364.068 138.572C364.218 138.124 364.367 137.685 364.516 137.256L367.876 127.484H370.396L365.272 140.98H362.724L357.544 127.484ZM378.279 141.4C376.935 141.4 375.769 141.12 374.779 140.56C373.809 140 373.053 139.179 372.511 138.096C371.989 137.013 371.727 135.707 371.727 134.176C371.727 132.813 371.998 131.591 372.539 130.508C373.099 129.425 373.865 128.576 374.835 127.96C375.825 127.344 376.926 127.036 378.139 127.036C379.465 127.036 380.594 127.335 381.527 127.932C382.461 128.511 383.17 129.341 383.655 130.424C384.141 131.488 384.383 132.748 384.383 134.204V134.68H374.135C374.154 135.688 374.341 136.556 374.695 137.284C375.069 138.012 375.563 138.572 376.179 138.964C376.814 139.337 377.523 139.524 378.307 139.524C379.222 139.524 380.006 139.319 380.659 138.908C381.313 138.479 381.714 137.779 381.863 136.808H384.243C384.15 137.648 383.87 138.413 383.403 139.104C382.937 139.795 382.265 140.355 381.387 140.784C380.529 141.195 379.493 141.4 378.279 141.4ZM381.807 132.972C381.807 131.74 381.481 130.76 380.827 130.032C380.193 129.304 379.297 128.94 378.139 128.94C377.038 128.94 376.133 129.323 375.423 130.088C374.714 130.853 374.313 131.815 374.219 132.972H381.807ZM387.689 127.484H390.097V128.072C390.097 128.613 390.097 129.164 390.097 129.724C390.452 128.921 390.993 128.277 391.721 127.792C392.468 127.288 393.336 127.036 394.325 127.036C394.587 127.036 394.792 127.045 394.941 127.064V129.444C394.68 129.407 394.428 129.388 394.185 129.388C393.308 129.388 392.561 129.556 391.945 129.892C391.348 130.209 390.891 130.704 390.573 131.376C390.256 132.029 390.097 132.851 390.097 133.84V140.98H387.689V127.484ZM407.708 141.204C406.588 141.204 405.664 140.896 404.936 140.28C404.226 139.645 403.872 138.628 403.872 137.228V129.472H401.352V127.484H403.872V123.032H406.28V127.484H409.08V129.472H406.28V136.976C406.28 137.723 406.448 138.255 406.784 138.572C407.138 138.889 407.633 139.048 408.268 139.048C408.548 139.048 408.884 139.02 409.276 138.964V141.036C409.033 141.092 408.781 141.129 408.52 141.148C408.258 141.185 407.988 141.204 407.708 141.204ZM412.162 121.38H414.57V128.156C414.57 128.324 414.57 128.492 414.57 128.66C414.57 128.809 414.57 128.921 414.57 128.996C414.57 129.052 414.57 129.155 414.57 129.304C414.943 128.632 415.503 128.091 416.25 127.68C416.997 127.251 417.818 127.036 418.714 127.036C419.741 127.036 420.627 127.251 421.374 127.68C422.121 128.091 422.69 128.707 423.082 129.528C423.493 130.349 423.698 131.329 423.698 132.468V140.98H421.29V132.776C421.29 131.469 421.047 130.508 420.562 129.892C420.077 129.257 419.302 128.94 418.238 128.94C417.491 128.94 416.838 129.117 416.278 129.472C415.737 129.827 415.317 130.303 415.018 130.9C414.719 131.497 414.57 132.151 414.57 132.86V140.98H412.162V121.38ZM433.35 141.4C432.006 141.4 430.839 141.12 429.85 140.56C428.879 140 428.123 139.179 427.582 138.096C427.059 137.013 426.798 135.707 426.798 134.176C426.798 132.813 427.068 131.591 427.61 130.508C428.17 129.425 428.935 128.576 429.906 127.96C430.895 127.344 431.996 127.036 433.21 127.036C434.535 127.036 435.664 127.335 436.598 127.932C437.531 128.511 438.24 129.341 438.726 130.424C439.211 131.488 439.454 132.748 439.454 134.204V134.68H429.206C429.224 135.688 429.411 136.556 429.766 137.284C430.139 138.012 430.634 138.572 431.25 138.964C431.884 139.337 432.594 139.524 433.378 139.524C434.292 139.524 435.076 139.319 435.73 138.908C436.383 138.479 436.784 137.779 436.934 136.808H439.314C439.22 137.648 438.94 138.413 438.474 139.104C438.007 139.795 437.335 140.355 436.458 140.784C435.599 141.195 434.563 141.4 433.35 141.4ZM436.878 132.972C436.878 131.74 436.551 130.76 435.898 130.032C435.263 129.304 434.367 128.94 433.21 128.94C432.108 128.94 431.203 129.323 430.494 130.088C429.784 130.853 429.383 131.815 429.29 132.972H436.878ZM121.481 161.38H129.125C130.376 161.38 131.496 161.557 132.485 161.912C133.493 162.248 134.305 162.836 134.921 163.676C135.537 164.497 135.845 165.589 135.845 166.952C135.845 168.315 135.546 169.407 134.949 170.228C134.352 171.049 133.549 171.637 132.541 171.992C131.552 172.328 130.413 172.496 129.125 172.496H124.029V180.98H121.481V161.38ZM129.097 170.368C130.534 170.368 131.58 170.069 132.233 169.472C132.905 168.875 133.241 168.035 133.241 166.952C133.241 165.851 132.905 165.001 132.233 164.404C131.58 163.807 130.534 163.508 129.097 163.508H124.029V170.368H129.097ZM138.533 167.484H140.941V168.072C140.941 168.613 140.941 169.164 140.941 169.724C141.296 168.921 141.837 168.277 142.565 167.792C143.312 167.288 144.18 167.036 145.169 167.036C145.43 167.036 145.636 167.045 145.785 167.064V169.444C145.524 169.407 145.272 169.388 145.029 169.388C144.152 169.388 143.405 169.556 142.789 169.892C142.192 170.209 141.734 170.704 141.417 171.376C141.1 172.029 140.941 172.851 140.941 173.84V180.98H138.533V167.484ZM153.68 181.4C152.392 181.4 151.244 181.101 150.236 180.504C149.228 179.907 148.444 179.067 147.884 177.984C147.324 176.883 147.044 175.623 147.044 174.204C147.044 172.823 147.324 171.591 147.884 170.508C148.444 169.407 149.228 168.557 150.236 167.96C151.244 167.344 152.392 167.036 153.68 167.036C154.949 167.036 156.088 167.344 157.096 167.96C158.104 168.557 158.888 169.407 159.448 170.508C160.027 171.591 160.316 172.823 160.316 174.204C160.316 175.623 160.027 176.883 159.448 177.984C158.888 179.067 158.104 179.907 157.096 180.504C156.088 181.101 154.949 181.4 153.68 181.4ZM153.68 179.524C154.52 179.524 155.248 179.3 155.864 178.852C156.499 178.404 156.984 177.779 157.32 176.976C157.656 176.173 157.824 175.249 157.824 174.204C157.824 172.617 157.441 171.348 156.676 170.396C155.929 169.425 154.931 168.94 153.68 168.94C152.859 168.94 152.131 169.164 151.496 169.612C150.861 170.041 150.376 170.657 150.04 171.46C149.704 172.244 149.536 173.159 149.536 174.204C149.536 175.809 149.909 177.097 150.656 178.068C151.403 179.039 152.411 179.524 153.68 179.524ZM168.928 181.4C167.733 181.4 166.669 181.12 165.736 180.56C164.802 180 164.065 179.179 163.524 178.096C162.982 177.013 162.712 175.725 162.712 174.232C162.712 172.869 162.964 171.647 163.468 170.564C163.99 169.463 164.728 168.604 165.68 167.988C166.632 167.353 167.733 167.036 168.984 167.036C170.01 167.036 170.897 167.269 171.644 167.736C172.409 168.184 172.969 168.707 173.324 169.304C173.324 168.931 173.324 168.567 173.324 168.212V161.38H175.732V180.98H173.324V180.196C173.324 179.823 173.324 179.459 173.324 179.104C172.95 179.757 172.362 180.308 171.56 180.756C170.776 181.185 169.898 181.4 168.928 181.4ZM169.348 179.524C170.15 179.524 170.86 179.309 171.476 178.88C172.11 178.432 172.605 177.807 172.96 177.004C173.314 176.201 173.492 175.268 173.492 174.204C173.492 172.617 173.109 171.348 172.344 170.396C171.578 169.425 170.58 168.94 169.348 168.94C168.545 168.94 167.826 169.164 167.192 169.612C166.576 170.041 166.09 170.657 165.736 171.46C165.381 172.263 165.204 173.187 165.204 174.232C165.204 175.277 165.372 176.201 165.708 177.004C166.062 177.807 166.548 178.432 167.164 178.88C167.798 179.309 168.526 179.524 169.348 179.524ZM184.581 181.4C183.535 181.4 182.649 181.195 181.921 180.784C181.193 180.373 180.642 179.776 180.269 178.992C179.895 178.189 179.709 177.219 179.709 176.08V167.484H182.117V175.576C182.117 176.901 182.359 177.891 182.845 178.544C183.33 179.197 184.114 179.524 185.197 179.524C185.925 179.524 186.541 179.347 187.045 178.992C187.567 178.619 187.959 178.096 188.221 177.424C188.501 176.733 188.641 175.903 188.641 174.932V167.484H191.021V180.98H188.669V180.168C188.669 179.888 188.669 179.617 188.669 179.356V179.104C188.351 179.813 187.819 180.373 187.073 180.784C186.326 181.195 185.495 181.4 184.581 181.4ZM200.986 181.4C199.735 181.4 198.597 181.129 197.57 180.588C196.562 180.047 195.759 179.235 195.162 178.152C194.583 177.069 194.294 175.753 194.294 174.204C194.294 172.804 194.593 171.563 195.19 170.48C195.787 169.397 196.599 168.557 197.626 167.96C198.671 167.344 199.829 167.036 201.098 167.036C202.162 167.036 203.123 167.241 203.982 167.652C204.841 168.063 205.531 168.641 206.054 169.388C206.577 170.135 206.885 171.012 206.978 172.02H204.486C204.374 171.105 204.01 170.368 203.394 169.808C202.797 169.229 202.013 168.94 201.042 168.94C200.202 168.94 199.455 169.173 198.802 169.64C198.167 170.088 197.673 170.713 197.318 171.516C196.963 172.319 196.786 173.215 196.786 174.204C196.786 175.268 196.963 176.201 197.318 177.004C197.673 177.807 198.177 178.432 198.83 178.88C199.483 179.309 200.239 179.524 201.098 179.524C202.087 179.524 202.899 179.253 203.534 178.712C204.169 178.171 204.551 177.415 204.682 176.444H207.062C206.969 177.433 206.67 178.301 206.166 179.048C205.681 179.795 204.999 180.373 204.122 180.784C203.245 181.195 202.199 181.4 200.986 181.4ZM214.934 181.204C213.814 181.204 212.89 180.896 212.162 180.28C211.453 179.645 211.098 178.628 211.098 177.228V169.472H208.578V167.484H211.098V163.032H213.506V167.484H216.306V169.472H213.506V176.976C213.506 177.723 213.674 178.255 214.01 178.572C214.365 178.889 214.86 179.048 215.494 179.048C215.774 179.048 216.11 179.02 216.502 178.964V181.036C216.26 181.092 216.008 181.129 215.746 181.148C215.485 181.185 215.214 181.204 214.934 181.204ZM224.12 181.4C222.926 181.4 221.899 181.195 221.04 180.784C220.182 180.373 219.519 179.804 219.052 179.076C218.586 178.348 218.343 177.499 218.324 176.528H220.676C220.714 177.461 221.031 178.199 221.628 178.74C222.244 179.263 223.084 179.524 224.148 179.524C225.082 179.524 225.828 179.328 226.388 178.936C226.967 178.525 227.256 177.984 227.256 177.312C227.256 176.771 227.06 176.332 226.668 175.996C226.295 175.641 225.707 175.389 224.904 175.24L222.86 174.848C221.572 174.605 220.564 174.157 219.836 173.504C219.108 172.851 218.744 172.02 218.744 171.012C218.744 170.247 218.968 169.565 219.416 168.968C219.864 168.371 220.48 167.904 221.264 167.568C222.067 167.213 222.972 167.036 223.98 167.036C225.063 167.036 225.996 167.213 226.78 167.568C227.564 167.904 228.171 168.399 228.6 169.052C229.048 169.687 229.3 170.461 229.356 171.376H226.976C226.883 170.573 226.556 169.967 225.996 169.556C225.455 169.145 224.727 168.94 223.812 168.94C223.01 168.94 222.366 169.117 221.88 169.472C221.395 169.827 221.152 170.293 221.152 170.872C221.152 171.395 221.339 171.805 221.712 172.104C222.086 172.403 222.664 172.627 223.448 172.776L225.548 173.168C226.836 173.411 227.835 173.849 228.544 174.484C229.272 175.119 229.636 175.977 229.636 177.06C229.636 177.863 229.412 178.6 228.964 179.272C228.516 179.925 227.872 180.448 227.032 180.84C226.211 181.213 225.24 181.4 224.12 181.4ZM243.946 181.204C242.826 181.204 241.902 180.896 241.174 180.28C240.465 179.645 240.11 178.628 240.11 177.228V169.472H237.59V167.484H240.11V163.032H242.518V167.484H245.318V169.472H242.518V176.976C242.518 177.723 242.686 178.255 243.022 178.572C243.377 178.889 243.871 179.048 244.506 179.048C244.786 179.048 245.122 179.02 245.514 178.964V181.036C245.271 181.092 245.019 181.129 244.758 181.148C244.497 181.185 244.226 181.204 243.946 181.204ZM254.004 181.4C252.716 181.4 251.568 181.101 250.56 180.504C249.552 179.907 248.768 179.067 248.208 177.984C247.648 176.883 247.368 175.623 247.368 174.204C247.368 172.823 247.648 171.591 248.208 170.508C248.768 169.407 249.552 168.557 250.56 167.96C251.568 167.344 252.716 167.036 254.004 167.036C255.273 167.036 256.412 167.344 257.42 167.96C258.428 168.557 259.212 169.407 259.772 170.508C260.351 171.591 260.64 172.823 260.64 174.204C260.64 175.623 260.351 176.883 259.772 177.984C259.212 179.067 258.428 179.907 257.42 180.504C256.412 181.101 255.273 181.4 254.004 181.4ZM254.004 179.524C254.844 179.524 255.572 179.3 256.188 178.852C256.823 178.404 257.308 177.779 257.644 176.976C257.98 176.173 258.148 175.249 258.148 174.204C258.148 172.617 257.765 171.348 257 170.396C256.253 169.425 255.255 168.94 254.004 168.94C253.183 168.94 252.455 169.164 251.82 169.612C251.185 170.041 250.7 170.657 250.364 171.46C250.028 172.244 249.86 173.159 249.86 174.204C249.86 175.809 250.233 177.097 250.98 178.068C251.727 179.039 252.735 179.524 254.004 179.524ZM274.926 181.204C273.806 181.204 272.882 180.896 272.154 180.28C271.445 179.645 271.09 178.628 271.09 177.228V169.472H268.57V167.484H271.09V163.032H273.498V167.484H276.298V169.472H273.498V176.976C273.498 177.723 273.666 178.255 274.002 178.572C274.357 178.889 274.852 179.048 275.486 179.048C275.766 179.048 276.102 179.02 276.494 178.964V181.036C276.252 181.092 276 181.129 275.738 181.148C275.477 181.185 275.206 181.204 274.926 181.204ZM279.381 161.38H281.789V168.156C281.789 168.324 281.789 168.492 281.789 168.66C281.789 168.809 281.789 168.921 281.789 168.996C281.789 169.052 281.789 169.155 281.789 169.304C282.162 168.632 282.722 168.091 283.469 167.68C284.215 167.251 285.037 167.036 285.933 167.036C286.959 167.036 287.846 167.251 288.593 167.68C289.339 168.091 289.909 168.707 290.301 169.528C290.711 170.349 290.917 171.329 290.917 172.468V180.98H288.509V172.776C288.509 171.469 288.266 170.508 287.781 169.892C287.295 169.257 286.521 168.94 285.457 168.94C284.71 168.94 284.057 169.117 283.497 169.472C282.955 169.827 282.535 170.303 282.237 170.9C281.938 171.497 281.789 172.151 281.789 172.86V180.98H279.381V161.38ZM300.569 181.4C299.225 181.4 298.058 181.12 297.069 180.56C296.098 180 295.342 179.179 294.801 178.096C294.278 177.013 294.017 175.707 294.017 174.176C294.017 172.813 294.287 171.591 294.829 170.508C295.389 169.425 296.154 168.576 297.125 167.96C298.114 167.344 299.215 167.036 300.429 167.036C301.754 167.036 302.883 167.335 303.817 167.932C304.75 168.511 305.459 169.341 305.945 170.424C306.43 171.488 306.673 172.748 306.673 174.204V174.68H296.425C296.443 175.688 296.63 176.556 296.985 177.284C297.358 178.012 297.853 178.572 298.469 178.964C299.103 179.337 299.813 179.524 300.597 179.524C301.511 179.524 302.295 179.319 302.949 178.908C303.602 178.479 304.003 177.779 304.153 176.808H306.533C306.439 177.648 306.159 178.413 305.693 179.104C305.226 179.795 304.554 180.355 303.677 180.784C302.818 181.195 301.782 181.4 300.569 181.4ZM304.097 172.972C304.097 171.74 303.77 170.76 303.117 170.032C302.482 169.304 301.586 168.94 300.429 168.94C299.327 168.94 298.422 169.323 297.713 170.088C297.003 170.853 296.602 171.815 296.508 172.972H304.097ZM317.071 161.38H324.715C326.619 161.38 328.131 161.791 329.251 162.612C330.371 163.433 330.931 164.665 330.931 166.308C330.931 167.335 330.613 168.24 329.979 169.024C329.363 169.789 328.588 170.321 327.655 170.62C328.831 170.993 329.745 171.6 330.399 172.44C331.071 173.261 331.407 174.269 331.407 175.464C331.407 176.845 331.071 177.947 330.399 178.768C329.727 179.571 328.84 180.14 327.739 180.476C326.637 180.812 325.387 180.98 323.987 180.98H317.071V161.38ZM324.407 178.824C325.919 178.824 327.029 178.535 327.739 177.956C328.448 177.377 328.803 176.5 328.803 175.324C328.803 174.223 328.457 173.364 327.767 172.748C327.076 172.113 325.919 171.796 324.295 171.796H319.619V178.824H324.407ZM324.351 169.64C325.191 169.64 325.909 169.519 326.507 169.276C327.104 169.033 327.552 168.679 327.851 168.212C328.168 167.727 328.327 167.157 328.327 166.504C328.327 165.571 328.019 164.843 327.403 164.32C326.805 163.779 325.853 163.508 324.547 163.508H319.619V169.64H324.351ZM339.62 181.4C338.574 181.4 337.688 181.195 336.96 180.784C336.232 180.373 335.681 179.776 335.308 178.992C334.934 178.189 334.748 177.219 334.748 176.08V167.484H337.156V175.576C337.156 176.901 337.398 177.891 337.884 178.544C338.369 179.197 339.153 179.524 340.236 179.524C340.964 179.524 341.58 179.347 342.084 178.992C342.606 178.619 342.998 178.096 343.26 177.424C343.54 176.733 343.68 175.903 343.68 174.932V167.484H346.06V180.98H343.708V180.168C343.708 179.888 343.708 179.617 343.708 179.356V179.104C343.39 179.813 342.858 180.373 342.112 180.784C341.365 181.195 340.534 181.4 339.62 181.4ZM353.925 180.504L348.521 167.484H351.181L354.541 176.108C354.765 176.649 354.98 177.2 355.185 177.76C355.241 177.573 355.288 177.433 355.325 177.34C355.362 177.247 355.409 177.107 355.465 176.92C355.54 176.733 355.586 176.603 355.605 176.528C355.642 176.435 355.698 176.295 355.773 176.108L358.741 167.484H361.261L354.009 186.804H351.461L353.925 180.504ZM369.092 181.4C367.748 181.4 366.581 181.12 365.592 180.56C364.621 180 363.865 179.179 363.324 178.096C362.801 177.013 362.54 175.707 362.54 174.176C362.54 172.813 362.811 171.591 363.352 170.508C363.912 169.425 364.677 168.576 365.648 167.96C366.637 167.344 367.739 167.036 368.952 167.036C370.277 167.036 371.407 167.335 372.34 167.932C373.273 168.511 373.983 169.341 374.468 170.424C374.953 171.488 375.196 172.748 375.196 174.204V174.68H364.948C364.967 175.688 365.153 176.556 365.508 177.284C365.881 178.012 366.376 178.572 366.992 178.964C367.627 179.337 368.336 179.524 369.12 179.524C370.035 179.524 370.819 179.319 371.472 178.908C372.125 178.479 372.527 177.779 372.676 176.808H375.056C374.963 177.648 374.683 178.413 374.216 179.104C373.749 179.795 373.077 180.355 372.2 180.784C371.341 181.195 370.305 181.4 369.092 181.4ZM372.62 172.972C372.62 171.74 372.293 170.76 371.64 170.032C371.005 169.304 370.109 168.94 368.952 168.94C367.851 168.94 366.945 169.323 366.236 170.088C365.527 170.853 365.125 171.815 365.032 172.972H372.62ZM378.502 167.484H380.91V168.072C380.91 168.613 380.91 169.164 380.91 169.724C381.264 168.921 381.806 168.277 382.534 167.792C383.28 167.288 384.148 167.036 385.138 167.036C385.399 167.036 385.604 167.045 385.754 167.064V169.444C385.492 169.407 385.24 169.388 384.998 169.388C384.12 169.388 383.374 169.556 382.758 169.892C382.16 170.209 381.703 170.704 381.386 171.376C381.068 172.029 380.91 172.851 380.91 173.84V180.98H378.502V167.484ZM373.26 221.4C372.401 221.4 371.617 221.232 370.908 220.896C370.198 220.56 369.638 220.084 369.228 219.468C368.817 218.833 368.612 218.105 368.612 217.284C368.612 216.071 369.022 215.119 369.844 214.428C370.684 213.737 371.766 213.289 373.092 213.084L375.976 212.636C376.48 212.561 376.834 212.421 377.04 212.216C377.245 212.011 377.348 211.703 377.348 211.292C377.348 210.564 377.096 209.995 376.592 209.584C376.088 209.155 375.434 208.94 374.632 208.94C373.624 208.94 372.849 209.192 372.308 209.696C371.766 210.181 371.477 210.853 371.44 211.712H369.032C369.069 210.872 369.302 210.097 369.732 209.388C370.161 208.679 370.777 208.109 371.58 207.68C372.401 207.251 373.353 207.036 374.436 207.036C375.537 207.036 376.48 207.241 377.264 207.652C378.066 208.063 378.673 208.651 379.084 209.416C379.494 210.181 379.7 211.087 379.7 212.132V220.98H377.404V220.308C377.404 219.916 377.404 219.533 377.404 219.16C377.068 219.869 376.536 220.42 375.808 220.812C375.098 221.204 374.249 221.4 373.26 221.4ZM373.596 219.524C374.305 219.524 374.94 219.375 375.5 219.076C376.078 218.759 376.526 218.329 376.844 217.788C377.18 217.228 377.348 216.593 377.348 215.884V213.896C377.273 214.027 377.105 214.139 376.844 214.232C376.601 214.325 376.274 214.409 375.864 214.484L373.904 214.848C373.045 215.016 372.364 215.296 371.86 215.688C371.356 216.08 371.104 216.612 371.104 217.284C371.104 217.956 371.337 218.497 371.804 218.908C372.289 219.319 372.886 219.524 373.596 219.524ZM388.321 221.204C387.201 221.204 386.277 220.896 385.549 220.28C384.84 219.645 384.485 218.628 384.485 217.228V209.472H381.965V207.484H384.485V203.032H386.893V207.484H389.693V209.472H386.893V216.976C386.893 217.723 387.061 218.255 387.397 218.572C387.752 218.889 388.246 219.048 388.881 219.048C389.161 219.048 389.497 219.02 389.889 218.964V221.036C389.646 221.092 389.394 221.129 389.133 221.148C388.872 221.185 388.601 221.204 388.321 221.204ZM403.798 221.204C402.678 221.204 401.754 220.896 401.026 220.28C400.316 219.645 399.962 218.628 399.962 217.228V209.472H397.442V207.484H399.962V203.032H402.37V207.484H405.169V209.472H402.37V216.976C402.37 217.723 402.538 218.255 402.874 218.572C403.228 218.889 403.723 219.048 404.358 219.048C404.638 219.048 404.974 219.02 405.366 218.964V221.036C405.123 221.092 404.871 221.129 404.61 221.148C404.348 221.185 404.078 221.204 403.798 221.204ZM408.252 201.38H410.66V208.156C410.66 208.324 410.66 208.492 410.66 208.66C410.66 208.809 410.66 208.921 410.66 208.996C410.66 209.052 410.66 209.155 410.66 209.304C411.033 208.632 411.593 208.091 412.34 207.68C413.086 207.251 413.908 207.036 414.804 207.036C415.83 207.036 416.717 207.251 417.464 207.68C418.21 208.091 418.78 208.707 419.172 209.528C419.582 210.349 419.788 211.329 419.788 212.468V220.98H417.38V212.776C417.38 211.469 417.137 210.508 416.652 209.892C416.166 209.257 415.392 208.94 414.328 208.94C413.581 208.94 412.928 209.117 412.368 209.472C411.826 209.827 411.406 210.303 411.108 210.9C410.809 211.497 410.66 212.151 410.66 212.86V220.98H408.252V201.38ZM429.44 221.4C428.096 221.4 426.929 221.12 425.94 220.56C424.969 220 424.213 219.179 423.672 218.096C423.149 217.013 422.888 215.707 422.888 214.176C422.888 212.813 423.158 211.591 423.7 210.508C424.26 209.425 425.025 208.576 425.996 207.96C426.985 207.344 428.086 207.036 429.3 207.036C430.625 207.036 431.754 207.335 432.688 207.932C433.621 208.511 434.33 209.341 434.816 210.424C435.301 211.488 435.544 212.748 435.544 214.204V214.68H425.296C425.314 215.688 425.501 216.556 425.856 217.284C426.229 218.012 426.724 218.572 427.34 218.964C427.974 219.337 428.684 219.524 429.468 219.524C430.382 219.524 431.166 219.319 431.82 218.908C432.473 218.479 432.874 217.779 433.024 216.808H435.404C435.31 217.648 435.03 218.413 434.564 219.104C434.097 219.795 433.425 220.355 432.548 220.784C431.689 221.195 430.653 221.4 429.44 221.4ZM432.968 212.972C432.968 211.74 432.641 210.76 431.988 210.032C431.353 209.304 430.457 208.94 429.3 208.94C428.198 208.94 427.293 209.323 426.584 210.088C425.874 210.853 425.473 211.815 425.38 212.972H432.968ZM127.949 261.4C126.381 261.4 125 261.129 123.805 260.588C122.61 260.047 121.686 259.272 121.033 258.264C120.38 257.237 120.044 256.043 120.025 254.68H122.629C122.685 255.613 122.937 256.425 123.385 257.116C123.852 257.807 124.477 258.339 125.261 258.712C126.045 259.085 126.95 259.272 127.977 259.272C129.564 259.272 130.786 258.955 131.645 258.32C132.522 257.667 132.961 256.799 132.961 255.716C132.961 254.839 132.625 254.157 131.953 253.672C131.3 253.168 130.338 252.767 129.069 252.468L126.157 251.796C124.533 251.423 123.217 250.788 122.209 249.892C121.201 248.977 120.697 247.811 120.697 246.392C120.697 245.347 121.005 244.413 121.621 243.592C122.237 242.752 123.086 242.099 124.169 241.632C125.27 241.165 126.502 240.932 127.865 240.932C129.265 240.932 130.497 241.175 131.561 241.66C132.644 242.145 133.493 242.836 134.109 243.732C134.725 244.628 135.07 245.673 135.145 246.868H132.541C132.485 246.103 132.252 245.44 131.841 244.88C131.449 244.301 130.908 243.863 130.217 243.564C129.526 243.247 128.724 243.088 127.809 243.088C126.969 243.088 126.213 243.219 125.541 243.48C124.869 243.741 124.337 244.105 123.945 244.572C123.572 245.039 123.385 245.571 123.385 246.168C123.385 247.008 123.665 247.689 124.225 248.212C124.785 248.735 125.644 249.127 126.801 249.388L130.273 250.172C131.934 250.564 133.241 251.208 134.193 252.104C135.164 252.981 135.649 254.129 135.649 255.548C135.649 256.631 135.332 257.62 134.697 258.516C134.081 259.393 133.194 260.093 132.037 260.616C130.88 261.139 129.517 261.4 127.949 261.4ZM144.545 261.4C143.201 261.4 142.034 261.12 141.045 260.56C140.074 260 139.318 259.179 138.777 258.096C138.254 257.013 137.993 255.707 137.993 254.176C137.993 252.813 138.264 251.591 138.805 250.508C139.365 249.425 140.13 248.576 141.101 247.96C142.09 247.344 143.192 247.036 144.405 247.036C145.73 247.036 146.86 247.335 147.793 247.932C148.726 248.511 149.436 249.341 149.921 250.424C150.406 251.488 150.649 252.748 150.649 254.204V254.68H140.401C140.42 255.688 140.606 256.556 140.961 257.284C141.334 258.012 141.829 258.572 142.445 258.964C143.08 259.337 143.789 259.524 144.573 259.524C145.488 259.524 146.272 259.319 146.925 258.908C147.578 258.479 147.98 257.779 148.129 256.808H150.509C150.416 257.648 150.136 258.413 149.669 259.104C149.202 259.795 148.53 260.355 147.653 260.784C146.794 261.195 145.758 261.4 144.545 261.4ZM148.073 252.972C148.073 251.74 147.746 250.76 147.093 250.032C146.458 249.304 145.562 248.94 144.405 248.94C143.304 248.94 142.398 249.323 141.689 250.088C140.98 250.853 140.578 251.815 140.485 252.972H148.073ZM153.955 241.38H156.363V260.98H153.955V241.38ZM153.955 241.38H155.159V243.368H153.955V241.38ZM153.955 258.992H156.363V260.98H153.955V258.992ZM160.517 241.38H162.925V260.98H160.517V241.38ZM160.517 241.38H161.721V243.368H160.517V241.38ZM160.517 258.992H162.925V260.98H160.517V258.992ZM172.764 261.4C171.42 261.4 170.253 261.12 169.264 260.56C168.293 260 167.537 259.179 166.996 258.096C166.473 257.013 166.212 255.707 166.212 254.176C166.212 252.813 166.482 251.591 167.024 250.508C167.584 249.425 168.349 248.576 169.32 247.96C170.309 247.344 171.41 247.036 172.624 247.036C173.949 247.036 175.078 247.335 176.012 247.932C176.945 248.511 177.654 249.341 178.14 250.424C178.625 251.488 178.868 252.748 178.868 254.204V254.68H168.62C168.638 255.688 168.825 256.556 169.18 257.284C169.553 258.012 170.048 258.572 170.664 258.964C171.298 259.337 172.008 259.524 172.792 259.524C173.706 259.524 174.49 259.319 175.144 258.908C175.797 258.479 176.198 257.779 176.348 256.808H178.728C178.634 257.648 178.354 258.413 177.888 259.104C177.421 259.795 176.749 260.355 175.872 260.784C175.013 261.195 173.977 261.4 172.764 261.4ZM176.292 252.972C176.292 251.74 175.965 250.76 175.312 250.032C174.677 249.304 173.781 248.94 172.624 248.94C171.522 248.94 170.617 249.323 169.908 250.088C169.198 250.853 168.797 251.815 168.704 252.972H176.292ZM182.174 247.484H184.582V248.072C184.582 248.613 184.582 249.164 184.582 249.724C184.936 248.921 185.478 248.277 186.206 247.792C186.952 247.288 187.82 247.036 188.81 247.036C189.071 247.036 189.276 247.045 189.426 247.064V249.444C189.164 249.407 188.912 249.388 188.67 249.388C187.792 249.388 187.046 249.556 186.43 249.892C185.832 250.209 185.375 250.704 185.058 251.376C184.74 252.029 184.582 252.851 184.582 253.84V260.98H182.174V247.484ZM191.293 243.788V241.38H193.505V243.788L193.001 247.652H191.797L191.293 243.788ZM200.55 261.4C199.355 261.4 198.329 261.195 197.47 260.784C196.611 260.373 195.949 259.804 195.482 259.076C195.015 258.348 194.773 257.499 194.754 256.528H197.106C197.143 257.461 197.461 258.199 198.058 258.74C198.674 259.263 199.514 259.524 200.578 259.524C201.511 259.524 202.258 259.328 202.818 258.936C203.397 258.525 203.686 257.984 203.686 257.312C203.686 256.771 203.49 256.332 203.098 255.996C202.725 255.641 202.137 255.389 201.334 255.24L199.29 254.848C198.002 254.605 196.994 254.157 196.266 253.504C195.538 252.851 195.174 252.02 195.174 251.012C195.174 250.247 195.398 249.565 195.846 248.968C196.294 248.371 196.91 247.904 197.694 247.568C198.497 247.213 199.402 247.036 200.41 247.036C201.493 247.036 202.426 247.213 203.21 247.568C203.994 247.904 204.601 248.399 205.03 249.052C205.478 249.687 205.73 250.461 205.786 251.376H203.406C203.313 250.573 202.986 249.967 202.426 249.556C201.885 249.145 201.157 248.94 200.242 248.94C199.439 248.94 198.795 249.117 198.31 249.472C197.825 249.827 197.582 250.293 197.582 250.872C197.582 251.395 197.769 251.805 198.142 252.104C198.515 252.403 199.094 252.627 199.878 252.776L201.978 253.168C203.266 253.411 204.265 253.849 204.974 254.484C205.702 255.119 206.066 255.977 206.066 257.06C206.066 257.863 205.842 258.6 205.394 259.272C204.946 259.925 204.302 260.448 203.462 260.84C202.641 261.213 201.67 261.4 200.55 261.4ZM217.006 249.472H214.458V247.484H217.006V244.992C217.006 243.723 217.379 242.733 218.126 242.024C218.872 241.296 219.787 240.932 220.87 240.932C221.131 240.932 221.383 240.96 221.626 241.016C221.887 241.053 222.092 241.109 222.242 241.184V243.228C221.738 243.172 221.448 243.144 221.374 243.144C220.739 243.144 220.254 243.321 219.918 243.676C219.582 244.012 219.414 244.507 219.414 245.16V247.484H222.214V249.472H219.414V260.98H217.006V249.472ZM228.338 261.4C227.479 261.4 226.695 261.232 225.986 260.896C225.276 260.56 224.716 260.084 224.306 259.468C223.895 258.833 223.69 258.105 223.69 257.284C223.69 256.071 224.1 255.119 224.922 254.428C225.762 253.737 226.844 253.289 228.17 253.084L231.054 252.636C231.558 252.561 231.912 252.421 232.118 252.216C232.323 252.011 232.426 251.703 232.426 251.292C232.426 250.564 232.174 249.995 231.67 249.584C231.166 249.155 230.512 248.94 229.71 248.94C228.702 248.94 227.927 249.192 227.386 249.696C226.844 250.181 226.555 250.853 226.518 251.712H224.11C224.147 250.872 224.38 250.097 224.81 249.388C225.239 248.679 225.855 248.109 226.658 247.68C227.479 247.251 228.431 247.036 229.514 247.036C230.615 247.036 231.558 247.241 232.342 247.652C233.144 248.063 233.751 248.651 234.162 249.416C234.572 250.181 234.778 251.087 234.778 252.132V260.98H232.482V260.308C232.482 259.916 232.482 259.533 232.482 259.16C232.146 259.869 231.614 260.42 230.886 260.812C230.176 261.204 229.327 261.4 228.338 261.4ZM228.674 259.524C229.383 259.524 230.018 259.375 230.578 259.076C231.156 258.759 231.604 258.329 231.922 257.788C232.258 257.228 232.426 256.593 232.426 255.884V253.896C232.351 254.027 232.183 254.139 231.922 254.232C231.679 254.325 231.352 254.409 230.942 254.484L228.982 254.848C228.123 255.016 227.442 255.296 226.938 255.688C226.434 256.08 226.182 256.612 226.182 257.284C226.182 257.956 226.415 258.497 226.882 258.908C227.367 259.319 227.964 259.524 228.674 259.524ZM244.572 261.4C243.321 261.4 242.182 261.129 241.156 260.588C240.148 260.047 239.345 259.235 238.748 258.152C238.169 257.069 237.88 255.753 237.88 254.204C237.88 252.804 238.178 251.563 238.776 250.48C239.373 249.397 240.185 248.557 241.212 247.96C242.257 247.344 243.414 247.036 244.684 247.036C245.748 247.036 246.709 247.241 247.568 247.652C248.426 248.063 249.117 248.641 249.64 249.388C250.162 250.135 250.47 251.012 250.564 252.02H248.072C247.96 251.105 247.596 250.368 246.98 249.808C246.382 249.229 245.598 248.94 244.628 248.94C243.788 248.94 243.041 249.173 242.388 249.64C241.753 250.088 241.258 250.713 240.904 251.516C240.549 252.319 240.372 253.215 240.372 254.204C240.372 255.268 240.549 256.201 240.904 257.004C241.258 257.807 241.762 258.432 242.416 258.88C243.069 259.309 243.825 259.524 244.684 259.524C245.673 259.524 246.485 259.253 247.12 258.712C247.754 258.171 248.137 257.415 248.268 256.444H250.648C250.554 257.433 250.256 258.301 249.752 259.048C249.266 259.795 248.585 260.373 247.708 260.784C246.83 261.195 245.785 261.4 244.572 261.4ZM253.732 247.484H256.14V260.98H253.732V247.484ZM253.732 258.992H256.14V260.98H253.732V258.992ZM253.732 247.484H254.936V249.472H253.732V247.484ZM253.508 242.052H256.308V244.936H253.508V242.052ZM260.295 241.38H262.703V260.98H260.295V241.38ZM260.295 241.38H261.499V243.368H260.295V241.38ZM260.295 258.992H262.703V260.98H260.295V258.992ZM266.857 247.484H269.265V260.98H266.857V247.484ZM266.857 258.992H269.265V260.98H266.857V258.992ZM266.857 247.484H268.061V249.472H266.857V247.484ZM266.633 242.052H269.433V244.936H266.633V242.052ZM278.208 261.204C277.088 261.204 276.164 260.896 275.436 260.28C274.726 259.645 274.372 258.628 274.372 257.228V249.472H271.852V247.484H274.372V243.032H276.78V247.484H279.58V249.472H276.78V256.976C276.78 257.723 276.948 258.255 277.284 258.572C277.638 258.889 278.133 259.048 278.768 259.048C279.048 259.048 279.384 259.02 279.776 258.964V261.036C279.533 261.092 279.281 261.129 279.02 261.148C278.758 261.185 278.488 261.204 278.208 261.204ZM286.659 260.504L281.255 247.484H283.915L287.275 256.108C287.499 256.649 287.714 257.2 287.919 257.76C287.975 257.573 288.022 257.433 288.059 257.34C288.097 257.247 288.143 257.107 288.199 256.92C288.274 256.733 288.321 256.603 288.339 256.528C288.377 256.435 288.433 256.295 288.507 256.108L291.475 247.484H293.995L286.743 266.804H284.195L286.659 260.504ZM294.851 257.732H298.043V260.98H294.851V257.732Z" fill="#0F0E0D"></path>
<path d="M394.59 161.38H407.358V163.508H397.138V169.92H406.882V172.076H397.138V180.98H394.59V161.38ZM418.815 181.4C417.06 181.4 415.474 180.98 414.055 180.14C412.655 179.281 411.544 178.077 410.723 176.528C409.92 174.979 409.519 173.196 409.519 171.18C409.519 169.164 409.92 167.381 410.723 165.832C411.544 164.283 412.655 163.079 414.055 162.22C415.474 161.361 417.06 160.932 418.815 160.932C420.588 160.932 422.175 161.361 423.575 162.22C424.994 163.079 426.104 164.283 426.907 165.832C427.71 167.381 428.111 169.164 428.111 171.18C428.111 173.196 427.7 174.979 426.879 176.528C426.076 178.077 424.966 179.281 423.547 180.14C422.147 180.98 420.57 181.4 418.815 181.4ZM418.815 179.272C420.14 179.272 421.298 178.945 422.287 178.292C423.276 177.639 424.042 176.705 424.583 175.492C425.143 174.26 425.423 172.823 425.423 171.18C425.423 169.537 425.143 168.109 424.583 166.896C424.042 165.664 423.267 164.721 422.259 164.068C421.27 163.415 420.122 163.088 418.815 163.088C417.527 163.088 416.379 163.415 415.371 164.068C414.382 164.721 413.607 165.664 413.047 166.896C412.487 168.109 412.207 169.537 412.207 171.18C412.207 172.823 412.478 174.26 413.019 175.492C413.579 176.705 414.354 177.639 415.343 178.292C416.332 178.945 417.49 179.272 418.815 179.272ZM431.942 161.38H439.586C441.49 161.38 443.002 161.791 444.122 162.612C445.242 163.433 445.802 164.665 445.802 166.308C445.802 167.335 445.485 168.24 444.85 169.024C444.234 169.789 443.459 170.321 442.526 170.62C443.702 170.993 444.617 171.6 445.27 172.44C445.942 173.261 446.278 174.269 446.278 175.464C446.278 176.845 445.942 177.947 445.27 178.768C444.598 179.571 443.711 180.14 442.61 180.476C441.509 180.812 440.258 180.98 438.858 180.98H431.942V161.38ZM439.278 178.824C440.79 178.824 441.901 178.535 442.61 177.956C443.319 177.377 443.674 176.5 443.674 175.324C443.674 174.223 443.329 173.364 442.638 172.748C441.947 172.113 440.79 171.796 439.166 171.796H434.49V178.824H439.278ZM439.222 169.64C440.062 169.64 440.781 169.519 441.378 169.276C441.975 169.033 442.423 168.679 442.722 168.212C443.039 167.727 443.198 167.157 443.198 166.504C443.198 165.571 442.89 164.843 442.274 164.32C441.677 163.779 440.725 163.508 439.418 163.508H434.49V169.64H439.222ZM459.315 184.396C458.233 182.959 457.355 181.241 456.683 179.244C456.011 177.247 455.675 175.025 455.675 172.58C455.675 170.079 456.03 167.811 456.739 165.776C457.449 163.723 458.363 161.977 459.483 160.54H461.723C460.585 162.369 459.698 164.245 459.063 166.168C458.447 168.072 458.139 170.2 458.139 172.552C458.139 174.923 458.447 177.069 459.063 178.992C459.698 180.915 460.585 182.781 461.723 184.592H459.483L459.315 184.396ZM464.836 161.38H477.604V163.508H467.384V169.92H477.128V172.076H467.384V180.98H464.836V161.38ZM480.357 167.484H482.765V168.072C482.765 168.613 482.765 169.164 482.765 169.724C483.12 168.921 483.661 168.277 484.389 167.792C485.136 167.288 486.004 167.036 486.993 167.036C487.254 167.036 487.46 167.045 487.609 167.064V169.444C487.348 169.407 487.096 169.388 486.853 169.388C485.976 169.388 485.229 169.556 484.613 169.892C484.016 170.209 483.558 170.704 483.241 171.376C482.924 172.029 482.765 172.851 482.765 173.84V180.98H480.357V167.484ZM495.42 181.4C494.076 181.4 492.909 181.12 491.92 180.56C490.949 180 490.193 179.179 489.652 178.096C489.129 177.013 488.868 175.707 488.868 174.176C488.868 172.813 489.139 171.591 489.68 170.508C490.24 169.425 491.005 168.576 491.976 167.96C492.965 167.344 494.067 167.036 495.28 167.036C496.605 167.036 497.735 167.335 498.668 167.932C499.601 168.511 500.311 169.341 500.796 170.424C501.281 171.488 501.524 172.748 501.524 174.204V174.68H491.276C491.295 175.688 491.481 176.556 491.836 177.284C492.209 178.012 492.704 178.572 493.32 178.964C493.955 179.337 494.664 179.524 495.448 179.524C496.363 179.524 497.147 179.319 497.8 178.908C498.453 178.479 498.855 177.779 499.004 176.808H501.384C501.291 177.648 501.011 178.413 500.544 179.104C500.077 179.795 499.405 180.355 498.528 180.784C497.669 181.195 496.633 181.4 495.42 181.4ZM498.948 172.972C498.948 171.74 498.621 170.76 497.968 170.032C497.333 169.304 496.437 168.94 495.28 168.94C494.179 168.94 493.273 169.323 492.564 170.088C491.855 170.853 491.453 171.815 491.36 172.972H498.948ZM510.514 181.4C509.17 181.4 508.003 181.12 507.014 180.56C506.043 180 505.287 179.179 504.746 178.096C504.223 177.013 503.962 175.707 503.962 174.176C503.962 172.813 504.232 171.591 504.774 170.508C505.334 169.425 506.099 168.576 507.07 167.96C508.059 167.344 509.16 167.036 510.374 167.036C511.699 167.036 512.828 167.335 513.762 167.932C514.695 168.511 515.404 169.341 515.89 170.424C516.375 171.488 516.618 172.748 516.618 174.204V174.68H506.37C506.388 175.688 506.575 176.556 506.93 177.284C507.303 178.012 507.798 178.572 508.414 178.964C509.048 179.337 509.758 179.524 510.542 179.524C511.456 179.524 512.24 179.319 512.894 178.908C513.547 178.479 513.948 177.779 514.098 176.808H516.478C516.384 177.648 516.104 178.413 515.638 179.104C515.171 179.795 514.499 180.355 513.622 180.784C512.763 181.195 511.727 181.4 510.514 181.4ZM514.042 172.972C514.042 171.74 513.715 170.76 513.062 170.032C512.427 169.304 511.531 168.94 510.374 168.94C509.272 168.94 508.367 169.323 507.658 170.088C506.948 170.853 506.547 171.815 506.454 172.972H514.042ZM126.801 221.4C125.513 221.4 124.365 221.101 123.357 220.504C122.349 219.907 121.565 219.067 121.005 217.984C120.445 216.883 120.165 215.623 120.165 214.204C120.165 212.823 120.445 211.591 121.005 210.508C121.565 209.407 122.349 208.557 123.357 207.96C124.365 207.344 125.513 207.036 126.801 207.036C128.07 207.036 129.209 207.344 130.217 207.96C131.225 208.557 132.009 209.407 132.569 210.508C133.148 211.591 133.437 212.823 133.437 214.204C133.437 215.623 133.148 216.883 132.569 217.984C132.009 219.067 131.225 219.907 130.217 220.504C129.209 221.101 128.07 221.4 126.801 221.4ZM126.801 219.524C127.641 219.524 128.369 219.3 128.985 218.852C129.62 218.404 130.105 217.779 130.441 216.976C130.777 216.173 130.945 215.249 130.945 214.204C130.945 212.617 130.562 211.348 129.797 210.396C129.05 209.425 128.052 208.94 126.801 208.94C125.98 208.94 125.252 209.164 124.617 209.612C123.982 210.041 123.497 210.657 123.161 211.46C122.825 212.244 122.657 213.159 122.657 214.204C122.657 215.809 123.03 217.097 123.777 218.068C124.524 219.039 125.532 219.524 126.801 219.524ZM136.701 207.484H139.081V208.408C139.081 208.707 139.081 209.005 139.081 209.304C139.473 208.669 140.052 208.137 140.817 207.708C141.582 207.26 142.394 207.036 143.253 207.036C144.28 207.036 145.166 207.251 145.913 207.68C146.66 208.091 147.229 208.707 147.621 209.528C148.032 210.349 148.237 211.329 148.237 212.468V220.98H145.829V212.776C145.829 211.469 145.596 210.508 145.129 209.892C144.662 209.257 143.906 208.94 142.861 208.94C142.096 208.94 141.424 209.117 140.845 209.472C140.285 209.827 139.856 210.303 139.557 210.9C139.258 211.497 139.109 212.151 139.109 212.86V220.98H136.701V207.484ZM159.297 201.38H166.941C168.845 201.38 170.357 201.791 171.477 202.612C172.597 203.433 173.157 204.665 173.157 206.308C173.157 207.335 172.84 208.24 172.205 209.024C171.589 209.789 170.815 210.321 169.881 210.62C171.057 210.993 171.972 211.6 172.625 212.44C173.297 213.261 173.633 214.269 173.633 215.464C173.633 216.845 173.297 217.947 172.625 218.768C171.953 219.571 171.067 220.14 169.965 220.476C168.864 220.812 167.613 220.98 166.213 220.98H159.297V201.38ZM166.633 218.824C168.145 218.824 169.256 218.535 169.965 217.956C170.675 217.377 171.029 216.5 171.029 215.324C171.029 214.223 170.684 213.364 169.993 212.748C169.303 212.113 168.145 211.796 166.521 211.796H161.845V218.824H166.633ZM166.577 209.64C167.417 209.64 168.136 209.519 168.733 209.276C169.331 209.033 169.779 208.679 170.077 208.212C170.395 207.727 170.553 207.157 170.553 206.504C170.553 205.571 170.245 204.843 169.629 204.32C169.032 203.779 168.08 203.508 166.773 203.508H161.845V209.64H166.577ZM182.91 221.4C181.622 221.4 180.474 221.101 179.466 220.504C178.458 219.907 177.674 219.067 177.114 217.984C176.554 216.883 176.274 215.623 176.274 214.204C176.274 212.823 176.554 211.591 177.114 210.508C177.674 209.407 178.458 208.557 179.466 207.96C180.474 207.344 181.622 207.036 182.91 207.036C184.18 207.036 185.318 207.344 186.326 207.96C187.334 208.557 188.118 209.407 188.678 210.508C189.257 211.591 189.546 212.823 189.546 214.204C189.546 215.623 189.257 216.883 188.678 217.984C188.118 219.067 187.334 219.907 186.326 220.504C185.318 221.101 184.18 221.4 182.91 221.4ZM182.91 219.524C183.75 219.524 184.478 219.3 185.094 218.852C185.729 218.404 186.214 217.779 186.55 216.976C186.886 216.173 187.054 215.249 187.054 214.204C187.054 212.617 186.672 211.348 185.906 210.396C185.16 209.425 184.161 208.94 182.91 208.94C182.089 208.94 181.361 209.164 180.726 209.612C180.092 210.041 179.606 210.657 179.27 211.46C178.934 212.244 178.766 213.159 178.766 214.204C178.766 215.809 179.14 217.097 179.886 218.068C180.633 219.039 181.641 219.524 182.91 219.524ZM196.646 221.4C195.788 221.4 195.004 221.232 194.294 220.896C193.585 220.56 193.025 220.084 192.614 219.468C192.204 218.833 191.998 218.105 191.998 217.284C191.998 216.071 192.409 215.119 193.23 214.428C194.07 213.737 195.153 213.289 196.478 213.084L199.362 212.636C199.866 212.561 200.221 212.421 200.426 212.216C200.632 212.011 200.734 211.703 200.734 211.292C200.734 210.564 200.482 209.995 199.978 209.584C199.474 209.155 198.821 208.94 198.018 208.94C197.01 208.94 196.236 209.192 195.694 209.696C195.153 210.181 194.864 210.853 194.826 211.712H192.418C192.456 210.872 192.689 210.097 193.118 209.388C193.548 208.679 194.164 208.109 194.966 207.68C195.788 207.251 196.74 207.036 197.822 207.036C198.924 207.036 199.866 207.241 200.65 207.652C201.453 208.063 202.06 208.651 202.47 209.416C202.881 210.181 203.086 211.087 203.086 212.132V220.98H200.79V220.308C200.79 219.916 200.79 219.533 200.79 219.16C200.454 219.869 199.922 220.42 199.194 220.812C198.485 221.204 197.636 221.4 196.646 221.4ZM196.982 219.524C197.692 219.524 198.326 219.375 198.886 219.076C199.465 218.759 199.913 218.329 200.23 217.788C200.566 217.228 200.734 216.593 200.734 215.884V213.896C200.66 214.027 200.492 214.139 200.23 214.232C199.988 214.325 199.661 214.409 199.25 214.484L197.29 214.848C196.432 215.016 195.75 215.296 195.246 215.688C194.742 216.08 194.49 216.612 194.49 217.284C194.49 217.956 194.724 218.497 195.19 218.908C195.676 219.319 196.273 219.524 196.982 219.524ZM207.056 207.484H209.464V208.072C209.464 208.613 209.464 209.164 209.464 209.724C209.819 208.921 210.36 208.277 211.088 207.792C211.835 207.288 212.703 207.036 213.692 207.036C213.954 207.036 214.159 207.045 214.308 207.064V209.444C214.047 209.407 213.795 209.388 213.552 209.388C212.675 209.388 211.928 209.556 211.312 209.892C210.715 210.209 210.258 210.704 209.94 211.376C209.623 212.029 209.464 212.851 209.464 213.84V220.98H207.056V207.484ZM221.811 221.4C220.616 221.4 219.552 221.12 218.619 220.56C217.685 220 216.948 219.179 216.407 218.096C215.865 217.013 215.595 215.725 215.595 214.232C215.595 212.869 215.847 211.647 216.351 210.564C216.873 209.463 217.611 208.604 218.563 207.988C219.515 207.353 220.616 207.036 221.867 207.036C222.893 207.036 223.78 207.269 224.527 207.736C225.292 208.184 225.852 208.707 226.207 209.304C226.207 208.931 226.207 208.567 226.207 208.212V201.38H228.615V220.98H226.207V220.196C226.207 219.823 226.207 219.459 226.207 219.104C225.833 219.757 225.245 220.308 224.443 220.756C223.659 221.185 222.781 221.4 221.811 221.4ZM222.231 219.524C223.033 219.524 223.743 219.309 224.359 218.88C224.993 218.432 225.488 217.807 225.843 217.004C226.197 216.201 226.375 215.268 226.375 214.204C226.375 212.617 225.992 211.348 225.227 210.396C224.461 209.425 223.463 208.94 222.231 208.94C221.428 208.94 220.709 209.164 220.075 209.612C219.459 210.041 218.973 210.657 218.619 211.46C218.264 212.263 218.087 213.187 218.087 214.232C218.087 215.277 218.255 216.201 218.591 217.004C218.945 217.807 219.431 218.432 220.047 218.88C220.681 219.309 221.409 219.524 222.231 219.524ZM233.684 200.736C234.766 202.173 235.644 203.891 236.316 205.888C236.988 207.885 237.324 210.107 237.324 212.552C237.324 215.053 236.969 217.331 236.26 219.384C235.55 221.419 234.636 223.155 233.516 224.592H231.276C232.414 222.763 233.292 220.896 233.908 218.992C234.542 217.069 234.86 214.932 234.86 212.58C234.86 210.209 234.542 208.063 233.908 206.14C233.292 204.217 232.414 202.351 231.276 200.54H233.516L233.684 200.736Z" fill="#E12B1B"></path>
<path d="M247.809 201.38H260.549V203.508H250.357V209.92H260.101V212.076H250.357V218.824H260.885V220.98H247.809V201.38ZM267.812 214.064L263.024 207.484H265.964L268.596 211.376C268.838 211.712 269.081 212.057 269.324 212.412C269.548 212.076 269.772 211.74 269.996 211.404L272.684 207.484H275.484L270.584 214.064L275.68 220.98H272.768L269.912 216.808L269.8 216.612C269.594 216.313 269.38 216.015 269.156 215.716C268.913 216.071 268.67 216.435 268.428 216.808L265.544 220.98H262.744L267.812 214.064ZM282.514 201.38H285.146L288.954 215.632C289.122 216.192 289.327 216.948 289.57 217.9C289.644 217.62 289.719 217.349 289.794 217.088C289.868 216.827 289.943 216.575 290.018 216.332C290.092 216.089 290.158 215.856 290.214 215.632L294.05 201.38H297.242L301.022 215.632C301.246 216.379 301.451 217.144 301.638 217.928C301.843 217.163 302.048 216.397 302.254 215.632L306.146 201.38H308.638L303.318 220.98H300.21L296.318 206.308C296.28 206.14 296.234 205.972 296.178 205.804C296.084 205.449 295.991 205.104 295.898 204.768C295.804 204.413 295.711 204.059 295.618 203.704C295.487 204.245 295.347 204.796 295.198 205.356C295.123 205.673 295.039 205.991 294.946 206.308L290.97 220.98H287.834L282.514 201.38ZM316.129 221.4C314.841 221.4 313.693 221.101 312.685 220.504C311.677 219.907 310.893 219.067 310.333 217.984C309.773 216.883 309.493 215.623 309.493 214.204C309.493 212.823 309.773 211.591 310.333 210.508C310.893 209.407 311.677 208.557 312.685 207.96C313.693 207.344 314.841 207.036 316.129 207.036C317.398 207.036 318.537 207.344 319.545 207.96C320.553 208.557 321.337 209.407 321.897 210.508C322.476 211.591 322.765 212.823 322.765 214.204C322.765 215.623 322.476 216.883 321.897 217.984C321.337 219.067 320.553 219.907 319.545 220.504C318.537 221.101 317.398 221.4 316.129 221.4ZM316.129 219.524C316.969 219.524 317.697 219.3 318.313 218.852C318.948 218.404 319.433 217.779 319.769 216.976C320.105 216.173 320.273 215.249 320.273 214.204C320.273 212.617 319.89 211.348 319.125 210.396C318.378 209.425 317.38 208.94 316.129 208.94C315.308 208.94 314.58 209.164 313.945 209.612C313.31 210.041 312.825 210.657 312.489 211.46C312.153 212.244 311.985 213.159 311.985 214.204C311.985 215.809 312.358 217.097 313.105 218.068C313.852 219.039 314.86 219.524 316.129 219.524ZM326.029 207.484H328.437V208.072C328.437 208.613 328.437 209.164 328.437 209.724C328.792 208.921 329.333 208.277 330.061 207.792C330.808 207.288 331.676 207.036 332.665 207.036C332.926 207.036 333.132 207.045 333.281 207.064V209.444C333.02 209.407 332.768 209.388 332.525 209.388C331.648 209.388 330.901 209.556 330.285 209.892C329.688 210.209 329.23 210.704 328.913 211.376C328.596 212.029 328.437 212.851 328.437 213.84V220.98H326.029V207.484ZM335.736 201.38H338.144V213.224C338.48 212.851 338.835 212.496 339.208 212.16L343.8 207.484H346.824L338.144 215.968V220.98H335.736V201.38ZM339.04 214.512L340.692 212.916L347.608 220.98H344.332L339.04 214.512ZM353.976 221.4C352.781 221.4 351.755 221.195 350.896 220.784C350.037 220.373 349.375 219.804 348.908 219.076C348.441 218.348 348.199 217.499 348.18 216.528H350.532C350.569 217.461 350.887 218.199 351.484 218.74C352.1 219.263 352.94 219.524 354.004 219.524C354.937 219.524 355.684 219.328 356.244 218.936C356.823 218.525 357.112 217.984 357.112 217.312C357.112 216.771 356.916 216.332 356.524 215.996C356.151 215.641 355.563 215.389 354.76 215.24L352.716 214.848C351.428 214.605 350.42 214.157 349.692 213.504C348.964 212.851 348.6 212.02 348.6 211.012C348.6 210.247 348.824 209.565 349.272 208.968C349.72 208.371 350.336 207.904 351.12 207.568C351.923 207.213 352.828 207.036 353.836 207.036C354.919 207.036 355.852 207.213 356.636 207.568C357.42 207.904 358.027 208.399 358.456 209.052C358.904 209.687 359.156 210.461 359.212 211.376H356.832C356.739 210.573 356.412 209.967 355.852 209.556C355.311 209.145 354.583 208.94 353.668 208.94C352.865 208.94 352.221 209.117 351.736 209.472C351.251 209.827 351.008 210.293 351.008 210.872C351.008 211.395 351.195 211.805 351.568 212.104C351.941 212.403 352.52 212.627 353.304 212.776L355.404 213.168C356.692 213.411 357.691 213.849 358.4 214.484C359.128 215.119 359.492 215.977 359.492 217.06C359.492 217.863 359.268 218.6 358.82 219.272C358.372 219.925 357.728 220.448 356.888 220.84C356.067 221.213 355.096 221.4 353.976 221.4Z" fill="#1470CC"></path>
<path d="M392.07 174.26H408.366V175.66H392.07V174.26ZM408.203 174.26H429.427V175.66H408.203V174.26ZM429.422 174.26H478.612V175.66H429.422V174.26ZM478.285 174.26H488.001V175.66H478.285V174.26ZM487.664 174.26H517.852V175.66H487.664V174.26ZM118.961 214.26H134.641V215.66H118.961V214.26ZM134.629 214.26H150.141V215.66H134.629V214.26ZM150.133 214.26H190.75V215.66H150.133V214.26ZM190.738 214.26H204.99V215.66H190.738V214.26ZM204.984 214.26H214.7V215.66H204.984V214.26ZM214.391 214.26H238.645V215.66H214.391V214.26Z" fill="#E12B1B"></path>
<path d="M128.145 383.928C126.502 383.928 125.065 383.648 123.833 383.088C122.601 382.528 121.649 381.725 120.977 380.68C120.305 379.616 119.932 378.384 119.857 376.984H123.049C123.105 377.88 123.366 378.655 123.833 379.308C124.3 379.961 124.906 380.465 125.653 380.82C126.418 381.156 127.277 381.324 128.229 381.324C129.629 381.324 130.721 381.053 131.505 380.512C132.308 379.971 132.709 379.205 132.709 378.216C132.709 377.395 132.41 376.751 131.813 376.284C131.216 375.817 130.32 375.463 129.125 375.22L126.017 374.548C124.393 374.212 123.077 373.587 122.069 372.672C121.061 371.739 120.557 370.544 120.557 369.088C120.557 367.987 120.874 367.007 121.509 366.148C122.144 365.289 123.021 364.617 124.141 364.132C125.261 363.647 126.53 363.404 127.949 363.404C129.442 363.404 130.749 363.665 131.869 364.188C132.989 364.692 133.857 365.411 134.473 366.344C135.089 367.259 135.434 368.341 135.509 369.592H132.317C132.28 368.883 132.084 368.267 131.729 367.744C131.374 367.203 130.861 366.783 130.189 366.484C129.536 366.167 128.752 366.008 127.837 366.008C127.053 366.008 126.344 366.129 125.709 366.372C125.093 366.596 124.608 366.923 124.253 367.352C123.898 367.763 123.721 368.248 123.721 368.808C123.721 369.592 123.992 370.208 124.533 370.656C125.093 371.085 125.942 371.421 127.081 371.664L130.469 372.364C132.112 372.719 133.418 373.353 134.389 374.268C135.378 375.183 135.873 376.377 135.873 377.852C135.873 379.009 135.565 380.045 134.949 380.96C134.333 381.875 133.446 382.603 132.289 383.144C131.132 383.667 129.75 383.928 128.145 383.928ZM138.967 363.88H141.879V370.544C141.879 370.749 141.869 370.927 141.851 371.076C141.851 371.207 141.841 371.328 141.823 371.44C141.823 371.533 141.823 371.655 141.823 371.804C142.215 371.095 142.765 370.525 143.475 370.096C144.184 369.667 145.024 369.452 145.995 369.452C147.003 369.452 147.871 369.676 148.599 370.124C149.345 370.553 149.915 371.179 150.307 372C150.699 372.821 150.895 373.792 150.895 374.912V383.48H147.983V375.304C147.983 374.147 147.749 373.269 147.283 372.672C146.816 372.056 146.116 371.748 145.183 371.748C144.529 371.748 143.951 371.916 143.447 372.252C142.943 372.569 142.551 373.008 142.271 373.568C142.009 374.128 141.879 374.744 141.879 375.416V383.48H138.967V363.88ZM160.544 383.928C159.219 383.928 158.034 383.639 156.988 383.06C155.962 382.463 155.159 381.623 154.58 380.54C154.02 379.439 153.74 378.16 153.74 376.704C153.74 375.285 154.03 374.025 154.608 372.924C155.187 371.823 155.99 370.973 157.016 370.376C158.043 369.76 159.219 369.452 160.544 369.452C161.851 369.452 163.018 369.76 164.044 370.376C165.09 370.973 165.902 371.823 166.48 372.924C167.078 374.025 167.376 375.285 167.376 376.704C167.376 378.16 167.078 379.439 166.48 380.54C165.902 381.623 165.09 382.463 164.044 383.06C163.018 383.639 161.851 383.928 160.544 383.928ZM160.544 381.66C161.328 381.66 162.01 381.464 162.588 381.072C163.167 380.661 163.615 380.083 163.932 379.336C164.25 378.589 164.408 377.712 164.408 376.704C164.408 375.173 164.054 373.969 163.344 373.092C162.635 372.196 161.702 371.748 160.544 371.748C159.779 371.748 159.107 371.953 158.528 372.364C157.95 372.756 157.502 373.325 157.184 374.072C156.867 374.819 156.708 375.696 156.708 376.704C156.708 378.235 157.054 379.448 157.744 380.344C158.435 381.221 159.368 381.66 160.544 381.66ZM168.624 369.9H171.676L174.392 379.532C174.523 380.073 174.616 380.512 174.672 380.848C174.859 380.195 174.98 379.756 175.036 379.532L177.64 369.9H181.392L184.108 379.532C184.127 379.625 184.146 379.719 184.164 379.812C184.276 380.279 184.351 380.615 184.388 380.82C184.463 380.559 184.528 380.297 184.584 380.036C184.64 379.849 184.687 379.672 184.724 379.504L187.412 369.9H190.268L186.096 383.48H182.596L179.852 373.708C179.722 373.111 179.619 372.663 179.544 372.364C179.507 372.532 179.46 372.737 179.404 372.98C179.367 373.129 179.33 373.26 179.292 373.372C179.274 373.465 179.246 373.577 179.208 373.708L176.464 383.48H172.908L168.624 369.9ZM204.539 383.928C203.177 383.928 201.991 383.648 200.983 383.088C199.975 382.509 199.191 381.679 198.631 380.596C198.071 379.513 197.791 378.197 197.791 376.648C197.791 375.267 198.071 374.035 198.631 372.952C199.21 371.851 200.003 370.992 201.011 370.376C202.019 369.76 203.149 369.452 204.399 369.452C205.743 369.452 206.891 369.751 207.843 370.348C208.814 370.945 209.551 371.795 210.055 372.896C210.559 373.979 210.811 375.248 210.811 376.704V377.32H200.731C200.731 378.197 200.899 378.963 201.235 379.616C201.571 380.269 202.019 380.773 202.579 381.128C203.158 381.483 203.811 381.66 204.539 381.66C205.398 381.66 206.117 381.455 206.695 381.044C207.293 380.633 207.657 380.008 207.787 379.168H210.699C210.606 380.064 210.307 380.876 209.803 381.604C209.299 382.313 208.59 382.883 207.675 383.312C206.779 383.723 205.734 383.928 204.539 383.928ZM207.787 375.248C207.769 374.165 207.461 373.297 206.863 372.644C206.266 371.991 205.445 371.664 204.399 371.664C203.391 371.664 202.551 372.009 201.879 372.7C201.226 373.372 200.853 374.221 200.759 375.248H207.787ZM219.293 383.928C218.08 383.928 217.006 383.657 216.073 383.116C215.14 382.556 214.402 381.735 213.861 380.652C213.32 379.551 213.049 378.244 213.049 376.732C213.049 375.257 213.32 373.979 213.861 372.896C214.421 371.795 215.177 370.945 216.129 370.348C217.081 369.751 218.154 369.452 219.349 369.452C220.357 369.452 221.225 369.676 221.953 370.124C222.681 370.572 223.241 371.132 223.633 371.804C223.596 371.431 223.577 371.02 223.577 370.572V363.88H226.461V383.48H223.577V382.808C223.577 382.341 223.596 381.94 223.633 381.604C223.278 382.257 222.718 382.808 221.953 383.256C221.206 383.704 220.32 383.928 219.293 383.928ZM219.881 381.66C220.628 381.66 221.29 381.455 221.869 381.044C222.466 380.633 222.924 380.055 223.241 379.308C223.577 378.543 223.745 377.675 223.745 376.704C223.745 375.211 223.39 374.016 222.681 373.12C221.972 372.205 221.038 371.748 219.881 371.748C219.153 371.748 218.49 371.963 217.893 372.392C217.314 372.803 216.857 373.381 216.521 374.128C216.185 374.875 216.017 375.733 216.017 376.704C216.017 377.693 216.176 378.561 216.493 379.308C216.829 380.055 217.286 380.633 217.865 381.044C218.462 381.455 219.134 381.66 219.881 381.66ZM230.295 369.9H233.207V383.48H230.295V369.9ZM230.295 381.128H233.207V383.48H230.295V381.128ZM230.295 369.9H231.751V372.252H230.295V369.9ZM230.155 364.356H233.319V367.576H230.155V364.356ZM242.425 383.704C241.137 383.704 240.12 383.368 239.373 382.696C238.645 382.005 238.281 380.932 238.281 379.476V372.252H235.481V369.9H238.281V365.224H241.193V369.9H244.273V372.252H241.193V379.112C241.193 379.859 241.361 380.409 241.697 380.764C242.033 381.1 242.537 381.268 243.209 381.268C243.527 381.268 243.863 381.24 244.217 381.184V383.508C244.012 383.564 243.741 383.611 243.405 383.648C243.088 383.685 242.761 383.704 242.425 383.704ZM252.07 383.928C250.838 383.928 249.765 383.723 248.85 383.312C247.954 382.901 247.254 382.323 246.75 381.576C246.265 380.811 245.994 379.924 245.938 378.916H248.85C248.888 379.793 249.177 380.484 249.718 380.988C250.278 381.492 251.053 381.744 252.042 381.744C252.882 381.744 253.564 381.567 254.086 381.212C254.609 380.839 254.87 380.353 254.87 379.756C254.87 379.252 254.684 378.851 254.31 378.552C253.937 378.253 253.358 378.029 252.574 377.88L250.698 377.516C249.336 377.255 248.281 376.788 247.534 376.116C246.788 375.444 246.414 374.576 246.414 373.512C246.414 372.747 246.638 372.056 247.086 371.44C247.553 370.824 248.197 370.339 249.018 369.984C249.84 369.629 250.773 369.452 251.818 369.452C252.976 369.452 253.974 369.639 254.814 370.012C255.654 370.385 256.308 370.908 256.774 371.58C257.241 372.252 257.493 373.055 257.53 373.988H254.646C254.572 373.26 254.273 372.691 253.75 372.28C253.246 371.869 252.574 371.664 251.734 371.664C251.006 371.664 250.418 371.823 249.97 372.14C249.522 372.439 249.298 372.849 249.298 373.372C249.298 373.857 249.466 374.231 249.802 374.492C250.157 374.753 250.745 374.968 251.566 375.136L253.442 375.5C254.805 375.761 255.86 376.219 256.606 376.872C257.353 377.525 257.726 378.412 257.726 379.532C257.726 380.353 257.493 381.1 257.026 381.772C256.56 382.444 255.897 382.976 255.038 383.368C254.198 383.741 253.209 383.928 252.07 383.928Z" fill="#0F0E0D"></path>
<rect x="561.961" y="387.814" width="60" height="26.6667" rx="13.3333" transform="rotate(-180 561.961 387.814)" fill="#0F0E0D" stroke="#0F0E0D" stroke-width="5"></rect>
<circle cx="548.628" cy="374.48" r="13.3333" transform="rotate(-180 548.628 374.48)" fill="white" stroke="#0F0E0D" stroke-width="5"></circle>
</svg>
