<svg xmlns="http://www.w3.org/2000/svg" fill="none" viewBox="0 0 675 507" height="507" width="675">
<rect fill="#CCCAC6" transform="translate(0 0.25)" height="506.25" width="675"></rect>
<rect fill="white" rx="14" height="280" width="495" y="113" x="90"></rect>
<rect fill="#F3F3F1" rx="20" height="40" width="40" y="137" x="114"></rect>
<g clip-path="url(#clip0_2322_1668)">
<path fill="#100F0C" d="M143.311 165.333H134.977L137.428 162.883V158.471H130.566V162.883L133.017 165.333H124.683L127.134 162.883V151.118L124.683 148.667H133.017L130.566 151.118V155.53H137.428V151.118L134.977 148.667H143.311L140.86 151.118V162.883L143.311 165.333Z"></path>
</g>
<path fill="#8F8C85" d="M170.3 149H172.18L174.9 159.18C175.02 159.58 175.167 160.12 175.34 160.8C175.393 160.6 175.447 160.407 175.5 160.22C175.553 160.033 175.607 159.853 175.66 159.68C175.713 159.507 175.76 159.34 175.8 159.18L178.54 149H180.82L183.52 159.18C183.68 159.713 183.827 160.26 183.96 160.82C184.107 160.273 184.253 159.727 184.4 159.18L187.18 149H188.96L185.16 163H182.94L180.16 152.52C180.133 152.4 180.1 152.28 180.06 152.16C179.993 151.907 179.927 151.66 179.86 151.42C179.793 151.167 179.727 150.913 179.66 150.66C179.567 151.047 179.467 151.44 179.36 151.84C179.307 152.067 179.247 152.293 179.18 152.52L176.34 163H174.1L170.3 149ZM194.311 163.3C193.391 163.3 192.571 163.087 191.851 162.66C191.131 162.233 190.571 161.633 190.171 160.86C189.771 160.073 189.571 159.173 189.571 158.16C189.571 157.173 189.771 156.293 190.171 155.52C190.571 154.733 191.131 154.127 191.851 153.7C192.571 153.26 193.391 153.04 194.311 153.04C195.218 153.04 196.031 153.26 196.751 153.7C197.471 154.127 198.031 154.733 198.431 155.52C198.844 156.293 199.051 157.173 199.051 158.16C199.051 159.173 198.844 160.073 198.431 160.86C198.031 161.633 197.471 162.233 196.751 162.66C196.031 163.087 195.218 163.3 194.311 163.3ZM194.311 161.96C194.911 161.96 195.431 161.8 195.871 161.48C196.324 161.16 196.671 160.713 196.911 160.14C197.151 159.567 197.271 158.907 197.271 158.16C197.271 157.027 196.998 156.12 196.451 155.44C195.918 154.747 195.204 154.4 194.311 154.4C193.724 154.4 193.204 154.56 192.751 154.88C192.298 155.187 191.951 155.627 191.711 156.2C191.471 156.76 191.351 157.413 191.351 158.16C191.351 159.307 191.618 160.227 192.151 160.92C192.684 161.613 193.404 161.96 194.311 161.96ZM201.382 153.36H203.102V153.78C203.102 154.167 203.102 154.56 203.102 154.96C203.356 154.387 203.742 153.927 204.262 153.58C204.796 153.22 205.416 153.04 206.122 153.04C206.309 153.04 206.456 153.047 206.562 153.06V154.76C206.376 154.733 206.196 154.72 206.022 154.72C205.396 154.72 204.862 154.84 204.422 155.08C203.996 155.307 203.669 155.66 203.442 156.14C203.216 156.607 203.102 157.193 203.102 157.9V163H201.382V153.36ZM208.316 149H210.036V157.46C210.276 157.193 210.529 156.94 210.796 156.7L214.076 153.36H216.236L210.036 159.42V163H208.316V149ZM210.676 158.38L211.856 157.24L216.796 163H214.456L210.676 158.38ZM218.121 153.36H219.841V163H218.121V153.36ZM218.121 161.58H219.841V163H218.121V161.58ZM218.121 153.36H218.981V154.78H218.121V153.36ZM217.961 149.48H219.961V151.54H217.961V149.48ZM222.808 153.36H224.508V154.02C224.508 154.233 224.508 154.447 224.508 154.66C224.788 154.207 225.201 153.827 225.748 153.52C226.295 153.2 226.875 153.04 227.488 153.04C228.221 153.04 228.855 153.193 229.388 153.5C229.921 153.793 230.328 154.233 230.608 154.82C230.901 155.407 231.048 156.107 231.048 156.92V163H229.328V157.14C229.328 156.207 229.161 155.52 228.828 155.08C228.495 154.627 227.955 154.4 227.208 154.4C226.661 154.4 226.181 154.527 225.768 154.78C225.368 155.033 225.061 155.373 224.848 155.8C224.635 156.227 224.528 156.693 224.528 157.2V163H222.808V153.36ZM237.902 167.46C237.062 167.46 236.322 167.313 235.682 167.02C235.056 166.727 234.569 166.313 234.222 165.78C233.876 165.247 233.702 164.627 233.702 163.92H235.402C235.402 164.573 235.629 165.1 236.082 165.5C236.536 165.913 237.149 166.12 237.922 166.12C238.842 166.12 239.556 165.867 240.062 165.36C240.569 164.867 240.822 164.12 240.822 163.12V161.94C240.822 161.727 240.822 161.513 240.822 161.3C240.569 161.793 240.156 162.187 239.582 162.48C239.009 162.76 238.369 162.9 237.662 162.9C236.782 162.9 236.009 162.7 235.342 162.3C234.689 161.9 234.182 161.333 233.822 160.6C233.462 159.853 233.282 158.987 233.282 158C233.282 157.027 233.476 156.167 233.862 155.42C234.249 154.66 234.776 154.073 235.442 153.66C236.122 153.247 236.882 153.04 237.722 153.04C238.456 153.04 239.082 153.2 239.602 153.52C240.122 153.827 240.529 154.207 240.822 154.66C240.822 154.393 240.822 154.133 240.822 153.88V153.36H242.542V162.52C242.542 164.173 242.156 165.407 241.382 166.22C240.609 167.047 239.449 167.46 237.902 167.46ZM238.002 161.56C238.576 161.56 239.082 161.413 239.522 161.12C239.976 160.827 240.322 160.413 240.562 159.88C240.816 159.333 240.942 158.707 240.942 158C240.942 157.307 240.816 156.687 240.562 156.14C240.309 155.593 239.956 155.167 239.502 154.86C239.062 154.553 238.562 154.4 238.002 154.4C237.429 154.4 236.916 154.553 236.462 154.86C236.022 155.153 235.676 155.573 235.422 156.12C235.182 156.667 235.062 157.293 235.062 158C235.062 158.707 235.182 159.333 235.422 159.88C235.676 160.413 236.022 160.827 236.462 161.12C236.916 161.413 237.429 161.56 238.002 161.56ZM245.303 160.68H247.583V163H245.303V160.68ZM250.147 160.68H252.427V163H250.147V160.68ZM254.991 160.68H257.271V163H254.991V160.68Z"></path>
<path stroke-linejoin="round" stroke-linecap="round" stroke-width="1.66667" stroke="#8F8C85" d="M186.667 200L177.5 209.167L173.333 205"></path>
<path fill="#8F8C85" d="M201.8 197H207.66C208.567 197 209.353 197.16 210.02 197.48C210.7 197.787 211.22 198.233 211.58 198.82C211.94 199.393 212.12 200.06 212.12 200.82C212.12 201.58 211.933 202.247 211.56 202.82C211.2 203.38 210.68 203.82 210 204.14C209.32 204.447 208.513 204.6 207.58 204.6H206.8L207.12 204L212.34 211H210.02L205.46 204.64H203.62V211H201.8V197ZM207.3 203.1C208.26 203.1 208.993 202.913 209.5 202.54C210.007 202.153 210.26 201.58 210.26 200.82C210.26 200.06 210.007 199.487 209.5 199.1C208.993 198.713 208.26 198.52 207.3 198.52H203.62V203.1H207.3ZM218.196 211.3C217.236 211.3 216.403 211.1 215.696 210.7C215.003 210.3 214.463 209.713 214.076 208.94C213.703 208.167 213.516 207.233 213.516 206.14C213.516 205.167 213.71 204.293 214.096 203.52C214.496 202.747 215.043 202.14 215.736 201.7C216.443 201.26 217.23 201.04 218.096 201.04C219.043 201.04 219.85 201.253 220.516 201.68C221.183 202.093 221.69 202.687 222.036 203.46C222.383 204.22 222.556 205.12 222.556 206.16V206.5H215.236C215.25 207.22 215.383 207.84 215.636 208.36C215.903 208.88 216.256 209.28 216.696 209.56C217.15 209.827 217.656 209.96 218.216 209.96C218.87 209.96 219.43 209.813 219.896 209.52C220.363 209.213 220.65 208.713 220.756 208.02H222.456C222.39 208.62 222.19 209.167 221.856 209.66C221.523 210.153 221.043 210.553 220.416 210.86C219.803 211.153 219.063 211.3 218.196 211.3ZM220.716 205.28C220.716 204.4 220.483 203.7 220.016 203.18C219.563 202.66 218.923 202.4 218.096 202.4C217.31 202.4 216.663 202.673 216.156 203.22C215.65 203.767 215.363 204.453 215.296 205.28H220.716ZM223.542 201.36H225.422L227.882 208.34C227.988 208.647 228.095 208.96 228.202 209.28C228.308 208.96 228.415 208.647 228.522 208.34L230.922 201.36H232.722L229.062 211H227.242L223.542 201.36ZM234.507 201.36H236.227V211H234.507V201.36ZM234.507 209.58H236.227V211H234.507V209.58ZM234.507 201.36H235.367V202.78H234.507V201.36ZM234.347 197.48H236.347V199.54H234.347V197.48ZM243.255 211.3C242.295 211.3 241.462 211.1 240.755 210.7C240.062 210.3 239.522 209.713 239.135 208.94C238.762 208.167 238.575 207.233 238.575 206.14C238.575 205.167 238.768 204.293 239.155 203.52C239.555 202.747 240.102 202.14 240.795 201.7C241.502 201.26 242.288 201.04 243.155 201.04C244.102 201.04 244.908 201.253 245.575 201.68C246.242 202.093 246.748 202.687 247.095 203.46C247.442 204.22 247.615 205.12 247.615 206.16V206.5H240.295C240.308 207.22 240.442 207.84 240.695 208.36C240.962 208.88 241.315 209.28 241.755 209.56C242.208 209.827 242.715 209.96 243.275 209.96C243.928 209.96 244.488 209.813 244.955 209.52C245.422 209.213 245.708 208.713 245.815 208.02H247.515C247.448 208.62 247.248 209.167 246.915 209.66C246.582 210.153 246.102 210.553 245.475 210.86C244.862 211.153 244.122 211.3 243.255 211.3ZM245.775 205.28C245.775 204.4 245.542 203.7 245.075 203.18C244.622 202.66 243.982 202.4 243.155 202.4C242.368 202.4 241.722 202.673 241.215 203.22C240.708 203.767 240.422 204.453 240.355 205.28H245.775ZM248.678 201.36H250.538L252.638 208.5C252.745 208.82 252.812 209.04 252.838 209.16C252.945 208.867 253.018 208.647 253.058 208.5L255.178 201.36H257.318L259.558 208.5C259.572 208.54 259.585 208.587 259.598 208.64C259.652 208.787 259.698 208.933 259.738 209.08C259.778 208.96 259.818 208.847 259.858 208.74C259.885 208.647 259.912 208.553 259.938 208.46L262.018 201.36H263.758L260.658 211H258.658L256.458 203.72C256.392 203.48 256.318 203.247 256.238 203.02C256.212 203.113 256.178 203.213 256.138 203.32C256.112 203.413 256.092 203.48 256.078 203.52C256.065 203.56 256.045 203.627 256.018 203.72L253.798 211H251.818L248.678 201.36ZM265.543 201.36H267.263V211H265.543V201.36ZM265.543 209.58H267.263V211H265.543V209.58ZM265.543 201.36H266.403V202.78H265.543V201.36ZM265.382 197.48H267.383V199.54H265.382V197.48ZM270.23 201.36H271.93V202.02C271.93 202.233 271.93 202.447 271.93 202.66C272.21 202.207 272.623 201.827 273.17 201.52C273.717 201.2 274.297 201.04 274.91 201.04C275.643 201.04 276.277 201.193 276.81 201.5C277.343 201.793 277.75 202.233 278.03 202.82C278.323 203.407 278.47 204.107 278.47 204.92V211H276.75V205.14C276.75 204.207 276.583 203.52 276.25 203.08C275.917 202.627 275.377 202.4 274.63 202.4C274.083 202.4 273.603 202.527 273.19 202.78C272.79 203.033 272.483 203.373 272.27 203.8C272.057 204.227 271.95 204.693 271.95 205.2V211H270.23V201.36ZM285.324 215.46C284.484 215.46 283.744 215.313 283.104 215.02C282.478 214.727 281.991 214.313 281.644 213.78C281.298 213.247 281.124 212.627 281.124 211.92H282.824C282.824 212.573 283.051 213.1 283.504 213.5C283.958 213.913 284.571 214.12 285.344 214.12C286.264 214.12 286.978 213.867 287.484 213.36C287.991 212.867 288.244 212.12 288.244 211.12V209.94C288.244 209.727 288.244 209.513 288.244 209.3C287.991 209.793 287.578 210.187 287.004 210.48C286.431 210.76 285.791 210.9 285.084 210.9C284.204 210.9 283.431 210.7 282.764 210.3C282.111 209.9 281.604 209.333 281.244 208.6C280.884 207.853 280.704 206.987 280.704 206C280.704 205.027 280.898 204.167 281.284 203.42C281.671 202.66 282.198 202.073 282.864 201.66C283.544 201.247 284.304 201.04 285.144 201.04C285.878 201.04 286.504 201.2 287.024 201.52C287.544 201.827 287.951 202.207 288.244 202.66C288.244 202.393 288.244 202.133 288.244 201.88V201.36H289.964V210.52C289.964 212.173 289.578 213.407 288.804 214.22C288.031 215.047 286.871 215.46 285.324 215.46ZM285.424 209.56C285.998 209.56 286.504 209.413 286.944 209.12C287.398 208.827 287.744 208.413 287.984 207.88C288.238 207.333 288.364 206.707 288.364 206C288.364 205.307 288.238 204.687 287.984 204.14C287.731 203.593 287.378 203.167 286.924 202.86C286.484 202.553 285.984 202.4 285.424 202.4C284.851 202.4 284.338 202.553 283.884 202.86C283.444 203.153 283.098 203.573 282.844 204.12C282.604 204.667 282.484 205.293 282.484 206C282.484 206.707 282.604 207.333 282.844 207.88C283.098 208.413 283.444 208.827 283.884 209.12C284.338 209.413 284.851 209.56 285.424 209.56ZM301.051 211.3C300.198 211.3 299.465 211.153 298.851 210.86C298.238 210.567 297.765 210.16 297.431 209.64C297.098 209.12 296.925 208.513 296.911 207.82H298.591C298.618 208.487 298.845 209.013 299.271 209.4C299.711 209.773 300.311 209.96 301.071 209.96C301.738 209.96 302.271 209.82 302.671 209.54C303.085 209.247 303.291 208.86 303.291 208.38C303.291 207.993 303.151 207.68 302.871 207.44C302.605 207.187 302.185 207.007 301.611 206.9L300.151 206.62C299.231 206.447 298.511 206.127 297.991 205.66C297.471 205.193 297.211 204.6 297.211 203.88C297.211 203.333 297.371 202.847 297.691 202.42C298.011 201.993 298.451 201.66 299.011 201.42C299.585 201.167 300.231 201.04 300.951 201.04C301.725 201.04 302.391 201.167 302.951 201.42C303.511 201.66 303.945 202.013 304.251 202.48C304.571 202.933 304.751 203.487 304.791 204.14H303.091C303.025 203.567 302.791 203.133 302.391 202.84C302.005 202.547 301.485 202.4 300.831 202.4C300.258 202.4 299.798 202.527 299.451 202.78C299.105 203.033 298.931 203.367 298.931 203.78C298.931 204.153 299.065 204.447 299.331 204.66C299.598 204.873 300.011 205.033 300.571 205.14L302.071 205.42C302.991 205.593 303.705 205.907 304.211 206.36C304.731 206.813 304.991 207.427 304.991 208.2C304.991 208.773 304.831 209.3 304.511 209.78C304.191 210.247 303.731 210.62 303.131 210.9C302.545 211.167 301.851 211.3 301.051 211.3ZM311.399 211.3C310.439 211.3 309.606 211.1 308.899 210.7C308.206 210.3 307.666 209.713 307.279 208.94C306.906 208.167 306.719 207.233 306.719 206.14C306.719 205.167 306.913 204.293 307.299 203.52C307.699 202.747 308.246 202.14 308.939 201.7C309.646 201.26 310.433 201.04 311.299 201.04C312.246 201.04 313.053 201.253 313.719 201.68C314.386 202.093 314.893 202.687 315.239 203.46C315.586 204.22 315.759 205.12 315.759 206.16V206.5H308.439C308.453 207.22 308.586 207.84 308.839 208.36C309.106 208.88 309.459 209.28 309.899 209.56C310.353 209.827 310.859 209.96 311.419 209.96C312.073 209.96 312.633 209.813 313.099 209.52C313.566 209.213 313.853 208.713 313.959 208.02H315.659C315.593 208.62 315.393 209.167 315.059 209.66C314.726 210.153 314.246 210.553 313.619 210.86C313.006 211.153 312.266 211.3 311.399 211.3ZM313.919 205.28C313.919 204.4 313.686 203.7 313.219 203.18C312.766 202.66 312.126 202.4 311.299 202.4C310.513 202.4 309.866 202.673 309.359 203.22C308.853 203.767 308.566 204.453 308.499 205.28H313.919ZM318.121 197H319.841V211H318.121V197ZM318.121 197H318.981V198.42H318.121V197ZM318.121 209.58H319.841V211H318.121V209.58ZM326.868 211.3C325.908 211.3 325.075 211.1 324.368 210.7C323.675 210.3 323.135 209.713 322.748 208.94C322.375 208.167 322.188 207.233 322.188 206.14C322.188 205.167 322.381 204.293 322.768 203.52C323.168 202.747 323.715 202.14 324.408 201.7C325.115 201.26 325.901 201.04 326.768 201.04C327.715 201.04 328.521 201.253 329.188 201.68C329.855 202.093 330.361 202.687 330.708 203.46C331.055 204.22 331.228 205.12 331.228 206.16V206.5H323.908C323.921 207.22 324.055 207.84 324.308 208.36C324.575 208.88 324.928 209.28 325.368 209.56C325.821 209.827 326.328 209.96 326.888 209.96C327.541 209.96 328.101 209.813 328.568 209.52C329.035 209.213 329.321 208.713 329.428 208.02H331.128C331.061 208.62 330.861 209.167 330.528 209.66C330.195 210.153 329.715 210.553 329.088 210.86C328.475 211.153 327.735 211.3 326.868 211.3ZM329.388 205.28C329.388 204.4 329.155 203.7 328.688 203.18C328.235 202.66 327.595 202.4 326.768 202.4C325.981 202.4 325.335 202.673 324.828 203.22C324.321 203.767 324.035 204.453 323.968 205.28H329.388ZM337.749 211.3C336.856 211.3 336.043 211.107 335.309 210.72C334.589 210.333 334.016 209.753 333.589 208.98C333.176 208.207 332.969 207.267 332.969 206.16C332.969 205.16 333.183 204.273 333.609 203.5C334.036 202.727 334.616 202.127 335.349 201.7C336.096 201.26 336.923 201.04 337.829 201.04C338.589 201.04 339.276 201.187 339.889 201.48C340.503 201.773 340.996 202.187 341.369 202.72C341.743 203.253 341.963 203.88 342.029 204.6H340.249C340.169 203.947 339.909 203.42 339.469 203.02C339.043 202.607 338.483 202.4 337.789 202.4C337.189 202.4 336.656 202.567 336.189 202.9C335.736 203.22 335.383 203.667 335.129 204.24C334.876 204.813 334.749 205.453 334.749 206.16C334.749 206.92 334.876 207.587 335.129 208.16C335.383 208.733 335.743 209.18 336.209 209.5C336.676 209.807 337.216 209.96 337.829 209.96C338.536 209.96 339.116 209.767 339.569 209.38C340.023 208.993 340.296 208.453 340.389 207.76H342.089C342.023 208.467 341.809 209.087 341.449 209.62C341.103 210.153 340.616 210.567 339.989 210.86C339.363 211.153 338.616 211.3 337.749 211.3ZM347.713 211.16C346.913 211.16 346.253 210.94 345.733 210.5C345.226 210.047 344.973 209.32 344.973 208.32V202.78H343.173V201.36H344.973V198.18H346.693V201.36H348.692V202.78H346.693V208.14C346.693 208.673 346.813 209.053 347.053 209.28C347.306 209.507 347.659 209.62 348.113 209.62C348.313 209.62 348.553 209.6 348.833 209.56V211.04C348.659 211.08 348.479 211.107 348.293 211.12C348.106 211.147 347.913 211.16 347.713 211.16ZM354.837 211.3C353.877 211.3 353.044 211.1 352.337 210.7C351.644 210.3 351.104 209.713 350.717 208.94C350.344 208.167 350.157 207.233 350.157 206.14C350.157 205.167 350.35 204.293 350.737 203.52C351.137 202.747 351.684 202.14 352.377 201.7C353.084 201.26 353.87 201.04 354.737 201.04C355.684 201.04 356.49 201.253 357.157 201.68C357.824 202.093 358.33 202.687 358.677 203.46C359.024 204.22 359.197 205.12 359.197 206.16V206.5H351.877C351.89 207.22 352.024 207.84 352.277 208.36C352.544 208.88 352.897 209.28 353.337 209.56C353.79 209.827 354.297 209.96 354.857 209.96C355.51 209.96 356.07 209.813 356.537 209.52C357.004 209.213 357.29 208.713 357.397 208.02H359.097C359.03 208.62 358.83 209.167 358.497 209.66C358.164 210.153 357.684 210.553 357.057 210.86C356.444 211.153 355.704 211.3 354.837 211.3ZM357.357 205.28C357.357 204.4 357.124 203.7 356.657 203.18C356.204 202.66 355.564 202.4 354.737 202.4C353.95 202.4 353.304 202.673 352.797 203.22C352.29 203.767 352.004 204.453 351.937 205.28H357.357ZM365.378 211.3C364.525 211.3 363.765 211.1 363.098 210.7C362.431 210.3 361.905 209.713 361.518 208.94C361.131 208.167 360.938 207.247 360.938 206.18C360.938 205.207 361.118 204.333 361.478 203.56C361.851 202.773 362.378 202.16 363.058 201.72C363.738 201.267 364.525 201.04 365.418 201.04C366.151 201.04 366.785 201.207 367.318 201.54C367.865 201.86 368.265 202.233 368.518 202.66C368.518 202.393 368.518 202.133 368.518 201.88V197H370.238V211H368.518V210.44C368.518 210.173 368.518 209.913 368.518 209.66C368.251 210.127 367.831 210.52 367.258 210.84C366.698 211.147 366.071 211.3 365.378 211.3ZM365.678 209.96C366.251 209.96 366.758 209.807 367.198 209.5C367.651 209.18 368.005 208.733 368.258 208.16C368.511 207.587 368.638 206.92 368.638 206.16C368.638 205.027 368.365 204.12 367.818 203.44C367.271 202.747 366.558 202.4 365.678 202.4C365.105 202.4 364.591 202.56 364.138 202.88C363.698 203.187 363.351 203.627 363.098 204.2C362.845 204.773 362.718 205.433 362.718 206.18C362.718 206.927 362.838 207.587 363.078 208.16C363.331 208.733 363.678 209.18 364.118 209.5C364.571 209.807 365.091 209.96 365.678 209.96ZM377.945 201.36H379.665V202.12C379.665 202.293 379.665 202.473 379.665 202.66C379.972 202.167 380.365 201.773 380.845 201.48C381.338 201.187 381.885 201.04 382.485 201.04C383.138 201.04 383.712 201.2 384.205 201.52C384.712 201.84 385.105 202.313 385.385 202.94C385.732 202.353 386.172 201.893 386.705 201.56C387.252 201.213 387.858 201.04 388.525 201.04C389.192 201.04 389.778 201.18 390.285 201.46C390.792 201.74 391.185 202.173 391.465 202.76C391.758 203.333 391.905 204.047 391.905 204.9V211H390.185V205.24C390.185 204.293 390.025 203.587 389.705 203.12C389.398 202.64 388.885 202.4 388.165 202.4C387.672 202.4 387.245 202.533 386.885 202.8C386.525 203.053 386.252 203.4 386.065 203.84C385.878 204.267 385.785 204.74 385.785 205.26V211H384.065V205.3C384.065 204.353 383.905 203.633 383.585 203.14C383.278 202.647 382.778 202.4 382.085 202.4C381.605 202.4 381.178 202.533 380.805 202.8C380.445 203.067 380.165 203.427 379.965 203.88C379.765 204.32 379.665 204.807 379.665 205.34V211H377.945V201.36ZM397.482 211.3C396.868 211.3 396.308 211.18 395.802 210.94C395.295 210.7 394.895 210.36 394.602 209.92C394.308 209.467 394.162 208.947 394.162 208.36C394.162 207.493 394.455 206.813 395.042 206.32C395.642 205.827 396.415 205.507 397.362 205.36L399.422 205.04C399.782 204.987 400.035 204.887 400.182 204.74C400.328 204.593 400.402 204.373 400.402 204.08C400.402 203.56 400.222 203.153 399.862 202.86C399.502 202.553 399.035 202.4 398.462 202.4C397.742 202.4 397.188 202.58 396.802 202.94C396.415 203.287 396.208 203.767 396.182 204.38H394.462C394.488 203.78 394.655 203.227 394.962 202.72C395.268 202.213 395.708 201.807 396.282 201.5C396.868 201.193 397.548 201.04 398.322 201.04C399.108 201.04 399.782 201.187 400.342 201.48C400.915 201.773 401.348 202.193 401.642 202.74C401.935 203.287 402.082 203.933 402.082 204.68V211H400.442V210.52C400.442 210.24 400.442 209.967 400.442 209.7C400.202 210.207 399.822 210.6 399.302 210.88C398.795 211.16 398.188 211.3 397.482 211.3ZM397.722 209.96C398.228 209.96 398.682 209.853 399.082 209.64C399.495 209.413 399.815 209.107 400.042 208.72C400.282 208.32 400.402 207.867 400.402 207.36V205.94C400.348 206.033 400.228 206.113 400.042 206.18C399.868 206.247 399.635 206.307 399.342 206.36L397.942 206.62C397.328 206.74 396.842 206.94 396.482 207.22C396.122 207.5 395.942 207.88 395.942 208.36C395.942 208.84 396.108 209.227 396.442 209.52C396.788 209.813 397.215 209.96 397.722 209.96ZM408.24 211.16C407.44 211.16 406.78 210.94 406.26 210.5C405.753 210.047 405.5 209.32 405.5 208.32V202.78H403.7V201.36H405.5V198.18H407.22V201.36H409.22V202.78H407.22V208.14C407.22 208.673 407.34 209.053 407.58 209.28C407.833 209.507 408.187 209.62 408.64 209.62C408.84 209.62 409.08 209.6 409.36 209.56V211.04C409.187 211.08 409.007 211.107 408.82 211.12C408.633 211.147 408.44 211.16 408.24 211.16ZM415.364 211.3C414.404 211.3 413.571 211.1 412.864 210.7C412.171 210.3 411.631 209.713 411.244 208.94C410.871 208.167 410.684 207.233 410.684 206.14C410.684 205.167 410.878 204.293 411.264 203.52C411.664 202.747 412.211 202.14 412.904 201.7C413.611 201.26 414.398 201.04 415.264 201.04C416.211 201.04 417.018 201.253 417.684 201.68C418.351 202.093 418.858 202.687 419.204 203.46C419.551 204.22 419.724 205.12 419.724 206.16V206.5H412.404C412.418 207.22 412.551 207.84 412.804 208.36C413.071 208.88 413.424 209.28 413.864 209.56C414.318 209.827 414.824 209.96 415.384 209.96C416.038 209.96 416.598 209.813 417.064 209.52C417.531 209.213 417.818 208.713 417.924 208.02H419.624C419.558 208.62 419.358 209.167 419.024 209.66C418.691 210.153 418.211 210.553 417.584 210.86C416.971 211.153 416.231 211.3 415.364 211.3ZM417.884 205.28C417.884 204.4 417.651 203.7 417.184 203.18C416.731 202.66 416.091 202.4 415.264 202.4C414.478 202.4 413.831 202.673 413.324 203.22C412.818 203.767 412.531 204.453 412.464 205.28H417.884ZM422.085 201.36H423.805V201.78C423.805 202.167 423.805 202.56 423.805 202.96C424.059 202.387 424.445 201.927 424.965 201.58C425.499 201.22 426.119 201.04 426.825 201.04C427.012 201.04 427.159 201.047 427.265 201.06V202.76C427.079 202.733 426.899 202.72 426.725 202.72C426.099 202.72 425.565 202.84 425.125 203.08C424.699 203.307 424.372 203.66 424.145 204.14C423.919 204.607 423.805 205.193 423.805 205.9V211H422.085V201.36ZM429.019 201.36H430.739V211H429.019V201.36ZM429.019 209.58H430.739V211H429.019V209.58ZM429.019 201.36H429.879V202.78H429.019V201.36ZM428.859 197.48H430.859V199.54H428.859V197.48ZM436.447 211.3C435.833 211.3 435.273 211.18 434.767 210.94C434.26 210.7 433.86 210.36 433.567 209.92C433.273 209.467 433.127 208.947 433.127 208.36C433.127 207.493 433.42 206.813 434.007 206.32C434.607 205.827 435.38 205.507 436.327 205.36L438.387 205.04C438.747 204.987 439 204.887 439.147 204.74C439.293 204.593 439.367 204.373 439.367 204.08C439.367 203.56 439.187 203.153 438.827 202.86C438.467 202.553 438 202.4 437.427 202.4C436.707 202.4 436.153 202.58 435.767 202.94C435.38 203.287 435.173 203.767 435.147 204.38H433.427C433.453 203.78 433.62 203.227 433.927 202.72C434.233 202.213 434.673 201.807 435.247 201.5C435.833 201.193 436.513 201.04 437.287 201.04C438.073 201.04 438.747 201.187 439.307 201.48C439.88 201.773 440.313 202.193 440.607 202.74C440.9 203.287 441.047 203.933 441.047 204.68V211H439.407V210.52C439.407 210.24 439.407 209.967 439.407 209.7C439.167 210.207 438.787 210.6 438.267 210.88C437.76 211.16 437.153 211.3 436.447 211.3ZM436.687 209.96C437.193 209.96 437.647 209.853 438.047 209.64C438.46 209.413 438.78 209.107 439.007 208.72C439.247 208.32 439.367 207.867 439.367 207.36V205.94C439.313 206.033 439.193 206.113 439.007 206.18C438.833 206.247 438.6 206.307 438.307 206.36L436.907 206.62C436.293 206.74 435.807 206.94 435.447 207.22C435.087 207.5 434.907 207.88 434.907 208.36C434.907 208.84 435.073 209.227 435.407 209.52C435.753 209.813 436.18 209.96 436.687 209.96ZM443.882 197H445.602V211H443.882V197ZM443.882 197H444.742V198.42H443.882V197ZM443.882 209.58H445.602V211H443.882V209.58ZM457.476 211.3C456.583 211.3 455.769 211.107 455.036 210.72C454.316 210.333 453.743 209.753 453.316 208.98C452.903 208.207 452.696 207.267 452.696 206.16C452.696 205.16 452.909 204.273 453.336 203.5C453.763 202.727 454.343 202.127 455.076 201.7C455.823 201.26 456.649 201.04 457.556 201.04C458.316 201.04 459.003 201.187 459.616 201.48C460.229 201.773 460.723 202.187 461.096 202.72C461.469 203.253 461.689 203.88 461.756 204.6H459.976C459.896 203.947 459.636 203.42 459.196 203.02C458.769 202.607 458.209 202.4 457.516 202.4C456.916 202.4 456.383 202.567 455.916 202.9C455.463 203.22 455.109 203.667 454.856 204.24C454.603 204.813 454.476 205.453 454.476 206.16C454.476 206.92 454.603 207.587 454.856 208.16C455.109 208.733 455.469 209.18 455.936 209.5C456.403 209.807 456.943 209.96 457.556 209.96C458.263 209.96 458.843 209.767 459.296 209.38C459.749 208.993 460.023 208.453 460.116 207.76H461.816C461.749 208.467 461.536 209.087 461.176 209.62C460.829 210.153 460.343 210.567 459.716 210.86C459.089 211.153 458.343 211.3 457.476 211.3ZM464.019 197H465.739V201.84C465.739 201.96 465.739 202.08 465.739 202.2C465.739 202.307 465.739 202.387 465.739 202.44C465.739 202.48 465.739 202.553 465.739 202.66C466.006 202.18 466.406 201.793 466.939 201.5C467.472 201.193 468.059 201.04 468.699 201.04C469.432 201.04 470.066 201.193 470.599 201.5C471.132 201.793 471.539 202.233 471.819 202.82C472.112 203.407 472.259 204.107 472.259 204.92V211H470.539V205.14C470.539 204.207 470.366 203.52 470.019 203.08C469.672 202.627 469.119 202.4 468.359 202.4C467.826 202.4 467.359 202.527 466.959 202.78C466.572 203.033 466.272 203.373 466.059 203.8C465.846 204.227 465.739 204.693 465.739 205.2V211H464.019V197ZM477.833 211.3C477.22 211.3 476.66 211.18 476.153 210.94C475.647 210.7 475.247 210.36 474.953 209.92C474.66 209.467 474.513 208.947 474.513 208.36C474.513 207.493 474.807 206.813 475.393 206.32C475.993 205.827 476.767 205.507 477.713 205.36L479.773 205.04C480.133 204.987 480.387 204.887 480.533 204.74C480.68 204.593 480.753 204.373 480.753 204.08C480.753 203.56 480.573 203.153 480.213 202.86C479.853 202.553 479.387 202.4 478.813 202.4C478.093 202.4 477.54 202.58 477.153 202.94C476.767 203.287 476.56 203.767 476.533 204.38H474.813C474.84 203.78 475.007 203.227 475.313 202.72C475.62 202.213 476.06 201.807 476.633 201.5C477.22 201.193 477.9 201.04 478.673 201.04C479.46 201.04 480.133 201.187 480.693 201.48C481.267 201.773 481.7 202.193 481.993 202.74C482.287 203.287 482.433 203.933 482.433 204.68V211H480.793V210.52C480.793 210.24 480.793 209.967 480.793 209.7C480.553 210.207 480.173 210.6 479.653 210.88C479.147 211.16 478.54 211.3 477.833 211.3ZM478.073 209.96C478.58 209.96 479.033 209.853 479.433 209.64C479.847 209.413 480.167 209.107 480.393 208.72C480.633 208.32 480.753 207.867 480.753 207.36V205.94C480.7 206.033 480.58 206.113 480.393 206.18C480.22 206.247 479.987 206.307 479.693 206.36L478.293 206.62C477.68 206.74 477.193 206.94 476.833 207.22C476.473 207.5 476.293 207.88 476.293 208.36C476.293 208.84 476.46 209.227 476.793 209.52C477.14 209.813 477.567 209.96 478.073 209.96ZM485.269 201.36H486.969V202.02C486.969 202.233 486.969 202.447 486.969 202.66C487.249 202.207 487.662 201.827 488.209 201.52C488.756 201.2 489.336 201.04 489.949 201.04C490.682 201.04 491.316 201.193 491.849 201.5C492.382 201.793 492.789 202.233 493.069 202.82C493.362 203.407 493.509 204.107 493.509 204.92V211H491.789V205.14C491.789 204.207 491.622 203.52 491.289 203.08C490.956 202.627 490.416 202.4 489.669 202.4C489.122 202.4 488.642 202.527 488.229 202.78C487.829 203.033 487.522 203.373 487.309 203.8C487.096 204.227 486.989 204.693 486.989 205.2V211H485.269V201.36ZM500.363 215.46C499.523 215.46 498.783 215.313 498.143 215.02C497.517 214.727 497.03 214.313 496.683 213.78C496.337 213.247 496.163 212.627 496.163 211.92H497.863C497.863 212.573 498.09 213.1 498.543 213.5C498.997 213.913 499.61 214.12 500.383 214.12C501.303 214.12 502.017 213.867 502.523 213.36C503.03 212.867 503.283 212.12 503.283 211.12V209.94C503.283 209.727 503.283 209.513 503.283 209.3C503.03 209.793 502.617 210.187 502.043 210.48C501.47 210.76 500.83 210.9 500.123 210.9C499.243 210.9 498.47 210.7 497.803 210.3C497.15 209.9 496.643 209.333 496.283 208.6C495.923 207.853 495.743 206.987 495.743 206C495.743 205.027 495.937 204.167 496.323 203.42C496.71 202.66 497.237 202.073 497.903 201.66C498.583 201.247 499.343 201.04 500.183 201.04C500.917 201.04 501.543 201.2 502.063 201.52C502.583 201.827 502.99 202.207 503.283 202.66C503.283 202.393 503.283 202.133 503.283 201.88V201.36H505.003V210.52C505.003 212.173 504.617 213.407 503.843 214.22C503.07 215.047 501.91 215.46 500.363 215.46ZM500.463 209.56C501.037 209.56 501.543 209.413 501.983 209.12C502.437 208.827 502.783 208.413 503.023 207.88C503.277 207.333 503.403 206.707 503.403 206C503.403 205.307 503.277 204.687 503.023 204.14C502.77 203.593 502.417 203.167 501.963 202.86C501.523 202.553 501.023 202.4 500.463 202.4C499.89 202.4 499.377 202.553 498.923 202.86C498.483 203.153 498.137 203.573 497.883 204.12C497.643 204.667 497.523 205.293 497.523 206C497.523 206.707 497.643 207.333 497.883 207.88C498.137 208.413 498.483 208.827 498.923 209.12C499.377 209.413 499.89 209.56 500.463 209.56ZM512.024 211.3C511.064 211.3 510.231 211.1 509.524 210.7C508.831 210.3 508.291 209.713 507.904 208.94C507.531 208.167 507.344 207.233 507.344 206.14C507.344 205.167 507.538 204.293 507.924 203.52C508.324 202.747 508.871 202.14 509.564 201.7C510.271 201.26 511.058 201.04 511.924 201.04C512.871 201.04 513.678 201.253 514.344 201.68C515.011 202.093 515.518 202.687 515.864 203.46C516.211 204.22 516.384 205.12 516.384 206.16V206.5H509.064C509.078 207.22 509.211 207.84 509.464 208.36C509.731 208.88 510.084 209.28 510.524 209.56C510.978 209.827 511.484 209.96 512.044 209.96C512.698 209.96 513.258 209.813 513.724 209.52C514.191 209.213 514.478 208.713 514.584 208.02H516.284C516.218 208.62 516.018 209.167 515.684 209.66C515.351 210.153 514.871 210.553 514.244 210.86C513.631 211.153 512.891 211.3 512.024 211.3ZM514.544 205.28C514.544 204.4 514.311 203.7 513.844 203.18C513.391 202.66 512.751 202.4 511.924 202.4C511.138 202.4 510.491 202.673 509.984 203.22C509.478 203.767 509.191 204.453 509.124 205.28H514.544ZM522.126 211.3C521.272 211.3 520.539 211.153 519.926 210.86C519.312 210.567 518.839 210.16 518.506 209.64C518.172 209.12 517.999 208.513 517.986 207.82H519.666C519.692 208.487 519.919 209.013 520.346 209.4C520.786 209.773 521.386 209.96 522.146 209.96C522.812 209.96 523.346 209.82 523.746 209.54C524.159 209.247 524.366 208.86 524.366 208.38C524.366 207.993 524.226 207.68 523.946 207.44C523.679 207.187 523.259 207.007 522.686 206.9L521.226 206.62C520.306 206.447 519.586 206.127 519.066 205.66C518.546 205.193 518.286 204.6 518.286 203.88C518.286 203.333 518.446 202.847 518.766 202.42C519.086 201.993 519.526 201.66 520.086 201.42C520.659 201.167 521.306 201.04 522.026 201.04C522.799 201.04 523.466 201.167 524.026 201.42C524.586 201.66 525.019 202.013 525.326 202.48C525.646 202.933 525.826 203.487 525.866 204.14H524.166C524.099 203.567 523.866 203.133 523.466 202.84C523.079 202.547 522.559 202.4 521.906 202.4C521.332 202.4 520.872 202.527 520.526 202.78C520.179 203.033 520.006 203.367 520.006 203.78C520.006 204.153 520.139 204.447 520.406 204.66C520.672 204.873 521.086 205.033 521.646 205.14L523.146 205.42C524.066 205.593 524.779 205.907 525.286 206.36C525.806 206.813 526.066 207.427 526.066 208.2C526.066 208.773 525.906 209.3 525.586 209.78C525.266 210.247 524.806 210.62 524.206 210.9C523.619 211.167 522.926 211.3 522.126 211.3Z"></path>
<path stroke-linejoin="round" stroke-linecap="round" stroke-width="1.66667" stroke="#8F8C85" d="M186.667 248L177.5 257.167L173.333 253"></path>
<path fill="#8F8C85" d="M207.58 259.3C206.327 259.3 205.193 259 204.18 258.4C203.18 257.787 202.387 256.927 201.8 255.82C201.227 254.713 200.94 253.44 200.94 252C200.94 250.56 201.227 249.287 201.8 248.18C202.387 247.073 203.18 246.213 204.18 245.6C205.193 244.987 206.327 244.68 207.58 244.68C208.847 244.68 209.98 244.987 210.98 245.6C211.993 246.213 212.787 247.073 213.36 248.18C213.933 249.287 214.22 250.56 214.22 252C214.22 253.44 213.927 254.713 213.34 255.82C212.767 256.927 211.973 257.787 210.96 258.4C209.96 259 208.833 259.3 207.58 259.3ZM207.58 257.78C208.527 257.78 209.353 257.547 210.06 257.08C210.767 256.613 211.313 255.947 211.7 255.08C212.1 254.2 212.3 253.173 212.3 252C212.3 250.827 212.1 249.807 211.7 248.94C211.313 248.06 210.76 247.387 210.04 246.92C209.333 246.453 208.513 246.22 207.58 246.22C206.66 246.22 205.84 246.453 205.12 246.92C204.413 247.387 203.86 248.06 203.46 248.94C203.06 249.807 202.86 250.827 202.86 252C202.86 253.173 203.053 254.2 203.44 255.08C203.84 255.947 204.393 256.613 205.1 257.08C205.807 257.547 206.633 257.78 207.58 257.78ZM219.996 259.3C219.25 259.3 218.616 259.153 218.096 258.86C217.576 258.567 217.183 258.14 216.916 257.58C216.65 257.007 216.516 256.313 216.516 255.5V249.36H218.236V255.14C218.236 256.087 218.41 256.793 218.756 257.26C219.103 257.727 219.663 257.96 220.436 257.96C220.956 257.96 221.396 257.833 221.756 257.58C222.13 257.313 222.41 256.94 222.596 256.46C222.796 255.967 222.896 255.373 222.896 254.68V249.36H224.596V259H222.916V258.42C222.916 258.22 222.916 258.027 222.916 257.84V257.66C222.69 258.167 222.31 258.567 221.776 258.86C221.243 259.153 220.65 259.3 219.996 259.3ZM230.974 259.16C230.174 259.16 229.514 258.94 228.994 258.5C228.488 258.047 228.234 257.32 228.234 256.32V250.78H226.434V249.36H228.234V246.18H229.954V249.36H231.954V250.78H229.954V256.14C229.954 256.673 230.074 257.053 230.314 257.28C230.568 257.507 230.921 257.62 231.374 257.62C231.574 257.62 231.814 257.6 232.094 257.56V259.04C231.921 259.08 231.741 259.107 231.554 259.12C231.368 259.147 231.174 259.16 230.974 259.16ZM234.156 245H235.876V259H234.156V245ZM234.156 245H235.016V246.42H234.156V245ZM234.156 257.58H235.876V259H234.156V257.58ZM238.843 249.36H240.563V259H238.843V249.36ZM238.843 257.58H240.563V259H238.843V257.58ZM238.843 249.36H239.703V250.78H238.843V249.36ZM238.683 245.48H240.683V247.54H238.683V245.48ZM243.531 249.36H245.231V250.02C245.231 250.233 245.231 250.447 245.231 250.66C245.511 250.207 245.924 249.827 246.471 249.52C247.017 249.2 247.597 249.04 248.211 249.04C248.944 249.04 249.577 249.193 250.111 249.5C250.644 249.793 251.051 250.233 251.331 250.82C251.624 251.407 251.771 252.107 251.771 252.92V259H250.051V253.14C250.051 252.207 249.884 251.52 249.551 251.08C249.217 250.627 248.677 250.4 247.931 250.4C247.384 250.4 246.904 250.527 246.491 250.78C246.091 251.033 245.784 251.373 245.571 251.8C245.357 252.227 245.251 252.693 245.251 253.2V259H243.531V249.36ZM254.605 249.36H256.325V259H254.605V249.36ZM254.605 257.58H256.325V259H254.605V257.58ZM254.605 249.36H255.465V250.78H254.605V249.36ZM254.445 245.48H256.445V247.54H254.445V245.48ZM259.293 249.36H260.993V250.02C260.993 250.233 260.993 250.447 260.993 250.66C261.273 250.207 261.686 249.827 262.233 249.52C262.779 249.2 263.359 249.04 263.973 249.04C264.706 249.04 265.339 249.193 265.873 249.5C266.406 249.793 266.813 250.233 267.093 250.82C267.386 251.407 267.533 252.107 267.533 252.92V259H265.813V253.14C265.813 252.207 265.646 251.52 265.313 251.08C264.979 250.627 264.439 250.4 263.692 250.4C263.146 250.4 262.666 250.527 262.253 250.78C261.853 251.033 261.546 251.373 261.333 251.8C261.119 252.227 261.013 252.693 261.013 253.2V259H259.293V249.36ZM274.387 263.46C273.547 263.46 272.807 263.313 272.167 263.02C271.54 262.727 271.053 262.313 270.707 261.78C270.36 261.247 270.187 260.627 270.187 259.92H271.887C271.887 260.573 272.113 261.1 272.567 261.5C273.02 261.913 273.633 262.12 274.407 262.12C275.327 262.12 276.04 261.867 276.547 261.36C277.053 260.867 277.307 260.12 277.307 259.12V257.94C277.307 257.727 277.307 257.513 277.307 257.3C277.053 257.793 276.64 258.187 276.067 258.48C275.493 258.76 274.853 258.9 274.147 258.9C273.267 258.9 272.493 258.7 271.827 258.3C271.173 257.9 270.667 257.333 270.307 256.6C269.947 255.853 269.767 254.987 269.767 254C269.767 253.027 269.96 252.167 270.347 251.42C270.733 250.66 271.26 250.073 271.927 249.66C272.607 249.247 273.367 249.04 274.207 249.04C274.94 249.04 275.567 249.2 276.087 249.52C276.607 249.827 277.013 250.207 277.307 250.66C277.307 250.393 277.307 250.133 277.307 249.88V249.36H279.027V258.52C279.027 260.173 278.64 261.407 277.867 262.22C277.093 263.047 275.933 263.46 274.387 263.46ZM274.487 257.56C275.06 257.56 275.567 257.413 276.007 257.12C276.46 256.827 276.807 256.413 277.047 255.88C277.3 255.333 277.427 254.707 277.427 254C277.427 253.307 277.3 252.687 277.047 252.14C276.793 251.593 276.44 251.167 275.987 250.86C275.547 250.553 275.047 250.4 274.487 250.4C273.913 250.4 273.4 250.553 272.947 250.86C272.507 251.153 272.16 251.573 271.907 252.12C271.667 252.667 271.547 253.293 271.547 254C271.547 254.707 271.667 255.333 271.907 255.88C272.16 256.413 272.507 256.827 272.947 257.12C273.4 257.413 273.913 257.56 274.487 257.56ZM286.734 245H288.454V253.46C288.694 253.193 288.947 252.94 289.214 252.7L292.494 249.36H294.654L288.454 255.42V259H286.734V245ZM289.094 254.38L290.274 253.24L295.214 259H292.874L289.094 254.38ZM300.149 259.3C299.189 259.3 298.356 259.1 297.649 258.7C296.956 258.3 296.416 257.713 296.029 256.94C295.656 256.167 295.469 255.233 295.469 254.14C295.469 253.167 295.663 252.293 296.049 251.52C296.449 250.747 296.996 250.14 297.689 249.7C298.396 249.26 299.183 249.04 300.049 249.04C300.996 249.04 301.803 249.253 302.469 249.68C303.136 250.093 303.643 250.687 303.989 251.46C304.336 252.22 304.509 253.12 304.509 254.16V254.5H297.189C297.203 255.22 297.336 255.84 297.589 256.36C297.856 256.88 298.209 257.28 298.649 257.56C299.103 257.827 299.609 257.96 300.169 257.96C300.823 257.96 301.383 257.813 301.849 257.52C302.316 257.213 302.603 256.713 302.709 256.02H304.409C304.343 256.62 304.143 257.167 303.809 257.66C303.476 258.153 302.996 258.553 302.369 258.86C301.756 259.153 301.016 259.3 300.149 259.3ZM302.669 253.28C302.669 252.4 302.436 251.7 301.969 251.18C301.516 250.66 300.876 250.4 300.049 250.4C299.263 250.4 298.616 250.673 298.109 251.22C297.603 251.767 297.316 252.453 297.249 253.28H302.669ZM309.335 258.66L305.475 249.36H307.375L309.775 255.52C309.935 255.907 310.089 256.3 310.235 256.7C310.275 256.567 310.309 256.467 310.335 256.4C310.362 256.333 310.395 256.233 310.435 256.1C310.489 255.967 310.522 255.873 310.535 255.82C310.562 255.753 310.602 255.653 310.655 255.52L312.775 249.36H314.575L309.395 263.16H307.575L309.335 258.66ZM324.137 259.3C323.284 259.3 322.551 259.153 321.937 258.86C321.324 258.567 320.851 258.16 320.517 257.64C320.184 257.12 320.011 256.513 319.997 255.82H321.677C321.704 256.487 321.931 257.013 322.357 257.4C322.797 257.773 323.397 257.96 324.157 257.96C324.824 257.96 325.357 257.82 325.757 257.54C326.171 257.247 326.377 256.86 326.377 256.38C326.377 255.993 326.237 255.68 325.957 255.44C325.691 255.187 325.271 255.007 324.697 254.9L323.237 254.62C322.317 254.447 321.597 254.127 321.077 253.66C320.557 253.193 320.297 252.6 320.297 251.88C320.297 251.333 320.457 250.847 320.777 250.42C321.097 249.993 321.537 249.66 322.097 249.42C322.671 249.167 323.317 249.04 324.037 249.04C324.811 249.04 325.477 249.167 326.037 249.42C326.597 249.66 327.031 250.013 327.337 250.48C327.657 250.933 327.837 251.487 327.877 252.14H326.177C326.111 251.567 325.877 251.133 325.477 250.84C325.091 250.547 324.571 250.4 323.917 250.4C323.344 250.4 322.884 250.527 322.537 250.78C322.191 251.033 322.017 251.367 322.017 251.78C322.017 252.153 322.151 252.447 322.417 252.66C322.684 252.873 323.097 253.033 323.657 253.14L325.157 253.42C326.077 253.593 326.791 253.907 327.297 254.36C327.817 254.813 328.077 255.427 328.077 256.2C328.077 256.773 327.917 257.3 327.597 257.78C327.277 258.247 326.817 258.62 326.217 258.9C325.631 259.167 324.937 259.3 324.137 259.3ZM333.785 259.3C333.039 259.3 332.405 259.153 331.885 258.86C331.365 258.567 330.972 258.14 330.705 257.58C330.439 257.007 330.305 256.313 330.305 255.5V249.36H332.025V255.14C332.025 256.087 332.199 256.793 332.545 257.26C332.892 257.727 333.452 257.96 334.225 257.96C334.745 257.96 335.185 257.833 335.545 257.58C335.919 257.313 336.199 256.94 336.385 256.46C336.585 255.967 336.685 255.373 336.685 254.68V249.36H338.385V259H336.705V258.42C336.705 258.22 336.705 258.027 336.705 257.84V257.66C336.479 258.167 336.099 258.567 335.565 258.86C335.032 259.153 334.439 259.3 333.785 259.3ZM341.343 249.36H343.063V250.12C343.063 250.293 343.063 250.473 343.063 250.66C343.37 250.167 343.763 249.773 344.243 249.48C344.737 249.187 345.283 249.04 345.883 249.04C346.537 249.04 347.11 249.2 347.603 249.52C348.11 249.84 348.503 250.313 348.783 250.94C349.13 250.353 349.57 249.893 350.103 249.56C350.65 249.213 351.257 249.04 351.923 249.04C352.59 249.04 353.177 249.18 353.683 249.46C354.19 249.74 354.583 250.173 354.863 250.76C355.157 251.333 355.303 252.047 355.303 252.9V259H353.583V253.24C353.583 252.293 353.423 251.587 353.103 251.12C352.797 250.64 352.283 250.4 351.563 250.4C351.07 250.4 350.643 250.533 350.283 250.8C349.923 251.053 349.65 251.4 349.463 251.84C349.277 252.267 349.183 252.74 349.183 253.26V259H347.463V253.3C347.463 252.353 347.303 251.633 346.983 251.14C346.677 250.647 346.177 250.4 345.483 250.4C345.003 250.4 344.577 250.533 344.203 250.8C343.843 251.067 343.563 251.427 343.363 251.88C343.163 252.32 343.063 252.807 343.063 253.34V259H341.343V249.36ZM358.14 249.36H359.86V250.12C359.86 250.293 359.86 250.473 359.86 250.66C360.167 250.167 360.56 249.773 361.04 249.48C361.533 249.187 362.08 249.04 362.68 249.04C363.333 249.04 363.907 249.2 364.4 249.52C364.907 249.84 365.3 250.313 365.58 250.94C365.927 250.353 366.367 249.893 366.9 249.56C367.447 249.213 368.053 249.04 368.72 249.04C369.387 249.04 369.973 249.18 370.48 249.46C370.987 249.74 371.38 250.173 371.66 250.76C371.953 251.333 372.1 252.047 372.1 252.9V259H370.38V253.24C370.38 252.293 370.22 251.587 369.9 251.12C369.593 250.64 369.08 250.4 368.36 250.4C367.867 250.4 367.44 250.533 367.08 250.8C366.72 251.053 366.447 251.4 366.26 251.84C366.073 252.267 365.98 252.74 365.98 253.26V259H364.26V253.3C364.26 252.353 364.1 251.633 363.78 251.14C363.473 250.647 362.973 250.4 362.28 250.4C361.8 250.4 361.373 250.533 361 250.8C360.64 251.067 360.36 251.427 360.16 251.88C359.96 252.32 359.86 252.807 359.86 253.34V259H358.14V249.36ZM377.677 259.3C377.064 259.3 376.504 259.18 375.997 258.94C375.49 258.7 375.09 258.36 374.797 257.92C374.504 257.467 374.357 256.947 374.357 256.36C374.357 255.493 374.65 254.813 375.237 254.32C375.837 253.827 376.61 253.507 377.557 253.36L379.617 253.04C379.977 252.987 380.23 252.887 380.377 252.74C380.524 252.593 380.597 252.373 380.597 252.08C380.597 251.56 380.417 251.153 380.057 250.86C379.697 250.553 379.23 250.4 378.657 250.4C377.937 250.4 377.384 250.58 376.997 250.94C376.61 251.287 376.404 251.767 376.377 252.38H374.657C374.684 251.78 374.85 251.227 375.157 250.72C375.464 250.213 375.904 249.807 376.477 249.5C377.064 249.193 377.744 249.04 378.517 249.04C379.304 249.04 379.977 249.187 380.537 249.48C381.11 249.773 381.544 250.193 381.837 250.74C382.13 251.287 382.277 251.933 382.277 252.68V259H380.637V258.52C380.637 258.24 380.637 257.967 380.637 257.7C380.397 258.207 380.017 258.6 379.497 258.88C378.99 259.16 378.384 259.3 377.677 259.3ZM377.917 257.96C378.424 257.96 378.877 257.853 379.277 257.64C379.69 257.413 380.01 257.107 380.237 256.72C380.477 256.32 380.597 255.867 380.597 255.36V253.94C380.544 254.033 380.424 254.113 380.237 254.18C380.064 254.247 379.83 254.307 379.537 254.36L378.137 254.62C377.524 254.74 377.037 254.94 376.677 255.22C376.317 255.5 376.137 255.88 376.137 256.36C376.137 256.84 376.304 257.227 376.637 257.52C376.984 257.813 377.41 257.96 377.917 257.96ZM385.113 249.36H386.833V249.78C386.833 250.167 386.833 250.56 386.833 250.96C387.086 250.387 387.473 249.927 387.993 249.58C388.526 249.22 389.146 249.04 389.853 249.04C390.039 249.04 390.186 249.047 390.293 249.06V250.76C390.106 250.733 389.926 250.72 389.753 250.72C389.126 250.72 388.593 250.84 388.153 251.08C387.726 251.307 387.399 251.66 387.173 252.14C386.946 252.607 386.833 253.193 386.833 253.9V259H385.113V249.36ZM394.706 258.66L390.846 249.36H392.746L395.146 255.52C395.306 255.907 395.46 256.3 395.606 256.7C395.646 256.567 395.68 256.467 395.706 256.4C395.733 256.333 395.766 256.233 395.806 256.1C395.86 255.967 395.893 255.873 395.906 255.82C395.933 255.753 395.973 255.653 396.026 255.52L398.146 249.36H399.946L394.766 263.16H392.946L394.706 258.66ZM406.128 249.36H407.848V250.06C407.848 250.26 407.848 250.467 407.848 250.68C408.142 250.227 408.575 249.84 409.148 249.52C409.722 249.2 410.348 249.04 411.028 249.04C411.935 249.04 412.722 249.26 413.388 249.7C414.068 250.14 414.582 250.747 414.928 251.52C415.288 252.293 415.468 253.173 415.468 254.16C415.468 255.173 415.282 256.067 414.908 256.84C414.535 257.613 414.008 258.22 413.328 258.66C412.648 259.087 411.868 259.3 410.988 259.3C410.308 259.3 409.695 259.153 409.148 258.86C408.602 258.567 408.168 258.167 407.848 257.66C407.848 257.927 407.848 258.193 407.848 258.46V263.16H406.128V249.36ZM410.728 257.96C411.315 257.96 411.828 257.8 412.268 257.48C412.722 257.16 413.068 256.713 413.308 256.14C413.548 255.567 413.668 254.907 413.668 254.16C413.668 253.427 413.548 252.78 413.308 252.22C413.068 251.647 412.722 251.2 412.268 250.88C411.828 250.56 411.315 250.4 410.728 250.4C410.155 250.4 409.642 250.553 409.188 250.86C408.735 251.167 408.382 251.607 408.128 252.18C407.875 252.74 407.748 253.4 407.748 254.16C407.748 254.907 407.875 255.567 408.128 256.14C408.382 256.713 408.728 257.16 409.168 257.48C409.622 257.8 410.142 257.96 410.728 257.96ZM421.928 259.3C421.008 259.3 420.188 259.087 419.468 258.66C418.748 258.233 418.188 257.633 417.788 256.86C417.388 256.073 417.188 255.173 417.188 254.16C417.188 253.173 417.388 252.293 417.788 251.52C418.188 250.733 418.748 250.127 419.468 249.7C420.188 249.26 421.008 249.04 421.928 249.04C422.835 249.04 423.648 249.26 424.368 249.7C425.088 250.127 425.648 250.733 426.048 251.52C426.461 252.293 426.668 253.173 426.668 254.16C426.668 255.173 426.461 256.073 426.048 256.86C425.648 257.633 425.088 258.233 424.368 258.66C423.648 259.087 422.835 259.3 421.928 259.3ZM421.928 257.96C422.528 257.96 423.048 257.8 423.488 257.48C423.941 257.16 424.288 256.713 424.528 256.14C424.768 255.567 424.888 254.907 424.888 254.16C424.888 253.027 424.615 252.12 424.068 251.44C423.535 250.747 422.821 250.4 421.928 250.4C421.341 250.4 420.821 250.56 420.368 250.88C419.915 251.187 419.568 251.627 419.328 252.2C419.088 252.76 418.968 253.413 418.968 254.16C418.968 255.307 419.235 256.227 419.768 256.92C420.301 257.613 421.021 257.96 421.928 257.96ZM429 249.36H430.72V259H429V249.36ZM429 257.58H430.72V259H429V257.58ZM429 249.36H429.86V250.78H429V249.36ZM428.84 245.48H430.84V247.54H428.84V245.48ZM433.687 249.36H435.387V250.02C435.387 250.233 435.387 250.447 435.387 250.66C435.667 250.207 436.08 249.827 436.627 249.52C437.174 249.2 437.754 249.04 438.367 249.04C439.1 249.04 439.734 249.193 440.267 249.5C440.8 249.793 441.207 250.233 441.487 250.82C441.78 251.407 441.927 252.107 441.927 252.92V259H440.207V253.14C440.207 252.207 440.04 251.52 439.707 251.08C439.374 250.627 438.834 250.4 438.087 250.4C437.54 250.4 437.06 250.527 436.647 250.78C436.247 251.033 435.94 251.373 435.727 251.8C435.514 252.227 435.407 252.693 435.407 253.2V259H433.687V249.36ZM448.084 259.16C447.284 259.16 446.624 258.94 446.104 258.5C445.597 258.047 445.344 257.32 445.344 256.32V250.78H443.544V249.36H445.344V246.18H447.064V249.36H449.064V250.78H447.064V256.14C447.064 256.673 447.184 257.053 447.424 257.28C447.677 257.507 448.03 257.62 448.484 257.62C448.684 257.62 448.924 257.6 449.204 257.56V259.04C449.03 259.08 448.85 259.107 448.664 259.12C448.477 259.147 448.284 259.16 448.084 259.16ZM454.645 259.3C453.792 259.3 453.058 259.153 452.445 258.86C451.832 258.567 451.358 258.16 451.025 257.64C450.692 257.12 450.518 256.513 450.505 255.82H452.185C452.212 256.487 452.438 257.013 452.865 257.4C453.305 257.773 453.905 257.96 454.665 257.96C455.332 257.96 455.865 257.82 456.265 257.54C456.678 257.247 456.885 256.86 456.885 256.38C456.885 255.993 456.745 255.68 456.465 255.44C456.198 255.187 455.778 255.007 455.205 254.9L453.745 254.62C452.825 254.447 452.105 254.127 451.585 253.66C451.065 253.193 450.805 252.6 450.805 251.88C450.805 251.333 450.965 250.847 451.285 250.42C451.605 249.993 452.045 249.66 452.605 249.42C453.178 249.167 453.825 249.04 454.545 249.04C455.318 249.04 455.985 249.167 456.545 249.42C457.105 249.66 457.538 250.013 457.845 250.48C458.165 250.933 458.345 251.487 458.385 252.14H456.685C456.618 251.567 456.385 251.133 455.985 250.84C455.598 250.547 455.078 250.4 454.425 250.4C453.852 250.4 453.392 250.527 453.045 250.78C452.698 251.033 452.525 251.367 452.525 251.78C452.525 252.153 452.658 252.447 452.925 252.66C453.192 252.873 453.605 253.033 454.165 253.14L455.665 253.42C456.585 253.593 457.298 253.907 457.805 254.36C458.325 254.813 458.585 255.427 458.585 256.2C458.585 256.773 458.425 257.3 458.105 257.78C457.785 258.247 457.325 258.62 456.725 258.9C456.138 259.167 455.445 259.3 454.645 259.3Z"></path>
<path stroke-linejoin="round" stroke-linecap="round" stroke-width="1.66667" stroke="#8F8C85" d="M186.667 296L177.5 305.167L173.333 301"></path>
<path fill="#8F8C85" d="M201.8 293H206C207.56 293 208.893 293.24 210 293.72C211.12 294.2 211.987 294.96 212.6 296C213.213 297.04 213.52 298.367 213.52 299.98C213.52 301.407 213.247 302.647 212.7 303.7C212.167 304.753 211.373 305.567 210.32 306.14C209.267 306.713 207.973 307 206.44 307H201.8V293ZM206.22 305.46C207.367 305.46 208.34 305.273 209.14 304.9C209.94 304.527 210.553 303.933 210.98 303.12C211.407 302.307 211.62 301.26 211.62 299.98C211.62 298.193 211.173 296.84 210.28 295.92C209.387 294.987 208.007 294.52 206.14 294.52H203.62V305.46H206.22ZM215.933 297.36H217.653V297.78C217.653 298.167 217.653 298.56 217.653 298.96C217.906 298.387 218.293 297.927 218.813 297.58C219.346 297.22 219.966 297.04 220.673 297.04C220.86 297.04 221.006 297.047 221.113 297.06V298.76C220.926 298.733 220.746 298.72 220.573 298.72C219.946 298.72 219.413 298.84 218.973 299.08C218.546 299.307 218.22 299.66 217.993 300.14C217.766 300.607 217.653 301.193 217.653 301.9V307H215.933V297.36ZM225.431 307.3C224.818 307.3 224.258 307.18 223.751 306.94C223.244 306.7 222.844 306.36 222.551 305.92C222.258 305.467 222.111 304.947 222.111 304.36C222.111 303.493 222.404 302.813 222.991 302.32C223.591 301.827 224.364 301.507 225.311 301.36L227.371 301.04C227.731 300.987 227.984 300.887 228.131 300.74C228.278 300.593 228.351 300.373 228.351 300.08C228.351 299.56 228.171 299.153 227.811 298.86C227.451 298.553 226.984 298.4 226.411 298.4C225.691 298.4 225.138 298.58 224.751 298.94C224.364 299.287 224.158 299.767 224.131 300.38H222.411C222.438 299.78 222.604 299.227 222.911 298.72C223.218 298.213 223.658 297.807 224.231 297.5C224.818 297.193 225.498 297.04 226.271 297.04C227.058 297.04 227.731 297.187 228.291 297.48C228.864 297.773 229.298 298.193 229.591 298.74C229.884 299.287 230.031 299.933 230.031 300.68V307H228.391V306.52C228.391 306.24 228.391 305.967 228.391 305.7C228.151 306.207 227.771 306.6 227.251 306.88C226.744 307.16 226.138 307.3 225.431 307.3ZM225.671 305.96C226.178 305.96 226.631 305.853 227.031 305.64C227.444 305.413 227.764 305.107 227.991 304.72C228.231 304.32 228.351 303.867 228.351 303.36V301.94C228.298 302.033 228.178 302.113 227.991 302.18C227.818 302.247 227.584 302.307 227.291 302.36L225.891 302.62C225.278 302.74 224.791 302.94 224.431 303.22C224.071 303.5 223.891 303.88 223.891 304.36C223.891 304.84 224.058 305.227 224.391 305.52C224.738 305.813 225.164 305.96 225.671 305.96ZM233.509 298.78H231.689V297.36H233.509V295.58C233.509 294.673 233.775 293.967 234.309 293.46C234.842 292.94 235.495 292.68 236.269 292.68C236.455 292.68 236.635 292.7 236.809 292.74C236.995 292.767 237.142 292.807 237.249 292.86V294.32C236.889 294.28 236.682 294.26 236.629 294.26C236.175 294.26 235.829 294.387 235.589 294.64C235.349 294.88 235.229 295.233 235.229 295.7V297.36H237.229V298.78H235.229V307H233.509V298.78ZM242.498 307.16C241.698 307.16 241.038 306.94 240.518 306.5C240.011 306.047 239.758 305.32 239.758 304.32V298.78H237.958V297.36H239.758V294.18H241.478V297.36H243.478V298.78H241.478V304.14C241.478 304.673 241.598 305.053 241.838 305.28C242.091 305.507 242.444 305.62 242.898 305.62C243.098 305.62 243.338 305.6 243.618 305.56V307.04C243.444 307.08 243.264 307.107 243.078 307.12C242.891 307.147 242.698 307.16 242.498 307.16ZM245.679 297.36H247.399V307H245.679V297.36ZM245.679 305.58H247.399V307H245.679V305.58ZM245.679 297.36H246.539V298.78H245.679V297.36ZM245.519 293.48H247.519V295.54H245.519V293.48ZM250.367 297.36H252.067V298.02C252.067 298.233 252.067 298.447 252.067 298.66C252.347 298.207 252.76 297.827 253.307 297.52C253.853 297.2 254.433 297.04 255.047 297.04C255.78 297.04 256.413 297.193 256.947 297.5C257.48 297.793 257.887 298.233 258.167 298.82C258.46 299.407 258.607 300.107 258.607 300.92V307H256.887V301.14C256.887 300.207 256.72 299.52 256.387 299.08C256.053 298.627 255.513 298.4 254.767 298.4C254.22 298.4 253.74 298.527 253.327 298.78C252.927 299.033 252.62 299.373 252.407 299.8C252.193 300.227 252.087 300.693 252.087 301.2V307H250.367V297.36ZM265.461 311.46C264.621 311.46 263.881 311.313 263.241 311.02C262.614 310.727 262.128 310.313 261.781 309.78C261.434 309.247 261.261 308.627 261.261 307.92H262.961C262.961 308.573 263.188 309.1 263.641 309.5C264.094 309.913 264.708 310.12 265.481 310.12C266.401 310.12 267.114 309.867 267.621 309.36C268.128 308.867 268.381 308.12 268.381 307.12V305.94C268.381 305.727 268.381 305.513 268.381 305.3C268.128 305.793 267.714 306.187 267.141 306.48C266.568 306.76 265.928 306.9 265.221 306.9C264.341 306.9 263.568 306.7 262.901 306.3C262.248 305.9 261.741 305.333 261.381 304.6C261.021 303.853 260.841 302.987 260.841 302C260.841 301.027 261.034 300.167 261.421 299.42C261.808 298.66 262.334 298.073 263.001 297.66C263.681 297.247 264.441 297.04 265.281 297.04C266.014 297.04 266.641 297.2 267.161 297.52C267.681 297.827 268.088 298.207 268.381 298.66C268.381 298.393 268.381 298.133 268.381 297.88V297.36H270.101V306.52C270.101 308.173 269.714 309.407 268.941 310.22C268.168 311.047 267.008 311.46 265.461 311.46ZM265.561 305.56C266.134 305.56 266.641 305.413 267.081 305.12C267.534 304.827 267.881 304.413 268.121 303.88C268.374 303.333 268.501 302.707 268.501 302C268.501 301.307 268.374 300.687 268.121 300.14C267.868 299.593 267.514 299.167 267.061 298.86C266.621 298.553 266.121 298.4 265.561 298.4C264.988 298.4 264.474 298.553 264.021 298.86C263.581 299.153 263.234 299.573 262.981 300.12C262.741 300.667 262.621 301.293 262.621 302C262.621 302.707 262.741 303.333 262.981 303.88C263.234 304.413 263.581 304.827 264.021 305.12C264.474 305.413 264.988 305.56 265.561 305.56ZM277.808 297.36H279.528V298.12C279.528 298.293 279.528 298.473 279.528 298.66C279.835 298.167 280.228 297.773 280.708 297.48C281.201 297.187 281.748 297.04 282.348 297.04C283.001 297.04 283.575 297.2 284.068 297.52C284.575 297.84 284.968 298.313 285.248 298.94C285.595 298.353 286.035 297.893 286.568 297.56C287.115 297.213 287.721 297.04 288.388 297.04C289.055 297.04 289.641 297.18 290.148 297.46C290.655 297.74 291.048 298.173 291.328 298.76C291.621 299.333 291.768 300.047 291.768 300.9V307H290.048V301.24C290.048 300.293 289.888 299.587 289.568 299.12C289.261 298.64 288.748 298.4 288.028 298.4C287.535 298.4 287.108 298.533 286.748 298.8C286.388 299.053 286.115 299.4 285.928 299.84C285.741 300.267 285.648 300.74 285.648 301.26V307H283.928V301.3C283.928 300.353 283.768 299.633 283.448 299.14C283.141 298.647 282.641 298.4 281.948 298.4C281.468 298.4 281.041 298.533 280.668 298.8C280.308 299.067 280.028 299.427 279.828 299.88C279.628 300.32 279.528 300.807 279.528 301.34V307H277.808V297.36ZM297.345 307.3C296.732 307.3 296.172 307.18 295.665 306.94C295.158 306.7 294.758 306.36 294.465 305.92C294.172 305.467 294.025 304.947 294.025 304.36C294.025 303.493 294.318 302.813 294.905 302.32C295.505 301.827 296.278 301.507 297.225 301.36L299.285 301.04C299.645 300.987 299.898 300.887 300.045 300.74C300.192 300.593 300.265 300.373 300.265 300.08C300.265 299.56 300.085 299.153 299.725 298.86C299.365 298.553 298.898 298.4 298.325 298.4C297.605 298.4 297.052 298.58 296.665 298.94C296.278 299.287 296.072 299.767 296.045 300.38H294.325C294.352 299.78 294.518 299.227 294.825 298.72C295.132 298.213 295.572 297.807 296.145 297.5C296.732 297.193 297.412 297.04 298.185 297.04C298.972 297.04 299.645 297.187 300.205 297.48C300.778 297.773 301.212 298.193 301.505 298.74C301.798 299.287 301.945 299.933 301.945 300.68V307H300.305V306.52C300.305 306.24 300.305 305.967 300.305 305.7C300.065 306.207 299.685 306.6 299.165 306.88C298.658 307.16 298.052 307.3 297.345 307.3ZM297.585 305.96C298.092 305.96 298.545 305.853 298.945 305.64C299.358 305.413 299.678 305.107 299.905 304.72C300.145 304.32 300.265 303.867 300.265 303.36V301.94C300.212 302.033 300.092 302.113 299.905 302.18C299.732 302.247 299.498 302.307 299.205 302.36L297.805 302.62C297.192 302.74 296.705 302.94 296.345 303.22C295.985 303.5 295.805 303.88 295.805 304.36C295.805 304.84 295.972 305.227 296.305 305.52C296.652 305.813 297.078 305.96 297.585 305.96ZM308.103 307.16C307.303 307.16 306.643 306.94 306.123 306.5C305.616 306.047 305.363 305.32 305.363 304.32V298.78H303.563V297.36H305.363V294.18H307.083V297.36H309.083V298.78H307.083V304.14C307.083 304.673 307.203 305.053 307.443 305.28C307.696 305.507 308.05 305.62 308.503 305.62C308.703 305.62 308.943 305.6 309.223 305.56V307.04C309.05 307.08 308.87 307.107 308.683 307.12C308.496 307.147 308.303 307.16 308.103 307.16ZM315.228 307.3C314.268 307.3 313.434 307.1 312.728 306.7C312.034 306.3 311.494 305.713 311.108 304.94C310.734 304.167 310.548 303.233 310.548 302.14C310.548 301.167 310.741 300.293 311.128 299.52C311.528 298.747 312.074 298.14 312.768 297.7C313.474 297.26 314.261 297.04 315.128 297.04C316.074 297.04 316.881 297.253 317.548 297.68C318.214 298.093 318.721 298.687 319.068 299.46C319.414 300.22 319.588 301.12 319.588 302.16V302.5H312.268C312.281 303.22 312.414 303.84 312.668 304.36C312.934 304.88 313.288 305.28 313.728 305.56C314.181 305.827 314.688 305.96 315.248 305.96C315.901 305.96 316.461 305.813 316.928 305.52C317.394 305.213 317.681 304.713 317.788 304.02H319.488C319.421 304.62 319.221 305.167 318.888 305.66C318.554 306.153 318.074 306.553 317.448 306.86C316.834 307.153 316.094 307.3 315.228 307.3ZM317.748 301.28C317.748 300.4 317.514 299.7 317.048 299.18C316.594 298.66 315.954 298.4 315.128 298.4C314.341 298.4 313.694 298.673 313.188 299.22C312.681 299.767 312.394 300.453 312.327 301.28H317.748ZM321.949 297.36H323.669V297.78C323.669 298.167 323.669 298.56 323.669 298.96C323.922 298.387 324.309 297.927 324.829 297.58C325.362 297.22 325.982 297.04 326.689 297.04C326.875 297.04 327.022 297.047 327.129 297.06V298.76C326.942 298.733 326.762 298.72 326.589 298.72C325.962 298.72 325.429 298.84 324.989 299.08C324.562 299.307 324.235 299.66 324.009 300.14C323.782 300.607 323.669 301.193 323.669 301.9V307H321.949V297.36ZM328.882 297.36H330.602V307H328.882V297.36ZM328.882 305.58H330.602V307H328.882V305.58ZM328.882 297.36H329.742V298.78H328.882V297.36ZM328.722 293.48H330.722V295.54H328.722V293.48ZM336.31 307.3C335.697 307.3 335.137 307.18 334.63 306.94C334.123 306.7 333.723 306.36 333.43 305.92C333.137 305.467 332.99 304.947 332.99 304.36C332.99 303.493 333.283 302.813 333.87 302.32C334.47 301.827 335.243 301.507 336.19 301.36L338.25 301.04C338.61 300.987 338.863 300.887 339.01 300.74C339.157 300.593 339.23 300.373 339.23 300.08C339.23 299.56 339.05 299.153 338.69 298.86C338.33 298.553 337.863 298.4 337.29 298.4C336.57 298.4 336.017 298.58 335.63 298.94C335.243 299.287 335.037 299.767 335.01 300.38H333.29C333.317 299.78 333.483 299.227 333.79 298.72C334.097 298.213 334.537 297.807 335.11 297.5C335.697 297.193 336.377 297.04 337.15 297.04C337.937 297.04 338.61 297.187 339.17 297.48C339.743 297.773 340.177 298.193 340.47 298.74C340.763 299.287 340.91 299.933 340.91 300.68V307H339.27V306.52C339.27 306.24 339.27 305.967 339.27 305.7C339.03 306.207 338.65 306.6 338.13 306.88C337.623 307.16 337.017 307.3 336.31 307.3ZM336.55 305.96C337.057 305.96 337.51 305.853 337.91 305.64C338.323 305.413 338.643 305.107 338.87 304.72C339.11 304.32 339.23 303.867 339.23 303.36V301.94C339.177 302.033 339.057 302.113 338.87 302.18C338.697 302.247 338.463 302.307 338.17 302.36L336.77 302.62C336.157 302.74 335.67 302.94 335.31 303.22C334.95 303.5 334.77 303.88 334.77 304.36C334.77 304.84 334.937 305.227 335.27 305.52C335.617 305.813 336.043 305.96 336.55 305.96ZM343.746 293H345.466V307H343.746V293ZM343.746 293H344.606V294.42H343.746V293ZM343.746 305.58H345.466V307H343.746V305.58ZM353.179 297.36H354.899V297.78C354.899 298.167 354.899 298.56 354.899 298.96C355.153 298.387 355.539 297.927 356.059 297.58C356.593 297.22 357.213 297.04 357.919 297.04C358.106 297.04 358.253 297.047 358.359 297.06V298.76C358.173 298.733 357.993 298.72 357.819 298.72C357.193 298.72 356.659 298.84 356.219 299.08C355.793 299.307 355.466 299.66 355.239 300.14C355.013 300.607 354.899 301.193 354.899 301.9V307H353.179V297.36ZM363.938 307.3C362.978 307.3 362.145 307.1 361.438 306.7C360.745 306.3 360.205 305.713 359.818 304.94C359.445 304.167 359.258 303.233 359.258 302.14C359.258 301.167 359.452 300.293 359.838 299.52C360.238 298.747 360.785 298.14 361.478 297.7C362.185 297.26 362.972 297.04 363.838 297.04C364.785 297.04 365.592 297.253 366.258 297.68C366.925 298.093 367.432 298.687 367.778 299.46C368.125 300.22 368.298 301.12 368.298 302.16V302.5H360.978C360.992 303.22 361.125 303.84 361.378 304.36C361.645 304.88 361.998 305.28 362.438 305.56C362.892 305.827 363.398 305.96 363.958 305.96C364.612 305.96 365.172 305.813 365.638 305.52C366.105 305.213 366.392 304.713 366.498 304.02H368.198C368.132 304.62 367.932 305.167 367.598 305.66C367.265 306.153 366.785 306.553 366.158 306.86C365.545 307.153 364.805 307.3 363.938 307.3ZM366.458 301.28C366.458 300.4 366.225 299.7 365.758 299.18C365.305 298.66 364.665 298.4 363.838 298.4C363.052 298.4 362.405 298.673 361.898 299.22C361.392 299.767 361.105 300.453 361.038 301.28H366.458ZM374.48 307.3C373.626 307.3 372.866 307.1 372.2 306.7C371.533 306.3 371.006 305.713 370.62 304.94C370.233 304.167 370.04 303.247 370.04 302.18C370.04 301.207 370.22 300.333 370.58 299.56C370.953 298.773 371.48 298.16 372.16 297.72C372.84 297.267 373.626 297.04 374.52 297.04C375.253 297.04 375.886 297.207 376.42 297.54C376.966 297.86 377.366 298.233 377.62 298.66C377.62 298.393 377.62 298.133 377.62 297.88V293H379.34V307H377.62V306.44C377.62 306.173 377.62 305.913 377.62 305.66C377.353 306.127 376.933 306.52 376.36 306.84C375.8 307.147 375.173 307.3 374.48 307.3ZM374.78 305.96C375.353 305.96 375.86 305.807 376.3 305.5C376.753 305.18 377.106 304.733 377.36 304.16C377.613 303.587 377.74 302.92 377.74 302.16C377.74 301.027 377.466 300.12 376.92 299.44C376.373 298.747 375.66 298.4 374.78 298.4C374.206 298.4 373.693 298.56 373.24 298.88C372.8 299.187 372.453 299.627 372.2 300.2C371.946 300.773 371.82 301.433 371.82 302.18C371.82 302.927 371.94 303.587 372.18 304.16C372.433 304.733 372.78 305.18 373.22 305.5C373.673 305.807 374.193 305.96 374.78 305.96ZM382.3 293H384.02V307H382.3V293ZM382.3 293H383.16V294.42H382.3V293ZM382.3 305.58H384.02V307H382.3V305.58ZM386.988 297.36H388.708V307H386.988V297.36ZM386.988 305.58H388.708V307H386.988V305.58ZM386.988 297.36H387.848V298.78H386.988V297.36ZM386.828 293.48H388.828V295.54H386.828V293.48ZM391.675 297.36H393.375V298.02C393.375 298.233 393.375 298.447 393.375 298.66C393.655 298.207 394.069 297.827 394.615 297.52C395.162 297.2 395.742 297.04 396.355 297.04C397.089 297.04 397.722 297.193 398.255 297.5C398.789 297.793 399.195 298.233 399.475 298.82C399.769 299.407 399.915 300.107 399.915 300.92V307H398.195V301.14C398.195 300.207 398.029 299.52 397.695 299.08C397.362 298.627 396.822 298.4 396.075 298.4C395.529 298.4 395.049 298.527 394.635 298.78C394.235 299.033 393.929 299.373 393.715 299.8C393.502 300.227 393.395 300.693 393.395 301.2V307H391.675V297.36ZM406.81 307.3C405.85 307.3 405.016 307.1 404.31 306.7C403.616 306.3 403.076 305.713 402.69 304.94C402.316 304.167 402.13 303.233 402.13 302.14C402.13 301.167 402.323 300.293 402.71 299.52C403.11 298.747 403.656 298.14 404.35 297.7C405.056 297.26 405.843 297.04 406.71 297.04C407.656 297.04 408.463 297.253 409.13 297.68C409.796 298.093 410.303 298.687 410.65 299.46C410.996 300.22 411.17 301.12 411.17 302.16V302.5H403.85C403.863 303.22 403.996 303.84 404.25 304.36C404.516 304.88 404.87 305.28 405.31 305.56C405.763 305.827 406.27 305.96 406.83 305.96C407.483 305.96 408.043 305.813 408.51 305.52C408.976 305.213 409.263 304.713 409.37 304.02H411.07C411.003 304.62 410.803 305.167 410.47 305.66C410.136 306.153 409.656 306.553 409.03 306.86C408.416 307.153 407.676 307.3 406.81 307.3ZM409.33 301.28C409.33 300.4 409.096 299.7 408.63 299.18C408.176 298.66 407.536 298.4 406.71 298.4C405.923 298.4 405.276 298.673 404.77 299.22C404.263 299.767 403.976 300.453 403.91 301.28H409.33ZM416.911 307.3C416.057 307.3 415.324 307.153 414.711 306.86C414.097 306.567 413.624 306.16 413.291 305.64C412.957 305.12 412.784 304.513 412.771 303.82H414.451C414.477 304.487 414.704 305.013 415.131 305.4C415.571 305.773 416.171 305.96 416.931 305.96C417.597 305.96 418.131 305.82 418.531 305.54C418.944 305.247 419.151 304.86 419.151 304.38C419.151 303.993 419.011 303.68 418.731 303.44C418.464 303.187 418.044 303.007 417.471 302.9L416.011 302.62C415.091 302.447 414.371 302.127 413.851 301.66C413.331 301.193 413.071 300.6 413.071 299.88C413.071 299.333 413.231 298.847 413.551 298.42C413.871 297.993 414.311 297.66 414.871 297.42C415.444 297.167 416.091 297.04 416.811 297.04C417.584 297.04 418.251 297.167 418.811 297.42C419.371 297.66 419.804 298.013 420.111 298.48C420.431 298.933 420.611 299.487 420.651 300.14H418.951C418.884 299.567 418.651 299.133 418.251 298.84C417.864 298.547 417.344 298.4 416.691 298.4C416.117 298.4 415.657 298.527 415.311 298.78C414.964 299.033 414.791 299.367 414.791 299.78C414.791 300.153 414.924 300.447 415.191 300.66C415.457 300.873 415.871 301.033 416.431 301.14L417.931 301.42C418.851 301.593 419.564 301.907 420.071 302.36C420.591 302.813 420.851 303.427 420.851 304.2C420.851 304.773 420.691 305.3 420.371 305.78C420.051 306.247 419.591 306.62 418.991 306.9C418.404 307.167 417.711 307.3 416.911 307.3ZM431.325 307.3C430.472 307.3 429.738 307.153 429.125 306.86C428.512 306.567 428.038 306.16 427.705 305.64C427.372 305.12 427.198 304.513 427.185 303.82H428.865C428.892 304.487 429.118 305.013 429.545 305.4C429.985 305.773 430.585 305.96 431.345 305.96C432.012 305.96 432.545 305.82 432.945 305.54C433.358 305.247 433.565 304.86 433.565 304.38C433.565 303.993 433.425 303.68 433.145 303.44C432.878 303.187 432.458 303.007 431.885 302.9L430.425 302.62C429.505 302.447 428.785 302.127 428.265 301.66C427.745 301.193 427.485 300.6 427.485 299.88C427.485 299.333 427.645 298.847 427.965 298.42C428.285 297.993 428.725 297.66 429.285 297.42C429.858 297.167 430.505 297.04 431.225 297.04C431.998 297.04 432.665 297.167 433.225 297.42C433.785 297.66 434.218 298.013 434.525 298.48C434.845 298.933 435.025 299.487 435.065 300.14H433.365C433.298 299.567 433.065 299.133 432.665 298.84C432.278 298.547 431.758 298.4 431.105 298.4C430.532 298.4 430.072 298.527 429.725 298.78C429.378 299.033 429.205 299.367 429.205 299.78C429.205 300.153 429.338 300.447 429.605 300.66C429.872 300.873 430.285 301.033 430.845 301.14L432.345 301.42C433.265 301.593 433.978 301.907 434.485 302.36C435.005 302.813 435.265 303.427 435.265 304.2C435.265 304.773 435.105 305.3 434.785 305.78C434.465 306.247 434.005 306.62 433.405 306.9C432.818 307.167 432.125 307.3 431.325 307.3ZM440.973 307.3C440.226 307.3 439.593 307.153 439.073 306.86C438.553 306.567 438.159 306.14 437.893 305.58C437.626 305.007 437.493 304.313 437.493 303.5V297.36H439.213V303.14C439.213 304.087 439.386 304.793 439.733 305.26C440.079 305.727 440.639 305.96 441.413 305.96C441.933 305.96 442.373 305.833 442.733 305.58C443.106 305.313 443.386 304.94 443.573 304.46C443.773 303.967 443.873 303.373 443.873 302.68V297.36H445.573V307H443.893V306.42C443.893 306.22 443.893 306.027 443.893 305.84V305.66C443.666 306.167 443.286 306.567 442.753 306.86C442.219 307.153 441.626 307.3 440.973 307.3ZM448.531 297.36H450.251V298.12C450.251 298.293 450.251 298.473 450.251 298.66C450.557 298.167 450.951 297.773 451.431 297.48C451.924 297.187 452.471 297.04 453.071 297.04C453.724 297.04 454.297 297.2 454.791 297.52C455.297 297.84 455.691 298.313 455.971 298.94C456.317 298.353 456.757 297.893 457.291 297.56C457.837 297.213 458.444 297.04 459.111 297.04C459.777 297.04 460.364 297.18 460.871 297.46C461.377 297.74 461.771 298.173 462.051 298.76C462.344 299.333 462.491 300.047 462.491 300.9V307H460.771V301.24C460.771 300.293 460.611 299.587 460.291 299.12C459.984 298.64 459.471 298.4 458.751 298.4C458.257 298.4 457.831 298.533 457.471 298.8C457.111 299.053 456.837 299.4 456.651 299.84C456.464 300.267 456.371 300.74 456.371 301.26V307H454.651V301.3C454.651 300.353 454.491 299.633 454.171 299.14C453.864 298.647 453.364 298.4 452.671 298.4C452.191 298.4 451.764 298.533 451.391 298.8C451.031 299.067 450.751 299.427 450.551 299.88C450.351 300.32 450.251 300.807 450.251 301.34V307H448.531V297.36ZM465.328 297.36H467.048V298.12C467.048 298.293 467.048 298.473 467.048 298.66C467.354 298.167 467.748 297.773 468.228 297.48C468.721 297.187 469.268 297.04 469.868 297.04C470.521 297.04 471.094 297.2 471.588 297.52C472.094 297.84 472.488 298.313 472.768 298.94C473.114 298.353 473.554 297.893 474.088 297.56C474.634 297.213 475.241 297.04 475.908 297.04C476.574 297.04 477.161 297.18 477.668 297.46C478.174 297.74 478.568 298.173 478.848 298.76C479.141 299.333 479.288 300.047 479.288 300.9V307H477.568V301.24C477.568 300.293 477.408 299.587 477.088 299.12C476.781 298.64 476.268 298.4 475.548 298.4C475.054 298.4 474.628 298.533 474.268 298.8C473.908 299.053 473.634 299.4 473.448 299.84C473.261 300.267 473.168 300.74 473.168 301.26V307H471.448V301.3C471.448 300.353 471.288 299.633 470.968 299.14C470.661 298.647 470.161 298.4 469.468 298.4C468.988 298.4 468.561 298.533 468.188 298.8C467.828 299.067 467.548 299.427 467.348 299.88C467.148 300.32 467.048 300.807 467.048 301.34V307H465.328V297.36ZM484.865 307.3C484.251 307.3 483.691 307.18 483.185 306.94C482.678 306.7 482.278 306.36 481.985 305.92C481.691 305.467 481.545 304.947 481.545 304.36C481.545 303.493 481.838 302.813 482.425 302.32C483.025 301.827 483.798 301.507 484.745 301.36L486.805 301.04C487.165 300.987 487.418 300.887 487.565 300.74C487.711 300.593 487.785 300.373 487.785 300.08C487.785 299.56 487.605 299.153 487.245 298.86C486.885 298.553 486.418 298.4 485.845 298.4C485.125 298.4 484.571 298.58 484.185 298.94C483.798 299.287 483.591 299.767 483.565 300.38H481.845C481.871 299.78 482.038 299.227 482.345 298.72C482.651 298.213 483.091 297.807 483.665 297.5C484.251 297.193 484.931 297.04 485.705 297.04C486.491 297.04 487.165 297.187 487.725 297.48C488.298 297.773 488.731 298.193 489.025 298.74C489.318 299.287 489.465 299.933 489.465 300.68V307H487.825V306.52C487.825 306.24 487.825 305.967 487.825 305.7C487.585 306.207 487.205 306.6 486.685 306.88C486.178 307.16 485.571 307.3 484.865 307.3ZM485.105 305.96C485.611 305.96 486.065 305.853 486.465 305.64C486.878 305.413 487.198 305.107 487.425 304.72C487.665 304.32 487.785 303.867 487.785 303.36V301.94C487.731 302.033 487.611 302.113 487.425 302.18C487.251 302.247 487.018 302.307 486.725 302.36L485.325 302.62C484.711 302.74 484.225 302.94 483.865 303.22C483.505 303.5 483.325 303.88 483.325 304.36C483.325 304.84 483.491 305.227 483.825 305.52C484.171 305.813 484.598 305.96 485.105 305.96ZM492.3 297.36H494.02V297.78C494.02 298.167 494.02 298.56 494.02 298.96C494.274 298.387 494.66 297.927 495.18 297.58C495.714 297.22 496.334 297.04 497.04 297.04C497.227 297.04 497.374 297.047 497.48 297.06V298.76C497.294 298.733 497.114 298.72 496.94 298.72C496.314 298.72 495.78 298.84 495.34 299.08C494.914 299.307 494.587 299.66 494.36 300.14C494.134 300.607 494.02 301.193 494.02 301.9V307H492.3V297.36ZM501.894 306.66L498.034 297.36H499.934L502.334 303.52C502.494 303.907 502.647 304.3 502.794 304.7C502.834 304.567 502.867 304.467 502.894 304.4C502.921 304.333 502.954 304.233 502.994 304.1C503.047 303.967 503.081 303.873 503.094 303.82C503.121 303.753 503.161 303.653 503.214 303.52L505.334 297.36H507.134L501.954 311.16H500.134L501.894 306.66Z"></path>
<circle stroke-width="1.9" stroke="#ECEBE9" r="9.05" cy="349" cx="180"></circle>
<path fill="#8F8C85" d="M187.909 355.118C189.119 353.554 189.838 351.665 189.975 349.692L188.081 349.561C187.793 353.773 184.285 357.1 180 357.1C175.527 357.1 171.9 353.474 171.9 349C171.9 344.527 175.527 340.9 180 340.9C180.188 340.9 180.374 340.907 180.559 340.919L180.69 339.025C178.717 338.888 176.748 339.339 175.031 340.322C173.315 341.304 171.928 342.774 171.047 344.544C170.165 346.315 169.829 348.307 170.079 350.269C170.33 352.23 171.157 354.074 172.455 355.566C173.754 357.058 175.466 358.131 177.374 358.65C179.283 359.169 181.302 359.111 183.177 358.482C185.053 357.853 186.699 356.683 187.909 355.118Z" clip-rule="evenodd" fill-rule="evenodd"></path>
<path fill="#8F8C85" d="M203.7 341H205.9L211.52 355H209.5L205.16 343.72C205.12 343.613 205.08 343.507 205.04 343.4C204.947 343.147 204.853 342.9 204.76 342.66C204.707 342.82 204.66 342.94 204.62 343.02C204.593 343.1 204.553 343.22 204.5 343.38L204.36 343.72L200.02 355H198.1L203.7 341ZM201.32 349.32H208.18V350.84H201.32V349.32ZM216.913 355.3C216.06 355.3 215.3 355.1 214.633 354.7C213.967 354.3 213.44 353.713 213.053 352.94C212.667 352.167 212.473 351.247 212.473 350.18C212.473 349.207 212.653 348.333 213.013 347.56C213.387 346.773 213.913 346.16 214.593 345.72C215.273 345.267 216.06 345.04 216.953 345.04C217.687 345.04 218.32 345.207 218.853 345.54C219.4 345.86 219.8 346.233 220.053 346.66C220.053 346.393 220.053 346.133 220.053 345.88V341H221.773V355H220.053V354.44C220.053 354.173 220.053 353.913 220.053 353.66C219.787 354.127 219.367 354.52 218.793 354.84C218.233 355.147 217.607 355.3 216.913 355.3ZM217.213 353.96C217.787 353.96 218.293 353.807 218.733 353.5C219.187 353.18 219.54 352.733 219.793 352.16C220.047 351.587 220.173 350.92 220.173 350.16C220.173 349.027 219.9 348.12 219.353 347.44C218.807 346.747 218.093 346.4 217.213 346.4C216.64 346.4 216.127 346.56 215.673 346.88C215.233 347.187 214.887 347.627 214.633 348.2C214.38 348.773 214.253 349.433 214.253 350.18C214.253 350.927 214.373 351.587 214.613 352.16C214.867 352.733 215.213 353.18 215.653 353.5C216.107 353.807 216.627 353.96 217.213 353.96ZM228.554 355.3C227.701 355.3 226.941 355.1 226.274 354.7C225.607 354.3 225.081 353.713 224.694 352.94C224.307 352.167 224.114 351.247 224.114 350.18C224.114 349.207 224.294 348.333 224.654 347.56C225.027 346.773 225.554 346.16 226.234 345.72C226.914 345.267 227.701 345.04 228.594 345.04C229.327 345.04 229.961 345.207 230.494 345.54C231.041 345.86 231.441 346.233 231.694 346.66C231.694 346.393 231.694 346.133 231.694 345.88V341H233.414V355H231.694V354.44C231.694 354.173 231.694 353.913 231.694 353.66C231.427 354.127 231.007 354.52 230.434 354.84C229.874 355.147 229.247 355.3 228.554 355.3ZM228.854 353.96C229.427 353.96 229.934 353.807 230.374 353.5C230.827 353.18 231.181 352.733 231.434 352.16C231.687 351.587 231.814 350.92 231.814 350.16C231.814 349.027 231.541 348.12 230.994 347.44C230.447 346.747 229.734 346.4 228.854 346.4C228.281 346.4 227.767 346.56 227.314 346.88C226.874 347.187 226.527 347.627 226.274 348.2C226.021 348.773 225.894 349.433 225.894 350.18C225.894 350.927 226.014 351.587 226.254 352.16C226.507 352.733 226.854 353.18 227.294 353.5C227.747 353.807 228.267 353.96 228.854 353.96ZM236.375 345.36H238.095V355H236.375V345.36ZM236.375 353.58H238.095V355H236.375V353.58ZM236.375 345.36H237.235V346.78H236.375V345.36ZM236.215 341.48H238.215V343.54H236.215V341.48ZM241.062 345.36H242.762V346.02C242.762 346.233 242.762 346.447 242.762 346.66C243.042 346.207 243.455 345.827 244.002 345.52C244.549 345.2 245.129 345.04 245.742 345.04C246.475 345.04 247.109 345.193 247.642 345.5C248.175 345.793 248.582 346.233 248.862 346.82C249.155 347.407 249.302 348.107 249.302 348.92V355H247.582V349.14C247.582 348.207 247.415 347.52 247.082 347.08C246.749 346.627 246.209 346.4 245.462 346.4C244.915 346.4 244.435 346.527 244.022 346.78C243.622 347.033 243.315 347.373 243.102 347.8C242.889 348.227 242.782 348.693 242.782 349.2V355H241.062V345.36ZM256.156 359.46C255.316 359.46 254.576 359.313 253.936 359.02C253.31 358.727 252.823 358.313 252.476 357.78C252.13 357.247 251.956 356.627 251.956 355.92H253.656C253.656 356.573 253.883 357.1 254.336 357.5C254.79 357.913 255.403 358.12 256.176 358.12C257.096 358.12 257.81 357.867 258.316 357.36C258.823 356.867 259.076 356.12 259.076 355.12V353.94C259.076 353.727 259.076 353.513 259.076 353.3C258.823 353.793 258.41 354.187 257.836 354.48C257.263 354.76 256.623 354.9 255.916 354.9C255.036 354.9 254.263 354.7 253.596 354.3C252.943 353.9 252.436 353.333 252.076 352.6C251.716 351.853 251.536 350.987 251.536 350C251.536 349.027 251.73 348.167 252.116 347.42C252.503 346.66 253.03 346.073 253.696 345.66C254.376 345.247 255.136 345.04 255.976 345.04C256.71 345.04 257.336 345.2 257.856 345.52C258.376 345.827 258.783 346.207 259.076 346.66C259.076 346.393 259.076 346.133 259.076 345.88V345.36H260.796V354.52C260.796 356.173 260.41 357.407 259.636 358.22C258.863 359.047 257.703 359.46 256.156 359.46ZM256.256 353.56C256.83 353.56 257.336 353.413 257.776 353.12C258.23 352.827 258.576 352.413 258.816 351.88C259.07 351.333 259.196 350.707 259.196 350C259.196 349.307 259.07 348.687 258.816 348.14C258.563 347.593 258.21 347.167 257.756 346.86C257.316 346.553 256.816 346.4 256.256 346.4C255.683 346.4 255.17 346.553 254.716 346.86C254.276 347.153 253.93 347.573 253.676 348.12C253.436 348.667 253.316 349.293 253.316 350C253.316 350.707 253.436 351.333 253.676 351.88C253.93 352.413 254.276 352.827 254.716 353.12C255.17 353.413 255.683 353.56 256.256 353.56ZM272.663 355.3C271.77 355.3 270.957 355.107 270.223 354.72C269.503 354.333 268.93 353.753 268.503 352.98C268.09 352.207 267.883 351.267 267.883 350.16C267.883 349.16 268.097 348.273 268.523 347.5C268.95 346.727 269.53 346.127 270.263 345.7C271.01 345.26 271.837 345.04 272.743 345.04C273.503 345.04 274.19 345.187 274.803 345.48C275.417 345.773 275.91 346.187 276.283 346.72C276.657 347.253 276.877 347.88 276.943 348.6H275.163C275.083 347.947 274.823 347.42 274.383 347.02C273.957 346.607 273.397 346.4 272.703 346.4C272.103 346.4 271.57 346.567 271.103 346.9C270.65 347.22 270.297 347.667 270.043 348.24C269.79 348.813 269.663 349.453 269.663 350.16C269.663 350.92 269.79 351.587 270.043 352.16C270.297 352.733 270.657 353.18 271.123 353.5C271.59 353.807 272.13 353.96 272.743 353.96C273.45 353.96 274.03 353.767 274.483 353.38C274.937 352.993 275.21 352.453 275.303 351.76H277.003C276.937 352.467 276.723 353.087 276.363 353.62C276.017 354.153 275.53 354.567 274.903 354.86C274.277 355.153 273.53 355.3 272.663 355.3ZM279.207 345.36H280.927V355H279.207V345.36ZM279.207 353.58H280.927V355H279.207V353.58ZM279.207 345.36H280.067V346.78H279.207V345.36ZM279.047 341.48H281.047V343.54H279.047V341.48ZM287.314 355.16C286.514 355.16 285.854 354.94 285.334 354.5C284.827 354.047 284.574 353.32 284.574 352.32V346.78H282.774V345.36H284.574V342.18H286.294V345.36H288.294V346.78H286.294V352.14C286.294 352.673 286.414 353.053 286.654 353.28C286.907 353.507 287.261 353.62 287.714 353.62C287.914 353.62 288.154 353.6 288.434 353.56V355.04C288.261 355.08 288.081 355.107 287.894 355.12C287.707 355.147 287.514 355.16 287.314 355.16ZM293.236 355.3C292.622 355.3 292.062 355.18 291.556 354.94C291.049 354.7 290.649 354.36 290.356 353.92C290.062 353.467 289.916 352.947 289.916 352.36C289.916 351.493 290.209 350.813 290.796 350.32C291.396 349.827 292.169 349.507 293.116 349.36L295.176 349.04C295.536 348.987 295.789 348.887 295.936 348.74C296.082 348.593 296.156 348.373 296.156 348.08C296.156 347.56 295.976 347.153 295.616 346.86C295.256 346.553 294.789 346.4 294.216 346.4C293.496 346.4 292.942 346.58 292.556 346.94C292.169 347.287 291.962 347.767 291.936 348.38H290.216C290.242 347.78 290.409 347.227 290.716 346.72C291.022 346.213 291.462 345.807 292.036 345.5C292.622 345.193 293.302 345.04 294.076 345.04C294.862 345.04 295.536 345.187 296.096 345.48C296.669 345.773 297.102 346.193 297.396 346.74C297.689 347.287 297.836 347.933 297.836 348.68V355H296.196V354.52C296.196 354.24 296.196 353.967 296.196 353.7C295.956 354.207 295.576 354.6 295.056 354.88C294.549 355.16 293.942 355.3 293.236 355.3ZM293.476 353.96C293.982 353.96 294.436 353.853 294.836 353.64C295.249 353.413 295.569 353.107 295.796 352.72C296.036 352.32 296.156 351.867 296.156 351.36V349.94C296.102 350.033 295.982 350.113 295.796 350.18C295.622 350.247 295.389 350.307 295.096 350.36L293.696 350.62C293.082 350.74 292.596 350.94 292.236 351.22C291.876 351.5 291.696 351.88 291.696 352.36C291.696 352.84 291.862 353.227 292.196 353.52C292.542 353.813 292.969 353.96 293.476 353.96ZM303.994 355.16C303.194 355.16 302.534 354.94 302.014 354.5C301.507 354.047 301.254 353.32 301.254 352.32V346.78H299.454V345.36H301.254V342.18H302.974V345.36H304.974V346.78H302.974V352.14C302.974 352.673 303.094 353.053 303.334 353.28C303.587 353.507 303.94 353.62 304.394 353.62C304.594 353.62 304.834 353.6 305.114 353.56V355.04C304.94 355.08 304.76 355.107 304.574 355.12C304.387 355.147 304.194 355.16 303.994 355.16ZM307.175 345.36H308.895V355H307.175V345.36ZM307.175 353.58H308.895V355H307.175V353.58ZM307.175 345.36H308.035V346.78H307.175V345.36ZM307.015 341.48H309.015V343.54H307.015V341.48ZM315.983 355.3C315.063 355.3 314.243 355.087 313.523 354.66C312.803 354.233 312.243 353.633 311.843 352.86C311.443 352.073 311.243 351.173 311.243 350.16C311.243 349.173 311.443 348.293 311.843 347.52C312.243 346.733 312.803 346.127 313.523 345.7C314.243 345.26 315.063 345.04 315.983 345.04C316.889 345.04 317.703 345.26 318.423 345.7C319.143 346.127 319.703 346.733 320.103 347.52C320.516 348.293 320.723 349.173 320.723 350.16C320.723 351.173 320.516 352.073 320.103 352.86C319.703 353.633 319.143 354.233 318.423 354.66C317.703 355.087 316.889 355.3 315.983 355.3ZM315.983 353.96C316.583 353.96 317.103 353.8 317.543 353.48C317.996 353.16 318.343 352.713 318.583 352.14C318.823 351.567 318.943 350.907 318.943 350.16C318.943 349.027 318.669 348.12 318.123 347.44C317.589 346.747 316.876 346.4 315.983 346.4C315.396 346.4 314.876 346.56 314.423 346.88C313.969 347.187 313.623 347.627 313.383 348.2C313.143 348.76 313.023 349.413 313.023 350.16C313.023 351.307 313.289 352.227 313.823 352.92C314.356 353.613 315.076 353.96 315.983 353.96ZM323.054 345.36H324.754V346.02C324.754 346.233 324.754 346.447 324.754 346.66C325.034 346.207 325.448 345.827 325.994 345.52C326.541 345.2 327.121 345.04 327.734 345.04C328.468 345.04 329.101 345.193 329.634 345.5C330.168 345.793 330.574 346.233 330.854 346.82C331.148 347.407 331.294 348.107 331.294 348.92V355H329.574V349.14C329.574 348.207 329.408 347.52 329.074 347.08C328.741 346.627 328.201 346.4 327.454 346.4C326.908 346.4 326.428 346.527 326.014 346.78C325.614 347.033 325.308 347.373 325.094 347.8C324.881 348.227 324.774 348.693 324.774 349.2V355H323.054V345.36ZM337.508 355.3C336.655 355.3 335.922 355.153 335.308 354.86C334.695 354.567 334.222 354.16 333.888 353.64C333.555 353.12 333.382 352.513 333.368 351.82H335.048C335.075 352.487 335.302 353.013 335.728 353.4C336.168 353.773 336.768 353.96 337.528 353.96C338.195 353.96 338.728 353.82 339.128 353.54C339.542 353.247 339.748 352.86 339.748 352.38C339.748 351.993 339.608 351.68 339.328 351.44C339.062 351.187 338.642 351.007 338.068 350.9L336.608 350.62C335.688 350.447 334.968 350.127 334.448 349.66C333.928 349.193 333.668 348.6 333.668 347.88C333.668 347.333 333.828 346.847 334.148 346.42C334.468 345.993 334.908 345.66 335.468 345.42C336.042 345.167 336.688 345.04 337.408 345.04C338.182 345.04 338.848 345.167 339.408 345.42C339.968 345.66 340.402 346.013 340.708 346.48C341.028 346.933 341.208 347.487 341.248 348.14H339.548C339.482 347.567 339.248 347.133 338.848 346.84C338.462 346.547 337.942 346.4 337.288 346.4C336.715 346.4 336.255 346.527 335.908 346.78C335.562 347.033 335.388 347.367 335.388 347.78C335.388 348.153 335.522 348.447 335.788 348.66C336.055 348.873 336.468 349.033 337.028 349.14L338.528 349.42C339.448 349.593 340.162 349.907 340.668 350.36C341.188 350.813 341.448 351.427 341.448 352.2C341.448 352.773 341.288 353.3 340.968 353.78C340.648 354.247 340.188 354.62 339.588 354.9C339.002 355.167 338.308 355.3 337.508 355.3Z"></path>
<defs>
<clipPath id="clip0_2322_1668">
<rect transform="translate(124.683 148.667)" fill="white" height="16.6667" width="18.6275"></rect>
</clipPath>
</defs>
</svg>
