<svg xmlns="http://www.w3.org/2000/svg" fill="none" viewBox="0 0 675 507" height="507" width="675">
<rect fill="#CCCAC6" transform="translate(0 0.25)" height="506.25" width="675"></rect>
<rect fill="white" rx="14" height="332" width="505" y="87" x="85"></rect>
<path fill="#0F0E0D" d="M115.352 118.4H128.512V121.004H118.432V126.632H128.092V129.264H118.432V135.368H128.904V138H115.352V118.4ZM135.491 131.084L130.759 124.42H134.147L136.415 127.808C136.676 128.181 136.928 128.583 137.171 129.012C137.376 128.657 137.628 128.256 137.927 127.808L140.251 124.42H143.527L138.655 131.028L143.695 138H140.307L137.787 134.248L137.675 134.08C137.469 133.744 137.255 133.408 137.031 133.072C136.751 133.52 136.499 133.912 136.275 134.248L133.671 138H130.395L135.491 131.084ZM145.83 124.42H148.742V125.232C148.742 125.568 148.723 125.932 148.686 126.324C149.115 125.633 149.712 125.073 150.478 124.644C151.262 124.196 152.148 123.972 153.138 123.972C154.37 123.972 155.443 124.289 156.358 124.924C157.291 125.54 158 126.399 158.486 127.5C158.99 128.583 159.242 129.824 159.242 131.224C159.242 132.661 158.98 133.931 158.458 135.032C157.935 136.115 157.198 136.955 156.246 137.552C155.312 138.149 154.248 138.448 153.054 138.448C152.027 138.448 151.159 138.243 150.45 137.832C149.74 137.421 149.152 136.852 148.686 136.124C148.723 136.553 148.742 136.955 148.742 137.328V143.768H145.83V124.42ZM152.438 136.18C153.203 136.18 153.875 135.975 154.454 135.564C155.032 135.135 155.48 134.547 155.798 133.8C156.115 133.053 156.274 132.185 156.274 131.196C156.274 130.244 156.115 129.395 155.798 128.648C155.48 127.901 155.032 127.323 154.454 126.912C153.894 126.483 153.222 126.268 152.438 126.268C151.71 126.268 151.047 126.473 150.45 126.884C149.871 127.295 149.414 127.873 149.078 128.62C148.76 129.348 148.602 130.207 148.602 131.196C148.602 132.185 148.76 133.053 149.078 133.8C149.414 134.547 149.871 135.135 150.45 135.564C151.028 135.975 151.691 136.18 152.438 136.18ZM166.156 138.448C165.335 138.448 164.56 138.28 163.832 137.944C163.123 137.608 162.553 137.123 162.124 136.488C161.695 135.853 161.48 135.116 161.48 134.276C161.48 132.951 161.919 131.952 162.796 131.28C163.692 130.589 164.887 130.132 166.38 129.908L168.816 129.572C169.339 129.497 169.703 129.357 169.908 129.152C170.132 128.947 170.244 128.657 170.244 128.284C170.244 127.649 170.011 127.145 169.544 126.772C169.096 126.38 168.499 126.184 167.752 126.184C166.856 126.184 166.147 126.417 165.624 126.884C165.12 127.332 164.84 127.948 164.784 128.732H161.844C161.9 127.855 162.161 127.052 162.628 126.324C163.113 125.596 163.776 125.027 164.616 124.616C165.456 124.187 166.436 123.972 167.556 123.972C168.788 123.972 169.815 124.196 170.636 124.644C171.476 125.073 172.101 125.708 172.512 126.548C172.923 127.369 173.128 128.368 173.128 129.544V138H170.384V137.384C170.384 136.992 170.412 136.581 170.468 136.152C170.095 136.88 169.544 137.449 168.816 137.86C168.088 138.252 167.201 138.448 166.156 138.448ZM166.772 136.264C167.425 136.264 168.023 136.124 168.564 135.844C169.105 135.545 169.525 135.135 169.824 134.612C170.141 134.089 170.3 133.492 170.3 132.82V131.056C170.188 131.187 170.011 131.299 169.768 131.392C169.525 131.485 169.189 131.569 168.76 131.644L167.192 131.952C166.333 132.12 165.661 132.381 165.176 132.736C164.691 133.091 164.448 133.585 164.448 134.22C164.448 134.836 164.672 135.331 165.12 135.704C165.568 136.077 166.119 136.264 166.772 136.264ZM176.756 124.42H179.64V125.204C179.64 125.559 179.621 125.932 179.584 126.324C179.994 125.633 180.554 125.073 181.264 124.644C181.992 124.196 182.832 123.972 183.784 123.972C184.792 123.972 185.66 124.196 186.388 124.644C187.134 125.073 187.704 125.699 188.096 126.52C188.488 127.341 188.684 128.312 188.684 129.432V138H185.772V129.824C185.772 128.667 185.538 127.789 185.072 127.192C184.624 126.576 183.933 126.268 183 126.268C182.346 126.268 181.758 126.436 181.236 126.772C180.732 127.089 180.34 127.528 180.06 128.088C179.798 128.648 179.668 129.264 179.668 129.936V138H176.756V124.42ZM197.438 138.448C196.206 138.448 195.132 138.243 194.218 137.832C193.322 137.421 192.622 136.843 192.118 136.096C191.632 135.331 191.362 134.444 191.306 133.436H194.218C194.255 134.313 194.544 135.004 195.086 135.508C195.646 136.012 196.42 136.264 197.41 136.264C198.25 136.264 198.931 136.087 199.454 135.732C199.976 135.359 200.238 134.873 200.238 134.276C200.238 133.772 200.051 133.371 199.678 133.072C199.304 132.773 198.726 132.549 197.942 132.4L196.066 132.036C194.703 131.775 193.648 131.308 192.902 130.636C192.155 129.964 191.782 129.096 191.782 128.032C191.782 127.267 192.006 126.576 192.454 125.96C192.92 125.344 193.564 124.859 194.386 124.504C195.207 124.149 196.14 123.972 197.186 123.972C198.343 123.972 199.342 124.159 200.182 124.532C201.022 124.905 201.675 125.428 202.142 126.1C202.608 126.772 202.86 127.575 202.898 128.508H200.014C199.939 127.78 199.64 127.211 199.118 126.8C198.614 126.389 197.942 126.184 197.102 126.184C196.374 126.184 195.786 126.343 195.338 126.66C194.89 126.959 194.666 127.369 194.666 127.892C194.666 128.377 194.834 128.751 195.17 129.012C195.524 129.273 196.112 129.488 196.934 129.656L198.81 130.02C200.172 130.281 201.227 130.739 201.974 131.392C202.72 132.045 203.094 132.932 203.094 134.052C203.094 134.873 202.86 135.62 202.394 136.292C201.927 136.964 201.264 137.496 200.406 137.888C199.566 138.261 198.576 138.448 197.438 138.448ZM206.095 124.42H209.007V138H206.095V124.42ZM206.095 135.648H209.007V138H206.095V135.648ZM206.095 124.42H207.551V126.772H206.095V124.42ZM205.955 118.876H209.119V122.096H205.955V118.876ZM218.814 138.448C217.489 138.448 216.303 138.159 215.258 137.58C214.231 136.983 213.429 136.143 212.85 135.06C212.29 133.959 212.01 132.68 212.01 131.224C212.01 129.805 212.299 128.545 212.878 127.444C213.457 126.343 214.259 125.493 215.286 124.896C216.313 124.28 217.489 123.972 218.814 123.972C220.121 123.972 221.287 124.28 222.314 124.896C223.359 125.493 224.171 126.343 224.75 127.444C225.347 128.545 225.646 129.805 225.646 131.224C225.646 132.68 225.347 133.959 224.75 135.06C224.171 136.143 223.359 136.983 222.314 137.58C221.287 138.159 220.121 138.448 218.814 138.448ZM218.814 136.18C219.598 136.18 220.279 135.984 220.858 135.592C221.437 135.181 221.885 134.603 222.202 133.856C222.519 133.109 222.678 132.232 222.678 131.224C222.678 129.693 222.323 128.489 221.614 127.612C220.905 126.716 219.971 126.268 218.814 126.268C218.049 126.268 217.377 126.473 216.798 126.884C216.219 127.276 215.771 127.845 215.454 128.592C215.137 129.339 214.978 130.216 214.978 131.224C214.978 132.755 215.323 133.968 216.014 134.864C216.705 135.741 217.638 136.18 218.814 136.18ZM228.627 124.42H231.511V125.204C231.511 125.559 231.492 125.932 231.455 126.324C231.865 125.633 232.425 125.073 233.135 124.644C233.863 124.196 234.703 123.972 235.655 123.972C236.663 123.972 237.531 124.196 238.259 124.644C239.005 125.073 239.575 125.699 239.967 126.52C240.359 127.341 240.555 128.312 240.555 129.432V138H237.643V129.824C237.643 128.667 237.409 127.789 236.943 127.192C236.495 126.576 235.804 126.268 234.871 126.268C234.217 126.268 233.629 126.436 233.107 126.772C232.603 127.089 232.211 127.528 231.931 128.088C231.669 128.648 231.539 129.264 231.539 129.936V138H228.627V124.42ZM256.466 138.448C255.141 138.448 253.956 138.159 252.91 137.58C251.884 136.983 251.081 136.143 250.502 135.06C249.942 133.959 249.662 132.68 249.662 131.224C249.662 129.805 249.952 128.545 250.53 127.444C251.109 126.343 251.912 125.493 252.938 124.896C253.965 124.28 255.141 123.972 256.466 123.972C257.773 123.972 258.94 124.28 259.966 124.896C261.012 125.493 261.824 126.343 262.402 127.444C263 128.545 263.298 129.805 263.298 131.224C263.298 132.68 263 133.959 262.402 135.06C261.824 136.143 261.012 136.983 259.966 137.58C258.94 138.159 257.773 138.448 256.466 138.448ZM256.466 136.18C257.25 136.18 257.932 135.984 258.51 135.592C259.089 135.181 259.537 134.603 259.854 133.856C260.172 133.109 260.33 132.232 260.33 131.224C260.33 129.693 259.976 128.489 259.266 127.612C258.557 126.716 257.624 126.268 256.466 126.268C255.701 126.268 255.029 126.473 254.45 126.884C253.872 127.276 253.424 127.845 253.106 128.592C252.789 129.339 252.63 130.216 252.63 131.224C252.63 132.755 252.976 133.968 253.666 134.864C254.357 135.741 255.29 136.18 256.466 136.18ZM267.264 126.772H264.66V124.42H267.264V122.376C267.264 120.957 267.646 119.865 268.412 119.1C269.196 118.316 270.194 117.924 271.408 117.924C271.725 117.924 272.024 117.952 272.304 118.008C272.584 118.045 272.817 118.101 273.004 118.176V120.528C272.63 120.453 272.322 120.416 272.08 120.416C271.501 120.416 271.034 120.584 270.68 120.92C270.344 121.237 270.176 121.704 270.176 122.32V124.42H273.004V126.772H270.176V138H267.264V126.772ZM281.629 118.4H289.553C290.879 118.4 292.055 118.587 293.081 118.96C294.127 119.333 294.957 119.949 295.573 120.808C296.189 121.667 296.497 122.768 296.497 124.112C296.497 125.475 296.189 126.585 295.573 127.444C294.957 128.284 294.127 128.891 293.081 129.264C292.055 129.637 290.879 129.824 289.553 129.824H284.709V138H281.629V118.4ZM289.525 127.22C290.832 127.22 291.784 126.949 292.381 126.408C292.997 125.867 293.305 125.101 293.305 124.112C293.305 123.123 292.997 122.357 292.381 121.816C291.784 121.275 290.832 121.004 289.525 121.004H284.709V127.22H289.525ZM298.9 124.42H301.812V125.232C301.812 125.755 301.793 126.268 301.756 126.772C302.129 125.932 302.661 125.26 303.352 124.756C304.061 124.233 304.901 123.972 305.872 123.972C306.133 123.972 306.357 123.991 306.544 124.028V126.856C306.264 126.8 305.975 126.772 305.676 126.772C304.873 126.772 304.183 126.921 303.604 127.22C303.025 127.519 302.577 127.985 302.26 128.62C301.961 129.255 301.812 130.057 301.812 131.028V138H298.9V124.42ZM314.517 138.448C313.192 138.448 312.006 138.159 310.961 137.58C309.934 136.983 309.132 136.143 308.553 135.06C307.993 133.959 307.713 132.68 307.713 131.224C307.713 129.805 308.002 128.545 308.581 127.444C309.16 126.343 309.962 125.493 310.989 124.896C312.016 124.28 313.192 123.972 314.517 123.972C315.824 123.972 316.99 124.28 318.017 124.896C319.062 125.493 319.874 126.343 320.453 127.444C321.05 128.545 321.349 129.805 321.349 131.224C321.349 132.68 321.05 133.959 320.453 135.06C319.874 136.143 319.062 136.983 318.017 137.58C316.99 138.159 315.824 138.448 314.517 138.448ZM314.517 136.18C315.301 136.18 315.982 135.984 316.561 135.592C317.14 135.181 317.588 134.603 317.905 133.856C318.222 133.109 318.381 132.232 318.381 131.224C318.381 129.693 318.026 128.489 317.317 127.612C316.608 126.716 315.674 126.268 314.517 126.268C313.752 126.268 313.08 126.473 312.501 126.884C311.922 127.276 311.474 127.845 311.157 128.592C310.84 129.339 310.681 130.216 310.681 131.224C310.681 132.755 311.026 133.968 311.717 134.864C312.408 135.741 313.341 136.18 314.517 136.18ZM323.322 144.244C323.042 144.244 322.752 144.225 322.454 144.188C322.174 144.151 321.94 144.104 321.754 144.048V141.64C321.94 141.715 322.174 141.752 322.454 141.752C323.107 141.752 323.602 141.584 323.938 141.248C324.274 140.931 324.442 140.389 324.442 139.624V124.42H327.326V140.324C327.326 141.407 326.999 142.331 326.346 143.096C325.692 143.861 324.684 144.244 323.322 144.244ZM324.442 124.42H325.87V126.772H324.442V124.42ZM324.302 118.876H327.466V122.096H324.302V118.876ZM337.074 138.448C335.712 138.448 334.526 138.168 333.518 137.608C332.51 137.029 331.726 136.199 331.166 135.116C330.606 134.033 330.326 132.717 330.326 131.168C330.326 129.787 330.606 128.555 331.166 127.472C331.745 126.371 332.538 125.512 333.546 124.896C334.554 124.28 335.684 123.972 336.934 123.972C338.278 123.972 339.426 124.271 340.378 124.868C341.349 125.465 342.086 126.315 342.59 127.416C343.094 128.499 343.346 129.768 343.346 131.224V131.84H333.266C333.266 132.717 333.434 133.483 333.77 134.136C334.106 134.789 334.554 135.293 335.114 135.648C335.693 136.003 336.346 136.18 337.074 136.18C337.933 136.18 338.652 135.975 339.23 135.564C339.828 135.153 340.192 134.528 340.322 133.688H343.234C343.141 134.584 342.842 135.396 342.338 136.124C341.834 136.833 341.125 137.403 340.21 137.832C339.314 138.243 338.269 138.448 337.074 138.448ZM340.322 129.768C340.304 128.685 339.996 127.817 339.398 127.164C338.801 126.511 337.98 126.184 336.934 126.184C335.926 126.184 335.086 126.529 334.414 127.22C333.761 127.892 333.388 128.741 333.294 129.768H340.322ZM352.388 138.448C351.044 138.448 349.859 138.168 348.832 137.608C347.806 137.048 347.003 136.227 346.424 135.144C345.864 134.043 345.584 132.727 345.584 131.196C345.584 129.759 345.883 128.499 346.48 127.416C347.096 126.315 347.927 125.465 348.972 124.868C350.036 124.271 351.212 123.972 352.5 123.972C353.676 123.972 354.712 124.196 355.608 124.644C356.504 125.073 357.214 125.689 357.736 126.492C358.259 127.295 358.576 128.219 358.688 129.264H355.72C355.627 128.387 355.3 127.668 354.74 127.108C354.18 126.548 353.424 126.268 352.472 126.268C351.726 126.268 351.054 126.473 350.456 126.884C349.859 127.295 349.392 127.873 349.056 128.62C348.72 129.367 348.552 130.235 348.552 131.224C348.552 132.195 348.711 133.063 349.028 133.828C349.364 134.575 349.822 135.153 350.4 135.564C350.998 135.975 351.688 136.18 352.472 136.18C353.462 136.18 354.246 135.909 354.824 135.368C355.422 134.808 355.776 134.061 355.888 133.128H358.8C358.67 134.211 358.343 135.153 357.82 135.956C357.298 136.759 356.57 137.375 355.636 137.804C354.722 138.233 353.639 138.448 352.388 138.448ZM366.894 138.224C365.606 138.224 364.589 137.888 363.842 137.216C363.114 136.525 362.75 135.452 362.75 133.996V126.772H359.95V124.42H362.75V119.744H365.662V124.42H368.742V126.772H365.662V133.632C365.662 134.379 365.83 134.929 366.166 135.284C366.502 135.62 367.006 135.788 367.678 135.788C367.995 135.788 368.331 135.76 368.686 135.704V138.028C368.481 138.084 368.21 138.131 367.874 138.168C367.557 138.205 367.23 138.224 366.894 138.224ZM122.184 166.448C120.541 166.448 119.104 166.168 117.872 165.608C116.64 165.048 115.688 164.245 115.016 163.2C114.344 162.136 113.971 160.904 113.896 159.504H117.088C117.144 160.4 117.405 161.175 117.872 161.828C118.339 162.481 118.945 162.985 119.692 163.34C120.457 163.676 121.316 163.844 122.268 163.844C123.668 163.844 124.76 163.573 125.544 163.032C126.347 162.491 126.748 161.725 126.748 160.736C126.748 159.915 126.449 159.271 125.852 158.804C125.255 158.337 124.359 157.983 123.164 157.74L120.056 157.068C118.432 156.732 117.116 156.107 116.108 155.192C115.1 154.259 114.596 153.064 114.596 151.608C114.596 150.507 114.913 149.527 115.548 148.668C116.183 147.809 117.06 147.137 118.18 146.652C119.3 146.167 120.569 145.924 121.988 145.924C123.481 145.924 124.788 146.185 125.908 146.708C127.028 147.212 127.896 147.931 128.512 148.864C129.128 149.779 129.473 150.861 129.548 152.112H126.356C126.319 151.403 126.123 150.787 125.768 150.264C125.413 149.723 124.9 149.303 124.228 149.004C123.575 148.687 122.791 148.528 121.876 148.528C121.092 148.528 120.383 148.649 119.748 148.892C119.132 149.116 118.647 149.443 118.292 149.872C117.937 150.283 117.76 150.768 117.76 151.328C117.76 152.112 118.031 152.728 118.572 153.176C119.132 153.605 119.981 153.941 121.12 154.184L124.508 154.884C126.151 155.239 127.457 155.873 128.428 156.788C129.417 157.703 129.912 158.897 129.912 160.372C129.912 161.529 129.604 162.565 128.988 163.48C128.372 164.395 127.485 165.123 126.328 165.664C125.171 166.187 123.789 166.448 122.184 166.448ZM138.998 166.448C137.654 166.448 136.468 166.168 135.442 165.608C134.415 165.048 133.612 164.227 133.034 163.144C132.474 162.043 132.194 160.727 132.194 159.196C132.194 157.759 132.492 156.499 133.09 155.416C133.706 154.315 134.536 153.465 135.582 152.868C136.646 152.271 137.822 151.972 139.11 151.972C140.286 151.972 141.322 152.196 142.218 152.644C143.114 153.073 143.823 153.689 144.346 154.492C144.868 155.295 145.186 156.219 145.298 157.264H142.33C142.236 156.387 141.91 155.668 141.35 155.108C140.79 154.548 140.034 154.268 139.082 154.268C138.335 154.268 137.663 154.473 137.066 154.884C136.468 155.295 136.002 155.873 135.666 156.62C135.33 157.367 135.162 158.235 135.162 159.224C135.162 160.195 135.32 161.063 135.638 161.828C135.974 162.575 136.431 163.153 137.01 163.564C137.607 163.975 138.298 164.18 139.082 164.18C140.071 164.18 140.855 163.909 141.434 163.368C142.031 162.808 142.386 162.061 142.498 161.128H145.41C145.279 162.211 144.952 163.153 144.43 163.956C143.907 164.759 143.179 165.375 142.246 165.804C141.331 166.233 140.248 166.448 138.998 166.448ZM154.201 166.448C152.875 166.448 151.69 166.159 150.645 165.58C149.618 164.983 148.815 164.143 148.237 163.06C147.677 161.959 147.397 160.68 147.397 159.224C147.397 157.805 147.686 156.545 148.265 155.444C148.843 154.343 149.646 153.493 150.673 152.896C151.699 152.28 152.875 151.972 154.201 151.972C155.507 151.972 156.674 152.28 157.701 152.896C158.746 153.493 159.558 154.343 160.137 155.444C160.734 156.545 161.033 157.805 161.033 159.224C161.033 160.68 160.734 161.959 160.137 163.06C159.558 164.143 158.746 164.983 157.701 165.58C156.674 166.159 155.507 166.448 154.201 166.448ZM154.201 164.18C154.985 164.18 155.666 163.984 156.245 163.592C156.823 163.181 157.271 162.603 157.589 161.856C157.906 161.109 158.065 160.232 158.065 159.224C158.065 157.693 157.71 156.489 157.001 155.612C156.291 154.716 155.358 154.268 154.201 154.268C153.435 154.268 152.763 154.473 152.185 154.884C151.606 155.276 151.158 155.845 150.841 156.592C150.523 157.339 150.365 158.216 150.365 159.224C150.365 160.755 150.71 161.968 151.401 162.864C152.091 163.741 153.025 164.18 154.201 164.18ZM164.013 152.42H166.925V153.232C166.925 153.568 166.907 153.932 166.869 154.324C167.299 153.633 167.896 153.073 168.661 152.644C169.445 152.196 170.332 151.972 171.321 151.972C172.553 151.972 173.627 152.289 174.541 152.924C175.475 153.54 176.184 154.399 176.669 155.5C177.173 156.583 177.425 157.824 177.425 159.224C177.425 160.661 177.164 161.931 176.641 163.032C176.119 164.115 175.381 164.955 174.429 165.552C173.496 166.149 172.432 166.448 171.237 166.448C170.211 166.448 169.343 166.243 168.633 165.832C167.924 165.421 167.336 164.852 166.869 164.124C166.907 164.553 166.925 164.955 166.925 165.328V171.768H164.013V152.42ZM170.621 164.18C171.387 164.18 172.059 163.975 172.637 163.564C173.216 163.135 173.664 162.547 173.981 161.8C174.299 161.053 174.457 160.185 174.457 159.196C174.457 158.244 174.299 157.395 173.981 156.648C173.664 155.901 173.216 155.323 172.637 154.912C172.077 154.483 171.405 154.268 170.621 154.268C169.893 154.268 169.231 154.473 168.633 154.884C168.055 155.295 167.597 155.873 167.261 156.62C166.944 157.348 166.785 158.207 166.785 159.196C166.785 160.185 166.944 161.053 167.261 161.8C167.597 162.547 168.055 163.135 168.633 163.564C169.212 163.975 169.875 164.18 170.621 164.18ZM186.356 166.448C184.993 166.448 183.808 166.168 182.8 165.608C181.792 165.029 181.008 164.199 180.448 163.116C179.888 162.033 179.608 160.717 179.608 159.168C179.608 157.787 179.888 156.555 180.448 155.472C181.026 154.371 181.82 153.512 182.828 152.896C183.836 152.28 184.965 151.972 186.216 151.972C187.56 151.972 188.708 152.271 189.66 152.868C190.63 153.465 191.368 154.315 191.872 155.416C192.376 156.499 192.628 157.768 192.628 159.224V159.84H182.548C182.548 160.717 182.716 161.483 183.052 162.136C183.388 162.789 183.836 163.293 184.396 163.648C184.974 164.003 185.628 164.18 186.356 164.18C187.214 164.18 187.933 163.975 188.512 163.564C189.109 163.153 189.473 162.528 189.604 161.688H192.516C192.422 162.584 192.124 163.396 191.62 164.124C191.116 164.833 190.406 165.403 189.492 165.832C188.596 166.243 187.55 166.448 186.356 166.448ZM189.604 157.768C189.585 156.685 189.277 155.817 188.68 155.164C188.082 154.511 187.261 154.184 186.216 154.184C185.208 154.184 184.368 154.529 183.696 155.22C183.042 155.892 182.669 156.741 182.576 157.768H189.604ZM205.859 166.448C205.038 166.448 204.263 166.28 203.535 165.944C202.826 165.608 202.256 165.123 201.827 164.488C201.398 163.853 201.183 163.116 201.183 162.276C201.183 160.951 201.622 159.952 202.499 159.28C203.395 158.589 204.59 158.132 206.083 157.908L208.519 157.572C209.042 157.497 209.406 157.357 209.611 157.152C209.835 156.947 209.947 156.657 209.947 156.284C209.947 155.649 209.714 155.145 209.247 154.772C208.799 154.38 208.202 154.184 207.455 154.184C206.559 154.184 205.85 154.417 205.327 154.884C204.823 155.332 204.543 155.948 204.487 156.732H201.547C201.603 155.855 201.864 155.052 202.331 154.324C202.816 153.596 203.479 153.027 204.319 152.616C205.159 152.187 206.139 151.972 207.259 151.972C208.491 151.972 209.518 152.196 210.339 152.644C211.179 153.073 211.804 153.708 212.215 154.548C212.626 155.369 212.831 156.368 212.831 157.544V166H210.087V165.384C210.087 164.992 210.115 164.581 210.171 164.152C209.798 164.88 209.247 165.449 208.519 165.86C207.791 166.252 206.904 166.448 205.859 166.448ZM206.475 164.264C207.128 164.264 207.726 164.124 208.267 163.844C208.808 163.545 209.228 163.135 209.527 162.612C209.844 162.089 210.003 161.492 210.003 160.82V159.056C209.891 159.187 209.714 159.299 209.471 159.392C209.228 159.485 208.892 159.569 208.463 159.644L206.895 159.952C206.036 160.12 205.364 160.381 204.879 160.736C204.394 161.091 204.151 161.585 204.151 162.22C204.151 162.836 204.375 163.331 204.823 163.704C205.271 164.077 205.822 164.264 206.475 164.264ZM216.459 152.42H219.343V153.204C219.343 153.559 219.324 153.932 219.287 154.324C219.697 153.633 220.257 153.073 220.967 152.644C221.695 152.196 222.535 151.972 223.487 151.972C224.495 151.972 225.363 152.196 226.091 152.644C226.837 153.073 227.407 153.699 227.799 154.52C228.191 155.341 228.387 156.312 228.387 157.432V166H225.475V157.824C225.475 156.667 225.241 155.789 224.775 155.192C224.327 154.576 223.636 154.268 222.703 154.268C222.049 154.268 221.461 154.436 220.939 154.772C220.435 155.089 220.043 155.528 219.763 156.088C219.501 156.648 219.371 157.264 219.371 157.936V166H216.459V152.42ZM237.477 166.448C236.263 166.448 235.19 166.177 234.257 165.636C233.323 165.076 232.586 164.255 232.045 163.172C231.503 162.071 231.233 160.764 231.233 159.252C231.233 157.777 231.503 156.499 232.045 155.416C232.605 154.315 233.361 153.465 234.313 152.868C235.265 152.271 236.338 151.972 237.533 151.972C238.541 151.972 239.409 152.196 240.137 152.644C240.865 153.092 241.425 153.652 241.817 154.324C241.779 153.951 241.761 153.54 241.761 153.092V146.4H244.645V166H241.761V165.328C241.761 164.861 241.779 164.46 241.817 164.124C241.462 164.777 240.902 165.328 240.137 165.776C239.39 166.224 238.503 166.448 237.477 166.448ZM238.065 164.18C238.811 164.18 239.474 163.975 240.053 163.564C240.65 163.153 241.107 162.575 241.425 161.828C241.761 161.063 241.929 160.195 241.929 159.224C241.929 157.731 241.574 156.536 240.865 155.64C240.155 154.725 239.222 154.268 238.065 154.268C237.337 154.268 236.674 154.483 236.077 154.912C235.498 155.323 235.041 155.901 234.705 156.648C234.369 157.395 234.201 158.253 234.201 159.224C234.201 160.213 234.359 161.081 234.677 161.828C235.013 162.575 235.47 163.153 236.049 163.564C236.646 163.975 237.318 164.18 238.065 164.18ZM255.188 146.4H268.348V149.004H258.268V154.8H267.844V157.432H258.268V166H255.188V146.4ZM275.659 166.448C274.67 166.448 273.811 166.243 273.083 165.832C272.355 165.421 271.786 164.815 271.375 164.012C270.983 163.209 270.787 162.229 270.787 161.072V152.42H273.699V160.54C273.699 161.697 273.923 162.593 274.371 163.228C274.838 163.844 275.538 164.152 276.471 164.152C277.143 164.152 277.713 163.993 278.179 163.676C278.665 163.359 279.038 162.901 279.299 162.304C279.561 161.707 279.691 161.007 279.691 160.204V152.42H282.575V166H279.719V165.3C279.719 165.001 279.738 164.703 279.775 164.404L279.803 164.124C279.449 164.833 278.917 165.403 278.207 165.832C277.498 166.243 276.649 166.448 275.659 166.448ZM286.404 152.42H289.288V153.204C289.288 153.559 289.269 153.932 289.232 154.324C289.643 153.633 290.203 153.073 290.912 152.644C291.64 152.196 292.48 151.972 293.432 151.972C294.44 151.972 295.308 152.196 296.036 152.644C296.783 153.073 297.352 153.699 297.744 154.52C298.136 155.341 298.332 156.312 298.332 157.432V166H295.42V157.824C295.42 156.667 295.187 155.789 294.72 155.192C294.272 154.576 293.581 154.268 292.648 154.268C291.995 154.268 291.407 154.436 290.884 154.772C290.38 155.089 289.988 155.528 289.708 156.088C289.447 156.648 289.316 157.264 289.316 157.936V166H286.404V152.42ZM307.422 166.448C306.209 166.448 305.135 166.177 304.202 165.636C303.269 165.076 302.531 164.255 301.99 163.172C301.449 162.071 301.178 160.764 301.178 159.252C301.178 157.777 301.449 156.499 301.99 155.416C302.55 154.315 303.306 153.465 304.258 152.868C305.21 152.271 306.283 151.972 307.478 151.972C308.486 151.972 309.354 152.196 310.082 152.644C310.81 153.092 311.37 153.652 311.762 154.324C311.725 153.951 311.706 153.54 311.706 153.092V146.4H314.59V166H311.706V165.328C311.706 164.861 311.725 164.46 311.762 164.124C311.407 164.777 310.847 165.328 310.082 165.776C309.335 166.224 308.449 166.448 307.422 166.448ZM308.01 164.18C308.757 164.18 309.419 163.975 309.998 163.564C310.595 163.153 311.053 162.575 311.37 161.828C311.706 161.063 311.874 160.195 311.874 159.224C311.874 157.731 311.519 156.536 310.81 155.64C310.101 154.725 309.167 154.268 308.01 154.268C307.282 154.268 306.619 154.483 306.022 154.912C305.443 155.323 304.986 155.901 304.65 156.648C304.314 157.395 304.146 158.253 304.146 159.224C304.146 160.213 304.305 161.081 304.622 161.828C304.958 162.575 305.415 163.153 305.994 163.564C306.591 163.975 307.263 164.18 308.01 164.18ZM318.424 152.42H321.336V166H318.424V152.42ZM318.424 163.648H321.336V166H318.424V163.648ZM318.424 152.42H319.88V154.772H318.424V152.42ZM318.284 146.876H321.448V150.096H318.284V146.876ZM325.15 152.42H328.034V153.204C328.034 153.559 328.015 153.932 327.978 154.324C328.389 153.633 328.949 153.073 329.658 152.644C330.386 152.196 331.226 151.972 332.178 151.972C333.186 151.972 334.054 152.196 334.782 152.644C335.529 153.073 336.098 153.699 336.49 154.52C336.882 155.341 337.078 156.312 337.078 157.432V166H334.166V157.824C334.166 156.667 333.933 155.789 333.466 155.192C333.018 154.576 332.327 154.268 331.394 154.268C330.741 154.268 330.153 154.436 329.63 154.772C329.126 155.089 328.734 155.528 328.454 156.088C328.193 156.648 328.062 157.264 328.062 157.936V166H325.15V152.42ZM346.616 172.244C345.384 172.244 344.301 172.029 343.368 171.6C342.453 171.171 341.753 170.573 341.268 169.808C340.783 169.043 340.54 168.147 340.54 167.12H343.452C343.471 167.997 343.76 168.688 344.32 169.192C344.899 169.696 345.683 169.948 346.672 169.948C347.811 169.948 348.707 169.64 349.36 169.024C350.032 168.408 350.368 167.493 350.368 166.28V164.712C350.368 164.245 350.387 163.816 350.424 163.424C350.032 164.115 349.453 164.665 348.688 165.076C347.941 165.487 347.073 165.692 346.084 165.692C344.871 165.692 343.797 165.421 342.864 164.88C341.949 164.32 341.231 163.527 340.708 162.5C340.204 161.455 339.952 160.241 339.952 158.86C339.952 157.497 340.223 156.293 340.764 155.248C341.324 154.203 342.071 153.4 343.004 152.84C343.937 152.261 344.955 151.972 346.056 151.972C347.139 151.972 348.025 152.187 348.716 152.616C349.425 153.045 349.995 153.615 350.424 154.324C350.387 153.913 350.368 153.503 350.368 153.092V152.42H353.28V165.44C353.28 167.699 352.701 169.397 351.544 170.536C350.387 171.675 348.744 172.244 346.616 172.244ZM346.756 163.396C347.503 163.396 348.156 163.209 348.716 162.836C349.295 162.444 349.743 161.903 350.06 161.212C350.396 160.521 350.564 159.737 350.564 158.86C350.564 157.983 350.396 157.199 350.06 156.508C349.743 155.799 349.295 155.248 348.716 154.856C348.137 154.464 347.484 154.268 346.756 154.268C346.009 154.268 345.347 154.464 344.768 154.856C344.189 155.229 343.732 155.771 343.396 156.48C343.079 157.171 342.92 157.964 342.92 158.86C342.92 159.737 343.079 160.521 343.396 161.212C343.732 161.903 344.189 162.444 344.768 162.836C345.347 163.209 346.009 163.396 346.756 163.396Z"></path>
<rect fill="#F2F1F0" rx="4" height="35" width="153" y="115" x="409"></rect>
<path fill="#0F0E0D" d="M426.422 126.8H431.174C431.931 126.8 432.598 126.923 433.174 127.168C433.75 127.403 434.198 127.76 434.518 128.24C434.838 128.709 434.998 129.285 434.998 129.968C434.998 130.629 434.838 131.195 434.518 131.664C434.198 132.133 433.755 132.491 433.19 132.736C432.625 132.971 431.969 133.088 431.222 133.088H430.726L431.222 132.576L435.286 138H433.094L429.558 133.104H428.166V138H426.422V126.8ZM431.014 131.664C431.729 131.664 432.267 131.52 432.63 131.232C433.003 130.933 433.19 130.517 433.19 129.984C433.19 129.429 433.009 129.008 432.646 128.72C432.283 128.432 431.739 128.288 431.014 128.288H428.166V131.664H431.014ZM439.855 138.256C439.076 138.256 438.399 138.096 437.823 137.776C437.247 137.445 436.799 136.971 436.479 136.352C436.159 135.733 435.999 134.981 435.999 134.096C435.999 133.307 436.159 132.603 436.479 131.984C436.81 131.355 437.263 130.864 437.839 130.512C438.415 130.16 439.06 129.984 439.775 129.984C440.543 129.984 441.199 130.155 441.743 130.496C442.298 130.837 442.719 131.323 443.007 131.952C443.295 132.571 443.439 133.296 443.439 134.128V134.48H437.679C437.679 134.981 437.775 135.419 437.967 135.792C438.159 136.165 438.415 136.453 438.735 136.656C439.066 136.859 439.439 136.96 439.855 136.96C440.346 136.96 440.756 136.843 441.087 136.608C441.428 136.373 441.636 136.016 441.711 135.536H443.375C443.322 136.048 443.151 136.512 442.863 136.928C442.575 137.333 442.17 137.659 441.647 137.904C441.135 138.139 440.538 138.256 439.855 138.256ZM441.711 133.296C441.7 132.677 441.524 132.181 441.183 131.808C440.842 131.435 440.372 131.248 439.775 131.248C439.199 131.248 438.719 131.445 438.335 131.84C437.962 132.224 437.748 132.709 437.695 133.296H441.711ZM448.286 138.256C447.592 138.256 446.979 138.101 446.446 137.792C445.912 137.472 445.491 137.003 445.182 136.384C444.872 135.755 444.718 135.008 444.718 134.144C444.718 133.301 444.872 132.571 445.182 131.952C445.502 131.323 445.934 130.837 446.478 130.496C447.022 130.155 447.635 129.984 448.318 129.984C448.894 129.984 449.39 130.112 449.806 130.368C450.222 130.624 450.542 130.944 450.766 131.328C450.744 131.115 450.734 130.88 450.734 130.624V126.8H452.382V138H450.734V137.616C450.734 137.349 450.744 137.12 450.766 136.928C450.563 137.301 450.243 137.616 449.806 137.872C449.379 138.128 448.872 138.256 448.286 138.256ZM448.622 136.96C449.048 136.96 449.427 136.843 449.758 136.608C450.099 136.373 450.36 136.043 450.542 135.616C450.734 135.179 450.83 134.683 450.83 134.128C450.83 133.275 450.627 132.592 450.222 132.08C449.816 131.557 449.283 131.296 448.622 131.296C448.206 131.296 447.827 131.419 447.486 131.664C447.155 131.899 446.894 132.229 446.702 132.656C446.51 133.083 446.414 133.573 446.414 134.128C446.414 134.693 446.504 135.189 446.686 135.616C446.878 136.043 447.139 136.373 447.47 136.608C447.811 136.843 448.195 136.96 448.622 136.96ZM454.572 126.8H456.236V138H454.572V126.8ZM454.572 126.8H455.404V128.144H454.572V126.8ZM454.572 136.656H456.236V138H454.572V136.656ZM458.416 130.24H460.08V138H458.416V130.24ZM458.416 136.656H460.08V138H458.416V136.656ZM458.416 130.24H459.248V131.584H458.416V130.24ZM458.336 127.072H460.144V128.912H458.336V127.072ZM462.26 130.24H463.908V130.688C463.908 130.891 463.897 131.104 463.876 131.328C464.111 130.933 464.431 130.613 464.836 130.368C465.252 130.112 465.732 129.984 466.276 129.984C466.852 129.984 467.348 130.112 467.764 130.368C468.191 130.613 468.516 130.971 468.74 131.44C468.964 131.909 469.076 132.464 469.076 133.104V138H467.412V133.328C467.412 132.667 467.279 132.165 467.012 131.824C466.756 131.472 466.361 131.296 465.828 131.296C465.455 131.296 465.119 131.392 464.82 131.584C464.532 131.765 464.308 132.016 464.148 132.336C463.999 132.656 463.924 133.008 463.924 133.392V138H462.26V130.24ZM474.558 138.256C473.779 138.256 473.102 138.096 472.526 137.776C471.95 137.445 471.502 136.971 471.182 136.352C470.862 135.733 470.702 134.981 470.702 134.096C470.702 133.307 470.862 132.603 471.182 131.984C471.513 131.355 471.966 130.864 472.542 130.512C473.118 130.16 473.763 129.984 474.478 129.984C475.246 129.984 475.902 130.155 476.446 130.496C477.001 130.837 477.422 131.323 477.71 131.952C477.998 132.571 478.142 133.296 478.142 134.128V134.48H472.382C472.382 134.981 472.478 135.419 472.67 135.792C472.862 136.165 473.118 136.453 473.438 136.656C473.769 136.859 474.142 136.96 474.558 136.96C475.049 136.96 475.459 136.843 475.79 136.608C476.131 136.373 476.339 136.016 476.414 135.536H478.078C478.025 136.048 477.854 136.512 477.566 136.928C477.278 137.333 476.873 137.659 476.35 137.904C475.838 138.139 475.241 138.256 474.558 138.256ZM476.414 133.296C476.403 132.677 476.227 132.181 475.886 131.808C475.545 131.435 475.075 131.248 474.478 131.248C473.902 131.248 473.422 131.445 473.038 131.84C472.665 132.224 472.451 132.709 472.398 133.296H476.414ZM488.471 138.256C487.383 138.256 486.428 138.021 485.607 137.552C484.796 137.083 484.167 136.4 483.719 135.504C483.282 134.608 483.063 133.552 483.063 132.336C483.063 131.173 483.298 130.155 483.767 129.28C484.236 128.395 484.887 127.717 485.719 127.248C486.562 126.768 487.5 126.528 488.535 126.528C489.431 126.528 490.231 126.699 490.935 127.04C491.639 127.371 492.204 127.84 492.631 128.448C493.068 129.056 493.33 129.765 493.415 130.576H491.527C491.399 129.787 491.074 129.168 490.551 128.72C490.039 128.261 489.356 128.032 488.503 128.032C487.788 128.032 487.159 128.208 486.615 128.56C486.071 128.901 485.65 129.397 485.351 130.048C485.052 130.688 484.903 131.451 484.903 132.336C484.903 133.221 485.052 134 485.351 134.672C485.66 135.344 486.082 135.861 486.615 136.224C487.159 136.587 487.778 136.768 488.471 136.768C489.335 136.768 490.044 136.533 490.599 136.064C491.154 135.584 491.5 134.955 491.639 134.176H493.447C493.351 134.997 493.084 135.717 492.647 136.336C492.22 136.955 491.644 137.429 490.919 137.76C490.204 138.091 489.388 138.256 488.471 138.256ZM495.057 126.8H496.721V130.608C496.721 130.725 496.715 130.827 496.705 130.912C496.705 130.987 496.699 131.056 496.689 131.12C496.689 131.173 496.689 131.243 496.689 131.328C496.913 130.923 497.227 130.597 497.633 130.352C498.038 130.107 498.518 129.984 499.073 129.984C499.649 129.984 500.145 130.112 500.561 130.368C500.987 130.613 501.313 130.971 501.537 131.44C501.761 131.909 501.873 132.464 501.873 133.104V138H500.209V133.328C500.209 132.667 500.075 132.165 499.809 131.824C499.542 131.472 499.142 131.296 498.609 131.296C498.235 131.296 497.905 131.392 497.617 131.584C497.329 131.765 497.105 132.016 496.945 132.336C496.795 132.656 496.721 133.008 496.721 133.392V138H495.057V126.8ZM506.203 138.256C505.734 138.256 505.291 138.16 504.875 137.968C504.47 137.776 504.144 137.499 503.899 137.136C503.654 136.773 503.531 136.352 503.531 135.872C503.531 135.115 503.782 134.544 504.283 134.16C504.795 133.765 505.478 133.504 506.331 133.376L507.723 133.184C508.022 133.141 508.23 133.061 508.347 132.944C508.475 132.827 508.539 132.661 508.539 132.448C508.539 132.085 508.406 131.797 508.139 131.584C507.883 131.36 507.542 131.248 507.115 131.248C506.603 131.248 506.198 131.381 505.899 131.648C505.611 131.904 505.451 132.256 505.419 132.704H503.739C503.771 132.203 503.92 131.744 504.187 131.328C504.464 130.912 504.843 130.587 505.323 130.352C505.803 130.107 506.363 129.984 507.003 129.984C507.707 129.984 508.294 130.112 508.763 130.368C509.243 130.613 509.6 130.976 509.835 131.456C510.07 131.925 510.187 132.496 510.187 133.168V138H508.619V137.648C508.619 137.424 508.635 137.189 508.667 136.944C508.454 137.36 508.139 137.685 507.723 137.92C507.307 138.144 506.8 138.256 506.203 138.256ZM506.555 137.008C506.928 137.008 507.27 136.928 507.579 136.768C507.888 136.597 508.128 136.363 508.299 136.064C508.48 135.765 508.571 135.424 508.571 135.04V134.032C508.507 134.107 508.406 134.171 508.267 134.224C508.128 134.277 507.936 134.325 507.691 134.368L506.795 134.544C506.304 134.64 505.92 134.789 505.643 134.992C505.366 135.195 505.227 135.477 505.227 135.84C505.227 136.192 505.355 136.475 505.611 136.688C505.867 136.901 506.182 137.008 506.555 137.008ZM512.26 130.24H513.908V130.688C513.908 130.891 513.897 131.104 513.876 131.328C514.111 130.933 514.431 130.613 514.836 130.368C515.252 130.112 515.732 129.984 516.276 129.984C516.852 129.984 517.348 130.112 517.764 130.368C518.191 130.613 518.516 130.971 518.74 131.44C518.964 131.909 519.076 132.464 519.076 133.104V138H517.412V133.328C517.412 132.667 517.279 132.165 517.012 131.824C516.756 131.472 516.361 131.296 515.828 131.296C515.455 131.296 515.119 131.392 514.82 131.584C514.532 131.765 514.308 132.016 514.148 132.336C513.999 132.656 513.924 133.008 513.924 133.392V138H512.26V130.24ZM524.526 141.568C523.822 141.568 523.203 141.445 522.67 141.2C522.147 140.955 521.747 140.613 521.47 140.176C521.193 139.739 521.054 139.227 521.054 138.64H522.718C522.729 139.141 522.894 139.536 523.214 139.824C523.545 140.112 523.993 140.256 524.558 140.256C525.209 140.256 525.721 140.08 526.094 139.728C526.478 139.376 526.67 138.853 526.67 138.16V137.264C526.67 136.997 526.681 136.752 526.702 136.528C526.478 136.923 526.147 137.237 525.71 137.472C525.283 137.707 524.787 137.824 524.222 137.824C523.529 137.824 522.915 137.669 522.382 137.36C521.859 137.04 521.449 136.587 521.15 136C520.862 135.403 520.718 134.709 520.718 133.92C520.718 133.141 520.873 132.453 521.182 131.856C521.502 131.259 521.929 130.8 522.462 130.48C522.995 130.149 523.577 129.984 524.206 129.984C524.825 129.984 525.331 130.107 525.726 130.352C526.131 130.597 526.457 130.923 526.702 131.328C526.681 131.093 526.67 130.859 526.67 130.624V130.24H528.334V137.68C528.334 138.971 528.003 139.941 527.342 140.592C526.681 141.243 525.742 141.568 524.526 141.568ZM524.606 136.512C525.033 136.512 525.406 136.405 525.726 136.192C526.057 135.968 526.313 135.659 526.494 135.264C526.686 134.869 526.782 134.421 526.782 133.92C526.782 133.419 526.686 132.971 526.494 132.576C526.313 132.171 526.057 131.856 525.726 131.632C525.395 131.408 525.022 131.296 524.606 131.296C524.179 131.296 523.801 131.408 523.47 131.632C523.139 131.845 522.878 132.155 522.686 132.56C522.505 132.955 522.414 133.408 522.414 133.92C522.414 134.421 522.505 134.869 522.686 135.264C522.878 135.659 523.139 135.968 523.47 136.192C523.801 136.405 524.179 136.512 524.606 136.512ZM533.902 138.256C533.123 138.256 532.446 138.096 531.87 137.776C531.294 137.445 530.846 136.971 530.526 136.352C530.206 135.733 530.046 134.981 530.046 134.096C530.046 133.307 530.206 132.603 530.526 131.984C530.857 131.355 531.31 130.864 531.886 130.512C532.462 130.16 533.107 129.984 533.822 129.984C534.59 129.984 535.246 130.155 535.79 130.496C536.345 130.837 536.766 131.323 537.054 131.952C537.342 132.571 537.486 133.296 537.486 134.128V134.48H531.726C531.726 134.981 531.822 135.419 532.014 135.792C532.206 136.165 532.462 136.453 532.782 136.656C533.113 136.859 533.486 136.96 533.902 136.96C534.393 136.96 534.803 136.843 535.134 136.608C535.475 136.373 535.683 136.016 535.758 135.536H537.422C537.369 136.048 537.198 136.512 536.91 136.928C536.622 137.333 536.217 137.659 535.694 137.904C535.182 138.139 534.585 138.256 533.902 138.256ZM535.758 133.296C535.747 132.677 535.571 132.181 535.23 131.808C534.889 131.435 534.419 131.248 533.822 131.248C533.246 131.248 532.766 131.445 532.382 131.84C532.009 132.224 531.795 132.709 531.742 133.296H535.758ZM542.141 138.256C541.437 138.256 540.823 138.139 540.301 137.904C539.789 137.669 539.389 137.339 539.101 136.912C538.823 136.475 538.669 135.968 538.637 135.392H540.301C540.322 135.893 540.487 136.288 540.797 136.576C541.117 136.864 541.559 137.008 542.125 137.008C542.605 137.008 542.994 136.907 543.293 136.704C543.591 136.491 543.741 136.213 543.741 135.872C543.741 135.584 543.634 135.355 543.421 135.184C543.207 135.013 542.877 134.885 542.429 134.8L541.357 134.592C540.578 134.443 539.975 134.176 539.549 133.792C539.122 133.408 538.909 132.912 538.909 132.304C538.909 131.867 539.037 131.472 539.293 131.12C539.559 130.768 539.927 130.491 540.397 130.288C540.866 130.085 541.399 129.984 541.997 129.984C542.658 129.984 543.229 130.091 543.709 130.304C544.189 130.517 544.562 130.816 544.829 131.2C545.095 131.584 545.239 132.043 545.261 132.576H543.613C543.57 132.16 543.399 131.835 543.101 131.6C542.813 131.365 542.429 131.248 541.949 131.248C541.533 131.248 541.197 131.339 540.941 131.52C540.685 131.691 540.557 131.925 540.557 132.224C540.557 132.501 540.653 132.715 540.845 132.864C541.047 133.013 541.383 133.136 541.853 133.232L542.925 133.44C543.703 133.589 544.306 133.851 544.733 134.224C545.159 134.597 545.373 135.104 545.373 135.744C545.373 136.213 545.239 136.64 544.973 137.024C544.706 137.408 544.327 137.712 543.837 137.936C543.357 138.149 542.791 138.256 542.141 138.256Z"></path>
<path stroke-width="1.5" stroke="#C4C2BC" d="M113 199L548 199"></path>
<rect fill="#E6E5E3" height="10" width="449" y="227" x="113"></rect>
<rect fill="#E6E5E3" height="10" width="449" y="247" x="113"></rect>
<rect fill="#E6E5E3" height="10" width="449" y="267" x="113"></rect>
<rect fill="#E6E5E3" height="10" width="210" y="287" x="113"></rect>
<rect fill="white" rx="7.5" height="65" width="436" y="325.5" x="113.5"></rect>
<rect stroke="#E6E5E3" rx="7.5" height="65" width="436" y="325.5" x="113.5"></rect>
<path fill="#0F0E0D" d="M134.248 352.256C133.309 352.256 132.488 352.096 131.784 351.776C131.08 351.456 130.536 350.997 130.152 350.4C129.768 349.792 129.555 349.088 129.512 348.288H131.336C131.368 348.8 131.517 349.243 131.784 349.616C132.051 349.989 132.397 350.277 132.824 350.48C133.261 350.672 133.752 350.768 134.296 350.768C135.096 350.768 135.72 350.613 136.168 350.304C136.627 349.995 136.856 349.557 136.856 348.992C136.856 348.523 136.685 348.155 136.344 347.888C136.003 347.621 135.491 347.419 134.808 347.28L133.032 346.896C132.104 346.704 131.352 346.347 130.776 345.824C130.2 345.291 129.912 344.608 129.912 343.776C129.912 343.147 130.093 342.587 130.456 342.096C130.819 341.605 131.32 341.221 131.96 340.944C132.6 340.667 133.325 340.528 134.136 340.528C134.989 340.528 135.736 340.677 136.376 340.976C137.016 341.264 137.512 341.675 137.864 342.208C138.216 342.731 138.413 343.349 138.456 344.064H136.632C136.611 343.659 136.499 343.307 136.296 343.008C136.093 342.699 135.8 342.459 135.416 342.288C135.043 342.107 134.595 342.016 134.072 342.016C133.624 342.016 133.219 342.085 132.856 342.224C132.504 342.352 132.227 342.539 132.024 342.784C131.821 343.019 131.72 343.296 131.72 343.616C131.72 344.064 131.875 344.416 132.184 344.672C132.504 344.917 132.989 345.109 133.64 345.248L135.576 345.648C136.515 345.851 137.261 346.213 137.816 346.736C138.381 347.259 138.664 347.941 138.664 348.784C138.664 349.445 138.488 350.037 138.136 350.56C137.784 351.083 137.277 351.499 136.616 351.808C135.955 352.107 135.165 352.256 134.248 352.256ZM143.856 352.256C143.098 352.256 142.421 352.091 141.824 351.76C141.237 351.419 140.778 350.939 140.448 350.32C140.128 349.691 139.968 348.96 139.968 348.128C139.968 347.317 140.133 346.597 140.464 345.968C140.794 345.339 141.253 344.853 141.84 344.512C142.426 344.16 143.098 343.984 143.856 343.984C144.602 343.984 145.269 344.16 145.856 344.512C146.453 344.853 146.917 345.339 147.248 345.968C147.589 346.597 147.76 347.317 147.76 348.128C147.76 348.96 147.589 349.691 147.248 350.32C146.917 350.939 146.453 351.419 145.856 351.76C145.269 352.091 144.602 352.256 143.856 352.256ZM143.856 350.96C144.304 350.96 144.693 350.848 145.024 350.624C145.354 350.389 145.61 350.059 145.792 349.632C145.973 349.205 146.064 348.704 146.064 348.128C146.064 347.253 145.861 346.565 145.456 346.064C145.05 345.552 144.517 345.296 143.856 345.296C143.418 345.296 143.034 345.413 142.704 345.648C142.373 345.872 142.117 346.197 141.936 346.624C141.754 347.051 141.664 347.552 141.664 348.128C141.664 349.003 141.861 349.696 142.256 350.208C142.65 350.709 143.184 350.96 143.856 350.96ZM152.167 352.256C151.602 352.256 151.111 352.139 150.695 351.904C150.279 351.669 149.954 351.323 149.719 350.864C149.495 350.405 149.383 349.845 149.383 349.184V344.24H151.047V348.88C151.047 349.541 151.175 350.053 151.431 350.416C151.698 350.768 152.098 350.944 152.631 350.944C153.015 350.944 153.34 350.853 153.607 350.672C153.884 350.491 154.098 350.229 154.247 349.888C154.396 349.547 154.471 349.147 154.471 348.688V344.24H156.119V352H154.487V351.6C154.487 351.429 154.498 351.259 154.519 351.088L154.535 350.928C154.332 351.333 154.028 351.659 153.623 351.904C153.218 352.139 152.732 352.256 152.167 352.256ZM158.307 344.24H159.971V344.704C159.971 345.003 159.96 345.296 159.939 345.584C160.152 345.104 160.456 344.72 160.851 344.432C161.256 344.133 161.736 343.984 162.291 343.984C162.44 343.984 162.568 343.995 162.675 344.016V345.632C162.515 345.6 162.349 345.584 162.179 345.584C161.72 345.584 161.325 345.669 160.995 345.84C160.664 346.011 160.408 346.277 160.227 346.64C160.056 347.003 159.971 347.461 159.971 348.016V352H158.307V344.24ZM167.231 352.256C166.463 352.256 165.785 352.096 165.199 351.776C164.612 351.456 164.153 350.987 163.823 350.368C163.503 349.739 163.343 348.987 163.343 348.112C163.343 347.291 163.513 346.571 163.855 345.952C164.207 345.323 164.681 344.837 165.279 344.496C165.887 344.155 166.559 343.984 167.295 343.984C167.967 343.984 168.559 344.112 169.071 344.368C169.583 344.613 169.988 344.965 170.287 345.424C170.585 345.883 170.767 346.411 170.831 347.008H169.135C169.081 346.507 168.895 346.096 168.575 345.776C168.255 345.456 167.823 345.296 167.279 345.296C166.852 345.296 166.468 345.413 166.127 345.648C165.785 345.883 165.519 346.213 165.327 346.64C165.135 347.067 165.039 347.563 165.039 348.128C165.039 348.683 165.129 349.179 165.311 349.616C165.503 350.043 165.764 350.373 166.095 350.608C166.436 350.843 166.831 350.96 167.279 350.96C167.844 350.96 168.292 350.805 168.623 350.496C168.964 350.176 169.167 349.749 169.231 349.216H170.895C170.82 349.835 170.633 350.373 170.335 350.832C170.036 351.291 169.62 351.643 169.087 351.888C168.564 352.133 167.945 352.256 167.231 352.256ZM175.886 352.256C175.108 352.256 174.43 352.096 173.854 351.776C173.278 351.445 172.83 350.971 172.51 350.352C172.19 349.733 172.03 348.981 172.03 348.096C172.03 347.307 172.19 346.603 172.51 345.984C172.841 345.355 173.294 344.864 173.87 344.512C174.446 344.16 175.092 343.984 175.806 343.984C176.574 343.984 177.23 344.155 177.774 344.496C178.329 344.837 178.75 345.323 179.038 345.952C179.326 346.571 179.47 347.296 179.47 348.128V348.48H173.71C173.71 348.981 173.806 349.419 173.998 349.792C174.19 350.165 174.446 350.453 174.766 350.656C175.097 350.859 175.47 350.96 175.886 350.96C176.377 350.96 176.788 350.843 177.118 350.608C177.46 350.373 177.668 350.016 177.742 349.536H179.406C179.353 350.048 179.182 350.512 178.894 350.928C178.606 351.333 178.201 351.659 177.678 351.904C177.166 352.139 176.569 352.256 175.886 352.256ZM177.742 347.296C177.732 346.677 177.556 346.181 177.214 345.808C176.873 345.435 176.404 345.248 175.806 345.248C175.23 345.248 174.75 345.445 174.366 345.84C173.993 346.224 173.78 346.709 173.726 347.296H177.742ZM184.125 352.256C183.421 352.256 182.808 352.139 182.285 351.904C181.773 351.669 181.373 351.339 181.085 350.912C180.808 350.475 180.653 349.968 180.621 349.392H182.285C182.306 349.893 182.472 350.288 182.781 350.576C183.101 350.864 183.544 351.008 184.109 351.008C184.589 351.008 184.978 350.907 185.277 350.704C185.576 350.491 185.725 350.213 185.725 349.872C185.725 349.584 185.618 349.355 185.405 349.184C185.192 349.013 184.861 348.885 184.413 348.8L183.341 348.592C182.562 348.443 181.96 348.176 181.533 347.792C181.106 347.408 180.893 346.912 180.893 346.304C180.893 345.867 181.021 345.472 181.277 345.12C181.544 344.768 181.912 344.491 182.381 344.288C182.85 344.085 183.384 343.984 183.981 343.984C184.642 343.984 185.213 344.091 185.693 344.304C186.173 344.517 186.546 344.816 186.813 345.2C187.08 345.584 187.224 346.043 187.245 346.576H185.597C185.554 346.16 185.384 345.835 185.085 345.6C184.797 345.365 184.413 345.248 183.933 345.248C183.517 345.248 183.181 345.339 182.925 345.52C182.669 345.691 182.541 345.925 182.541 346.224C182.541 346.501 182.637 346.715 182.829 346.864C183.032 347.013 183.368 347.136 183.837 347.232L184.909 347.44C185.688 347.589 186.29 347.851 186.717 348.224C187.144 348.597 187.357 349.104 187.357 349.744C187.357 350.213 187.224 350.64 186.957 351.024C186.69 351.408 186.312 351.712 185.821 351.936C185.341 352.149 184.776 352.256 184.125 352.256Z"></path>
<path fill="#0F0E0D" d="M133.56 363.8H135.32L139.816 375H138.2L134.728 365.976C134.696 365.891 134.664 365.805 134.632 365.72C134.557 365.517 134.483 365.32 134.408 365.128C134.365 365.256 134.328 365.352 134.296 365.416C134.275 365.48 134.243 365.576 134.2 365.704L134.088 365.976L130.616 375H129.08L133.56 363.8ZM131.656 370.456H137.144V371.672H131.656V370.456ZM141.075 367.288H142.451V367.848C142.451 368.008 142.451 368.173 142.451 368.344C142.685 367.981 143.032 367.672 143.491 367.416C143.949 367.16 144.451 367.032 144.995 367.032C145.72 367.032 146.349 367.208 146.883 367.56C147.427 367.912 147.837 368.397 148.115 369.016C148.403 369.635 148.547 370.339 148.547 371.128C148.547 371.939 148.397 372.653 148.099 373.272C147.8 373.891 147.379 374.376 146.835 374.728C146.291 375.069 145.667 375.24 144.963 375.24C144.419 375.24 143.928 375.123 143.491 374.888C143.053 374.653 142.707 374.333 142.451 373.928C142.451 374.141 142.451 374.355 142.451 374.568V378.328H141.075V367.288ZM144.755 374.168C145.224 374.168 145.635 374.04 145.987 373.784C146.349 373.528 146.627 373.171 146.819 372.712C147.011 372.253 147.107 371.725 147.107 371.128C147.107 370.541 147.011 370.024 146.819 369.576C146.627 369.117 146.349 368.76 145.987 368.504C145.635 368.248 145.224 368.12 144.755 368.12C144.296 368.12 143.885 368.243 143.523 368.488C143.16 368.733 142.877 369.085 142.675 369.544C142.472 369.992 142.371 370.52 142.371 371.128C142.371 371.725 142.472 372.253 142.675 372.712C142.877 373.171 143.155 373.528 143.507 373.784C143.869 374.04 144.285 374.168 144.755 374.168ZM150.418 367.288H151.794V367.848C151.794 368.008 151.794 368.173 151.794 368.344C152.029 367.981 152.376 367.672 152.834 367.416C153.293 367.16 153.794 367.032 154.338 367.032C155.064 367.032 155.693 367.208 156.226 367.56C156.77 367.912 157.181 368.397 157.458 369.016C157.746 369.635 157.89 370.339 157.89 371.128C157.89 371.939 157.741 372.653 157.442 373.272C157.144 373.891 156.722 374.376 156.178 374.728C155.634 375.069 155.01 375.24 154.306 375.24C153.762 375.24 153.272 375.123 152.834 374.888C152.397 374.653 152.05 374.333 151.794 373.928C151.794 374.141 151.794 374.355 151.794 374.568V378.328H150.418V367.288ZM154.098 374.168C154.568 374.168 154.978 374.04 155.33 373.784C155.693 373.528 155.97 373.171 156.162 372.712C156.354 372.253 156.45 371.725 156.45 371.128C156.45 370.541 156.354 370.024 156.162 369.576C155.97 369.117 155.693 368.76 155.33 368.504C154.978 368.248 154.568 368.12 154.098 368.12C153.64 368.12 153.229 368.243 152.866 368.488C152.504 368.733 152.221 369.085 152.018 369.544C151.816 369.992 151.714 370.52 151.714 371.128C151.714 371.725 151.816 372.253 152.018 372.712C152.221 373.171 152.498 373.528 152.85 373.784C153.213 374.04 153.629 374.168 154.098 374.168ZM159.762 367.288H161.138V367.624C161.138 367.933 161.138 368.248 161.138 368.568C161.341 368.109 161.65 367.741 162.066 367.464C162.493 367.176 162.989 367.032 163.554 367.032C163.703 367.032 163.821 367.037 163.906 367.048V368.408C163.757 368.387 163.613 368.376 163.474 368.376C162.973 368.376 162.546 368.472 162.194 368.664C161.853 368.845 161.591 369.128 161.41 369.512C161.229 369.885 161.138 370.355 161.138 370.92V375H159.762V367.288ZM168.418 375.24C167.682 375.24 167.026 375.069 166.45 374.728C165.874 374.387 165.426 373.907 165.106 373.288C164.786 372.659 164.626 371.939 164.626 371.128C164.626 370.339 164.786 369.635 165.106 369.016C165.426 368.387 165.874 367.901 166.45 367.56C167.026 367.208 167.682 367.032 168.418 367.032C169.143 367.032 169.794 367.208 170.37 367.56C170.946 367.901 171.394 368.387 171.714 369.016C172.044 369.635 172.21 370.339 172.21 371.128C172.21 371.939 172.044 372.659 171.714 373.288C171.394 373.907 170.946 374.387 170.37 374.728C169.794 375.069 169.143 375.24 168.418 375.24ZM168.418 374.168C168.898 374.168 169.314 374.04 169.666 373.784C170.028 373.528 170.306 373.171 170.498 372.712C170.69 372.253 170.786 371.725 170.786 371.128C170.786 370.221 170.567 369.496 170.13 368.952C169.703 368.397 169.132 368.12 168.418 368.12C167.948 368.12 167.532 368.248 167.17 368.504C166.807 368.749 166.53 369.101 166.338 369.56C166.146 370.008 166.049 370.531 166.049 371.128C166.049 372.045 166.263 372.781 166.69 373.336C167.116 373.891 167.692 374.168 168.418 374.168ZM172.958 367.288H174.462L176.43 372.872C176.516 373.117 176.601 373.368 176.686 373.624C176.772 373.368 176.857 373.117 176.942 372.872L178.862 367.288H180.302L177.374 375H175.918L172.958 367.288ZM183.751 375.24C183.26 375.24 182.812 375.144 182.407 374.952C182.002 374.76 181.682 374.488 181.447 374.136C181.212 373.773 181.095 373.357 181.095 372.888C181.095 372.195 181.33 371.651 181.799 371.256C182.279 370.861 182.898 370.605 183.655 370.488L185.303 370.232C185.591 370.189 185.794 370.109 185.911 369.992C186.028 369.875 186.087 369.699 186.087 369.464C186.087 369.048 185.943 368.723 185.655 368.488C185.367 368.243 184.994 368.12 184.535 368.12C183.959 368.12 183.516 368.264 183.207 368.552C182.898 368.829 182.732 369.213 182.711 369.704H181.335C181.356 369.224 181.49 368.781 181.735 368.376C181.98 367.971 182.332 367.645 182.791 367.4C183.26 367.155 183.804 367.032 184.423 367.032C185.052 367.032 185.591 367.149 186.039 367.384C186.498 367.619 186.844 367.955 187.079 368.392C187.314 368.829 187.431 369.347 187.431 369.944V375H186.119V374.616C186.119 374.392 186.119 374.173 186.119 373.96C185.927 374.365 185.623 374.68 185.207 374.904C184.802 375.128 184.316 375.24 183.751 375.24ZM183.943 374.168C184.348 374.168 184.711 374.083 185.031 373.912C185.362 373.731 185.618 373.485 185.799 373.176C185.991 372.856 186.087 372.493 186.087 372.088V370.952C186.044 371.027 185.948 371.091 185.799 371.144C185.66 371.197 185.474 371.245 185.239 371.288L184.119 371.496C183.628 371.592 183.239 371.752 182.951 371.976C182.663 372.2 182.519 372.504 182.519 372.888C182.519 373.272 182.652 373.581 182.919 373.816C183.196 374.051 183.538 374.168 183.943 374.168ZM189.7 363.8H191.076V375H189.7V363.8ZM189.7 363.8H190.388V364.936H189.7V363.8ZM189.7 373.864H191.076V375H189.7V373.864ZM200.543 375.24C199.807 375.24 199.151 375.069 198.575 374.728C197.999 374.387 197.551 373.907 197.231 373.288C196.911 372.659 196.751 371.939 196.751 371.128C196.751 370.339 196.911 369.635 197.231 369.016C197.551 368.387 197.999 367.901 198.575 367.56C199.151 367.208 199.807 367.032 200.543 367.032C201.268 367.032 201.919 367.208 202.495 367.56C203.071 367.901 203.519 368.387 203.839 369.016C204.169 369.635 204.335 370.339 204.335 371.128C204.335 371.939 204.169 372.659 203.839 373.288C203.519 373.907 203.071 374.387 202.495 374.728C201.919 375.069 201.268 375.24 200.543 375.24ZM200.543 374.168C201.023 374.168 201.439 374.04 201.791 373.784C202.153 373.528 202.431 373.171 202.623 372.712C202.815 372.253 202.911 371.725 202.911 371.128C202.911 370.221 202.692 369.496 202.255 368.952C201.828 368.397 201.257 368.12 200.543 368.12C200.073 368.12 199.657 368.248 199.295 368.504C198.932 368.749 198.655 369.101 198.463 369.56C198.271 370.008 198.174 370.531 198.174 371.128C198.174 372.045 198.388 372.781 198.815 373.336C199.241 373.891 199.817 374.168 200.543 374.168ZM206.666 368.424H205.21V367.288H206.666V365.864C206.666 365.139 206.88 364.573 207.306 364.168C207.733 363.752 208.256 363.544 208.874 363.544C209.024 363.544 209.168 363.56 209.306 363.592C209.456 363.613 209.573 363.645 209.658 363.688V364.856C209.37 364.824 209.205 364.808 209.162 364.808C208.8 364.808 208.522 364.909 208.33 365.112C208.138 365.304 208.042 365.587 208.042 365.96V367.288H209.642V368.424H208.042V375H206.666V368.424ZM214.924 363.8H219.612C220.338 363.8 220.967 363.928 221.5 364.184C222.044 364.429 222.46 364.787 222.748 365.256C223.036 365.715 223.18 366.248 223.18 366.856C223.18 367.464 223.031 367.997 222.732 368.456C222.444 368.904 222.028 369.256 221.484 369.512C220.94 369.757 220.295 369.88 219.548 369.88H218.924L219.18 369.4L223.356 375H221.5L217.852 369.912H216.38V375H214.924V363.8ZM219.324 368.68C220.092 368.68 220.679 368.531 221.084 368.232C221.49 367.923 221.692 367.464 221.692 366.856C221.692 366.248 221.49 365.789 221.084 365.48C220.679 365.171 220.092 365.016 219.324 365.016H216.38V368.68H219.324ZM228.041 375.24C227.273 375.24 226.607 375.08 226.041 374.76C225.487 374.44 225.055 373.971 224.745 373.352C224.447 372.733 224.297 371.987 224.297 371.112C224.297 370.333 224.452 369.635 224.761 369.016C225.081 368.397 225.519 367.912 226.073 367.56C226.639 367.208 227.268 367.032 227.961 367.032C228.719 367.032 229.364 367.203 229.897 367.544C230.431 367.875 230.836 368.349 231.113 368.968C231.391 369.576 231.529 370.296 231.529 371.128V371.4H225.673C225.684 371.976 225.791 372.472 225.993 372.888C226.207 373.304 226.489 373.624 226.841 373.848C227.204 374.061 227.609 374.168 228.057 374.168C228.58 374.168 229.028 374.051 229.401 373.816C229.775 373.571 230.004 373.171 230.089 372.616H231.449C231.396 373.096 231.236 373.533 230.969 373.928C230.703 374.323 230.319 374.643 229.817 374.888C229.327 375.123 228.735 375.24 228.041 375.24ZM230.057 370.424C230.057 369.72 229.871 369.16 229.497 368.744C229.135 368.328 228.623 368.12 227.961 368.12C227.332 368.12 226.815 368.339 226.409 368.776C226.004 369.213 225.775 369.763 225.721 370.424H230.057ZM233.916 368.424H232.46V367.288H233.916V365.864C233.916 365.139 234.13 364.573 234.556 364.168C234.983 363.752 235.506 363.544 236.124 363.544C236.274 363.544 236.418 363.56 236.556 363.592C236.706 363.613 236.823 363.645 236.908 363.688V364.856C236.62 364.824 236.455 364.808 236.412 364.808C236.05 364.808 235.772 364.909 235.58 365.112C235.388 365.304 235.292 365.587 235.292 365.96V367.288H236.892V368.424H235.292V375H233.916V368.424ZM241.06 375.24C240.462 375.24 239.956 375.123 239.539 374.888C239.124 374.653 238.809 374.312 238.596 373.864C238.382 373.405 238.276 372.851 238.276 372.2V367.288H239.652V371.912C239.652 372.669 239.79 373.235 240.068 373.608C240.345 373.981 240.793 374.168 241.411 374.168C241.828 374.168 242.18 374.067 242.468 373.864C242.766 373.651 242.99 373.352 243.14 372.968C243.3 372.573 243.38 372.099 243.38 371.544V367.288H244.74V375H243.396V374.536C243.396 374.376 243.396 374.221 243.396 374.072V373.928C243.214 374.333 242.91 374.653 242.484 374.888C242.057 375.123 241.582 375.24 241.06 375.24ZM247.106 367.288H248.466V367.816C248.466 367.987 248.466 368.157 248.466 368.328C248.69 367.965 249.021 367.661 249.458 367.416C249.895 367.16 250.359 367.032 250.85 367.032C251.437 367.032 251.943 367.155 252.37 367.4C252.797 367.635 253.122 367.987 253.346 368.456C253.581 368.925 253.698 369.485 253.698 370.136V375H252.322V370.312C252.322 369.565 252.189 369.016 251.922 368.664C251.655 368.301 251.223 368.12 250.626 368.12C250.189 368.12 249.805 368.221 249.474 368.424C249.154 368.627 248.909 368.899 248.738 369.24C248.567 369.581 248.482 369.955 248.482 370.36V375H247.106V367.288ZM259.021 375.24C258.339 375.24 257.731 375.08 257.197 374.76C256.664 374.44 256.243 373.971 255.933 373.352C255.624 372.733 255.469 371.997 255.469 371.144C255.469 370.365 255.613 369.667 255.901 369.048C256.2 368.419 256.621 367.928 257.165 367.576C257.709 367.213 258.339 367.032 259.053 367.032C259.64 367.032 260.147 367.165 260.573 367.432C261.011 367.688 261.331 367.987 261.533 368.328C261.533 368.115 261.533 367.907 261.533 367.704V363.8H262.909V375H261.533V374.552C261.533 374.339 261.533 374.131 261.533 373.928C261.32 374.301 260.984 374.616 260.525 374.872C260.077 375.117 259.576 375.24 259.021 375.24ZM259.261 374.168C259.72 374.168 260.125 374.045 260.477 373.8C260.84 373.544 261.123 373.187 261.325 372.728C261.528 372.269 261.629 371.736 261.629 371.128C261.629 370.221 261.411 369.496 260.973 368.952C260.536 368.397 259.965 368.12 259.261 368.12C258.803 368.12 258.392 368.248 258.029 368.504C257.677 368.749 257.4 369.101 257.197 369.56C256.995 370.019 256.893 370.547 256.893 371.144C256.893 371.741 256.989 372.269 257.181 372.728C257.384 373.187 257.661 373.544 258.013 373.8C258.376 374.045 258.792 374.168 259.261 374.168ZM265.278 367.288H266.654V375H265.278V367.288ZM265.278 373.864H266.654V375H265.278V373.864ZM265.278 367.288H265.966V368.424H265.278V367.288ZM265.15 364.184H266.75V365.832H265.15V364.184ZM269.028 367.288H270.388V367.816C270.388 367.987 270.388 368.157 270.388 368.328C270.612 367.965 270.942 367.661 271.38 367.416C271.817 367.16 272.281 367.032 272.772 367.032C273.358 367.032 273.865 367.155 274.292 367.4C274.718 367.635 275.044 367.987 275.268 368.456C275.502 368.925 275.62 369.485 275.62 370.136V375H274.244V370.312C274.244 369.565 274.11 369.016 273.844 368.664C273.577 368.301 273.145 368.12 272.548 368.12C272.11 368.12 271.726 368.221 271.396 368.424C271.076 368.627 270.83 368.899 270.66 369.24C270.489 369.581 270.404 369.955 270.404 370.36V375H269.028V367.288ZM281.103 378.568C280.431 378.568 279.839 378.451 279.327 378.216C278.826 377.981 278.436 377.651 278.159 377.224C277.882 376.797 277.743 376.301 277.743 375.736H279.103C279.103 376.259 279.284 376.68 279.647 377C280.01 377.331 280.5 377.496 281.119 377.496C281.855 377.496 282.426 377.293 282.831 376.888C283.236 376.493 283.439 375.896 283.439 375.096V374.152C283.439 373.981 283.439 373.811 283.439 373.64C283.236 374.035 282.906 374.349 282.447 374.584C281.988 374.808 281.476 374.92 280.911 374.92C280.207 374.92 279.588 374.76 279.055 374.44C278.532 374.12 278.127 373.667 277.839 373.08C277.551 372.483 277.407 371.789 277.407 371C277.407 370.221 277.562 369.533 277.871 368.936C278.18 368.328 278.602 367.859 279.135 367.528C279.679 367.197 280.287 367.032 280.959 367.032C281.546 367.032 282.047 367.16 282.463 367.416C282.879 367.661 283.204 367.965 283.439 368.328C283.439 368.115 283.439 367.907 283.439 367.704V367.288H284.815V374.616C284.815 375.939 284.506 376.925 283.887 377.576C283.268 378.237 282.34 378.568 281.103 378.568ZM281.183 373.848C281.642 373.848 282.047 373.731 282.399 373.496C282.762 373.261 283.039 372.931 283.231 372.504C283.434 372.067 283.535 371.565 283.535 371C283.535 370.445 283.434 369.949 283.231 369.512C283.028 369.075 282.746 368.733 282.383 368.488C282.031 368.243 281.631 368.12 281.183 368.12C280.724 368.12 280.314 368.243 279.951 368.488C279.599 368.723 279.322 369.059 279.119 369.496C278.927 369.933 278.831 370.435 278.831 371C278.831 371.565 278.927 372.067 279.119 372.504C279.322 372.931 279.599 373.261 279.951 373.496C280.314 373.731 280.724 373.848 281.183 373.848ZM287.024 373.144H288.848V375H287.024V373.144ZM291.059 367.288H292.435V367.848C292.435 368.008 292.435 368.173 292.435 368.344C292.67 367.981 293.016 367.672 293.475 367.416C293.934 367.16 294.435 367.032 294.979 367.032C295.704 367.032 296.334 367.208 296.867 367.56C297.411 367.912 297.822 368.397 298.099 369.016C298.387 369.635 298.531 370.339 298.531 371.128C298.531 371.939 298.382 372.653 298.083 373.272C297.784 373.891 297.363 374.376 296.819 374.728C296.275 375.069 295.651 375.24 294.947 375.24C294.403 375.24 293.912 375.123 293.475 374.888C293.038 374.653 292.691 374.333 292.435 373.928C292.435 374.141 292.435 374.355 292.435 374.568V378.328H291.059V367.288ZM294.739 374.168C295.208 374.168 295.619 374.04 295.971 373.784C296.334 373.528 296.611 373.171 296.803 372.712C296.995 372.253 297.091 371.725 297.091 371.128C297.091 370.541 296.995 370.024 296.803 369.576C296.611 369.117 296.334 368.76 295.971 368.504C295.619 368.248 295.208 368.12 294.739 368.12C294.28 368.12 293.87 368.243 293.507 368.488C293.144 368.733 292.862 369.085 292.659 369.544C292.456 369.992 292.355 370.52 292.355 371.128C292.355 371.725 292.456 372.253 292.659 372.712C292.862 373.171 293.139 373.528 293.491 373.784C293.854 374.04 294.27 374.168 294.739 374.168ZM303.459 375.24C302.776 375.24 302.168 375.08 301.635 374.76C301.101 374.44 300.68 373.971 300.371 373.352C300.061 372.733 299.907 371.997 299.907 371.144C299.907 370.365 300.051 369.667 300.339 369.048C300.637 368.419 301.059 367.928 301.603 367.576C302.147 367.213 302.776 367.032 303.491 367.032C304.077 367.032 304.584 367.165 305.011 367.432C305.448 367.688 305.768 367.987 305.971 368.328C305.971 368.115 305.971 367.907 305.971 367.704V363.8H307.347V375H305.971V374.552C305.971 374.339 305.971 374.131 305.971 373.928C305.757 374.301 305.421 374.616 304.963 374.872C304.515 375.117 304.013 375.24 303.459 375.24ZM303.699 374.168C304.157 374.168 304.563 374.045 304.915 373.8C305.277 373.544 305.56 373.187 305.763 372.728C305.965 372.269 306.067 371.736 306.067 371.128C306.067 370.221 305.848 369.496 305.411 368.952C304.973 368.397 304.403 368.12 303.699 368.12C303.24 368.12 302.829 368.248 302.467 368.504C302.115 368.749 301.837 369.101 301.635 369.56C301.432 370.019 301.331 370.547 301.331 371.144C301.331 371.741 301.427 372.269 301.619 372.728C301.821 373.187 302.099 373.544 302.451 373.8C302.813 374.045 303.229 374.168 303.699 374.168ZM310.291 368.424H308.835V367.288H310.291V365.864C310.291 365.139 310.505 364.573 310.931 364.168C311.358 363.752 311.881 363.544 312.499 363.544C312.649 363.544 312.793 363.56 312.931 363.592C313.081 363.613 313.198 363.645 313.283 363.688V364.856C312.995 364.824 312.83 364.808 312.787 364.808C312.425 364.808 312.147 364.909 311.955 365.112C311.763 365.304 311.667 365.587 311.667 365.96V367.288H313.267V368.424H311.667V375H310.291V368.424Z"></path>
<rect fill="#F2F1F0" rx="6" height="20" width="18" y="355" x="438"></rect>
<path fill="#8F8B85" d="M446.976 363.12C446.976 362.872 446.984 362.636 447 362.412C446.8 362.748 446.528 363.024 446.184 363.24C445.84 363.448 445.456 363.56 445.032 363.576V362.34C445.544 362.268 445.996 362.076 446.388 361.764C446.788 361.444 447.048 361.056 447.168 360.6H448.248V369H446.976V363.12ZM446.976 367.872H448.248V369H446.976V367.872Z"></path>
<rect fill="#F2F1F0" rx="6" height="20" width="18" y="355" x="464"></rect>
<path fill="#8F8B85" d="M470.012 369C470.02 368.52 470.104 368.104 470.264 367.752C470.432 367.392 470.66 367.068 470.948 366.78C471.236 366.492 471.64 366.156 472.16 365.772L472.976 365.16L473 365.136C473.488 364.776 473.868 364.428 474.14 364.092C474.412 363.748 474.548 363.364 474.548 362.94C474.548 362.644 474.488 362.388 474.368 362.172C474.248 361.948 474.076 361.776 473.852 361.656C473.636 361.528 473.376 361.464 473.072 361.464C472.736 361.464 472.444 361.54 472.196 361.692C471.956 361.844 471.772 362.068 471.644 362.364C471.516 362.66 471.452 363.012 471.452 363.42V363.54H470.108V363.36C470.108 362.76 470.232 362.236 470.48 361.788C470.728 361.34 471.076 360.996 471.524 360.756C471.972 360.516 472.488 360.396 473.072 360.396C473.632 360.396 474.12 360.504 474.536 360.72C474.952 360.928 475.272 361.224 475.496 361.608C475.728 361.992 475.844 362.436 475.844 362.94C475.844 363.388 475.752 363.796 475.568 364.164C475.384 364.532 475.128 364.876 474.8 365.196C474.472 365.516 474.044 365.872 473.516 366.264L472.94 366.684C472.508 367.004 472.204 367.244 472.028 367.404C471.852 367.556 471.744 367.696 471.704 367.824H475.916V369H470.012Z"></path>
<rect fill="#F2F1F0" rx="6" height="20" width="18" y="355" x="490"></rect>
<path fill="#8F8B85" d="M499.046 369.192C498.422 369.192 497.882 369.084 497.426 368.868C496.978 368.644 496.634 368.324 496.394 367.908C496.154 367.492 496.034 367 496.034 366.432H497.33C497.33 366.768 497.394 367.064 497.522 367.32C497.658 367.576 497.854 367.776 498.11 367.92C498.374 368.064 498.686 368.136 499.046 368.136C499.366 368.136 499.654 368.068 499.91 367.932C500.166 367.796 500.362 367.608 500.498 367.368C500.642 367.128 500.714 366.844 500.714 366.516C500.714 365.94 500.494 365.52 500.054 365.256C499.614 364.992 499.014 364.888 498.254 364.944V363.972L500.63 361.332L500.822 361.776H496.466V360.6H501.686V361.848L499.478 364.284L499.118 364.008C499.774 364.024 500.318 364.152 500.75 364.392C501.19 364.624 501.51 364.928 501.71 365.304C501.918 365.672 502.022 366.076 502.022 366.516C502.022 367.028 501.894 367.488 501.638 367.896C501.39 368.304 501.038 368.624 500.582 368.856C500.134 369.08 499.622 369.192 499.046 369.192Z"></path>
<rect fill="#F2F1F0" rx="6" height="20" width="18" y="355" x="516"></rect>
<path fill="#8F8B85" d="M525.526 366.9H521.626V365.748L525.142 360.6H526.81V365.784H528.358V366.9H526.81V369H525.526V366.9ZM525.526 365.784V361.8C525.422 362 525.306 362.192 525.178 362.376L523.162 365.34C523.018 365.54 522.91 365.688 522.838 365.784H525.526Z"></path>
</svg>
