<svg xmlns="http://www.w3.org/2000/svg" fill="none" viewBox="0 0 675 507" height="507" width="675">
<g clip-path="url(#clip0_4465_17650)">
<rect fill="#CCCAC6" height="506.25" width="675"></rect>
<rect fill="white" rx="14" height="116" width="555.207" y="-96.875" x="59.8965"></rect>
<rect fill="white" rx="14" height="116" width="555.207" y="49.125" x="59.8965"></rect>
<path fill="#0F0E0D" d="M84.2325 76.525H87.5645L90.9805 90.077C91.2045 90.973 91.4285 91.9343 91.6525 92.961C91.7458 92.5877 91.8298 92.2237 91.9045 91.869C91.9792 91.5517 92.0538 91.2437 92.1285 90.945C92.2032 90.6463 92.2778 90.357 92.3525 90.077L95.8805 76.525H100.136L103.524 90.077C103.804 91.1783 104.038 92.1397 104.224 92.961C104.43 91.953 104.644 90.9917 104.868 90.077L108.368 76.525H111.56L106.324 96.125H102.208L98.6525 81.817C98.6152 81.6677 98.5778 81.5183 98.5405 81.369C98.4472 81.033 98.3538 80.6877 98.2605 80.333C98.1858 79.9597 98.1018 79.5677 98.0085 79.157C97.8778 79.7357 97.7378 80.333 97.5885 80.949C97.5512 81.0983 97.4765 81.3877 97.3645 81.817L93.5565 96.125H89.4685L84.2325 76.525ZM118.889 96.573C117.526 96.573 116.341 96.293 115.333 95.733C114.325 95.1543 113.541 94.3237 112.981 93.241C112.421 92.1583 112.141 90.8423 112.141 89.293C112.141 87.9117 112.421 86.6797 112.981 85.597C113.559 84.4957 114.353 83.637 115.361 83.021C116.369 82.405 117.498 82.097 118.749 82.097C120.093 82.097 121.241 82.3957 122.193 82.993C123.163 83.5903 123.901 84.4397 124.405 85.541C124.909 86.6237 125.161 87.893 125.161 89.349V89.965H115.081C115.081 90.8423 115.249 91.6077 115.585 92.261C115.921 92.9143 116.369 93.4183 116.929 93.773C117.507 94.1277 118.161 94.305 118.889 94.305C119.747 94.305 120.466 94.0997 121.045 93.689C121.642 93.2783 122.006 92.653 122.137 91.813H125.049C124.955 92.709 124.657 93.521 124.153 94.249C123.649 94.9583 122.939 95.5277 122.025 95.957C121.129 96.3677 120.083 96.573 118.889 96.573ZM122.137 87.893C122.118 86.8103 121.81 85.9423 121.213 85.289C120.615 84.6357 119.794 84.309 118.749 84.309C117.741 84.309 116.901 84.6543 116.229 85.345C115.575 86.017 115.202 86.8663 115.109 87.893H122.137ZM135.463 96.573C134.455 96.573 133.568 96.3677 132.803 95.957C132.056 95.5277 131.477 94.9583 131.067 94.249C131.104 94.6597 131.123 95.0703 131.123 95.481V96.125H128.211V76.525H131.123V83.217C131.123 83.553 131.104 83.9637 131.067 84.449C131.533 83.7397 132.131 83.1703 132.859 82.741C133.605 82.3117 134.473 82.097 135.463 82.097C136.657 82.097 137.721 82.405 138.655 83.021C139.607 83.6183 140.344 84.4677 140.867 85.569C141.389 86.6703 141.651 87.9397 141.651 89.377C141.651 90.8143 141.389 92.0837 140.867 93.185C140.363 94.2677 139.635 95.1077 138.683 95.705C137.749 96.2837 136.676 96.573 135.463 96.573ZM134.791 94.305C135.556 94.305 136.228 94.0997 136.807 93.689C137.404 93.2597 137.861 92.681 138.179 91.953C138.515 91.2063 138.683 90.3477 138.683 89.377C138.683 88.4063 138.515 87.5477 138.179 86.801C137.861 86.0357 137.404 85.4477 136.807 85.037C136.228 84.6077 135.556 84.393 134.791 84.393C134.044 84.393 133.381 84.5983 132.803 85.009C132.224 85.4197 131.767 85.9983 131.431 86.745C131.113 87.4917 130.955 88.3597 130.955 89.349C130.955 90.3197 131.113 91.1783 131.431 91.925C131.767 92.6717 132.224 93.2597 132.803 93.689C133.381 94.0997 134.044 94.305 134.791 94.305ZM158.159 96.573C156.516 96.573 155.079 96.293 153.847 95.733C152.615 95.173 151.663 94.3703 150.991 93.325C150.319 92.261 149.945 91.029 149.871 89.629H153.063C153.119 90.525 153.38 91.2997 153.847 91.953C154.313 92.6063 154.92 93.1103 155.667 93.465C156.432 93.801 157.291 93.969 158.243 93.969C159.643 93.969 160.735 93.6983 161.519 93.157C162.321 92.6157 162.723 91.8503 162.723 90.861C162.723 90.0397 162.424 89.3957 161.827 88.929C161.229 88.4623 160.333 88.1077 159.139 87.865L156.031 87.193C154.407 86.857 153.091 86.2317 152.083 85.317C151.075 84.3837 150.571 83.189 150.571 81.733C150.571 80.6317 150.888 79.6517 151.523 78.793C152.157 77.9343 153.035 77.2623 154.155 76.777C155.275 76.2917 156.544 76.049 157.963 76.049C159.456 76.049 160.763 76.3103 161.883 76.833C163.003 77.337 163.871 78.0557 164.487 78.989C165.103 79.9037 165.448 80.9863 165.523 82.237H162.331C162.293 81.5277 162.097 80.9117 161.743 80.389C161.388 79.8477 160.875 79.4277 160.203 79.129C159.549 78.8117 158.765 78.653 157.851 78.653C157.067 78.653 156.357 78.7743 155.723 79.017C155.107 79.241 154.621 79.5677 154.267 79.997C153.912 80.4077 153.735 80.893 153.735 81.453C153.735 82.237 154.005 82.853 154.547 83.301C155.107 83.7303 155.956 84.0663 157.095 84.309L160.483 85.009C162.125 85.3637 163.432 85.9983 164.403 86.913C165.392 87.8277 165.887 89.0223 165.887 90.497C165.887 91.6543 165.579 92.6903 164.963 93.605C164.347 94.5197 163.46 95.2477 162.303 95.789C161.145 96.3117 159.764 96.573 158.159 96.573ZM174.916 96.573C173.554 96.573 172.368 96.293 171.36 95.733C170.352 95.1543 169.568 94.3237 169.008 93.241C168.448 92.1583 168.168 90.8423 168.168 89.293C168.168 87.9117 168.448 86.6797 169.008 85.597C169.587 84.4957 170.38 83.637 171.388 83.021C172.396 82.405 173.526 82.097 174.776 82.097C176.12 82.097 177.268 82.3957 178.22 82.993C179.191 83.5903 179.928 84.4397 180.432 85.541C180.936 86.6237 181.188 87.893 181.188 89.349V89.965H171.108C171.108 90.8423 171.276 91.6077 171.612 92.261C171.948 92.9143 172.396 93.4183 172.956 93.773C173.535 94.1277 174.188 94.305 174.916 94.305C175.775 94.305 176.494 94.0997 177.072 93.689C177.67 93.2783 178.034 92.653 178.164 91.813H181.076C180.983 92.709 180.684 93.521 180.18 94.249C179.676 94.9583 178.967 95.5277 178.052 95.957C177.156 96.3677 176.111 96.573 174.916 96.573ZM178.164 87.893C178.146 86.8103 177.838 85.9423 177.24 85.289C176.643 84.6357 175.822 84.309 174.776 84.309C173.768 84.309 172.928 84.6543 172.256 85.345C171.603 86.017 171.23 86.8663 171.136 87.893H178.164ZM188.158 96.573C187.337 96.573 186.562 96.405 185.834 96.069C185.125 95.733 184.555 95.2477 184.126 94.613C183.697 93.9783 183.482 93.241 183.482 92.401C183.482 91.0757 183.921 90.077 184.798 89.405C185.694 88.7143 186.889 88.257 188.382 88.033L190.818 87.697C191.341 87.6223 191.705 87.4823 191.91 87.277C192.134 87.0717 192.246 86.7823 192.246 86.409C192.246 85.7743 192.013 85.2703 191.546 84.897C191.098 84.505 190.501 84.309 189.754 84.309C188.858 84.309 188.149 84.5423 187.626 85.009C187.122 85.457 186.842 86.073 186.786 86.857H183.846C183.902 85.9797 184.163 85.177 184.63 84.449C185.115 83.721 185.778 83.1517 186.618 82.741C187.458 82.3117 188.438 82.097 189.558 82.097C190.79 82.097 191.817 82.321 192.638 82.769C193.478 83.1983 194.103 83.833 194.514 84.673C194.925 85.4943 195.13 86.493 195.13 87.669V96.125H192.386V95.509C192.386 95.117 192.414 94.7063 192.47 94.277C192.097 95.005 191.546 95.5743 190.818 95.985C190.09 96.377 189.203 96.573 188.158 96.573ZM188.774 94.389C189.427 94.389 190.025 94.249 190.566 93.969C191.107 93.6703 191.527 93.2597 191.826 92.737C192.143 92.2143 192.302 91.617 192.302 90.945V89.181C192.19 89.3117 192.013 89.4237 191.77 89.517C191.527 89.6103 191.191 89.6943 190.762 89.769L189.194 90.077C188.335 90.245 187.663 90.5063 187.178 90.861C186.693 91.2157 186.45 91.7103 186.45 92.345C186.45 92.961 186.674 93.4557 187.122 93.829C187.57 94.2023 188.121 94.389 188.774 94.389ZM198.758 82.545H201.67V83.357C201.67 83.8797 201.651 84.393 201.614 84.897C201.987 84.057 202.519 83.385 203.21 82.881C203.919 82.3583 204.759 82.097 205.73 82.097C205.991 82.097 206.215 82.1157 206.402 82.153V84.981C206.122 84.925 205.832 84.897 205.534 84.897C204.731 84.897 204.04 85.0463 203.462 85.345C202.883 85.6437 202.435 86.1103 202.118 86.745C201.819 87.3797 201.67 88.1823 201.67 89.153V96.125H198.758V82.545ZM214.375 96.573C213.031 96.573 211.845 96.293 210.819 95.733C209.792 95.173 208.989 94.3517 208.411 93.269C207.851 92.1677 207.571 90.8517 207.571 89.321C207.571 87.8837 207.869 86.6237 208.467 85.541C209.083 84.4397 209.913 83.5903 210.959 82.993C212.023 82.3957 213.199 82.097 214.487 82.097C215.663 82.097 216.699 82.321 217.595 82.769C218.491 83.1983 219.2 83.8143 219.723 84.617C220.245 85.4197 220.563 86.3437 220.675 87.389H217.707C217.613 86.5117 217.287 85.793 216.727 85.233C216.167 84.673 215.411 84.393 214.459 84.393C213.712 84.393 213.04 84.5983 212.443 85.009C211.845 85.4197 211.379 85.9983 211.043 86.745C210.707 87.4917 210.539 88.3597 210.539 89.349C210.539 90.3197 210.697 91.1877 211.015 91.953C211.351 92.6997 211.808 93.2783 212.387 93.689C212.984 94.0997 213.675 94.305 214.459 94.305C215.448 94.305 216.232 94.0343 216.811 93.493C217.408 92.933 217.763 92.1863 217.875 91.253H220.787C220.656 92.3357 220.329 93.2783 219.807 94.081C219.284 94.8837 218.556 95.4997 217.623 95.929C216.708 96.3583 215.625 96.573 214.375 96.573ZM223.586 76.525H226.498V83.189C226.498 83.3943 226.488 83.5717 226.47 83.721C226.47 83.8517 226.46 83.973 226.442 84.085C226.442 84.1783 226.442 84.2997 226.442 84.449C226.834 83.7397 227.384 83.1703 228.094 82.741C228.803 82.3117 229.643 82.097 230.614 82.097C231.622 82.097 232.49 82.321 233.218 82.769C233.964 83.1983 234.534 83.8237 234.926 84.645C235.318 85.4663 235.514 86.437 235.514 87.557V96.125H232.602V87.949C232.602 86.7917 232.368 85.9143 231.902 85.317C231.435 84.701 230.735 84.393 229.802 84.393C229.148 84.393 228.57 84.561 228.066 84.897C227.562 85.2143 227.17 85.653 226.89 86.213C226.628 86.773 226.498 87.389 226.498 88.061V96.125H223.586V76.525Z"></path>
<circle stroke-width="2" stroke="#0F0E0D" r="10" cy="127.125" cx="98.8965"></circle>
<path stroke-linecap="square" stroke-width="2" stroke="#0F0E0D" d="M98.8965 120.875V127.125L102.646 129.625"></path>
<path fill="black" d="M128.056 117.325H130.24V132.277H139V134.125H128.056V117.325ZM141.008 122.557H143.072V134.125H141.008V122.557ZM141.008 132.421H143.072V134.125H141.008V132.421ZM141.008 122.557H142.04V124.261H141.008V122.557ZM140.816 117.901H143.216V120.373H140.816V117.901ZM145.193 122.557H147.449L150.401 130.933C150.529 131.301 150.657 131.677 150.785 132.061C150.913 131.677 151.041 131.301 151.169 130.933L154.049 122.557H156.209L151.817 134.125H149.633L145.193 122.557ZM162.966 134.485C161.814 134.485 160.814 134.245 159.966 133.765C159.134 133.285 158.486 132.581 158.022 131.653C157.574 130.725 157.35 129.605 157.35 128.293C157.35 127.125 157.582 126.077 158.046 125.149C158.526 124.221 159.182 123.493 160.014 122.965C160.862 122.437 161.806 122.173 162.846 122.173C163.982 122.173 164.95 122.429 165.75 122.941C166.55 123.437 167.158 124.149 167.574 125.077C167.99 125.989 168.198 127.069 168.198 128.317V128.725H159.414C159.43 129.589 159.59 130.333 159.894 130.957C160.214 131.581 160.638 132.061 161.166 132.397C161.71 132.717 162.318 132.877 162.99 132.877C163.774 132.877 164.446 132.701 165.006 132.349C165.566 131.981 165.91 131.381 166.038 130.549H168.078C167.998 131.269 167.758 131.925 167.358 132.517C166.958 133.109 166.382 133.589 165.63 133.957C164.894 134.309 164.006 134.485 162.966 134.485ZM165.99 127.261C165.99 126.205 165.71 125.365 165.15 124.741C164.606 124.117 163.838 123.805 162.846 123.805C161.902 123.805 161.126 124.133 160.518 124.789C159.91 125.445 159.566 126.269 159.486 127.261H165.99ZM180.759 134.485C179.863 134.485 179.103 134.309 178.479 133.957C177.855 133.605 177.383 133.093 177.063 132.421C176.743 131.733 176.583 130.901 176.583 129.925V122.557H178.647V129.493C178.647 130.629 178.855 131.477 179.271 132.037C179.687 132.597 180.359 132.877 181.287 132.877C181.911 132.877 182.439 132.725 182.871 132.421C183.319 132.101 183.655 131.653 183.879 131.077C184.119 130.485 184.239 129.773 184.239 128.941V122.557H186.279V134.125H184.263V133.429C184.263 133.189 184.263 132.957 184.263 132.733V132.517C183.991 133.125 183.535 133.605 182.895 133.957C182.255 134.309 181.543 134.485 180.759 134.485ZM189.829 122.557H191.893V123.397C191.893 123.637 191.893 123.885 191.893 124.141C192.245 123.597 192.765 123.133 193.453 122.749C194.141 122.365 194.893 122.173 195.709 122.173C196.797 122.173 197.741 122.437 198.541 122.965C199.357 123.493 199.973 124.221 200.389 125.149C200.821 126.077 201.037 127.133 201.037 128.317C201.037 129.533 200.813 130.605 200.365 131.533C199.917 132.461 199.285 133.189 198.469 133.717C197.653 134.229 196.717 134.485 195.661 134.485C194.845 134.485 194.109 134.309 193.453 133.957C192.797 133.605 192.277 133.125 191.893 132.517C191.893 132.837 191.893 133.157 191.893 133.477V139.117H189.829V122.557ZM195.349 132.877C196.053 132.877 196.669 132.685 197.197 132.301C197.741 131.917 198.157 131.381 198.445 130.693C198.733 130.005 198.877 129.213 198.877 128.317C198.877 127.437 198.733 126.661 198.445 125.989C198.157 125.301 197.741 124.765 197.197 124.381C196.669 123.997 196.053 123.805 195.349 123.805C194.661 123.805 194.045 123.989 193.501 124.357C192.957 124.725 192.533 125.253 192.229 125.941C191.925 126.613 191.773 127.405 191.773 128.317C191.773 129.213 191.925 130.005 192.229 130.693C192.533 131.381 192.949 131.917 193.477 132.301C194.021 132.685 194.645 132.877 195.349 132.877ZM208.428 134.485C207.404 134.485 206.492 134.245 205.692 133.765C204.892 133.285 204.26 132.581 203.796 131.653C203.332 130.725 203.1 129.621 203.1 128.341C203.1 127.173 203.316 126.125 203.748 125.197C204.196 124.253 204.828 123.517 205.644 122.989C206.46 122.445 207.404 122.173 208.476 122.173C209.356 122.173 210.116 122.373 210.756 122.773C211.412 123.157 211.892 123.605 212.196 124.117C212.196 123.797 212.196 123.485 212.196 123.181V117.325H214.26V134.125H212.196V133.453C212.196 133.133 212.196 132.821 212.196 132.517C211.876 133.077 211.372 133.549 210.684 133.933C210.012 134.301 209.26 134.485 208.428 134.485ZM208.788 132.877C209.476 132.877 210.084 132.693 210.612 132.325C211.156 131.941 211.58 131.405 211.884 130.717C212.188 130.029 212.34 129.229 212.34 128.317C212.34 126.957 212.012 125.869 211.356 125.053C210.7 124.221 209.844 123.805 208.788 123.805C208.1 123.805 207.484 123.997 206.94 124.381C206.412 124.749 205.996 125.277 205.692 125.965C205.388 126.653 205.236 127.445 205.236 128.341C205.236 129.237 205.38 130.029 205.668 130.717C205.972 131.405 206.388 131.941 206.916 132.325C207.46 132.693 208.084 132.877 208.788 132.877ZM221.101 134.485C220.365 134.485 219.693 134.341 219.085 134.053C218.477 133.765 217.997 133.357 217.645 132.829C217.293 132.285 217.117 131.661 217.117 130.957C217.117 129.917 217.469 129.101 218.173 128.509C218.893 127.917 219.821 127.533 220.957 127.357L223.429 126.973C223.861 126.909 224.165 126.789 224.341 126.613C224.517 126.437 224.605 126.173 224.605 125.821C224.605 125.197 224.389 124.709 223.957 124.357C223.525 123.989 222.965 123.805 222.277 123.805C221.413 123.805 220.749 124.021 220.285 124.453C219.821 124.869 219.573 125.445 219.541 126.181H217.477C217.509 125.461 217.709 124.797 218.077 124.189C218.445 123.581 218.973 123.093 219.661 122.725C220.365 122.357 221.181 122.173 222.109 122.173C223.053 122.173 223.861 122.349 224.533 122.701C225.221 123.053 225.741 123.557 226.093 124.213C226.445 124.869 226.621 125.645 226.621 126.541V134.125H224.653V133.549C224.653 133.213 224.653 132.885 224.653 132.565C224.365 133.173 223.909 133.645 223.285 133.981C222.677 134.317 221.949 134.485 221.101 134.485ZM221.389 132.877C221.997 132.877 222.541 132.749 223.021 132.493C223.517 132.221 223.901 131.853 224.173 131.389C224.461 130.909 224.605 130.365 224.605 129.757V128.053C224.541 128.165 224.397 128.261 224.173 128.341C223.965 128.421 223.685 128.493 223.333 128.557L221.653 128.869C220.917 129.013 220.333 129.253 219.901 129.589C219.469 129.925 219.253 130.381 219.253 130.957C219.253 131.533 219.453 131.997 219.853 132.349C220.269 132.701 220.781 132.877 221.389 132.877ZM234.011 134.317C233.051 134.317 232.259 134.053 231.635 133.525C231.027 132.981 230.723 132.109 230.723 130.909V124.261H228.563V122.557H230.723V118.741H232.787V122.557H235.187V124.261H232.787V130.693C232.787 131.333 232.931 131.789 233.219 132.061C233.523 132.333 233.947 132.469 234.491 132.469C234.731 132.469 235.019 132.445 235.355 132.397V134.173C235.147 134.221 234.931 134.253 234.707 134.269C234.483 134.301 234.251 134.317 234.011 134.317ZM242.56 134.485C241.408 134.485 240.408 134.245 239.56 133.765C238.728 133.285 238.08 132.581 237.616 131.653C237.168 130.725 236.944 129.605 236.944 128.293C236.944 127.125 237.176 126.077 237.64 125.149C238.12 124.221 238.776 123.493 239.608 122.965C240.456 122.437 241.4 122.173 242.44 122.173C243.576 122.173 244.544 122.429 245.344 122.941C246.144 123.437 246.752 124.149 247.168 125.077C247.584 125.989 247.792 127.069 247.792 128.317V128.725H239.008C239.024 129.589 239.184 130.333 239.488 130.957C239.808 131.581 240.232 132.061 240.76 132.397C241.304 132.717 241.912 132.877 242.584 132.877C243.368 132.877 244.04 132.701 244.6 132.349C245.16 131.981 245.504 131.381 245.632 130.549H247.672C247.592 131.269 247.352 131.925 246.952 132.517C246.552 133.109 245.976 133.589 245.224 133.957C244.488 134.309 243.6 134.485 242.56 134.485ZM245.584 127.261C245.584 126.205 245.304 125.365 244.744 124.741C244.2 124.117 243.432 123.805 242.44 123.805C241.496 123.805 240.72 124.133 240.112 124.789C239.504 125.445 239.16 126.269 239.08 127.261H245.584ZM254.682 134.485C253.658 134.485 252.778 134.309 252.042 133.957C251.306 133.605 250.738 133.117 250.338 132.493C249.938 131.869 249.73 131.141 249.714 130.309H251.73C251.762 131.109 252.034 131.741 252.546 132.205C253.074 132.653 253.794 132.877 254.706 132.877C255.506 132.877 256.146 132.709 256.626 132.373C257.122 132.021 257.37 131.557 257.37 130.981C257.37 130.517 257.202 130.141 256.866 129.853C256.546 129.549 256.042 129.333 255.354 129.205L253.602 128.869C252.498 128.661 251.634 128.277 251.01 127.717C250.386 127.157 250.074 126.445 250.074 125.581C250.074 124.925 250.266 124.341 250.65 123.829C251.034 123.317 251.562 122.917 252.234 122.629C252.922 122.325 253.698 122.173 254.562 122.173C255.49 122.173 256.29 122.325 256.962 122.629C257.634 122.917 258.154 123.341 258.522 123.901C258.906 124.445 259.122 125.109 259.17 125.893H257.13C257.05 125.205 256.77 124.685 256.29 124.333C255.826 123.981 255.202 123.805 254.418 123.805C253.73 123.805 253.178 123.957 252.762 124.261C252.346 124.565 252.138 124.965 252.138 125.461C252.138 125.909 252.298 126.261 252.618 126.517C252.938 126.773 253.434 126.965 254.106 127.093L255.906 127.429C257.01 127.637 257.866 128.013 258.474 128.557C259.098 129.101 259.41 129.837 259.41 130.765C259.41 131.453 259.218 132.085 258.834 132.661C258.45 133.221 257.898 133.669 257.178 134.005C256.474 134.325 255.642 134.485 254.682 134.485Z"></path>
<rect fill="white" rx="14" height="116" width="555.207" y="195.125" x="59.8965"></rect>
<path fill="#0F0E0D" d="M86.2485 222.525H99.4085V225.129H89.3285V230.757H98.9885V233.389H89.3285V239.493H99.8005V242.125H86.2485V222.525ZM103.475 222.525H109.859C112.062 222.525 113.938 222.88 115.487 223.589C117.036 224.298 118.231 225.39 119.071 226.865C119.911 228.321 120.331 230.141 120.331 232.325C120.331 234.304 119.939 236.03 119.155 237.505C118.39 238.98 117.251 240.118 115.739 240.921C114.227 241.724 112.388 242.125 110.223 242.125H103.475V222.525ZM109.943 239.493C111.455 239.493 112.743 239.241 113.807 238.737C114.871 238.233 115.692 237.449 116.271 236.385C116.85 235.321 117.139 233.968 117.139 232.325C117.139 229.992 116.532 228.209 115.319 226.977C114.106 225.745 112.286 225.129 109.859 225.129H106.555V239.493H109.943ZM131.993 242.573C130.145 242.573 128.512 242.144 127.093 241.285C125.693 240.426 124.611 239.222 123.845 237.673C123.099 236.124 122.725 234.36 122.725 232.381C122.725 230.29 123.145 228.47 123.985 226.921C124.825 225.353 125.973 224.149 127.429 223.309C128.904 222.469 130.556 222.049 132.385 222.049C133.897 222.049 135.251 222.32 136.445 222.861C137.64 223.402 138.592 224.158 139.301 225.129C140.029 226.081 140.468 227.173 140.617 228.405H137.369C137.201 227.304 136.669 226.408 135.773 225.717C134.877 225.026 133.757 224.681 132.413 224.681C131.163 224.681 130.043 224.98 129.053 225.577C128.083 226.174 127.317 227.061 126.757 228.237C126.216 229.394 125.945 230.776 125.945 232.381C125.945 233.874 126.207 235.2 126.729 236.357C127.271 237.496 128.017 238.382 128.969 239.017C129.94 239.652 131.051 239.969 132.301 239.969C133.403 239.969 134.364 239.764 135.185 239.353C136.025 238.924 136.679 238.317 137.145 237.533C137.631 236.73 137.873 235.769 137.873 234.649V233.025L139.245 234.397H132.105V231.793H140.701V242.125H137.985V241.369C137.985 240.996 137.985 240.678 137.985 240.417C138.004 240.156 138.032 239.838 138.069 239.465C137.565 240.398 136.772 241.154 135.689 241.733C134.625 242.293 133.393 242.573 131.993 242.573ZM150.227 222.525H153.867L161.819 242.125H158.375L152.635 226.949C152.579 226.744 152.514 226.548 152.439 226.361C152.309 226.025 152.159 225.596 151.991 225.073C151.917 225.316 151.842 225.53 151.767 225.717C151.693 225.885 151.618 226.081 151.543 226.305L151.291 226.949L145.579 242.125H142.275L150.227 222.525ZM147.287 233.921H156.667V236.525H147.287V233.921ZM164.178 222.525H172.494C173.82 222.525 174.986 222.74 175.994 223.169C177.002 223.58 177.786 224.205 178.346 225.045C178.906 225.866 179.186 226.874 179.186 228.069C179.186 229.226 178.906 230.216 178.346 231.037C177.786 231.858 177.012 232.484 176.022 232.913C175.033 233.324 173.885 233.529 172.578 233.529H171.71L172.578 232.633L179.69 242.125H175.854L169.666 233.557H167.23V242.125H164.178V222.525ZM172.214 231.037C173.465 231.037 174.408 230.785 175.042 230.281C175.696 229.758 176.022 229.03 176.022 228.097C176.022 227.126 175.705 226.389 175.07 225.885C174.436 225.381 173.484 225.129 172.214 225.129H167.23V231.037H172.214Z"></path>
<circle stroke-width="2" stroke="#0F0E0D" r="10" cy="273.125" cx="98.8965"></circle>
<path stroke-linecap="square" stroke-width="2" stroke="#0F0E0D" d="M98.8965 266.875V273.125L102.646 275.625"></path>
<path fill="black" d="M128.056 263.325H130.24V278.277H139V280.125H128.056V263.325ZM144.296 280.485C143.56 280.485 142.888 280.341 142.28 280.053C141.672 279.765 141.192 279.357 140.84 278.829C140.488 278.285 140.312 277.661 140.312 276.957C140.312 275.917 140.664 275.101 141.368 274.509C142.088 273.917 143.016 273.533 144.152 273.357L146.624 272.973C147.056 272.909 147.36 272.789 147.536 272.613C147.712 272.437 147.8 272.173 147.8 271.821C147.8 271.197 147.584 270.709 147.152 270.357C146.72 269.989 146.16 269.805 145.472 269.805C144.608 269.805 143.944 270.021 143.48 270.453C143.016 270.869 142.768 271.445 142.736 272.181H140.672C140.704 271.461 140.904 270.797 141.272 270.189C141.64 269.581 142.168 269.093 142.856 268.725C143.56 268.357 144.376 268.173 145.304 268.173C146.248 268.173 147.056 268.349 147.728 268.701C148.416 269.053 148.936 269.557 149.288 270.213C149.64 270.869 149.816 271.645 149.816 272.541V280.125H147.848V279.549C147.848 279.213 147.848 278.885 147.848 278.565C147.56 279.173 147.104 279.645 146.48 279.981C145.872 280.317 145.144 280.485 144.296 280.485ZM144.584 278.877C145.192 278.877 145.736 278.749 146.216 278.493C146.712 278.221 147.096 277.853 147.368 277.389C147.656 276.909 147.8 276.365 147.8 275.757V274.053C147.736 274.165 147.592 274.261 147.368 274.341C147.16 274.421 146.88 274.493 146.528 274.557L144.848 274.869C144.112 275.013 143.528 275.253 143.096 275.589C142.664 275.925 142.448 276.381 142.448 276.957C142.448 277.533 142.648 277.997 143.048 278.349C143.464 278.701 143.976 278.877 144.584 278.877ZM157.275 280.485C156.251 280.485 155.371 280.309 154.635 279.957C153.899 279.605 153.331 279.117 152.931 278.493C152.531 277.869 152.323 277.141 152.307 276.309H154.323C154.355 277.109 154.627 277.741 155.139 278.205C155.667 278.653 156.387 278.877 157.299 278.877C158.099 278.877 158.739 278.709 159.219 278.373C159.715 278.021 159.963 277.557 159.963 276.981C159.963 276.517 159.795 276.141 159.459 275.853C159.139 275.549 158.635 275.333 157.947 275.205L156.195 274.869C155.091 274.661 154.227 274.277 153.603 273.717C152.979 273.157 152.667 272.445 152.667 271.581C152.667 270.925 152.859 270.341 153.243 269.829C153.627 269.317 154.155 268.917 154.827 268.629C155.515 268.325 156.291 268.173 157.155 268.173C158.083 268.173 158.883 268.325 159.555 268.629C160.227 268.917 160.747 269.341 161.115 269.901C161.499 270.445 161.715 271.109 161.763 271.893H159.723C159.643 271.205 159.363 270.685 158.883 270.333C158.419 269.981 157.795 269.805 157.011 269.805C156.323 269.805 155.771 269.957 155.355 270.261C154.939 270.565 154.731 270.965 154.731 271.461C154.731 271.909 154.891 272.261 155.211 272.517C155.531 272.773 156.027 272.965 156.699 273.093L158.499 273.429C159.603 273.637 160.459 274.013 161.067 274.557C161.691 275.101 162.003 275.837 162.003 276.765C162.003 277.453 161.811 278.085 161.427 278.661C161.043 279.221 160.491 279.669 159.771 280.005C159.067 280.325 158.235 280.485 157.275 280.485ZM168.784 280.317C167.824 280.317 167.032 280.053 166.408 279.525C165.8 278.981 165.496 278.109 165.496 276.909V270.261H163.336V268.557H165.496V264.741H167.56V268.557H169.96V270.261H167.56V276.693C167.56 277.333 167.704 277.789 167.992 278.061C168.296 278.333 168.72 278.469 169.264 278.469C169.504 278.469 169.792 278.445 170.128 278.397V280.173C169.92 280.221 169.704 280.253 169.48 280.269C169.256 280.301 169.024 280.317 168.784 280.317ZM182.329 280.485C181.433 280.485 180.673 280.309 180.049 279.957C179.425 279.605 178.953 279.093 178.633 278.421C178.313 277.733 178.153 276.901 178.153 275.925V268.557H180.217V275.493C180.217 276.629 180.425 277.477 180.841 278.037C181.257 278.597 181.929 278.877 182.857 278.877C183.481 278.877 184.009 278.725 184.441 278.421C184.889 278.101 185.225 277.653 185.449 277.077C185.689 276.485 185.809 275.773 185.809 274.941V268.557H187.849V280.125H185.833V279.429C185.833 279.189 185.833 278.957 185.833 278.733V278.517C185.561 279.125 185.105 279.605 184.465 279.957C183.825 280.309 183.113 280.485 182.329 280.485ZM191.399 268.557H193.463V269.397C193.463 269.637 193.463 269.885 193.463 270.141C193.815 269.597 194.335 269.133 195.023 268.749C195.711 268.365 196.463 268.173 197.279 268.173C198.367 268.173 199.311 268.437 200.111 268.965C200.927 269.493 201.543 270.221 201.959 271.149C202.391 272.077 202.607 273.133 202.607 274.317C202.607 275.533 202.383 276.605 201.935 277.533C201.487 278.461 200.855 279.189 200.039 279.717C199.223 280.229 198.287 280.485 197.231 280.485C196.415 280.485 195.679 280.309 195.023 279.957C194.367 279.605 193.847 279.125 193.463 278.517C193.463 278.837 193.463 279.157 193.463 279.477V285.117H191.399V268.557ZM196.919 278.877C197.623 278.877 198.239 278.685 198.767 278.301C199.311 277.917 199.727 277.381 200.015 276.693C200.303 276.005 200.447 275.213 200.447 274.317C200.447 273.437 200.303 272.661 200.015 271.989C199.727 271.301 199.311 270.765 198.767 270.381C198.239 269.997 197.623 269.805 196.919 269.805C196.231 269.805 195.615 269.989 195.071 270.357C194.527 270.725 194.103 271.253 193.799 271.941C193.495 272.613 193.343 273.405 193.343 274.317C193.343 275.213 193.495 276.005 193.799 276.693C194.103 277.381 194.519 277.917 195.047 278.301C195.591 278.685 196.215 278.877 196.919 278.877ZM209.999 280.485C208.975 280.485 208.063 280.245 207.263 279.765C206.463 279.285 205.831 278.581 205.367 277.653C204.903 276.725 204.671 275.621 204.671 274.341C204.671 273.173 204.887 272.125 205.319 271.197C205.767 270.253 206.399 269.517 207.215 268.989C208.031 268.445 208.975 268.173 210.047 268.173C210.927 268.173 211.687 268.373 212.327 268.773C212.983 269.157 213.463 269.605 213.767 270.117C213.767 269.797 213.767 269.485 213.767 269.181V263.325H215.831V280.125H213.767V279.453C213.767 279.133 213.767 278.821 213.767 278.517C213.447 279.077 212.943 279.549 212.255 279.933C211.583 280.301 210.831 280.485 209.999 280.485ZM210.359 278.877C211.047 278.877 211.655 278.693 212.183 278.325C212.727 277.941 213.151 277.405 213.455 276.717C213.759 276.029 213.911 275.229 213.911 274.317C213.911 272.957 213.583 271.869 212.927 271.053C212.271 270.221 211.415 269.805 210.359 269.805C209.671 269.805 209.055 269.997 208.511 270.381C207.983 270.749 207.567 271.277 207.263 271.965C206.959 272.653 206.807 273.445 206.807 274.341C206.807 275.237 206.951 276.029 207.239 276.717C207.543 277.405 207.959 277.941 208.487 278.325C209.031 278.693 209.655 278.877 210.359 278.877ZM222.671 280.485C221.935 280.485 221.263 280.341 220.655 280.053C220.047 279.765 219.567 279.357 219.215 278.829C218.863 278.285 218.687 277.661 218.687 276.957C218.687 275.917 219.039 275.101 219.743 274.509C220.463 273.917 221.391 273.533 222.527 273.357L224.999 272.973C225.431 272.909 225.735 272.789 225.911 272.613C226.087 272.437 226.175 272.173 226.175 271.821C226.175 271.197 225.959 270.709 225.527 270.357C225.095 269.989 224.535 269.805 223.847 269.805C222.983 269.805 222.319 270.021 221.855 270.453C221.391 270.869 221.143 271.445 221.111 272.181H219.047C219.079 271.461 219.279 270.797 219.647 270.189C220.015 269.581 220.543 269.093 221.231 268.725C221.935 268.357 222.751 268.173 223.679 268.173C224.623 268.173 225.431 268.349 226.103 268.701C226.791 269.053 227.311 269.557 227.663 270.213C228.015 270.869 228.191 271.645 228.191 272.541V280.125H226.223V279.549C226.223 279.213 226.223 278.885 226.223 278.565C225.935 279.173 225.479 279.645 224.855 279.981C224.247 280.317 223.519 280.485 222.671 280.485ZM222.959 278.877C223.567 278.877 224.111 278.749 224.591 278.493C225.087 278.221 225.471 277.853 225.743 277.389C226.031 276.909 226.175 276.365 226.175 275.757V274.053C226.111 274.165 225.967 274.261 225.743 274.341C225.535 274.421 225.255 274.493 224.903 274.557L223.223 274.869C222.487 275.013 221.903 275.253 221.471 275.589C221.039 275.925 220.823 276.381 220.823 276.957C220.823 277.533 221.023 277.997 221.423 278.349C221.839 278.701 222.351 278.877 222.959 278.877ZM235.581 280.317C234.621 280.317 233.829 280.053 233.205 279.525C232.597 278.981 232.293 278.109 232.293 276.909V270.261H230.133V268.557H232.293V264.741H234.357V268.557H236.757V270.261H234.357V276.693C234.357 277.333 234.501 277.789 234.789 278.061C235.093 278.333 235.517 278.469 236.061 278.469C236.301 278.469 236.589 278.445 236.925 278.397V280.173C236.717 280.221 236.501 280.253 236.277 280.269C236.053 280.301 235.821 280.317 235.581 280.317ZM244.13 280.485C242.978 280.485 241.978 280.245 241.13 279.765C240.298 279.285 239.65 278.581 239.186 277.653C238.738 276.725 238.514 275.605 238.514 274.293C238.514 273.125 238.746 272.077 239.21 271.149C239.69 270.221 240.346 269.493 241.178 268.965C242.026 268.437 242.97 268.173 244.01 268.173C245.146 268.173 246.114 268.429 246.914 268.941C247.714 269.437 248.322 270.149 248.738 271.077C249.154 271.989 249.362 273.069 249.362 274.317V274.725H240.578C240.594 275.589 240.754 276.333 241.058 276.957C241.378 277.581 241.802 278.061 242.33 278.397C242.874 278.717 243.482 278.877 244.154 278.877C244.938 278.877 245.61 278.701 246.17 278.349C246.73 277.981 247.074 277.381 247.202 276.549H249.242C249.162 277.269 248.922 277.925 248.522 278.517C248.122 279.109 247.546 279.589 246.794 279.957C246.058 280.309 245.17 280.485 244.13 280.485ZM247.154 273.261C247.154 272.205 246.874 271.365 246.314 270.741C245.77 270.117 245.002 269.805 244.01 269.805C243.066 269.805 242.29 270.133 241.682 270.789C241.074 271.445 240.73 272.269 240.65 273.261H247.154ZM256.78 280.485C255.756 280.485 254.844 280.245 254.044 279.765C253.244 279.285 252.612 278.581 252.148 277.653C251.684 276.725 251.452 275.621 251.452 274.341C251.452 273.173 251.668 272.125 252.1 271.197C252.548 270.253 253.18 269.517 253.996 268.989C254.812 268.445 255.756 268.173 256.828 268.173C257.708 268.173 258.468 268.373 259.108 268.773C259.764 269.157 260.244 269.605 260.548 270.117C260.548 269.797 260.548 269.485 260.548 269.181V263.325H262.612V280.125H260.548V279.453C260.548 279.133 260.548 278.821 260.548 278.517C260.228 279.077 259.724 279.549 259.036 279.933C258.364 280.301 257.612 280.485 256.78 280.485ZM257.14 278.877C257.828 278.877 258.436 278.693 258.964 278.325C259.508 277.941 259.932 277.405 260.236 276.717C260.54 276.029 260.692 275.229 260.692 274.317C260.692 272.957 260.364 271.869 259.708 271.053C259.052 270.221 258.196 269.805 257.14 269.805C256.452 269.805 255.836 269.997 255.292 270.381C254.764 270.749 254.348 271.277 254.044 271.965C253.74 272.653 253.588 273.445 253.588 274.341C253.588 275.237 253.732 276.029 254.02 276.717C254.324 277.405 254.74 277.941 255.268 278.325C255.812 278.693 256.436 278.877 257.14 278.877ZM274.764 268.341C274.764 267.781 274.764 267.229 274.764 266.685C274.348 267.357 273.772 267.925 273.036 268.389C272.316 268.837 271.548 269.077 270.732 269.109V266.997C271.692 266.885 272.596 266.477 273.444 265.773C274.308 265.053 274.876 264.237 275.148 263.325H276.876V280.125H274.764V268.341ZM274.764 278.277H276.876V280.125H274.764V278.277ZM285.781 280.485C284.645 280.485 283.653 280.285 282.805 279.885C281.957 279.469 281.301 278.901 280.837 278.181C280.389 277.445 280.165 276.597 280.165 275.637H282.325C282.325 276.597 282.621 277.365 283.213 277.941C283.821 278.501 284.653 278.781 285.709 278.781C286.509 278.781 287.197 278.613 287.773 278.277C288.349 277.941 288.789 277.461 289.093 276.837C289.397 276.213 289.549 275.485 289.549 274.653C289.549 273.437 289.229 272.461 288.589 271.725C287.965 270.989 287.101 270.621 285.997 270.621C285.165 270.621 284.421 270.853 283.765 271.317C283.109 271.781 282.669 272.293 282.445 272.853H280.429L281.653 263.325H290.797V265.245H283.237L282.685 269.493L282.637 269.877C282.621 270.069 282.605 270.213 282.589 270.309C282.573 270.405 282.557 270.549 282.541 270.741C282.973 270.181 283.541 269.741 284.245 269.421C284.949 269.085 285.701 268.917 286.501 268.917C287.509 268.917 288.413 269.165 289.213 269.661C290.013 270.141 290.629 270.813 291.061 271.677C291.509 272.525 291.733 273.469 291.733 274.509C291.733 275.677 291.485 276.717 290.989 277.629C290.493 278.525 289.797 279.229 288.901 279.741C288.005 280.237 286.965 280.485 285.781 280.485ZM294.524 268.557H296.588V269.469C296.588 269.677 296.588 269.893 296.588 270.117C296.956 269.525 297.428 269.053 298.004 268.701C298.596 268.349 299.252 268.173 299.972 268.173C300.756 268.173 301.444 268.365 302.036 268.749C302.644 269.133 303.116 269.701 303.452 270.453C303.868 269.749 304.396 269.197 305.036 268.797C305.692 268.381 306.42 268.173 307.22 268.173C308.02 268.173 308.724 268.341 309.332 268.677C309.94 269.013 310.412 269.533 310.748 270.237C311.1 270.925 311.276 271.781 311.276 272.805V280.125H309.212V273.213C309.212 272.077 309.02 271.229 308.636 270.669C308.268 270.093 307.652 269.805 306.788 269.805C306.196 269.805 305.684 269.965 305.252 270.285C304.82 270.589 304.492 271.005 304.268 271.533C304.044 272.045 303.932 272.613 303.932 273.237V280.125H301.868V273.285C301.868 272.149 301.676 271.285 301.292 270.693C300.924 270.101 300.324 269.805 299.492 269.805C298.916 269.805 298.404 269.965 297.956 270.285C297.524 270.605 297.188 271.037 296.948 271.581C296.708 272.109 296.588 272.693 296.588 273.333V280.125H294.524V268.557ZM323.664 280.485C322.928 280.485 322.256 280.341 321.648 280.053C321.04 279.765 320.56 279.357 320.208 278.829C319.856 278.285 319.68 277.661 319.68 276.957C319.68 275.917 320.032 275.101 320.736 274.509C321.456 273.917 322.384 273.533 323.52 273.357L325.992 272.973C326.424 272.909 326.728 272.789 326.904 272.613C327.08 272.437 327.168 272.173 327.168 271.821C327.168 271.197 326.952 270.709 326.52 270.357C326.088 269.989 325.528 269.805 324.84 269.805C323.976 269.805 323.312 270.021 322.848 270.453C322.384 270.869 322.136 271.445 322.104 272.181H320.04C320.072 271.461 320.272 270.797 320.64 270.189C321.008 269.581 321.536 269.093 322.224 268.725C322.928 268.357 323.744 268.173 324.672 268.173C325.616 268.173 326.424 268.349 327.096 268.701C327.784 269.053 328.304 269.557 328.656 270.213C329.008 270.869 329.184 271.645 329.184 272.541V280.125H327.216V279.549C327.216 279.213 327.216 278.885 327.216 278.565C326.928 279.173 326.472 279.645 325.848 279.981C325.24 280.317 324.512 280.485 323.664 280.485ZM323.952 278.877C324.56 278.877 325.104 278.749 325.584 278.493C326.08 278.221 326.464 277.853 326.736 277.389C327.024 276.909 327.168 276.365 327.168 275.757V274.053C327.104 274.165 326.96 274.261 326.736 274.341C326.528 274.421 326.248 274.493 325.896 274.557L324.216 274.869C323.48 275.013 322.896 275.253 322.464 275.589C322.032 275.925 321.816 276.381 321.816 276.957C321.816 277.533 322.016 277.997 322.416 278.349C322.832 278.701 323.344 278.877 323.952 278.877ZM337.411 285.477C336.403 285.477 335.515 285.301 334.747 284.949C333.995 284.597 333.411 284.101 332.995 283.461C332.579 282.821 332.371 282.077 332.371 281.229H334.411C334.411 282.013 334.683 282.645 335.227 283.125C335.771 283.621 336.507 283.869 337.435 283.869C338.539 283.869 339.395 283.565 340.003 282.957C340.611 282.365 340.915 281.469 340.915 280.269V278.853C340.915 278.597 340.915 278.341 340.915 278.085C340.611 278.677 340.115 279.149 339.427 279.501C338.739 279.837 337.971 280.005 337.123 280.005C336.067 280.005 335.139 279.765 334.339 279.285C333.555 278.805 332.947 278.125 332.515 277.245C332.083 276.349 331.867 275.309 331.867 274.125C331.867 272.957 332.099 271.925 332.563 271.029C333.027 270.117 333.659 269.413 334.459 268.917C335.275 268.421 336.187 268.173 337.195 268.173C338.075 268.173 338.827 268.365 339.451 268.749C340.075 269.117 340.563 269.573 340.915 270.117C340.915 269.797 340.915 269.485 340.915 269.181V268.557H342.979V279.549C342.979 281.533 342.515 283.013 341.587 283.989C340.659 284.981 339.267 285.477 337.411 285.477ZM337.531 278.397C338.219 278.397 338.827 278.221 339.355 277.869C339.899 277.517 340.315 277.021 340.603 276.381C340.907 275.725 341.059 274.973 341.059 274.125C341.059 273.293 340.907 272.549 340.603 271.893C340.299 271.237 339.875 270.725 339.331 270.357C338.803 269.989 338.203 269.805 337.531 269.805C336.843 269.805 336.227 269.989 335.683 270.357C335.155 270.709 334.739 271.213 334.435 271.869C334.147 272.525 334.003 273.277 334.003 274.125C334.003 274.973 334.147 275.725 334.435 276.381C334.739 277.021 335.155 277.517 335.683 277.869C336.227 278.221 336.843 278.397 337.531 278.397ZM351.476 280.485C350.372 280.485 349.388 280.229 348.524 279.717C347.66 279.205 346.988 278.485 346.508 277.557C346.028 276.613 345.788 275.533 345.788 274.317C345.788 273.133 346.028 272.077 346.508 271.149C346.988 270.205 347.66 269.477 348.524 268.965C349.388 268.437 350.372 268.173 351.476 268.173C352.564 268.173 353.54 268.437 354.404 268.965C355.268 269.477 355.94 270.205 356.42 271.149C356.916 272.077 357.164 273.133 357.164 274.317C357.164 275.533 356.916 276.613 356.42 277.557C355.94 278.485 355.268 279.205 354.404 279.717C353.54 280.229 352.564 280.485 351.476 280.485ZM351.476 278.877C352.196 278.877 352.82 278.685 353.348 278.301C353.892 277.917 354.308 277.381 354.596 276.693C354.884 276.005 355.028 275.213 355.028 274.317C355.028 272.957 354.7 271.869 354.044 271.053C353.404 270.221 352.548 269.805 351.476 269.805C350.772 269.805 350.148 269.997 349.604 270.381C349.06 270.749 348.644 271.277 348.356 271.965C348.068 272.637 347.924 273.421 347.924 274.317C347.924 275.693 348.244 276.797 348.884 277.629C349.524 278.461 350.388 278.877 351.476 278.877Z"></path>
<rect fill="white" rx="14" height="116" width="555.207" y="341.125" x="59.8965"></rect>
<path fill="#0F0E0D" d="M86.2485 368.525H99.4085V371.129H89.3285V376.757H98.9885V379.389H89.3285V385.493H99.8005V388.125H86.2485V368.525ZM110.923 388.573C109.318 388.573 107.946 388.274 106.807 387.677C105.668 387.061 104.791 386.156 104.175 384.961C103.578 383.766 103.279 382.301 103.279 380.565V368.525H106.387V380.117C106.387 381.442 106.555 382.544 106.891 383.421C107.246 384.28 107.759 384.924 108.431 385.353C109.103 385.764 109.934 385.969 110.923 385.969C112.435 385.969 113.574 385.493 114.339 384.541C115.123 383.57 115.515 382.096 115.515 380.117V368.525H118.595V380.565C118.595 383.178 117.923 385.166 116.579 386.529C115.235 387.892 113.35 388.573 110.923 388.573ZM123.108 368.525H131.424C132.749 368.525 133.916 368.74 134.924 369.169C135.932 369.58 136.716 370.205 137.276 371.045C137.836 371.866 138.116 372.874 138.116 374.069C138.116 375.226 137.836 376.216 137.276 377.037C136.716 377.858 135.941 378.484 134.952 378.913C133.963 379.324 132.815 379.529 131.508 379.529H130.64L131.508 378.633L138.62 388.125H134.784L128.596 379.557H126.16V388.125H123.108V368.525ZM131.144 377.037C132.395 377.037 133.337 376.785 133.972 376.281C134.625 375.758 134.952 375.03 134.952 374.097C134.952 373.126 134.635 372.389 134 371.885C133.365 371.381 132.413 371.129 131.144 371.129H126.16V377.037H131.144ZM140.701 376.953H147.953V379.725H140.701V376.953ZM151.928 368.525H155.008V385.493H165.06V388.125H151.928V368.525ZM173.057 388.573C171.694 388.573 170.509 388.293 169.501 387.733C168.493 387.154 167.709 386.324 167.149 385.241C166.589 384.158 166.309 382.842 166.309 381.293C166.309 379.912 166.589 378.68 167.149 377.597C167.727 376.496 168.521 375.637 169.529 375.021C170.537 374.405 171.666 374.097 172.917 374.097C174.261 374.097 175.409 374.396 176.361 374.993C177.331 375.59 178.069 376.44 178.573 377.541C179.077 378.624 179.329 379.893 179.329 381.349V381.965H169.249C169.249 382.842 169.417 383.608 169.753 384.261C170.089 384.914 170.537 385.418 171.097 385.773C171.675 386.128 172.329 386.305 173.057 386.305C173.915 386.305 174.634 386.1 175.213 385.689C175.81 385.278 176.174 384.653 176.305 383.813H179.217C179.123 384.709 178.825 385.521 178.321 386.249C177.817 386.958 177.107 387.528 176.193 387.957C175.297 388.368 174.251 388.573 173.057 388.573ZM176.305 379.893C176.286 378.81 175.978 377.942 175.381 377.289C174.783 376.636 173.962 376.309 172.917 376.309C171.909 376.309 171.069 376.654 170.397 377.345C169.743 378.017 169.37 378.866 169.277 379.893H176.305ZM185.246 381.209L180.514 374.545H183.902L186.17 377.933C186.432 378.306 186.684 378.708 186.926 379.137C187.132 378.782 187.384 378.381 187.682 377.933L190.006 374.545H193.282L188.41 381.153L193.45 388.125H190.062L187.542 384.373L187.43 384.205C187.225 383.869 187.01 383.533 186.786 383.197C186.506 383.645 186.254 384.037 186.03 384.373L183.426 388.125H180.15L185.246 381.209Z"></path>
<circle stroke-width="2" stroke="#0F0E0D" r="10" cy="419.125" cx="98.8965"></circle>
<path stroke-linecap="square" stroke-width="2" stroke="#0F0E0D" d="M98.8965 412.875V419.125L102.646 421.625"></path>
<path fill="black" d="M128.056 409.325H130.24V424.277H139V426.125H128.056V409.325ZM144.296 426.485C143.56 426.485 142.888 426.341 142.28 426.053C141.672 425.765 141.192 425.357 140.84 424.829C140.488 424.285 140.312 423.661 140.312 422.957C140.312 421.917 140.664 421.101 141.368 420.509C142.088 419.917 143.016 419.533 144.152 419.357L146.624 418.973C147.056 418.909 147.36 418.789 147.536 418.613C147.712 418.437 147.8 418.173 147.8 417.821C147.8 417.197 147.584 416.709 147.152 416.357C146.72 415.989 146.16 415.805 145.472 415.805C144.608 415.805 143.944 416.021 143.48 416.453C143.016 416.869 142.768 417.445 142.736 418.181H140.672C140.704 417.461 140.904 416.797 141.272 416.189C141.64 415.581 142.168 415.093 142.856 414.725C143.56 414.357 144.376 414.173 145.304 414.173C146.248 414.173 147.056 414.349 147.728 414.701C148.416 415.053 148.936 415.557 149.288 416.213C149.64 416.869 149.816 417.645 149.816 418.541V426.125H147.848V425.549C147.848 425.213 147.848 424.885 147.848 424.565C147.56 425.173 147.104 425.645 146.48 425.981C145.872 426.317 145.144 426.485 144.296 426.485ZM144.584 424.877C145.192 424.877 145.736 424.749 146.216 424.493C146.712 424.221 147.096 423.853 147.368 423.389C147.656 422.909 147.8 422.365 147.8 421.757V420.053C147.736 420.165 147.592 420.261 147.368 420.341C147.16 420.421 146.88 420.493 146.528 420.557L144.848 420.869C144.112 421.013 143.528 421.253 143.096 421.589C142.664 421.925 142.448 422.381 142.448 422.957C142.448 423.533 142.648 423.997 143.048 424.349C143.464 424.701 143.976 424.877 144.584 424.877ZM157.275 426.485C156.251 426.485 155.371 426.309 154.635 425.957C153.899 425.605 153.331 425.117 152.931 424.493C152.531 423.869 152.323 423.141 152.307 422.309H154.323C154.355 423.109 154.627 423.741 155.139 424.205C155.667 424.653 156.387 424.877 157.299 424.877C158.099 424.877 158.739 424.709 159.219 424.373C159.715 424.021 159.963 423.557 159.963 422.981C159.963 422.517 159.795 422.141 159.459 421.853C159.139 421.549 158.635 421.333 157.947 421.205L156.195 420.869C155.091 420.661 154.227 420.277 153.603 419.717C152.979 419.157 152.667 418.445 152.667 417.581C152.667 416.925 152.859 416.341 153.243 415.829C153.627 415.317 154.155 414.917 154.827 414.629C155.515 414.325 156.291 414.173 157.155 414.173C158.083 414.173 158.883 414.325 159.555 414.629C160.227 414.917 160.747 415.341 161.115 415.901C161.499 416.445 161.715 417.109 161.763 417.893H159.723C159.643 417.205 159.363 416.685 158.883 416.333C158.419 415.981 157.795 415.805 157.011 415.805C156.323 415.805 155.771 415.957 155.355 416.261C154.939 416.565 154.731 416.965 154.731 417.461C154.731 417.909 154.891 418.261 155.211 418.517C155.531 418.773 156.027 418.965 156.699 419.093L158.499 419.429C159.603 419.637 160.459 420.013 161.067 420.557C161.691 421.101 162.003 421.837 162.003 422.765C162.003 423.453 161.811 424.085 161.427 424.661C161.043 425.221 160.491 425.669 159.771 426.005C159.067 426.325 158.235 426.485 157.275 426.485ZM168.784 426.317C167.824 426.317 167.032 426.053 166.408 425.525C165.8 424.981 165.496 424.109 165.496 422.909V416.261H163.336V414.557H165.496V410.741H167.56V414.557H169.96V416.261H167.56V422.693C167.56 423.333 167.704 423.789 167.992 424.061C168.296 424.333 168.72 424.469 169.264 424.469C169.504 424.469 169.792 424.445 170.128 424.397V426.173C169.92 426.221 169.704 426.253 169.48 426.269C169.256 426.301 169.024 426.317 168.784 426.317ZM182.329 426.485C181.433 426.485 180.673 426.309 180.049 425.957C179.425 425.605 178.953 425.093 178.633 424.421C178.313 423.733 178.153 422.901 178.153 421.925V414.557H180.217V421.493C180.217 422.629 180.425 423.477 180.841 424.037C181.257 424.597 181.929 424.877 182.857 424.877C183.481 424.877 184.009 424.725 184.441 424.421C184.889 424.101 185.225 423.653 185.449 423.077C185.689 422.485 185.809 421.773 185.809 420.941V414.557H187.849V426.125H185.833V425.429C185.833 425.189 185.833 424.957 185.833 424.733V424.517C185.561 425.125 185.105 425.605 184.465 425.957C183.825 426.309 183.113 426.485 182.329 426.485ZM191.399 414.557H193.463V415.397C193.463 415.637 193.463 415.885 193.463 416.141C193.815 415.597 194.335 415.133 195.023 414.749C195.711 414.365 196.463 414.173 197.279 414.173C198.367 414.173 199.311 414.437 200.111 414.965C200.927 415.493 201.543 416.221 201.959 417.149C202.391 418.077 202.607 419.133 202.607 420.317C202.607 421.533 202.383 422.605 201.935 423.533C201.487 424.461 200.855 425.189 200.039 425.717C199.223 426.229 198.287 426.485 197.231 426.485C196.415 426.485 195.679 426.309 195.023 425.957C194.367 425.605 193.847 425.125 193.463 424.517C193.463 424.837 193.463 425.157 193.463 425.477V431.117H191.399V414.557ZM196.919 424.877C197.623 424.877 198.239 424.685 198.767 424.301C199.311 423.917 199.727 423.381 200.015 422.693C200.303 422.005 200.447 421.213 200.447 420.317C200.447 419.437 200.303 418.661 200.015 417.989C199.727 417.301 199.311 416.765 198.767 416.381C198.239 415.997 197.623 415.805 196.919 415.805C196.231 415.805 195.615 415.989 195.071 416.357C194.527 416.725 194.103 417.253 193.799 417.941C193.495 418.613 193.343 419.405 193.343 420.317C193.343 421.213 193.495 422.005 193.799 422.693C194.103 423.381 194.519 423.917 195.047 424.301C195.591 424.685 196.215 424.877 196.919 424.877ZM209.999 426.485C208.975 426.485 208.063 426.245 207.263 425.765C206.463 425.285 205.831 424.581 205.367 423.653C204.903 422.725 204.671 421.621 204.671 420.341C204.671 419.173 204.887 418.125 205.319 417.197C205.767 416.253 206.399 415.517 207.215 414.989C208.031 414.445 208.975 414.173 210.047 414.173C210.927 414.173 211.687 414.373 212.327 414.773C212.983 415.157 213.463 415.605 213.767 416.117C213.767 415.797 213.767 415.485 213.767 415.181V409.325H215.831V426.125H213.767V425.453C213.767 425.133 213.767 424.821 213.767 424.517C213.447 425.077 212.943 425.549 212.255 425.933C211.583 426.301 210.831 426.485 209.999 426.485ZM210.359 424.877C211.047 424.877 211.655 424.693 212.183 424.325C212.727 423.941 213.151 423.405 213.455 422.717C213.759 422.029 213.911 421.229 213.911 420.317C213.911 418.957 213.583 417.869 212.927 417.053C212.271 416.221 211.415 415.805 210.359 415.805C209.671 415.805 209.055 415.997 208.511 416.381C207.983 416.749 207.567 417.277 207.263 417.965C206.959 418.653 206.807 419.445 206.807 420.341C206.807 421.237 206.951 422.029 207.239 422.717C207.543 423.405 207.959 423.941 208.487 424.325C209.031 424.693 209.655 424.877 210.359 424.877ZM222.671 426.485C221.935 426.485 221.263 426.341 220.655 426.053C220.047 425.765 219.567 425.357 219.215 424.829C218.863 424.285 218.687 423.661 218.687 422.957C218.687 421.917 219.039 421.101 219.743 420.509C220.463 419.917 221.391 419.533 222.527 419.357L224.999 418.973C225.431 418.909 225.735 418.789 225.911 418.613C226.087 418.437 226.175 418.173 226.175 417.821C226.175 417.197 225.959 416.709 225.527 416.357C225.095 415.989 224.535 415.805 223.847 415.805C222.983 415.805 222.319 416.021 221.855 416.453C221.391 416.869 221.143 417.445 221.111 418.181H219.047C219.079 417.461 219.279 416.797 219.647 416.189C220.015 415.581 220.543 415.093 221.231 414.725C221.935 414.357 222.751 414.173 223.679 414.173C224.623 414.173 225.431 414.349 226.103 414.701C226.791 415.053 227.311 415.557 227.663 416.213C228.015 416.869 228.191 417.645 228.191 418.541V426.125H226.223V425.549C226.223 425.213 226.223 424.885 226.223 424.565C225.935 425.173 225.479 425.645 224.855 425.981C224.247 426.317 223.519 426.485 222.671 426.485ZM222.959 424.877C223.567 424.877 224.111 424.749 224.591 424.493C225.087 424.221 225.471 423.853 225.743 423.389C226.031 422.909 226.175 422.365 226.175 421.757V420.053C226.111 420.165 225.967 420.261 225.743 420.341C225.535 420.421 225.255 420.493 224.903 420.557L223.223 420.869C222.487 421.013 221.903 421.253 221.471 421.589C221.039 421.925 220.823 422.381 220.823 422.957C220.823 423.533 221.023 423.997 221.423 424.349C221.839 424.701 222.351 424.877 222.959 424.877ZM235.581 426.317C234.621 426.317 233.829 426.053 233.205 425.525C232.597 424.981 232.293 424.109 232.293 422.909V416.261H230.133V414.557H232.293V410.741H234.357V414.557H236.757V416.261H234.357V422.693C234.357 423.333 234.501 423.789 234.789 424.061C235.093 424.333 235.517 424.469 236.061 424.469C236.301 424.469 236.589 424.445 236.925 424.397V426.173C236.717 426.221 236.501 426.253 236.277 426.269C236.053 426.301 235.821 426.317 235.581 426.317ZM244.13 426.485C242.978 426.485 241.978 426.245 241.13 425.765C240.298 425.285 239.65 424.581 239.186 423.653C238.738 422.725 238.514 421.605 238.514 420.293C238.514 419.125 238.746 418.077 239.21 417.149C239.69 416.221 240.346 415.493 241.178 414.965C242.026 414.437 242.97 414.173 244.01 414.173C245.146 414.173 246.114 414.429 246.914 414.941C247.714 415.437 248.322 416.149 248.738 417.077C249.154 417.989 249.362 419.069 249.362 420.317V420.725H240.578C240.594 421.589 240.754 422.333 241.058 422.957C241.378 423.581 241.802 424.061 242.33 424.397C242.874 424.717 243.482 424.877 244.154 424.877C244.938 424.877 245.61 424.701 246.17 424.349C246.73 423.981 247.074 423.381 247.202 422.549H249.242C249.162 423.269 248.922 423.925 248.522 424.517C248.122 425.109 247.546 425.589 246.794 425.957C246.058 426.309 245.17 426.485 244.13 426.485ZM247.154 419.261C247.154 418.205 246.874 417.365 246.314 416.741C245.77 416.117 245.002 415.805 244.01 415.805C243.066 415.805 242.29 416.133 241.682 416.789C241.074 417.445 240.73 418.269 240.65 419.261H247.154ZM256.78 426.485C255.756 426.485 254.844 426.245 254.044 425.765C253.244 425.285 252.612 424.581 252.148 423.653C251.684 422.725 251.452 421.621 251.452 420.341C251.452 419.173 251.668 418.125 252.1 417.197C252.548 416.253 253.18 415.517 253.996 414.989C254.812 414.445 255.756 414.173 256.828 414.173C257.708 414.173 258.468 414.373 259.108 414.773C259.764 415.157 260.244 415.605 260.548 416.117C260.548 415.797 260.548 415.485 260.548 415.181V409.325H262.612V426.125H260.548V425.453C260.548 425.133 260.548 424.821 260.548 424.517C260.228 425.077 259.724 425.549 259.036 425.933C258.364 426.301 257.612 426.485 256.78 426.485ZM257.14 424.877C257.828 424.877 258.436 424.693 258.964 424.325C259.508 423.941 259.932 423.405 260.236 422.717C260.54 422.029 260.692 421.229 260.692 420.317C260.692 418.957 260.364 417.869 259.708 417.053C259.052 416.221 258.196 415.805 257.14 415.805C256.452 415.805 255.836 415.997 255.292 416.381C254.764 416.749 254.348 417.277 254.044 417.965C253.74 418.653 253.588 419.445 253.588 420.341C253.588 421.237 253.732 422.029 254.02 422.717C254.324 423.405 254.74 423.941 255.268 424.325C255.812 424.693 256.436 424.877 257.14 424.877ZM278.436 421.829H270.732V419.789L277.716 409.325H280.548V419.909H283.644V421.829H280.548V426.125H278.436V421.829ZM278.436 419.909V411.221C278.196 411.605 277.956 411.989 277.716 412.373L273.276 419.069C273.1 419.341 272.916 419.621 272.724 419.909H278.436ZM286.087 414.557H288.151V415.469C288.151 415.677 288.151 415.893 288.151 416.117C288.519 415.525 288.991 415.053 289.567 414.701C290.159 414.349 290.815 414.173 291.535 414.173C292.319 414.173 293.007 414.365 293.599 414.749C294.207 415.133 294.679 415.701 295.015 416.453C295.431 415.749 295.959 415.197 296.599 414.797C297.255 414.381 297.983 414.173 298.783 414.173C299.583 414.173 300.287 414.341 300.895 414.677C301.503 415.013 301.975 415.533 302.311 416.237C302.663 416.925 302.839 417.781 302.839 418.805V426.125H300.775V419.213C300.775 418.077 300.583 417.229 300.199 416.669C299.831 416.093 299.215 415.805 298.351 415.805C297.759 415.805 297.247 415.965 296.815 416.285C296.383 416.589 296.055 417.005 295.831 417.533C295.607 418.045 295.495 418.613 295.495 419.237V426.125H293.431V419.285C293.431 418.149 293.239 417.285 292.855 416.693C292.487 416.101 291.887 415.805 291.055 415.805C290.479 415.805 289.967 415.965 289.519 416.285C289.087 416.605 288.751 417.037 288.511 417.581C288.271 418.109 288.151 418.693 288.151 419.333V426.125H286.087V414.557ZM315.226 426.485C314.49 426.485 313.818 426.341 313.21 426.053C312.602 425.765 312.122 425.357 311.77 424.829C311.418 424.285 311.242 423.661 311.242 422.957C311.242 421.917 311.594 421.101 312.298 420.509C313.018 419.917 313.946 419.533 315.082 419.357L317.554 418.973C317.986 418.909 318.29 418.789 318.466 418.613C318.642 418.437 318.73 418.173 318.73 417.821C318.73 417.197 318.514 416.709 318.082 416.357C317.65 415.989 317.09 415.805 316.402 415.805C315.538 415.805 314.874 416.021 314.41 416.453C313.946 416.869 313.698 417.445 313.666 418.181H311.602C311.634 417.461 311.834 416.797 312.202 416.189C312.57 415.581 313.098 415.093 313.786 414.725C314.49 414.357 315.306 414.173 316.234 414.173C317.178 414.173 317.986 414.349 318.658 414.701C319.346 415.053 319.866 415.557 320.218 416.213C320.57 416.869 320.746 417.645 320.746 418.541V426.125H318.778V425.549C318.778 425.213 318.778 424.885 318.778 424.565C318.49 425.173 318.034 425.645 317.41 425.981C316.802 426.317 316.074 426.485 315.226 426.485ZM315.514 424.877C316.122 424.877 316.666 424.749 317.146 424.493C317.642 424.221 318.026 423.853 318.298 423.389C318.586 422.909 318.73 422.365 318.73 421.757V420.053C318.666 420.165 318.522 420.261 318.298 420.341C318.09 420.421 317.81 420.493 317.458 420.557L315.778 420.869C315.042 421.013 314.458 421.253 314.026 421.589C313.594 421.925 313.378 422.381 313.378 422.957C313.378 423.533 313.578 423.997 313.978 424.349C314.394 424.701 314.906 424.877 315.514 424.877ZM328.973 431.477C327.965 431.477 327.077 431.301 326.309 430.949C325.557 430.597 324.973 430.101 324.557 429.461C324.141 428.821 323.933 428.077 323.933 427.229H325.973C325.973 428.013 326.245 428.645 326.789 429.125C327.333 429.621 328.069 429.869 328.997 429.869C330.101 429.869 330.957 429.565 331.565 428.957C332.173 428.365 332.477 427.469 332.477 426.269V424.853C332.477 424.597 332.477 424.341 332.477 424.085C332.173 424.677 331.677 425.149 330.989 425.501C330.301 425.837 329.533 426.005 328.685 426.005C327.629 426.005 326.701 425.765 325.901 425.285C325.117 424.805 324.509 424.125 324.077 423.245C323.645 422.349 323.429 421.309 323.429 420.125C323.429 418.957 323.661 417.925 324.125 417.029C324.589 416.117 325.221 415.413 326.021 414.917C326.837 414.421 327.749 414.173 328.757 414.173C329.637 414.173 330.389 414.365 331.013 414.749C331.637 415.117 332.125 415.573 332.477 416.117C332.477 415.797 332.477 415.485 332.477 415.181V414.557H334.541V425.549C334.541 427.533 334.077 429.013 333.149 429.989C332.221 430.981 330.829 431.477 328.973 431.477ZM329.093 424.397C329.781 424.397 330.389 424.221 330.917 423.869C331.461 423.517 331.877 423.021 332.165 422.381C332.469 421.725 332.621 420.973 332.621 420.125C332.621 419.293 332.469 418.549 332.165 417.893C331.861 417.237 331.437 416.725 330.893 416.357C330.365 415.989 329.765 415.805 329.093 415.805C328.405 415.805 327.789 415.989 327.245 416.357C326.717 416.709 326.301 417.213 325.997 417.869C325.709 418.525 325.565 419.277 325.565 420.125C325.565 420.973 325.709 421.725 325.997 422.381C326.301 423.021 326.717 423.517 327.245 423.869C327.789 424.221 328.405 424.397 329.093 424.397ZM343.038 426.485C341.934 426.485 340.95 426.229 340.086 425.717C339.222 425.205 338.55 424.485 338.07 423.557C337.59 422.613 337.35 421.533 337.35 420.317C337.35 419.133 337.59 418.077 338.07 417.149C338.55 416.205 339.222 415.477 340.086 414.965C340.95 414.437 341.934 414.173 343.038 414.173C344.126 414.173 345.102 414.437 345.966 414.965C346.83 415.477 347.502 416.205 347.982 417.149C348.478 418.077 348.726 419.133 348.726 420.317C348.726 421.533 348.478 422.613 347.982 423.557C347.502 424.485 346.83 425.205 345.966 425.717C345.102 426.229 344.126 426.485 343.038 426.485ZM343.038 424.877C343.758 424.877 344.382 424.685 344.91 424.301C345.454 423.917 345.87 423.381 346.158 422.693C346.446 422.005 346.59 421.213 346.59 420.317C346.59 418.957 346.262 417.869 345.606 417.053C344.966 416.221 344.11 415.805 343.038 415.805C342.334 415.805 341.71 415.997 341.166 416.381C340.622 416.749 340.206 417.277 339.918 417.965C339.63 418.637 339.486 419.421 339.486 420.317C339.486 421.693 339.806 422.797 340.446 423.629C341.086 424.461 341.95 424.877 343.038 424.877Z"></path>
<rect fill="white" rx="14" height="116" width="555.207" y="487.125" x="59.8965"></rect>
</g>
<defs>
<clipPath id="clip0_4465_17650">
<rect fill="white" height="506.25" width="675"></rect>
</clipPath>
</defs>
</svg>
