<svg width="676" height="507" viewBox="0 0 676 507" fill="none" xmlns="http://www.w3.org/2000/svg">
<rect width="675" height="506.25" transform="translate(0.960938 0.705078)" fill="#CCCAC6"></rect>
<rect x="90.5469" y="90.7051" width="495" height="326.25" rx="14" fill="white"></rect>
<rect x="123.547" y="123.705" width="24" height="24" rx="4" fill="#0F0E0D"></rect>
<path d="M131.797 135.705L134.297 138.205L139.297 133.205" stroke="#FAFAF9" stroke-width="1.875" stroke-linecap="square"></path>
<path d="M170.027 142.025C168.707 142.025 167.54 141.718 166.527 141.105C165.527 140.492 164.754 139.632 164.207 138.525C163.674 137.418 163.407 136.158 163.407 134.745C163.407 133.252 163.707 131.952 164.307 130.845C164.907 129.725 165.727 128.865 166.767 128.265C167.82 127.665 169 127.365 170.307 127.365C171.387 127.365 172.354 127.558 173.207 127.945C174.06 128.332 174.74 128.872 175.247 129.565C175.767 130.245 176.08 131.025 176.187 131.905H173.867C173.747 131.118 173.367 130.478 172.727 129.985C172.087 129.492 171.287 129.245 170.327 129.245C169.434 129.245 168.634 129.458 167.927 129.885C167.234 130.312 166.687 130.945 166.287 131.785C165.9 132.612 165.707 133.598 165.707 134.745C165.707 135.812 165.894 136.758 166.267 137.585C166.654 138.398 167.187 139.032 167.867 139.485C168.56 139.938 169.354 140.165 170.247 140.165C171.034 140.165 171.72 140.018 172.307 139.725C172.907 139.418 173.374 138.985 173.707 138.425C174.054 137.852 174.227 137.165 174.227 136.365V135.205L175.207 136.185H170.107V134.325H176.247V141.705H174.307V141.165C174.307 140.898 174.307 140.672 174.307 140.485C174.32 140.298 174.34 140.072 174.367 139.805C174.007 140.472 173.44 141.012 172.667 141.425C171.907 141.825 171.027 142.025 170.027 142.025ZM183.011 142.025C182.064 142.025 181.218 141.818 180.471 141.405C179.738 140.978 179.164 140.378 178.751 139.605C178.351 138.818 178.151 137.905 178.151 136.865C178.151 135.852 178.358 134.952 178.771 134.165C179.184 133.378 179.758 132.772 180.491 132.345C181.224 131.905 182.064 131.685 183.011 131.685C183.944 131.685 184.778 131.905 185.511 132.345C186.258 132.772 186.838 133.378 187.251 134.165C187.678 134.952 187.891 135.852 187.891 136.865C187.891 137.905 187.678 138.818 187.251 139.605C186.838 140.378 186.258 140.978 185.511 141.405C184.778 141.818 183.944 142.025 183.011 142.025ZM183.011 140.405C183.571 140.405 184.058 140.265 184.471 139.985C184.884 139.692 185.204 139.278 185.431 138.745C185.658 138.212 185.771 137.585 185.771 136.865C185.771 135.772 185.518 134.912 185.011 134.285C184.504 133.645 183.838 133.325 183.011 133.325C182.464 133.325 181.984 133.472 181.571 133.765C181.158 134.045 180.838 134.452 180.611 134.985C180.384 135.518 180.271 136.145 180.271 136.865C180.271 137.958 180.518 138.825 181.011 139.465C181.504 140.092 182.171 140.405 183.011 140.405ZM188.665 132.005H190.905L193.205 138.725C193.312 139.005 193.425 139.372 193.545 139.825C193.638 139.465 193.745 139.098 193.865 138.725L196.125 132.005H198.285L194.665 141.705H192.345L188.665 132.005ZM203.909 142.025C202.935 142.025 202.089 141.825 201.369 141.425C200.649 141.012 200.089 140.418 199.689 139.645C199.289 138.872 199.089 137.932 199.089 136.825C199.089 135.838 199.289 134.958 199.689 134.185C200.102 133.398 200.669 132.785 201.389 132.345C202.109 131.905 202.915 131.685 203.809 131.685C204.769 131.685 205.589 131.898 206.269 132.325C206.962 132.752 207.489 133.358 207.849 134.145C208.209 134.918 208.389 135.825 208.389 136.865V137.305H201.189C201.189 137.932 201.309 138.478 201.549 138.945C201.789 139.412 202.109 139.772 202.509 140.025C202.922 140.278 203.389 140.405 203.909 140.405C204.522 140.405 205.035 140.258 205.449 139.965C205.875 139.672 206.135 139.225 206.229 138.625H208.309C208.242 139.265 208.029 139.845 207.669 140.365C207.309 140.872 206.802 141.278 206.149 141.585C205.509 141.878 204.762 142.025 203.909 142.025ZM206.229 135.825C206.215 135.052 205.995 134.432 205.569 133.965C205.142 133.498 204.555 133.265 203.809 133.265C203.089 133.265 202.489 133.512 202.009 134.005C201.542 134.485 201.275 135.092 201.209 135.825H206.229ZM210.567 132.005H212.647V132.585C212.647 132.958 212.634 133.325 212.607 133.685C212.874 133.085 213.254 132.605 213.747 132.245C214.254 131.872 214.854 131.685 215.547 131.685C215.734 131.685 215.894 131.698 216.027 131.725V133.745C215.827 133.705 215.62 133.685 215.407 133.685C214.834 133.685 214.34 133.792 213.927 134.005C213.514 134.218 213.194 134.552 212.967 135.005C212.754 135.458 212.647 136.032 212.647 136.725V141.705H210.567V132.005ZM217.657 132.005H219.717V132.565C219.717 132.818 219.704 133.085 219.677 133.365C219.97 132.872 220.37 132.472 220.877 132.165C221.397 131.845 221.997 131.685 222.677 131.685C223.397 131.685 224.017 131.845 224.537 132.165C225.07 132.472 225.477 132.918 225.757 133.505C226.037 134.092 226.177 134.785 226.177 135.585V141.705H224.097V135.865C224.097 135.038 223.93 134.412 223.597 133.985C223.277 133.545 222.784 133.325 222.117 133.325C221.65 133.325 221.23 133.445 220.857 133.685C220.497 133.912 220.217 134.225 220.017 134.625C219.83 135.025 219.737 135.465 219.737 135.945V141.705H217.657V132.005ZM228.79 132.005H230.87V141.705H228.79V132.005ZM228.79 140.025H230.87V141.705H228.79V140.025ZM228.79 132.005H229.83V133.685H228.79V132.005ZM228.69 128.045H230.95V130.345H228.69V128.045ZM233.594 132.005H235.654V132.565C235.654 132.818 235.641 133.085 235.614 133.365C235.908 132.872 236.308 132.472 236.814 132.165C237.334 131.845 237.934 131.685 238.614 131.685C239.334 131.685 239.954 131.845 240.474 132.165C241.008 132.472 241.414 132.918 241.694 133.505C241.974 134.092 242.114 134.785 242.114 135.585V141.705H240.034V135.865C240.034 135.038 239.868 134.412 239.534 133.985C239.214 133.545 238.721 133.325 238.054 133.325C237.588 133.325 237.168 133.445 236.794 133.685C236.434 133.912 236.154 134.225 235.954 134.625C235.768 135.025 235.674 135.465 235.674 135.945V141.705H233.594V132.005ZM248.927 146.165C248.047 146.165 247.274 146.012 246.607 145.705C245.954 145.398 245.454 144.972 245.107 144.425C244.761 143.878 244.587 143.238 244.587 142.505H246.667C246.681 143.132 246.887 143.625 247.287 143.985C247.701 144.345 248.261 144.525 248.967 144.525C249.781 144.525 250.421 144.305 250.887 143.865C251.367 143.425 251.607 142.772 251.607 141.905V140.785C251.607 140.452 251.621 140.145 251.647 139.865C251.367 140.358 250.954 140.752 250.407 141.045C249.874 141.338 249.254 141.485 248.547 141.485C247.681 141.485 246.914 141.292 246.247 140.905C245.594 140.505 245.081 139.938 244.707 139.205C244.347 138.458 244.167 137.592 244.167 136.605C244.167 135.632 244.361 134.772 244.747 134.025C245.147 133.278 245.681 132.705 246.347 132.305C247.014 131.892 247.741 131.685 248.527 131.685C249.301 131.685 249.934 131.838 250.427 132.145C250.934 132.452 251.341 132.858 251.647 133.365C251.621 133.072 251.607 132.778 251.607 132.485V132.005H253.687V141.305C253.687 142.918 253.274 144.132 252.447 144.945C251.621 145.758 250.447 146.165 248.927 146.165ZM249.027 139.845C249.561 139.845 250.027 139.712 250.427 139.445C250.841 139.165 251.161 138.778 251.387 138.285C251.627 137.792 251.747 137.232 251.747 136.605C251.747 135.978 251.627 135.418 251.387 134.925C251.161 134.418 250.841 134.025 250.427 133.745C250.014 133.465 249.547 133.325 249.027 133.325C248.494 133.325 248.021 133.465 247.607 133.745C247.194 134.012 246.867 134.398 246.627 134.905C246.401 135.398 246.287 135.965 246.287 136.605C246.287 137.232 246.401 137.792 246.627 138.285C246.867 138.778 247.194 139.165 247.607 139.445C248.021 139.712 248.494 139.845 249.027 139.845ZM261.2 127.705H263.4V139.825H270.58V141.705H261.2V127.705ZM274.91 142.025C274.323 142.025 273.77 141.905 273.25 141.665C272.743 141.425 272.337 141.078 272.03 140.625C271.723 140.172 271.57 139.645 271.57 139.045C271.57 138.098 271.883 137.385 272.51 136.905C273.15 136.412 274.003 136.085 275.07 135.925L276.81 135.685C277.183 135.632 277.443 135.532 277.59 135.385C277.75 135.238 277.83 135.032 277.83 134.765C277.83 134.312 277.663 133.952 277.33 133.685C277.01 133.405 276.583 133.265 276.05 133.265C275.41 133.265 274.903 133.432 274.53 133.765C274.17 134.085 273.97 134.525 273.93 135.085H271.83C271.87 134.458 272.057 133.885 272.39 133.365C272.737 132.845 273.21 132.438 273.81 132.145C274.41 131.838 275.11 131.685 275.91 131.685C276.79 131.685 277.523 131.845 278.11 132.165C278.71 132.472 279.157 132.925 279.45 133.525C279.743 134.112 279.89 134.825 279.89 135.665V141.705H277.93V141.265C277.93 140.985 277.95 140.692 277.99 140.385C277.723 140.905 277.33 141.312 276.81 141.605C276.29 141.885 275.657 142.025 274.91 142.025ZM275.35 140.465C275.817 140.465 276.243 140.365 276.63 140.165C277.017 139.952 277.317 139.658 277.53 139.285C277.757 138.912 277.87 138.485 277.87 138.005V136.745C277.79 136.838 277.663 136.918 277.49 136.985C277.317 137.052 277.077 137.112 276.77 137.165L275.65 137.385C275.037 137.505 274.557 137.692 274.21 137.945C273.863 138.198 273.69 138.552 273.69 139.005C273.69 139.445 273.85 139.798 274.17 140.065C274.49 140.332 274.883 140.465 275.35 140.465ZM281.341 132.005H283.521L285.461 138.885C285.554 139.272 285.621 139.585 285.661 139.825C285.794 139.358 285.881 139.045 285.921 138.885L287.781 132.005H290.461L292.401 138.885C292.414 138.952 292.428 139.018 292.441 139.085C292.521 139.418 292.574 139.658 292.601 139.805C292.654 139.618 292.701 139.432 292.741 139.245C292.781 139.112 292.814 138.985 292.841 138.865L294.761 132.005H296.801L293.821 141.705H291.321L289.361 134.725C289.268 134.298 289.194 133.978 289.141 133.765C289.114 133.885 289.081 134.032 289.041 134.205C289.014 134.312 288.988 134.405 288.961 134.485C288.948 134.552 288.928 134.632 288.901 134.725L286.941 141.705H284.401L281.341 132.005Z" fill="#0F0E0D"></path>
<rect x="123.547" y="202.455" width="24" height="24" rx="4" fill="#0F0E0D"></rect>
<path d="M131.797 214.455L134.297 216.955L139.297 211.955" stroke="#FAFAF9" stroke-width="1.875" stroke-linecap="square"></path>
<path d="M164.227 206.455H173.627V208.315H166.427V212.335H173.327V214.215H166.427V218.575H173.907V220.455H164.227V206.455ZM180.534 210.755H181.174V212.435H180.534V210.755ZM181.174 210.755H181.834V212.435H181.174V210.755ZM176.954 212.435H175.094V210.755H176.954V209.295C176.954 208.282 177.227 207.502 177.774 206.955C178.334 206.395 179.047 206.115 179.914 206.115C180.141 206.115 180.354 206.135 180.554 206.175C180.754 206.202 180.921 206.242 181.054 206.295V207.975C180.787 207.922 180.567 207.895 180.394 207.895C179.981 207.895 179.647 208.015 179.394 208.255C179.154 208.482 179.034 208.815 179.034 209.255V210.755H181.054V212.435H179.034V220.455H176.954V212.435ZM183.194 212.435H181.314V210.755H183.194V209.295C183.194 208.282 183.467 207.502 184.014 206.955C184.561 206.395 185.267 206.115 186.134 206.115C186.374 206.115 186.594 206.135 186.794 206.175C186.994 206.202 187.154 206.242 187.274 206.295V207.975C187.007 207.922 186.794 207.895 186.634 207.895C186.207 207.895 185.874 208.015 185.634 208.255C185.394 208.482 185.274 208.815 185.274 209.255V210.755H187.294V212.435H185.274V220.455H183.194V212.435ZM193.03 220.775C192.056 220.775 191.21 220.575 190.49 220.175C189.77 219.762 189.21 219.168 188.81 218.395C188.41 217.622 188.21 216.682 188.21 215.575C188.21 214.588 188.41 213.708 188.81 212.935C189.223 212.148 189.79 211.535 190.51 211.095C191.23 210.655 192.036 210.435 192.93 210.435C193.89 210.435 194.71 210.648 195.39 211.075C196.083 211.502 196.61 212.108 196.97 212.895C197.33 213.668 197.51 214.575 197.51 215.615V216.055H190.31C190.31 216.682 190.43 217.228 190.67 217.695C190.91 218.162 191.23 218.522 191.63 218.775C192.043 219.028 192.51 219.155 193.03 219.155C193.643 219.155 194.156 219.008 194.57 218.715C194.996 218.422 195.256 217.975 195.35 217.375H197.43C197.363 218.015 197.15 218.595 196.79 219.115C196.43 219.622 195.923 220.028 195.27 220.335C194.63 220.628 193.883 220.775 193.03 220.775ZM195.35 214.575C195.336 213.802 195.116 213.182 194.69 212.715C194.263 212.248 193.676 212.015 192.93 212.015C192.21 212.015 191.61 212.262 191.13 212.755C190.663 213.235 190.396 213.842 190.33 214.575H195.35ZM203.968 220.775C203.008 220.775 202.161 220.575 201.428 220.175C200.695 219.775 200.121 219.188 199.708 218.415C199.308 217.628 199.108 216.688 199.108 215.595C199.108 214.568 199.321 213.668 199.748 212.895C200.188 212.108 200.781 211.502 201.528 211.075C202.288 210.648 203.128 210.435 204.048 210.435C204.888 210.435 205.628 210.595 206.268 210.915C206.908 211.222 207.415 211.662 207.788 212.235C208.161 212.808 208.388 213.468 208.468 214.215H206.348C206.281 213.588 206.048 213.075 205.648 212.675C205.248 212.275 204.708 212.075 204.028 212.075C203.495 212.075 203.015 212.222 202.588 212.515C202.161 212.808 201.828 213.222 201.588 213.755C201.348 214.288 201.228 214.908 201.228 215.615C201.228 216.308 201.341 216.928 201.568 217.475C201.808 218.008 202.135 218.422 202.548 218.715C202.975 219.008 203.468 219.155 204.028 219.155C204.735 219.155 205.295 218.962 205.708 218.575C206.135 218.175 206.388 217.642 206.468 216.975H208.548C208.455 217.748 208.221 218.422 207.848 218.995C207.475 219.568 206.955 220.008 206.288 220.315C205.635 220.622 204.861 220.775 203.968 220.775ZM214.329 220.615C213.409 220.615 212.683 220.375 212.149 219.895C211.629 219.402 211.369 218.635 211.369 217.595V212.435H209.369V210.755H211.369V207.415H213.449V210.755H215.649V212.435H213.449V217.335C213.449 217.868 213.569 218.262 213.809 218.515C214.049 218.755 214.409 218.875 214.889 218.875C215.116 218.875 215.356 218.855 215.609 218.815V220.475C215.463 220.515 215.269 220.548 215.029 220.575C214.803 220.602 214.569 220.615 214.329 220.615ZM217.579 210.755H219.659V220.455H217.579V210.755ZM217.579 218.775H219.659V220.455H217.579V218.775ZM217.579 210.755H218.619V212.435H217.579V210.755ZM217.479 206.795H219.739V209.095H217.479V206.795ZM221.223 210.755H223.463L225.763 217.475C225.87 217.755 225.983 218.122 226.103 218.575C226.197 218.215 226.303 217.848 226.423 217.475L228.683 210.755H230.843L227.223 220.455H224.903L221.223 210.755ZM236.467 220.775C235.494 220.775 234.647 220.575 233.927 220.175C233.207 219.762 232.647 219.168 232.247 218.395C231.847 217.622 231.647 216.682 231.647 215.575C231.647 214.588 231.847 213.708 232.247 212.935C232.661 212.148 233.227 211.535 233.947 211.095C234.667 210.655 235.474 210.435 236.367 210.435C237.327 210.435 238.147 210.648 238.827 211.075C239.521 211.502 240.047 212.108 240.407 212.895C240.767 213.668 240.947 214.575 240.947 215.615V216.055H233.747C233.747 216.682 233.867 217.228 234.107 217.695C234.347 218.162 234.667 218.522 235.067 218.775C235.481 219.028 235.947 219.155 236.467 219.155C237.081 219.155 237.594 219.008 238.007 218.715C238.434 218.422 238.694 217.975 238.787 217.375H240.867C240.801 218.015 240.587 218.595 240.227 219.115C239.867 219.622 239.361 220.028 238.707 220.335C238.067 220.628 237.321 220.775 236.467 220.775ZM238.787 214.575C238.774 213.802 238.554 213.182 238.127 212.715C237.701 212.248 237.114 212.015 236.367 212.015C235.647 212.015 235.047 212.262 234.567 212.755C234.101 213.235 233.834 213.842 233.767 214.575H238.787ZM247.918 206.455H252.478C254.052 206.455 255.392 206.708 256.498 207.215C257.605 207.722 258.458 208.502 259.058 209.555C259.658 210.595 259.958 211.895 259.958 213.455C259.958 214.868 259.678 216.102 259.118 217.155C258.572 218.208 257.758 219.022 256.678 219.595C255.598 220.168 254.285 220.455 252.738 220.455H247.918V206.455ZM252.538 218.575C253.618 218.575 254.538 218.395 255.298 218.035C256.058 217.675 256.645 217.115 257.058 216.355C257.472 215.595 257.678 214.628 257.678 213.455C257.678 211.788 257.245 210.515 256.378 209.635C255.512 208.755 254.212 208.315 252.478 208.315H250.118V218.575H252.538ZM264.969 220.775C264.382 220.775 263.829 220.655 263.309 220.415C262.802 220.175 262.395 219.828 262.089 219.375C261.782 218.922 261.629 218.395 261.629 217.795C261.629 216.848 261.942 216.135 262.569 215.655C263.209 215.162 264.062 214.835 265.129 214.675L266.869 214.435C267.242 214.382 267.502 214.282 267.649 214.135C267.809 213.988 267.889 213.782 267.889 213.515C267.889 213.062 267.722 212.702 267.389 212.435C267.069 212.155 266.642 212.015 266.109 212.015C265.469 212.015 264.962 212.182 264.589 212.515C264.229 212.835 264.029 213.275 263.989 213.835H261.889C261.929 213.208 262.115 212.635 262.449 212.115C262.795 211.595 263.269 211.188 263.869 210.895C264.469 210.588 265.169 210.435 265.969 210.435C266.849 210.435 267.582 210.595 268.169 210.915C268.769 211.222 269.215 211.675 269.509 212.275C269.802 212.862 269.949 213.575 269.949 214.415V220.455H267.989V220.015C267.989 219.735 268.009 219.442 268.049 219.135C267.782 219.655 267.389 220.062 266.869 220.355C266.349 220.635 265.715 220.775 264.969 220.775ZM265.409 219.215C265.875 219.215 266.302 219.115 266.689 218.915C267.075 218.702 267.375 218.408 267.589 218.035C267.815 217.662 267.929 217.235 267.929 216.755V215.495C267.849 215.588 267.722 215.668 267.549 215.735C267.375 215.802 267.135 215.862 266.829 215.915L265.709 216.135C265.095 216.255 264.615 216.442 264.269 216.695C263.922 216.948 263.749 217.302 263.749 217.755C263.749 218.195 263.909 218.548 264.229 218.815C264.549 219.082 264.942 219.215 265.409 219.215ZM276.283 220.615C275.363 220.615 274.636 220.375 274.103 219.895C273.583 219.402 273.323 218.635 273.323 217.595V212.435H271.323V210.755H273.323V207.415H275.403V210.755H277.603V212.435H275.403V217.335C275.403 217.868 275.523 218.262 275.763 218.515C276.003 218.755 276.363 218.875 276.843 218.875C277.069 218.875 277.309 218.855 277.563 218.815V220.475C277.416 220.515 277.223 220.548 276.983 220.575C276.756 220.602 276.523 220.615 276.283 220.615ZM283.655 220.775C282.681 220.775 281.835 220.575 281.115 220.175C280.395 219.762 279.835 219.168 279.435 218.395C279.035 217.622 278.835 216.682 278.835 215.575C278.835 214.588 279.035 213.708 279.435 212.935C279.848 212.148 280.415 211.535 281.135 211.095C281.855 210.655 282.661 210.435 283.555 210.435C284.515 210.435 285.335 210.648 286.015 211.075C286.708 211.502 287.235 212.108 287.595 212.895C287.955 213.668 288.135 214.575 288.135 215.615V216.055H280.935C280.935 216.682 281.055 217.228 281.295 217.695C281.535 218.162 281.855 218.522 282.255 218.775C282.668 219.028 283.135 219.155 283.655 219.155C284.268 219.155 284.781 219.008 285.195 218.715C285.621 218.422 285.881 217.975 285.975 217.375H288.055C287.988 218.015 287.775 218.595 287.415 219.115C287.055 219.622 286.548 220.028 285.895 220.335C285.255 220.628 284.508 220.775 283.655 220.775ZM285.975 214.575C285.961 213.802 285.741 213.182 285.315 212.715C284.888 212.248 284.301 212.015 283.555 212.015C282.835 212.015 282.235 212.262 281.755 212.755C281.288 213.235 281.021 213.842 280.955 214.575H285.975Z" fill="#0F0E0D"></path>
<rect x="123.547" y="281.205" width="24" height="24" rx="4" fill="#0F0E0D"></rect>
<path d="M131.797 293.205L134.297 295.705L139.297 290.705" stroke="#FAFAF9" stroke-width="1.875" stroke-linecap="square"></path>
<path d="M164.227 285.205H170.167C171.114 285.205 171.947 285.358 172.667 285.665C173.387 285.958 173.947 286.405 174.347 287.005C174.747 287.592 174.947 288.312 174.947 289.165C174.947 289.992 174.747 290.698 174.347 291.285C173.947 291.872 173.394 292.318 172.687 292.625C171.98 292.918 171.16 293.065 170.227 293.065H169.607L170.227 292.425L175.307 299.205H172.567L168.147 293.085H166.407V299.205H164.227V285.205ZM169.967 291.285C170.86 291.285 171.534 291.105 171.987 290.745C172.454 290.372 172.687 289.852 172.687 289.185C172.687 288.492 172.46 287.965 172.007 287.605C171.554 287.245 170.874 287.065 169.967 287.065H166.407V291.285H169.967ZM181.018 299.525C180.045 299.525 179.198 299.325 178.478 298.925C177.758 298.512 177.198 297.918 176.798 297.145C176.398 296.372 176.198 295.432 176.198 294.325C176.198 293.338 176.398 292.458 176.798 291.685C177.211 290.898 177.778 290.285 178.498 289.845C179.218 289.405 180.025 289.185 180.918 289.185C181.878 289.185 182.698 289.398 183.378 289.825C184.071 290.252 184.598 290.858 184.958 291.645C185.318 292.418 185.498 293.325 185.498 294.365V294.805H178.298C178.298 295.432 178.418 295.978 178.658 296.445C178.898 296.912 179.218 297.272 179.618 297.525C180.031 297.778 180.498 297.905 181.018 297.905C181.631 297.905 182.145 297.758 182.558 297.465C182.985 297.172 183.245 296.725 183.338 296.125H185.418C185.351 296.765 185.138 297.345 184.778 297.865C184.418 298.372 183.911 298.778 183.258 299.085C182.618 299.378 181.871 299.525 181.018 299.525ZM183.338 293.325C183.325 292.552 183.105 291.932 182.678 291.465C182.251 290.998 181.665 290.765 180.918 290.765C180.198 290.765 179.598 291.012 179.118 291.505C178.651 291.985 178.385 292.592 178.318 293.325H183.338ZM187.676 289.505H189.756V290.085C189.756 290.325 189.743 290.585 189.716 290.865C190.023 290.372 190.45 289.972 190.996 289.665C191.556 289.345 192.19 289.185 192.896 289.185C193.776 289.185 194.543 289.412 195.196 289.865C195.863 290.305 196.37 290.918 196.716 291.705C197.076 292.478 197.256 293.365 197.256 294.365C197.256 295.392 197.07 296.298 196.696 297.085C196.323 297.858 195.796 298.458 195.116 298.885C194.45 299.312 193.69 299.525 192.836 299.525C192.103 299.525 191.483 299.378 190.976 299.085C190.47 298.792 190.05 298.385 189.716 297.865C189.743 298.172 189.756 298.458 189.756 298.725V303.325H187.676V289.505ZM192.396 297.905C192.943 297.905 193.423 297.758 193.836 297.465C194.25 297.158 194.57 296.738 194.796 296.205C195.023 295.672 195.136 295.052 195.136 294.345C195.136 293.665 195.023 293.058 194.796 292.525C194.57 291.992 194.25 291.578 193.836 291.285C193.436 290.978 192.956 290.825 192.396 290.825C191.876 290.825 191.403 290.972 190.976 291.265C190.563 291.558 190.236 291.972 189.996 292.505C189.77 293.025 189.656 293.638 189.656 294.345C189.656 295.052 189.77 295.672 189.996 296.205C190.236 296.738 190.563 297.158 190.976 297.465C191.39 297.758 191.863 297.905 192.396 297.905ZM203.035 299.525C202.155 299.525 201.388 299.378 200.735 299.085C200.095 298.792 199.595 298.378 199.235 297.845C198.888 297.298 198.695 296.665 198.655 295.945H200.735C200.762 296.572 200.968 297.065 201.355 297.425C201.755 297.785 202.308 297.965 203.015 297.965C203.615 297.965 204.102 297.838 204.475 297.585C204.848 297.318 205.035 296.972 205.035 296.545C205.035 296.185 204.902 295.898 204.635 295.685C204.368 295.472 203.955 295.312 203.395 295.205L202.055 294.945C201.082 294.758 200.328 294.425 199.795 293.945C199.262 293.465 198.995 292.845 198.995 292.085C198.995 291.538 199.155 291.045 199.475 290.605C199.808 290.165 200.268 289.818 200.855 289.565C201.442 289.312 202.108 289.185 202.855 289.185C203.682 289.185 204.395 289.318 204.995 289.585C205.595 289.852 206.062 290.225 206.395 290.705C206.728 291.185 206.908 291.758 206.935 292.425H204.875C204.822 291.905 204.608 291.498 204.235 291.205C203.875 290.912 203.395 290.765 202.795 290.765C202.275 290.765 201.855 290.878 201.535 291.105C201.215 291.318 201.055 291.612 201.055 291.985C201.055 292.332 201.175 292.598 201.415 292.785C201.668 292.972 202.088 293.125 202.675 293.245L204.015 293.505C204.988 293.692 205.742 294.018 206.275 294.485C206.808 294.952 207.075 295.585 207.075 296.385C207.075 296.972 206.908 297.505 206.575 297.985C206.242 298.465 205.768 298.845 205.155 299.125C204.555 299.392 203.848 299.525 203.035 299.525ZM217.612 299.525C216.812 299.525 216.065 299.372 215.372 299.065C214.679 298.758 214.125 298.312 213.712 297.725C213.312 297.138 213.112 296.452 213.112 295.665C213.112 294.758 213.372 293.978 213.892 293.325C214.412 292.658 215.132 292.058 216.052 291.525L217.032 290.965L218.212 292.245L217.252 292.865C216.612 293.292 216.125 293.705 215.792 294.105C215.459 294.505 215.292 294.992 215.292 295.565C215.292 296.232 215.525 296.765 215.992 297.165C216.472 297.565 217.079 297.765 217.812 297.765C218.372 297.765 218.885 297.665 219.352 297.465C219.819 297.252 220.239 296.938 220.612 296.525L216.172 291.325C215.572 290.618 215.152 290.038 214.912 289.585C214.672 289.118 214.552 288.605 214.552 288.045C214.552 287.432 214.719 286.885 215.052 286.405C215.385 285.925 215.832 285.552 216.392 285.285C216.965 285.005 217.605 284.865 218.312 284.865C218.979 284.865 219.585 284.985 220.132 285.225C220.692 285.465 221.132 285.825 221.452 286.305C221.772 286.772 221.932 287.332 221.932 287.985C221.932 288.758 221.692 289.458 221.212 290.085C220.745 290.698 220.099 291.258 219.272 291.765L218.372 292.325L217.252 290.945L218.112 290.445C218.672 290.125 219.105 289.772 219.412 289.385C219.719 288.985 219.872 288.552 219.872 288.085C219.872 287.618 219.725 287.265 219.432 287.025C219.139 286.772 218.772 286.645 218.332 286.645C217.865 286.645 217.479 286.785 217.172 287.065C216.879 287.345 216.732 287.718 216.732 288.185C216.732 288.532 216.825 288.878 217.012 289.225C217.212 289.558 217.505 289.958 217.892 290.425L221.292 294.345C221.479 294.558 221.625 294.732 221.732 294.865C221.772 294.758 221.805 294.658 221.832 294.565C221.899 294.378 221.939 294.238 221.952 294.145C222.032 293.865 222.092 293.552 222.132 293.205C222.185 292.858 222.219 292.478 222.232 292.065H224.432C224.405 292.958 224.279 293.758 224.052 294.465C223.825 295.158 223.505 295.805 223.092 296.405L225.512 299.205H222.892L221.792 297.885C221.205 298.432 220.565 298.845 219.872 299.125C219.179 299.392 218.425 299.525 217.612 299.525ZM229.506 285.205H231.886L234.326 294.885C234.486 295.525 234.646 296.212 234.806 296.945C234.872 296.678 234.932 296.418 234.986 296.165C235.039 295.938 235.092 295.718 235.146 295.505C235.199 295.292 235.252 295.085 235.306 294.885L237.826 285.205H240.866L243.286 294.885C243.486 295.672 243.652 296.358 243.786 296.945C243.932 296.225 244.086 295.538 244.246 294.885L246.746 285.205H249.026L245.286 299.205H242.346L239.806 288.985C239.779 288.878 239.752 288.772 239.726 288.665C239.659 288.425 239.592 288.178 239.526 287.925C239.472 287.658 239.412 287.378 239.346 287.085C239.252 287.498 239.152 287.925 239.046 288.365C239.019 288.472 238.966 288.678 238.886 288.985L236.166 299.205H233.246L229.506 285.205ZM252.781 299.525C252.194 299.525 251.641 299.405 251.121 299.165C250.614 298.925 250.208 298.578 249.901 298.125C249.594 297.672 249.441 297.145 249.441 296.545C249.441 295.598 249.754 294.885 250.381 294.405C251.021 293.912 251.874 293.585 252.941 293.425L254.681 293.185C255.054 293.132 255.314 293.032 255.461 292.885C255.621 292.738 255.701 292.532 255.701 292.265C255.701 291.812 255.534 291.452 255.201 291.185C254.881 290.905 254.454 290.765 253.921 290.765C253.281 290.765 252.774 290.932 252.401 291.265C252.041 291.585 251.841 292.025 251.801 292.585H249.701C249.741 291.958 249.928 291.385 250.261 290.865C250.608 290.345 251.081 289.938 251.681 289.645C252.281 289.338 252.981 289.185 253.781 289.185C254.661 289.185 255.394 289.345 255.981 289.665C256.581 289.972 257.028 290.425 257.321 291.025C257.614 291.612 257.761 292.325 257.761 293.165V299.205H255.801V298.765C255.801 298.485 255.821 298.192 255.861 297.885C255.594 298.405 255.201 298.812 254.681 299.105C254.161 299.385 253.528 299.525 252.781 299.525ZM253.221 297.965C253.688 297.965 254.114 297.865 254.501 297.665C254.888 297.452 255.188 297.158 255.401 296.785C255.628 296.412 255.741 295.985 255.741 295.505V294.245C255.661 294.338 255.534 294.418 255.361 294.485C255.188 294.552 254.948 294.612 254.641 294.665L253.521 294.885C252.908 295.005 252.428 295.192 252.081 295.445C251.734 295.698 251.561 296.052 251.561 296.505C251.561 296.945 251.721 297.298 252.041 297.565C252.361 297.832 252.754 297.965 253.221 297.965ZM260.352 289.505H262.432V290.085C262.432 290.458 262.419 290.825 262.392 291.185C262.659 290.585 263.039 290.105 263.532 289.745C264.039 289.372 264.639 289.185 265.332 289.185C265.519 289.185 265.679 289.198 265.812 289.225V291.245C265.612 291.205 265.406 291.185 265.192 291.185C264.619 291.185 264.126 291.292 263.712 291.505C263.299 291.718 262.979 292.052 262.752 292.505C262.539 292.958 262.432 293.532 262.432 294.225V299.205H260.352V289.505ZM267.442 289.505H269.522V290.085C269.522 290.458 269.509 290.825 269.482 291.185C269.749 290.585 270.129 290.105 270.622 289.745C271.129 289.372 271.729 289.185 272.422 289.185C272.609 289.185 272.769 289.198 272.902 289.225V291.245C272.702 291.205 272.495 291.185 272.282 291.185C271.709 291.185 271.215 291.292 270.802 291.505C270.389 291.718 270.069 292.052 269.842 292.505C269.629 292.958 269.522 293.532 269.522 294.225V299.205H267.442V289.505ZM277.156 299.525C276.569 299.525 276.016 299.405 275.496 299.165C274.989 298.925 274.583 298.578 274.276 298.125C273.969 297.672 273.816 297.145 273.816 296.545C273.816 295.598 274.129 294.885 274.756 294.405C275.396 293.912 276.249 293.585 277.316 293.425L279.056 293.185C279.429 293.132 279.689 293.032 279.836 292.885C279.996 292.738 280.076 292.532 280.076 292.265C280.076 291.812 279.909 291.452 279.576 291.185C279.256 290.905 278.829 290.765 278.296 290.765C277.656 290.765 277.149 290.932 276.776 291.265C276.416 291.585 276.216 292.025 276.176 292.585H274.076C274.116 291.958 274.303 291.385 274.636 290.865C274.983 290.345 275.456 289.938 276.056 289.645C276.656 289.338 277.356 289.185 278.156 289.185C279.036 289.185 279.769 289.345 280.356 289.665C280.956 289.972 281.403 290.425 281.696 291.025C281.989 291.612 282.136 292.325 282.136 293.165V299.205H280.176V298.765C280.176 298.485 280.196 298.192 280.236 297.885C279.969 298.405 279.576 298.812 279.056 299.105C278.536 299.385 277.903 299.525 277.156 299.525ZM277.596 297.965C278.063 297.965 278.489 297.865 278.876 297.665C279.263 297.452 279.563 297.158 279.776 296.785C280.003 296.412 280.116 295.985 280.116 295.505V294.245C280.036 294.338 279.909 294.418 279.736 294.485C279.563 294.552 279.323 294.612 279.016 294.665L277.896 294.885C277.283 295.005 276.803 295.192 276.456 295.445C276.109 295.698 275.936 296.052 275.936 296.505C275.936 296.945 276.096 297.298 276.416 297.565C276.736 297.832 277.129 297.965 277.596 297.965ZM284.727 289.505H286.787V290.065C286.787 290.318 286.774 290.585 286.747 290.865C287.041 290.372 287.441 289.972 287.947 289.665C288.467 289.345 289.067 289.185 289.747 289.185C290.467 289.185 291.087 289.345 291.607 289.665C292.141 289.972 292.547 290.418 292.827 291.005C293.107 291.592 293.247 292.285 293.247 293.085V299.205H291.167V293.365C291.167 292.538 291.001 291.912 290.667 291.485C290.347 291.045 289.854 290.825 289.187 290.825C288.721 290.825 288.301 290.945 287.927 291.185C287.567 291.412 287.287 291.725 287.087 292.125C286.901 292.525 286.807 292.965 286.807 293.445V299.205H284.727V289.505ZM299.622 299.365C298.702 299.365 297.976 299.125 297.442 298.645C296.922 298.152 296.662 297.385 296.662 296.345V291.185H294.662V289.505H296.662V286.165H298.742V289.505H300.942V291.185H298.742V296.085C298.742 296.618 298.862 297.012 299.102 297.265C299.342 297.505 299.702 297.625 300.182 297.625C300.409 297.625 300.649 297.605 300.902 297.565V299.225C300.756 299.265 300.562 299.298 300.322 299.325C300.096 299.352 299.862 299.365 299.622 299.365ZM302.872 289.505H304.952V299.205H302.872V289.505ZM302.872 297.525H304.952V299.205H302.872V297.525ZM302.872 289.505H303.912V291.185H302.872V289.505ZM302.772 285.545H305.032V287.845H302.772V285.545ZM311.916 299.525C310.943 299.525 310.096 299.325 309.376 298.925C308.656 298.512 308.096 297.918 307.696 297.145C307.296 296.372 307.096 295.432 307.096 294.325C307.096 293.338 307.296 292.458 307.696 291.685C308.11 290.898 308.676 290.285 309.396 289.845C310.116 289.405 310.923 289.185 311.816 289.185C312.776 289.185 313.596 289.398 314.276 289.825C314.97 290.252 315.496 290.858 315.856 291.645C316.216 292.418 316.396 293.325 316.396 294.365V294.805H309.196C309.196 295.432 309.316 295.978 309.556 296.445C309.796 296.912 310.116 297.272 310.516 297.525C310.93 297.778 311.396 297.905 311.916 297.905C312.53 297.905 313.043 297.758 313.456 297.465C313.883 297.172 314.143 296.725 314.236 296.125H316.316C316.25 296.765 316.036 297.345 315.676 297.865C315.316 298.372 314.81 298.778 314.156 299.085C313.516 299.378 312.77 299.525 311.916 299.525ZM314.236 293.325C314.223 292.552 314.003 291.932 313.576 291.465C313.15 290.998 312.563 290.765 311.816 290.765C311.096 290.765 310.496 291.012 310.016 291.505C309.55 291.985 309.283 292.592 309.216 293.325H314.236ZM322.215 299.525C321.335 299.525 320.568 299.378 319.915 299.085C319.275 298.792 318.775 298.378 318.415 297.845C318.068 297.298 317.875 296.665 317.835 295.945H319.915C319.942 296.572 320.148 297.065 320.535 297.425C320.935 297.785 321.488 297.965 322.195 297.965C322.795 297.965 323.282 297.838 323.655 297.585C324.028 297.318 324.215 296.972 324.215 296.545C324.215 296.185 324.082 295.898 323.815 295.685C323.548 295.472 323.135 295.312 322.575 295.205L321.235 294.945C320.262 294.758 319.508 294.425 318.975 293.945C318.442 293.465 318.175 292.845 318.175 292.085C318.175 291.538 318.335 291.045 318.655 290.605C318.988 290.165 319.448 289.818 320.035 289.565C320.622 289.312 321.288 289.185 322.035 289.185C322.862 289.185 323.575 289.318 324.175 289.585C324.775 289.852 325.242 290.225 325.575 290.705C325.908 291.185 326.088 291.758 326.115 292.425H324.055C324.002 291.905 323.788 291.498 323.415 291.205C323.055 290.912 322.575 290.765 321.975 290.765C321.455 290.765 321.035 290.878 320.715 291.105C320.395 291.318 320.235 291.612 320.235 291.985C320.235 292.332 320.355 292.598 320.595 292.785C320.848 292.972 321.268 293.125 321.855 293.245L323.195 293.505C324.168 293.692 324.922 294.018 325.455 294.485C325.988 294.952 326.255 295.585 326.255 296.385C326.255 296.972 326.088 297.505 325.755 297.985C325.422 298.465 324.948 298.845 324.335 299.125C323.735 299.392 323.028 299.525 322.215 299.525Z" fill="#0F0E0D"></path>
<rect x="123.547" y="359.955" width="24" height="24" rx="4" fill="#0F0E0D"></rect>
<path d="M131.797 371.955L134.297 374.455L139.297 369.455" stroke="#FAFAF9" stroke-width="1.875" stroke-linecap="square"></path>
<path d="M167.467 365.815H162.707V363.955H174.427V365.815H169.687V377.955H167.467V365.815ZM177.932 378.275C176.959 378.275 176.112 378.075 175.392 377.675C174.672 377.262 174.112 376.668 173.712 375.895C173.312 375.122 173.112 374.182 173.112 373.075C173.112 372.088 173.312 371.208 173.712 370.435C174.125 369.648 174.692 369.035 175.412 368.595C176.132 368.155 176.939 367.935 177.832 367.935C178.792 367.935 179.612 368.148 180.292 368.575C180.985 369.002 181.512 369.608 181.872 370.395C182.232 371.168 182.412 372.075 182.412 373.115V373.555H175.212C175.212 374.182 175.332 374.728 175.572 375.195C175.812 375.662 176.132 376.022 176.532 376.275C176.945 376.528 177.412 376.655 177.932 376.655C178.545 376.655 179.059 376.508 179.472 376.215C179.899 375.922 180.159 375.475 180.252 374.875H182.332C182.265 375.515 182.052 376.095 181.692 376.615C181.332 377.122 180.825 377.528 180.172 377.835C179.532 378.128 178.785 378.275 177.932 378.275ZM180.252 372.075C180.239 371.302 180.019 370.682 179.592 370.215C179.165 369.748 178.579 369.515 177.832 369.515C177.112 369.515 176.512 369.762 176.032 370.255C175.565 370.735 175.299 371.342 175.232 372.075H180.252ZM184.59 368.255H186.67V368.835C186.67 369.208 186.657 369.575 186.63 369.935C186.897 369.335 187.277 368.855 187.77 368.495C188.277 368.122 188.877 367.935 189.57 367.935C189.757 367.935 189.917 367.948 190.05 367.975V369.995C189.85 369.955 189.644 369.935 189.43 369.935C188.857 369.935 188.364 370.042 187.95 370.255C187.537 370.468 187.217 370.802 186.99 371.255C186.777 371.708 186.67 372.282 186.67 372.975V377.955H184.59V368.255ZM191.68 368.255H193.76V368.855C193.76 369.122 193.747 369.375 193.72 369.615C194.014 369.122 194.394 368.722 194.86 368.415C195.34 368.095 195.9 367.935 196.54 367.935C197.154 367.935 197.7 368.108 198.18 368.455C198.66 368.788 199.02 369.235 199.26 369.795C199.594 369.248 200.034 368.802 200.58 368.455C201.14 368.108 201.754 367.935 202.42 367.935C203.074 367.935 203.654 368.088 204.16 368.395C204.667 368.688 205.06 369.128 205.34 369.715C205.634 370.302 205.78 371.008 205.78 371.835V377.955H203.72V372.195C203.72 371.355 203.567 370.708 203.26 370.255C202.967 369.802 202.514 369.575 201.9 369.575C201.474 369.575 201.094 369.695 200.76 369.935C200.44 370.162 200.194 370.482 200.02 370.895C199.847 371.295 199.76 371.742 199.76 372.235V377.955H197.7V372.215C197.7 371.375 197.554 370.728 197.26 370.275C196.967 369.808 196.514 369.575 195.9 369.575C195.474 369.575 195.1 369.695 194.78 369.935C194.46 370.162 194.207 370.482 194.02 370.895C193.847 371.308 193.76 371.775 193.76 372.295V377.955H191.68V368.255ZM208.419 368.255H210.499V377.955H208.419V368.255ZM208.419 376.275H210.499V377.955H208.419V376.275ZM208.419 368.255H209.459V369.935H208.419V368.255ZM208.319 364.295H210.579V366.595H208.319V364.295ZM213.223 368.255H215.283V368.815C215.283 369.068 215.27 369.335 215.243 369.615C215.537 369.122 215.937 368.722 216.443 368.415C216.963 368.095 217.563 367.935 218.243 367.935C218.963 367.935 219.583 368.095 220.103 368.415C220.637 368.722 221.043 369.168 221.323 369.755C221.603 370.342 221.743 371.035 221.743 371.835V377.955H219.663V372.115C219.663 371.288 219.497 370.662 219.163 370.235C218.843 369.795 218.35 369.575 217.683 369.575C217.217 369.575 216.797 369.695 216.423 369.935C216.063 370.162 215.783 370.475 215.583 370.875C215.397 371.275 215.303 371.715 215.303 372.195V377.955H213.223V368.255ZM227.156 378.275C226.569 378.275 226.016 378.155 225.496 377.915C224.989 377.675 224.583 377.328 224.276 376.875C223.969 376.422 223.816 375.895 223.816 375.295C223.816 374.348 224.129 373.635 224.756 373.155C225.396 372.662 226.249 372.335 227.316 372.175L229.056 371.935C229.429 371.882 229.689 371.782 229.836 371.635C229.996 371.488 230.076 371.282 230.076 371.015C230.076 370.562 229.909 370.202 229.576 369.935C229.256 369.655 228.829 369.515 228.296 369.515C227.656 369.515 227.149 369.682 226.776 370.015C226.416 370.335 226.216 370.775 226.176 371.335H224.076C224.116 370.708 224.303 370.135 224.636 369.615C224.983 369.095 225.456 368.688 226.056 368.395C226.656 368.088 227.356 367.935 228.156 367.935C229.036 367.935 229.769 368.095 230.356 368.415C230.956 368.722 231.403 369.175 231.696 369.775C231.989 370.362 232.136 371.075 232.136 371.915V377.955H230.176V377.515C230.176 377.235 230.196 376.942 230.236 376.635C229.969 377.155 229.576 377.562 229.056 377.855C228.536 378.135 227.903 378.275 227.156 378.275ZM227.596 376.715C228.063 376.715 228.489 376.615 228.876 376.415C229.263 376.202 229.563 375.908 229.776 375.535C230.003 375.162 230.116 374.735 230.116 374.255V372.995C230.036 373.088 229.909 373.168 229.736 373.235C229.563 373.302 229.323 373.362 229.016 373.415L227.896 373.635C227.283 373.755 226.803 373.942 226.456 374.195C226.109 374.448 225.936 374.802 225.936 375.255C225.936 375.695 226.096 376.048 226.416 376.315C226.736 376.582 227.129 376.715 227.596 376.715ZM238.47 378.115C237.55 378.115 236.823 377.875 236.29 377.395C235.77 376.902 235.51 376.135 235.51 375.095V369.935H233.51V368.255H235.51V364.915H237.59V368.255H239.79V369.935H237.59V374.835C237.59 375.368 237.71 375.762 237.95 376.015C238.19 376.255 238.55 376.375 239.03 376.375C239.257 376.375 239.497 376.355 239.75 376.315V377.975C239.603 378.015 239.41 378.048 239.17 378.075C238.943 378.102 238.71 378.115 238.47 378.115ZM241.719 368.255H243.799V377.955H241.719V368.255ZM241.719 376.275H243.799V377.955H241.719V376.275ZM241.719 368.255H242.759V369.935H241.719V368.255ZM241.619 364.295H243.879V366.595H241.619V364.295ZM250.804 378.275C249.857 378.275 249.011 378.068 248.264 377.655C247.531 377.228 246.957 376.628 246.544 375.855C246.144 375.068 245.944 374.155 245.944 373.115C245.944 372.102 246.151 371.202 246.564 370.415C246.977 369.628 247.551 369.022 248.284 368.595C249.017 368.155 249.857 367.935 250.804 367.935C251.737 367.935 252.571 368.155 253.304 368.595C254.051 369.022 254.631 369.628 255.044 370.415C255.471 371.202 255.684 372.102 255.684 373.115C255.684 374.155 255.471 375.068 255.044 375.855C254.631 376.628 254.051 377.228 253.304 377.655C252.571 378.068 251.737 378.275 250.804 378.275ZM250.804 376.655C251.364 376.655 251.851 376.515 252.264 376.235C252.677 375.942 252.997 375.528 253.224 374.995C253.451 374.462 253.564 373.835 253.564 373.115C253.564 372.022 253.311 371.162 252.804 370.535C252.297 369.895 251.631 369.575 250.804 369.575C250.257 369.575 249.777 369.722 249.364 370.015C248.951 370.295 248.631 370.702 248.404 371.235C248.177 371.768 248.064 372.395 248.064 373.115C248.064 374.208 248.311 375.075 248.804 375.715C249.297 376.342 249.964 376.655 250.804 376.655ZM257.813 368.255H259.873V368.815C259.873 369.068 259.86 369.335 259.833 369.615C260.126 369.122 260.526 368.722 261.033 368.415C261.553 368.095 262.153 367.935 262.833 367.935C263.553 367.935 264.173 368.095 264.693 368.415C265.226 368.722 265.633 369.168 265.913 369.755C266.193 370.342 266.333 371.035 266.333 371.835V377.955H264.253V372.115C264.253 371.288 264.086 370.662 263.753 370.235C263.433 369.795 262.94 369.575 262.273 369.575C261.806 369.575 261.386 369.695 261.013 369.935C260.653 370.162 260.373 370.475 260.173 370.875C259.986 371.275 259.893 371.715 259.893 372.195V377.955H257.813V368.255ZM273.739 363.955H283.139V365.815H275.939V369.955H282.779V371.835H275.939V377.955H273.739V363.955ZM289.241 378.275C288.267 378.275 287.421 378.075 286.701 377.675C285.981 377.262 285.421 376.668 285.021 375.895C284.621 375.122 284.421 374.182 284.421 373.075C284.421 372.088 284.621 371.208 285.021 370.435C285.434 369.648 286.001 369.035 286.721 368.595C287.441 368.155 288.247 367.935 289.141 367.935C290.101 367.935 290.921 368.148 291.601 368.575C292.294 369.002 292.821 369.608 293.181 370.395C293.541 371.168 293.721 372.075 293.721 373.115V373.555H286.521C286.521 374.182 286.641 374.728 286.881 375.195C287.121 375.662 287.441 376.022 287.841 376.275C288.254 376.528 288.721 376.655 289.241 376.655C289.854 376.655 290.367 376.508 290.781 376.215C291.207 375.922 291.467 375.475 291.561 374.875H293.641C293.574 375.515 293.361 376.095 293.001 376.615C292.641 377.122 292.134 377.528 291.481 377.835C290.841 378.128 290.094 378.275 289.241 378.275ZM291.561 372.075C291.547 371.302 291.327 370.682 290.901 370.215C290.474 369.748 289.887 369.515 289.141 369.515C288.421 369.515 287.821 369.762 287.341 370.255C286.874 370.735 286.607 371.342 286.541 372.075H291.561ZM300.139 378.275C299.166 378.275 298.319 378.075 297.599 377.675C296.879 377.262 296.319 376.668 295.919 375.895C295.519 375.122 295.319 374.182 295.319 373.075C295.319 372.088 295.519 371.208 295.919 370.435C296.332 369.648 296.899 369.035 297.619 368.595C298.339 368.155 299.146 367.935 300.039 367.935C300.999 367.935 301.819 368.148 302.499 368.575C303.192 369.002 303.719 369.608 304.079 370.395C304.439 371.168 304.619 372.075 304.619 373.115V373.555H297.419C297.419 374.182 297.539 374.728 297.779 375.195C298.019 375.662 298.339 376.022 298.739 376.275C299.152 376.528 299.619 376.655 300.139 376.655C300.752 376.655 301.266 376.508 301.679 376.215C302.106 375.922 302.366 375.475 302.459 374.875H304.539C304.472 375.515 304.259 376.095 303.899 376.615C303.539 377.122 303.032 377.528 302.379 377.835C301.739 378.128 300.992 378.275 300.139 378.275ZM302.459 372.075C302.446 371.302 302.226 370.682 301.799 370.215C301.372 369.748 300.786 369.515 300.039 369.515C299.319 369.515 298.719 369.762 298.239 370.255C297.772 370.735 297.506 371.342 297.439 372.075H302.459Z" fill="#0F0E0D"></path>
<path d="M120.961 175.08L555.961 175.08" stroke="#CCCAC6" stroke-width="1.5"></path>
<path d="M120.961 253.83L555.961 253.83" stroke="#CCCAC6" stroke-width="1.5"></path>
<path d="M120.961 332.58L555.961 332.58" stroke="#CCCAC6" stroke-width="1.5"></path>
<path d="M495.981 127.225H491.141V125.705H502.621V127.225H497.801V139.705H495.981V127.225ZM506.149 140.005C505.189 140.005 504.356 139.805 503.649 139.405C502.956 139.005 502.416 138.418 502.029 137.645C501.656 136.872 501.469 135.938 501.469 134.845C501.469 133.872 501.663 132.998 502.049 132.225C502.449 131.452 502.996 130.845 503.689 130.405C504.396 129.965 505.183 129.745 506.049 129.745C506.996 129.745 507.803 129.958 508.469 130.385C509.136 130.798 509.643 131.392 509.989 132.165C510.336 132.925 510.509 133.825 510.509 134.865V135.205H503.189C503.203 135.925 503.336 136.545 503.589 137.065C503.856 137.585 504.209 137.985 504.649 138.265C505.103 138.532 505.609 138.665 506.169 138.665C506.823 138.665 507.383 138.518 507.849 138.225C508.316 137.918 508.603 137.418 508.709 136.725H510.409C510.343 137.325 510.143 137.872 509.809 138.365C509.476 138.858 508.996 139.258 508.369 139.565C507.756 139.858 507.016 140.005 506.149 140.005ZM508.669 133.985C508.669 133.105 508.436 132.405 507.969 131.885C507.516 131.365 506.876 131.105 506.049 131.105C505.263 131.105 504.616 131.378 504.109 131.925C503.603 132.472 503.316 133.158 503.249 133.985H508.669ZM514.959 134.765L511.539 130.065H513.639L515.519 132.845C515.692 133.085 515.865 133.332 516.039 133.585C516.199 133.345 516.359 133.105 516.519 132.865L518.439 130.065H520.439L516.939 134.765L520.579 139.705H518.499L516.459 136.725L516.379 136.585C516.232 136.372 516.079 136.158 515.919 135.945C515.745 136.198 515.572 136.458 515.399 136.725L513.339 139.705H511.339L514.959 134.765ZM525.763 139.865C524.963 139.865 524.303 139.645 523.783 139.205C523.277 138.752 523.023 138.025 523.023 137.025V131.485H521.223V130.065H523.023V126.885H524.743V130.065H526.743V131.485H524.743V136.845C524.743 137.378 524.863 137.758 525.103 137.985C525.357 138.212 525.71 138.325 526.163 138.325C526.363 138.325 526.603 138.305 526.883 138.265V139.745C526.71 139.785 526.53 139.812 526.343 139.825C526.157 139.852 525.963 139.865 525.763 139.865Z" fill="#0F0E0D"></path>
<path d="M547.961 131.705L543.961 135.705L539.961 131.705" stroke="#0F0E0D" stroke-width="1.5" stroke-linecap="square"></path>
<path d="M497.761 283.205H499.581V295.665H506.881V297.205H497.761V283.205ZM508.554 287.565H510.274V297.205H508.554V287.565ZM508.554 295.785H510.274V297.205H508.554V295.785ZM508.554 287.565H509.414V288.985H508.554V287.565ZM508.394 283.685H510.394V285.745H508.394V283.685ZM516.622 297.505C515.768 297.505 515.035 297.358 514.422 297.065C513.808 296.772 513.335 296.365 513.002 295.845C512.668 295.325 512.495 294.718 512.482 294.025H514.162C514.188 294.692 514.415 295.218 514.842 295.605C515.282 295.978 515.882 296.165 516.642 296.165C517.308 296.165 517.842 296.025 518.242 295.745C518.655 295.452 518.862 295.065 518.862 294.585C518.862 294.198 518.722 293.885 518.442 293.645C518.175 293.392 517.755 293.212 517.182 293.105L515.722 292.825C514.802 292.652 514.082 292.332 513.562 291.865C513.042 291.398 512.782 290.805 512.782 290.085C512.782 289.538 512.942 289.052 513.262 288.625C513.582 288.198 514.022 287.865 514.582 287.625C515.155 287.372 515.802 287.245 516.522 287.245C517.295 287.245 517.962 287.372 518.522 287.625C519.082 287.865 519.515 288.218 519.822 288.685C520.142 289.138 520.322 289.692 520.362 290.345H518.662C518.595 289.772 518.362 289.338 517.962 289.045C517.575 288.752 517.055 288.605 516.402 288.605C515.828 288.605 515.368 288.732 515.022 288.985C514.675 289.238 514.502 289.572 514.502 289.985C514.502 290.358 514.635 290.652 514.902 290.865C515.168 291.078 515.582 291.238 516.142 291.345L517.642 291.625C518.562 291.798 519.275 292.112 519.782 292.565C520.302 293.018 520.562 293.632 520.562 294.405C520.562 294.978 520.402 295.505 520.082 295.985C519.762 296.452 519.302 296.825 518.702 297.105C518.115 297.372 517.422 297.505 516.622 297.505ZM526.213 297.365C525.413 297.365 524.753 297.145 524.233 296.705C523.726 296.252 523.473 295.525 523.473 294.525V288.985H521.673V287.565H523.473V284.385H525.193V287.565H527.192V288.985H525.193V294.345C525.193 294.878 525.313 295.258 525.553 295.485C525.806 295.712 526.159 295.825 526.613 295.825C526.813 295.825 527.053 295.805 527.333 295.765V297.245C527.159 297.285 526.979 297.312 526.793 297.325C526.606 297.352 526.413 297.365 526.213 297.365Z" fill="#0F0E0D"></path>
<path d="M547.961 289.205L543.961 293.205L539.961 289.205" stroke="#0F0E0D" stroke-width="1.5" stroke-linecap="square"></path>
<path d="M487.761 204.455H491.961C493.521 204.455 494.854 204.695 495.961 205.175C497.081 205.655 497.948 206.415 498.561 207.455C499.174 208.495 499.481 209.822 499.481 211.435C499.481 212.862 499.208 214.102 498.661 215.155C498.128 216.208 497.334 217.022 496.281 217.595C495.228 218.168 493.934 218.455 492.401 218.455H487.761V204.455ZM492.181 216.915C493.328 216.915 494.301 216.728 495.101 216.355C495.901 215.982 496.514 215.388 496.941 214.575C497.368 213.762 497.581 212.715 497.581 211.435C497.581 209.648 497.134 208.295 496.241 207.375C495.348 206.442 493.968 205.975 492.101 205.975H489.581V216.915H492.181ZM504.634 218.755C504.021 218.755 503.461 218.635 502.954 218.395C502.447 218.155 502.047 217.815 501.754 217.375C501.461 216.922 501.314 216.402 501.314 215.815C501.314 214.948 501.607 214.268 502.194 213.775C502.794 213.282 503.567 212.962 504.514 212.815L506.574 212.495C506.934 212.442 507.187 212.342 507.334 212.195C507.481 212.048 507.554 211.828 507.554 211.535C507.554 211.015 507.374 210.608 507.014 210.315C506.654 210.008 506.187 209.855 505.614 209.855C504.894 209.855 504.341 210.035 503.954 210.395C503.567 210.742 503.361 211.222 503.334 211.835H501.614C501.641 211.235 501.807 210.682 502.114 210.175C502.421 209.668 502.861 209.262 503.434 208.955C504.021 208.648 504.701 208.495 505.474 208.495C506.261 208.495 506.934 208.642 507.494 208.935C508.067 209.228 508.501 209.648 508.794 210.195C509.087 210.742 509.234 211.388 509.234 212.135V218.455H507.594V217.975C507.594 217.695 507.594 217.422 507.594 217.155C507.354 217.662 506.974 218.055 506.454 218.335C505.947 218.615 505.341 218.755 504.634 218.755ZM504.874 217.415C505.381 217.415 505.834 217.308 506.234 217.095C506.647 216.868 506.967 216.562 507.194 216.175C507.434 215.775 507.554 215.322 507.554 214.815V213.395C507.501 213.488 507.381 213.568 507.194 213.635C507.021 213.702 506.787 213.762 506.494 213.815L505.094 214.075C504.481 214.195 503.994 214.395 503.634 214.675C503.274 214.955 503.094 215.335 503.094 215.815C503.094 216.295 503.261 216.682 503.594 216.975C503.941 217.268 504.367 217.415 504.874 217.415ZM515.392 218.615C514.592 218.615 513.932 218.395 513.412 217.955C512.906 217.502 512.652 216.775 512.652 215.775V210.235H510.852V208.815H512.652V205.635H514.372V208.815H516.372V210.235H514.372V215.595C514.372 216.128 514.492 216.508 514.732 216.735C514.986 216.962 515.339 217.075 515.792 217.075C515.992 217.075 516.232 217.055 516.512 217.015V218.495C516.339 218.535 516.159 218.562 515.972 218.575C515.786 218.602 515.592 218.615 515.392 218.615ZM522.517 218.755C521.557 218.755 520.723 218.555 520.017 218.155C519.323 217.755 518.783 217.168 518.397 216.395C518.023 215.622 517.837 214.688 517.837 213.595C517.837 212.622 518.03 211.748 518.417 210.975C518.817 210.202 519.363 209.595 520.057 209.155C520.763 208.715 521.55 208.495 522.417 208.495C523.363 208.495 524.17 208.708 524.837 209.135C525.503 209.548 526.01 210.142 526.357 210.915C526.703 211.675 526.877 212.575 526.877 213.615V213.955H519.557C519.57 214.675 519.703 215.295 519.957 215.815C520.223 216.335 520.577 216.735 521.017 217.015C521.47 217.282 521.977 217.415 522.537 217.415C523.19 217.415 523.75 217.268 524.217 216.975C524.683 216.668 524.97 216.168 525.077 215.475H526.777C526.71 216.075 526.51 216.622 526.177 217.115C525.843 217.608 525.363 218.008 524.737 218.315C524.123 218.608 523.383 218.755 522.517 218.755ZM525.037 212.735C525.037 211.855 524.803 211.155 524.337 210.635C523.883 210.115 523.243 209.855 522.417 209.855C521.63 209.855 520.983 210.128 520.477 210.675C519.97 211.222 519.683 211.908 519.617 212.735H525.037Z" fill="#0F0E0D"></path>
<path d="M547.961 210.455L543.961 214.455L539.961 210.455" stroke="#0F0E0D" stroke-width="1.5" stroke-linecap="square"></path>
<path d="M453.601 376.255C452.268 376.255 451.094 375.962 450.081 375.375C449.081 374.775 448.301 373.922 447.741 372.815C447.181 371.695 446.901 370.382 446.901 368.875C446.901 367.448 447.188 366.188 447.761 365.095C448.348 363.988 449.154 363.135 450.181 362.535C451.208 361.935 452.361 361.635 453.641 361.635C454.748 361.635 455.734 361.848 456.601 362.275C457.468 362.688 458.161 363.262 458.681 363.995C459.201 364.728 459.508 365.555 459.601 366.475H457.601C457.414 365.435 456.974 364.628 456.281 364.055C455.588 363.468 454.681 363.175 453.561 363.175C452.614 363.175 451.781 363.408 451.061 363.875C450.354 364.328 449.801 364.988 449.401 365.855C449.014 366.708 448.821 367.715 448.821 368.875C448.821 370.035 449.021 371.062 449.421 371.955C449.821 372.835 450.381 373.515 451.101 373.995C451.821 374.475 452.641 374.715 453.561 374.715C454.694 374.715 455.621 374.422 456.341 373.835C457.061 373.248 457.521 372.448 457.721 371.435H459.621C459.501 372.422 459.174 373.282 458.641 374.015C458.108 374.735 457.408 375.288 456.541 375.675C455.674 376.062 454.694 376.255 453.601 376.255ZM465.215 376.255C464.468 376.255 463.835 376.108 463.315 375.815C462.795 375.522 462.402 375.095 462.135 374.535C461.868 373.962 461.735 373.268 461.735 372.455V366.315H463.455V372.095C463.455 373.042 463.628 373.748 463.975 374.215C464.322 374.682 464.882 374.915 465.655 374.915C466.175 374.915 466.615 374.788 466.975 374.535C467.348 374.268 467.628 373.895 467.815 373.415C468.015 372.922 468.115 372.328 468.115 371.635V366.315H469.815V375.955H468.135V375.375C468.135 375.175 468.135 374.982 468.135 374.795V374.615C467.908 375.122 467.528 375.522 466.995 375.815C466.462 376.108 465.868 376.255 465.215 376.255ZM472.773 366.315H474.493V366.735C474.493 367.122 474.493 367.515 474.493 367.915C474.746 367.342 475.133 366.882 475.653 366.535C476.186 366.175 476.806 365.995 477.513 365.995C477.7 365.995 477.846 366.002 477.953 366.015V367.715C477.766 367.688 477.586 367.675 477.413 367.675C476.786 367.675 476.253 367.795 475.813 368.035C475.386 368.262 475.06 368.615 474.833 369.095C474.606 369.562 474.493 370.148 474.493 370.855V375.955H472.773V366.315ZM479.707 366.315H481.427V366.735C481.427 367.122 481.427 367.515 481.427 367.915C481.68 367.342 482.067 366.882 482.587 366.535C483.12 366.175 483.74 365.995 484.447 365.995C484.633 365.995 484.78 366.002 484.887 366.015V367.715C484.7 367.688 484.52 367.675 484.347 367.675C483.72 367.675 483.187 367.795 482.747 368.035C482.32 368.262 481.993 368.615 481.767 369.095C481.54 369.562 481.427 370.148 481.427 370.855V375.955H479.707V366.315ZM490.466 376.255C489.506 376.255 488.672 376.055 487.966 375.655C487.272 375.255 486.732 374.668 486.346 373.895C485.972 373.122 485.786 372.188 485.786 371.095C485.786 370.122 485.979 369.248 486.366 368.475C486.766 367.702 487.312 367.095 488.006 366.655C488.712 366.215 489.499 365.995 490.366 365.995C491.312 365.995 492.119 366.208 492.786 366.635C493.452 367.048 493.959 367.642 494.306 368.415C494.652 369.175 494.826 370.075 494.826 371.115V371.455H487.506C487.519 372.175 487.652 372.795 487.906 373.315C488.172 373.835 488.526 374.235 488.966 374.515C489.419 374.782 489.926 374.915 490.486 374.915C491.139 374.915 491.699 374.768 492.166 374.475C492.632 374.168 492.919 373.668 493.026 372.975H494.726C494.659 373.575 494.459 374.122 494.126 374.615C493.792 375.108 493.312 375.508 492.686 375.815C492.072 376.108 491.332 376.255 490.466 376.255ZM492.986 370.235C492.986 369.355 492.752 368.655 492.286 368.135C491.832 367.615 491.192 367.355 490.366 367.355C489.579 367.355 488.932 367.628 488.426 368.175C487.919 368.722 487.632 369.408 487.566 370.235H492.986ZM497.187 366.315H498.887V366.975C498.887 367.188 498.887 367.402 498.887 367.615C499.167 367.162 499.58 366.782 500.127 366.475C500.674 366.155 501.254 365.995 501.867 365.995C502.6 365.995 503.234 366.148 503.767 366.455C504.3 366.748 504.707 367.188 504.987 367.775C505.28 368.362 505.427 369.062 505.427 369.875V375.955H503.707V370.095C503.707 369.162 503.54 368.475 503.207 368.035C502.874 367.582 502.334 367.355 501.587 367.355C501.04 367.355 500.56 367.482 500.147 367.735C499.747 367.988 499.44 368.328 499.227 368.755C499.014 369.182 498.907 369.648 498.907 370.155V375.955H497.187V366.315ZM512.421 376.255C511.528 376.255 510.715 376.062 509.981 375.675C509.261 375.288 508.688 374.708 508.261 373.935C507.848 373.162 507.641 372.222 507.641 371.115C507.641 370.115 507.855 369.228 508.281 368.455C508.708 367.682 509.288 367.082 510.021 366.655C510.768 366.215 511.595 365.995 512.501 365.995C513.261 365.995 513.948 366.142 514.561 366.435C515.175 366.728 515.668 367.142 516.041 367.675C516.415 368.208 516.635 368.835 516.701 369.555H514.921C514.841 368.902 514.581 368.375 514.141 367.975C513.715 367.562 513.155 367.355 512.461 367.355C511.861 367.355 511.328 367.522 510.861 367.855C510.408 368.175 510.055 368.622 509.801 369.195C509.548 369.768 509.421 370.408 509.421 371.115C509.421 371.875 509.548 372.542 509.801 373.115C510.055 373.688 510.415 374.135 510.881 374.455C511.348 374.762 511.888 374.915 512.501 374.915C513.208 374.915 513.788 374.722 514.241 374.335C514.695 373.948 514.968 373.408 515.061 372.715H516.761C516.695 373.422 516.481 374.042 516.121 374.575C515.775 375.108 515.288 375.522 514.661 375.815C514.035 376.108 513.288 376.255 512.421 376.255ZM521.488 375.615L517.628 366.315H519.528L521.928 372.475C522.088 372.862 522.241 373.255 522.388 373.655C522.428 373.522 522.461 373.422 522.488 373.355C522.514 373.288 522.548 373.188 522.588 373.055C522.641 372.922 522.674 372.828 522.688 372.775C522.714 372.708 522.754 372.608 522.808 372.475L524.928 366.315H526.728L521.548 380.115H519.728L521.488 375.615Z" fill="#0F0E0D"></path>
<path d="M547.961 367.955L543.961 371.955L539.961 367.955" stroke="#0F0E0D" stroke-width="1.5" stroke-linecap="square"></path>
</svg>
