<svg width="676" height="507" viewBox="0 0 676 507" fill="none" xmlns="http://www.w3.org/2000/svg">
<rect width="675" height="506.25" transform="translate(0.960938 -0.000488281)" fill="#CCCAC6"></rect>
<rect x="90.9609" y="205.125" width="495" height="182" rx="14" fill="white"></rect>
<rect x="90.9609" y="119.125" width="495" height="76" rx="14" fill="white"></rect>
<path d="M117.481 146.525H125.125C126.376 146.525 127.496 146.702 128.485 147.057C129.493 147.393 130.305 147.981 130.921 148.821C131.537 149.642 131.845 150.734 131.845 152.097C131.845 153.459 131.546 154.551 130.949 155.373C130.352 156.194 129.549 156.782 128.541 157.137C127.552 157.473 126.413 157.641 125.125 157.641H120.029V166.125H117.481V146.525ZM125.097 155.513C126.534 155.513 127.58 155.214 128.233 154.617C128.905 154.019 129.241 153.179 129.241 152.097C129.241 150.995 128.905 150.146 128.233 149.549C127.58 148.951 126.534 148.653 125.097 148.653H120.029V155.513H125.097ZM139.725 166.545C138.381 166.545 137.214 166.265 136.225 165.705C135.254 165.145 134.498 164.323 133.957 163.241C133.434 162.158 133.173 160.851 133.173 159.321C133.173 157.958 133.443 156.735 133.985 155.653C134.545 154.57 135.31 153.721 136.281 153.105C137.27 152.489 138.371 152.181 139.585 152.181C140.91 152.181 142.039 152.479 142.973 153.077C143.906 153.655 144.615 154.486 145.101 155.569C145.586 156.633 145.829 157.893 145.829 159.349V159.825H135.581C135.599 160.833 135.786 161.701 136.141 162.429C136.514 163.157 137.009 163.717 137.625 164.109C138.259 164.482 138.969 164.669 139.753 164.669C140.667 164.669 141.451 164.463 142.105 164.053C142.758 163.623 143.159 162.923 143.309 161.953H145.689C145.595 162.793 145.315 163.558 144.849 164.249C144.382 164.939 143.71 165.499 142.833 165.929C141.974 166.339 140.938 166.545 139.725 166.545ZM143.253 158.117C143.253 156.885 142.926 155.905 142.273 155.177C141.638 154.449 140.742 154.085 139.585 154.085C138.483 154.085 137.578 154.467 136.869 155.233C136.159 155.998 135.758 156.959 135.665 158.117H143.253ZM149.135 152.629H151.543V153.217C151.543 153.758 151.543 154.309 151.543 154.869C151.897 154.066 152.439 153.422 153.167 152.937C153.913 152.433 154.781 152.181 155.771 152.181C156.032 152.181 156.237 152.19 156.387 152.209V154.589C156.125 154.551 155.873 154.533 155.631 154.533C154.753 154.533 154.007 154.701 153.391 155.037C152.793 155.354 152.336 155.849 152.019 156.521C151.701 157.174 151.543 157.995 151.543 158.985V166.125H149.135V152.629ZM158.842 152.629H161.25V153.693C161.25 153.935 161.25 154.187 161.25 154.449C161.679 153.758 162.23 153.207 162.902 152.797C163.592 152.386 164.358 152.181 165.198 152.181C166.112 152.181 166.915 152.405 167.606 152.853C168.315 153.301 168.866 153.963 169.258 154.841C169.743 154.019 170.359 153.375 171.106 152.909C171.871 152.423 172.72 152.181 173.654 152.181C174.587 152.181 175.408 152.377 176.118 152.769C176.827 153.161 177.378 153.767 177.77 154.589C178.18 155.391 178.386 156.39 178.386 157.585V166.125H175.978V158.061C175.978 156.735 175.754 155.746 175.306 155.093C174.876 154.421 174.158 154.085 173.15 154.085C172.459 154.085 171.862 154.271 171.358 154.645C170.854 154.999 170.471 155.485 170.21 156.101C169.948 156.698 169.818 157.361 169.818 158.089V166.125H167.41V158.145C167.41 156.819 167.186 155.811 166.738 155.121C166.308 154.43 165.608 154.085 164.638 154.085C163.966 154.085 163.368 154.271 162.846 154.645C162.342 155.018 161.95 155.522 161.67 156.157C161.39 156.773 161.25 157.454 161.25 158.201V166.125H158.842V152.629ZM182.357 152.629H184.765V166.125H182.357V152.629ZM182.357 164.137H184.765V166.125H182.357V164.137ZM182.357 152.629H183.561V154.617H182.357V152.629ZM182.133 147.197H184.933V150.081H182.133V147.197ZM193.652 166.545C192.457 166.545 191.43 166.339 190.572 165.929C189.713 165.518 189.05 164.949 188.584 164.221C188.117 163.493 187.874 162.643 187.856 161.673H190.208C190.245 162.606 190.562 163.343 191.16 163.885C191.776 164.407 192.616 164.669 193.68 164.669C194.613 164.669 195.36 164.473 195.92 164.081C196.498 163.67 196.788 163.129 196.788 162.457C196.788 161.915 196.592 161.477 196.2 161.141C195.826 160.786 195.238 160.534 194.436 160.385L192.392 159.993C191.104 159.75 190.096 159.302 189.368 158.649C188.64 157.995 188.276 157.165 188.276 156.157C188.276 155.391 188.5 154.71 188.948 154.113C189.396 153.515 190.012 153.049 190.796 152.713C191.598 152.358 192.504 152.181 193.512 152.181C194.594 152.181 195.528 152.358 196.312 152.713C197.096 153.049 197.702 153.543 198.132 154.197C198.58 154.831 198.832 155.606 198.888 156.521H196.508C196.414 155.718 196.088 155.111 195.528 154.701C194.986 154.29 194.258 154.085 193.344 154.085C192.541 154.085 191.897 154.262 191.412 154.617C190.926 154.971 190.684 155.438 190.684 156.017C190.684 156.539 190.87 156.95 191.244 157.249C191.617 157.547 192.196 157.771 192.98 157.921L195.08 158.313C196.368 158.555 197.366 158.994 198.076 159.629C198.804 160.263 199.168 161.122 199.168 162.205C199.168 163.007 198.944 163.745 198.496 164.417C198.048 165.07 197.404 165.593 196.564 165.985C195.742 166.358 194.772 166.545 193.652 166.545ZM207.187 166.545C205.992 166.545 204.965 166.339 204.107 165.929C203.248 165.518 202.585 164.949 202.119 164.221C201.652 163.493 201.409 162.643 201.391 161.673H203.743C203.78 162.606 204.097 163.343 204.695 163.885C205.311 164.407 206.151 164.669 207.215 164.669C208.148 164.669 208.895 164.473 209.455 164.081C210.033 163.67 210.323 163.129 210.323 162.457C210.323 161.915 210.127 161.477 209.735 161.141C209.361 160.786 208.773 160.534 207.971 160.385L205.927 159.993C204.639 159.75 203.631 159.302 202.903 158.649C202.175 157.995 201.811 157.165 201.811 156.157C201.811 155.391 202.035 154.71 202.483 154.113C202.931 153.515 203.547 153.049 204.331 152.713C205.133 152.358 206.039 152.181 207.047 152.181C208.129 152.181 209.063 152.358 209.847 152.713C210.631 153.049 211.237 153.543 211.667 154.197C212.115 154.831 212.367 155.606 212.423 156.521H210.043C209.949 155.718 209.623 155.111 209.063 154.701C208.521 154.29 207.793 154.085 206.879 154.085C206.076 154.085 205.432 154.262 204.947 154.617C204.461 154.971 204.219 155.438 204.219 156.017C204.219 156.539 204.405 156.95 204.779 157.249C205.152 157.547 205.731 157.771 206.515 157.921L208.615 158.313C209.903 158.555 210.901 158.994 211.611 159.629C212.339 160.263 212.703 161.122 212.703 162.205C212.703 163.007 212.479 163.745 212.031 164.417C211.583 165.07 210.939 165.593 210.099 165.985C209.277 166.358 208.307 166.545 207.187 166.545ZM215.99 152.629H218.398V166.125H215.99V152.629ZM215.99 164.137H218.398V166.125H215.99V164.137ZM215.99 152.629H217.194V154.617H215.99V152.629ZM215.766 147.197H218.566V150.081H215.766V147.197ZM228.32 166.545C227.032 166.545 225.884 166.246 224.876 165.649C223.868 165.051 223.084 164.211 222.524 163.129C221.964 162.027 221.684 160.767 221.684 159.349C221.684 157.967 221.964 156.735 222.524 155.653C223.084 154.551 223.868 153.702 224.876 153.105C225.884 152.489 227.032 152.181 228.32 152.181C229.59 152.181 230.728 152.489 231.736 153.105C232.744 153.702 233.528 154.551 234.088 155.653C234.667 156.735 234.956 157.967 234.956 159.349C234.956 160.767 234.667 162.027 234.088 163.129C233.528 164.211 232.744 165.051 231.736 165.649C230.728 166.246 229.59 166.545 228.32 166.545ZM228.32 164.669C229.16 164.669 229.888 164.445 230.504 163.997C231.139 163.549 231.624 162.923 231.96 162.121C232.296 161.318 232.464 160.394 232.464 159.349C232.464 157.762 232.082 156.493 231.316 155.541C230.57 154.57 229.571 154.085 228.32 154.085C227.499 154.085 226.771 154.309 226.136 154.757C225.502 155.186 225.016 155.802 224.68 156.605C224.344 157.389 224.176 158.303 224.176 159.349C224.176 160.954 224.55 162.242 225.296 163.213C226.043 164.183 227.051 164.669 228.32 164.669ZM238.22 152.629H240.6V153.553C240.6 153.851 240.6 154.15 240.6 154.449C240.992 153.814 241.571 153.282 242.336 152.853C243.102 152.405 243.914 152.181 244.772 152.181C245.799 152.181 246.686 152.395 247.432 152.825C248.179 153.235 248.748 153.851 249.14 154.673C249.551 155.494 249.756 156.474 249.756 157.613V166.125H247.348V157.921C247.348 156.614 247.115 155.653 246.648 155.037C246.182 154.402 245.426 154.085 244.38 154.085C243.615 154.085 242.943 154.262 242.364 154.617C241.804 154.971 241.375 155.447 241.076 156.045C240.778 156.642 240.628 157.295 240.628 158.005V166.125H238.22V152.629ZM258.456 166.545C257.262 166.545 256.235 166.339 255.376 165.929C254.518 165.518 253.855 164.949 253.388 164.221C252.922 163.493 252.679 162.643 252.66 161.673H255.012C255.05 162.606 255.367 163.343 255.964 163.885C256.58 164.407 257.42 164.669 258.484 164.669C259.418 164.669 260.164 164.473 260.724 164.081C261.303 163.67 261.592 163.129 261.592 162.457C261.592 161.915 261.396 161.477 261.004 161.141C260.631 160.786 260.043 160.534 259.24 160.385L257.196 159.993C255.908 159.75 254.9 159.302 254.172 158.649C253.444 157.995 253.08 157.165 253.08 156.157C253.08 155.391 253.304 154.71 253.752 154.113C254.2 153.515 254.816 153.049 255.6 152.713C256.403 152.358 257.308 152.181 258.316 152.181C259.399 152.181 260.332 152.358 261.116 152.713C261.9 153.049 262.507 153.543 262.936 154.197C263.384 154.831 263.636 155.606 263.692 156.521H261.312C261.219 155.718 260.892 155.111 260.332 154.701C259.791 154.29 259.063 154.085 258.148 154.085C257.346 154.085 256.702 154.262 256.216 154.617C255.731 154.971 255.488 155.438 255.488 156.017C255.488 156.539 255.675 156.95 256.048 157.249C256.422 157.547 257 157.771 257.784 157.921L259.884 158.313C261.172 158.555 262.171 158.994 262.88 159.629C263.608 160.263 263.972 161.122 263.972 162.205C263.972 163.007 263.748 163.745 263.3 164.417C262.852 165.07 262.208 165.593 261.368 165.985C260.547 166.358 259.576 166.545 258.456 166.545Z" fill="#0F0E0D"></path>
<path d="M536.293 161.125L542.96 167.791L549.626 161.125" stroke="#0F0E0D" stroke-width="2.25" stroke-linecap="square"></path>
<path d="M536.293 153.124L542.96 146.458L549.626 153.124" stroke="#0F0E0D" stroke-width="2.25" stroke-linecap="square"></path>
<rect x="100.961" y="215.125" width="475" height="76" rx="14" fill="#F2F1F0"></rect>
<rect x="131.629" y="250.458" width="18.6667" height="13.3333" stroke="#0F0E0D" stroke-width="2.25"></rect>
<path d="M136.961 250.458H144.961V246.458C144.961 244.249 143.17 242.458 140.961 242.458V242.458C138.752 242.458 136.961 244.249 136.961 246.458V250.458Z" stroke="#0F0E0D" stroke-width="2.25"></path>
<path d="M171.481 242.525H179.685C180.954 242.525 182.056 242.749 182.989 243.197C183.941 243.626 184.669 244.251 185.173 245.073C185.677 245.875 185.929 246.809 185.929 247.873C185.929 248.937 185.668 249.87 185.145 250.673C184.641 251.457 183.913 252.073 182.961 252.521C182.009 252.95 180.88 253.165 179.573 253.165H178.481L178.929 252.325L186.237 262.125H182.989L176.605 253.221H174.029V262.125H171.481V242.525ZM179.181 251.065C180.525 251.065 181.552 250.803 182.261 250.281C182.97 249.739 183.325 248.937 183.325 247.873C183.325 246.809 182.97 246.006 182.261 245.465C181.552 244.923 180.525 244.653 179.181 244.653H174.029V251.065H179.181ZM194.436 262.545C193.092 262.545 191.925 262.265 190.936 261.705C189.965 261.145 189.209 260.323 188.668 259.241C188.145 258.158 187.884 256.851 187.884 255.321C187.884 253.958 188.154 252.735 188.696 251.653C189.256 250.57 190.021 249.721 190.992 249.105C191.981 248.489 193.082 248.181 194.296 248.181C195.621 248.181 196.75 248.479 197.684 249.077C198.617 249.655 199.326 250.486 199.812 251.569C200.297 252.633 200.54 253.893 200.54 255.349V255.825H190.292C190.31 256.833 190.497 257.701 190.852 258.429C191.225 259.157 191.72 259.717 192.336 260.109C192.97 260.482 193.68 260.669 194.464 260.669C195.378 260.669 196.162 260.463 196.816 260.053C197.469 259.623 197.87 258.923 198.02 257.953H200.4C200.306 258.793 200.026 259.558 199.56 260.249C199.093 260.939 198.421 261.499 197.544 261.929C196.685 262.339 195.649 262.545 194.436 262.545ZM197.964 254.117C197.964 252.885 197.637 251.905 196.984 251.177C196.349 250.449 195.453 250.085 194.296 250.085C193.194 250.085 192.289 250.467 191.58 251.233C190.87 251.998 190.469 252.959 190.376 254.117H197.964ZM208.577 262.545C207.383 262.545 206.356 262.339 205.497 261.929C204.639 261.518 203.976 260.949 203.509 260.221C203.043 259.493 202.8 258.643 202.781 257.673H205.133C205.171 258.606 205.488 259.343 206.085 259.885C206.701 260.407 207.541 260.669 208.605 260.669C209.539 260.669 210.285 260.473 210.845 260.081C211.424 259.67 211.713 259.129 211.713 258.457C211.713 257.915 211.517 257.477 211.125 257.141C210.752 256.786 210.164 256.534 209.361 256.385L207.317 255.993C206.029 255.75 205.021 255.302 204.293 254.649C203.565 253.995 203.201 253.165 203.201 252.157C203.201 251.391 203.425 250.71 203.873 250.113C204.321 249.515 204.937 249.049 205.721 248.713C206.524 248.358 207.429 248.181 208.437 248.181C209.52 248.181 210.453 248.358 211.237 248.713C212.021 249.049 212.628 249.543 213.057 250.197C213.505 250.831 213.757 251.606 213.813 252.521H211.433C211.34 251.718 211.013 251.111 210.453 250.701C209.912 250.29 209.184 250.085 208.269 250.085C207.467 250.085 206.823 250.262 206.337 250.617C205.852 250.971 205.609 251.438 205.609 252.017C205.609 252.539 205.796 252.95 206.169 253.249C206.543 253.547 207.121 253.771 207.905 253.921L210.005 254.313C211.293 254.555 212.292 254.994 213.001 255.629C213.729 256.263 214.093 257.122 214.093 258.205C214.093 259.007 213.869 259.745 213.421 260.417C212.973 261.07 212.329 261.593 211.489 261.985C210.668 262.358 209.697 262.545 208.577 262.545ZM222.005 262.349C220.885 262.349 219.961 262.041 219.233 261.425C218.523 260.79 218.169 259.773 218.169 258.373V250.617H215.649V248.629H218.169V244.177H220.577V248.629H223.377V250.617H220.577V258.121C220.577 258.867 220.745 259.399 221.081 259.717C221.435 260.034 221.93 260.193 222.565 260.193C222.845 260.193 223.181 260.165 223.573 260.109V262.181C223.33 262.237 223.078 262.274 222.817 262.293C222.555 262.33 222.285 262.349 222.005 262.349ZM226.459 248.629H228.867V249.217C228.867 249.758 228.867 250.309 228.867 250.869C229.221 250.066 229.763 249.422 230.491 248.937C231.237 248.433 232.105 248.181 233.095 248.181C233.356 248.181 233.561 248.19 233.711 248.209V250.589C233.449 250.551 233.197 250.533 232.955 250.533C232.077 250.533 231.331 250.701 230.715 251.037C230.117 251.354 229.66 251.849 229.343 252.521C229.025 253.174 228.867 253.995 228.867 254.985V262.125H226.459V248.629ZM236.166 248.629H238.574V262.125H236.166V248.629ZM236.166 260.137H238.574V262.125H236.166V260.137ZM236.166 248.629H237.37V250.617H236.166V248.629ZM235.942 243.197H238.742V246.081H235.942V243.197ZM248.552 262.545C247.302 262.545 246.163 262.274 245.136 261.733C244.128 261.191 243.326 260.379 242.728 259.297C242.15 258.214 241.86 256.898 241.86 255.349C241.86 253.949 242.159 252.707 242.756 251.625C243.354 250.542 244.166 249.702 245.192 249.105C246.238 248.489 247.395 248.181 248.664 248.181C249.728 248.181 250.69 248.386 251.548 248.797C252.407 249.207 253.098 249.786 253.62 250.533C254.143 251.279 254.451 252.157 254.544 253.165H252.052C251.94 252.25 251.576 251.513 250.96 250.953C250.363 250.374 249.579 250.085 248.608 250.085C247.768 250.085 247.022 250.318 246.368 250.785C245.734 251.233 245.239 251.858 244.884 252.661C244.53 253.463 244.352 254.359 244.352 255.349C244.352 256.413 244.53 257.346 244.884 258.149C245.239 258.951 245.743 259.577 246.396 260.025C247.05 260.454 247.806 260.669 248.664 260.669C249.654 260.669 250.466 260.398 251.1 259.857C251.735 259.315 252.118 258.559 252.248 257.589H254.628C254.535 258.578 254.236 259.446 253.732 260.193C253.247 260.939 252.566 261.518 251.688 261.929C250.811 262.339 249.766 262.545 248.552 262.545ZM262.501 262.349C261.381 262.349 260.457 262.041 259.729 261.425C259.019 260.79 258.665 259.773 258.665 258.373V250.617H256.145V248.629H258.665V244.177H261.073V248.629H263.873V250.617H261.073V258.121C261.073 258.867 261.241 259.399 261.577 259.717C261.931 260.034 262.426 260.193 263.061 260.193C263.341 260.193 263.677 260.165 264.069 260.109V262.181C263.826 262.237 263.574 262.274 263.313 262.293C263.051 262.33 262.781 262.349 262.501 262.349ZM272.475 262.545C271.131 262.545 269.964 262.265 268.975 261.705C268.004 261.145 267.248 260.323 266.707 259.241C266.184 258.158 265.923 256.851 265.923 255.321C265.923 253.958 266.193 252.735 266.735 251.653C267.295 250.57 268.06 249.721 269.031 249.105C270.02 248.489 271.121 248.181 272.335 248.181C273.66 248.181 274.789 248.479 275.723 249.077C276.656 249.655 277.365 250.486 277.851 251.569C278.336 252.633 278.579 253.893 278.579 255.349V255.825H268.331C268.349 256.833 268.536 257.701 268.891 258.429C269.264 259.157 269.759 259.717 270.375 260.109C271.009 260.482 271.719 260.669 272.503 260.669C273.417 260.669 274.201 260.463 274.855 260.053C275.508 259.623 275.909 258.923 276.059 257.953H278.439C278.345 258.793 278.065 259.558 277.599 260.249C277.132 260.939 276.46 261.499 275.583 261.929C274.724 262.339 273.688 262.545 272.475 262.545ZM276.003 254.117C276.003 252.885 275.676 251.905 275.023 251.177C274.388 250.449 273.492 250.085 272.335 250.085C271.233 250.085 270.328 250.467 269.619 251.233C268.909 251.998 268.508 252.959 268.415 254.117H276.003ZM287.233 262.545C286.038 262.545 284.974 262.265 284.041 261.705C283.107 261.145 282.37 260.323 281.829 259.241C281.287 258.158 281.017 256.87 281.017 255.377C281.017 254.014 281.269 252.791 281.773 251.709C282.295 250.607 283.033 249.749 283.985 249.133C284.937 248.498 286.038 248.181 287.289 248.181C288.315 248.181 289.202 248.414 289.949 248.881C290.714 249.329 291.274 249.851 291.629 250.449C291.629 250.075 291.629 249.711 291.629 249.357V242.525H294.037V262.125H291.629V261.341C291.629 260.967 291.629 260.603 291.629 260.249C291.255 260.902 290.667 261.453 289.865 261.901C289.081 262.33 288.203 262.545 287.233 262.545ZM287.653 260.669C288.455 260.669 289.165 260.454 289.781 260.025C290.415 259.577 290.91 258.951 291.265 258.149C291.619 257.346 291.797 256.413 291.797 255.349C291.797 253.762 291.414 252.493 290.649 251.541C289.883 250.57 288.885 250.085 287.653 250.085C286.85 250.085 286.131 250.309 285.497 250.757C284.881 251.186 284.395 251.802 284.041 252.605C283.686 253.407 283.508 254.331 283.508 255.377C283.508 256.422 283.677 257.346 284.013 258.149C284.367 258.951 284.853 259.577 285.469 260.025C286.103 260.454 286.831 260.669 287.653 260.669Z" fill="#0F0E0D"></path>
<path d="M139.629 344.458C139.629 340.776 142.614 337.792 146.296 337.792V337.792C149.977 337.792 152.962 340.776 152.962 344.458V349.792H139.629V344.458Z" stroke="#0F0E0D" stroke-width="2.25"></path>
<circle cx="146.297" cy="332.458" r="4" stroke="#0F0E0D" stroke-width="2.25"></circle>
<path fill-rule="evenodd" clip-rule="evenodd" d="M135.628 336.458C137.837 336.458 139.628 334.667 139.628 332.458C139.628 330.249 137.837 328.458 135.628 328.458C133.418 328.458 131.628 330.249 131.628 332.458C131.628 334.667 133.418 336.458 135.628 336.458ZM135.628 337.792C131.946 337.792 128.961 340.776 128.961 344.458V349.792H142.294V344.458C142.294 340.776 139.31 337.792 135.628 337.792Z" fill="white"></path>
<path d="M128.961 344.458C128.961 340.776 131.946 337.792 135.628 337.792V337.792C139.31 337.792 142.294 340.776 142.294 344.458V349.792H128.961V344.458Z" stroke="#0F0E0D" stroke-width="2.25"></path>
<circle cx="135.629" cy="332.458" r="4" stroke="#0F0E0D" stroke-width="2.25"></circle>
<path d="M176.941 328.525H180.021L187.889 348.125H185.061L178.985 332.333C178.929 332.183 178.873 332.034 178.817 331.885C178.686 331.53 178.556 331.185 178.425 330.849C178.35 331.073 178.285 331.241 178.229 331.353C178.192 331.465 178.136 331.633 178.061 331.857L177.865 332.333L171.789 348.125H169.101L176.941 328.525ZM173.609 340.173H183.213V342.301H173.609V340.173ZM190.092 334.629H192.472V335.553C192.472 335.851 192.472 336.15 192.472 336.449C192.864 335.814 193.442 335.282 194.208 334.853C194.973 334.405 195.785 334.181 196.644 334.181C197.67 334.181 198.557 334.395 199.304 334.825C200.05 335.235 200.62 335.851 201.012 336.673C201.422 337.494 201.628 338.474 201.628 339.613V348.125H199.22V339.921C199.22 338.614 198.986 337.653 198.52 337.037C198.053 336.402 197.297 336.085 196.252 336.085C195.486 336.085 194.814 336.262 194.236 336.617C193.676 336.971 193.246 337.447 192.948 338.045C192.649 338.642 192.5 339.295 192.5 340.005V348.125H190.092V334.629ZM209.073 347.649L203.669 334.629H206.329L209.689 343.253C209.913 343.794 210.128 344.345 210.333 344.905C210.389 344.718 210.436 344.578 210.473 344.485C210.511 344.391 210.557 344.251 210.613 344.065C210.688 343.878 210.735 343.747 210.753 343.673C210.791 343.579 210.847 343.439 210.921 343.253L213.889 334.629H216.409L209.157 353.949H206.609L209.073 347.649ZM224.324 348.545C223.036 348.545 221.888 348.246 220.88 347.649C219.872 347.051 219.088 346.211 218.528 345.129C217.968 344.027 217.688 342.767 217.688 341.349C217.688 339.967 217.968 338.735 218.528 337.653C219.088 336.551 219.872 335.702 220.88 335.105C221.888 334.489 223.036 334.181 224.324 334.181C225.594 334.181 226.732 334.489 227.74 335.105C228.748 335.702 229.532 336.551 230.092 337.653C230.671 338.735 230.96 339.967 230.96 341.349C230.96 342.767 230.671 344.027 230.092 345.129C229.532 346.211 228.748 347.051 227.74 347.649C226.732 348.246 225.594 348.545 224.324 348.545ZM224.324 346.669C225.164 346.669 225.892 346.445 226.508 345.997C227.143 345.549 227.628 344.923 227.964 344.121C228.3 343.318 228.468 342.394 228.468 341.349C228.468 339.762 228.086 338.493 227.32 337.541C226.574 336.57 225.575 336.085 224.324 336.085C223.503 336.085 222.775 336.309 222.14 336.757C221.506 337.186 221.02 337.802 220.684 338.605C220.348 339.389 220.18 340.303 220.18 341.349C220.18 342.954 220.554 344.242 221.3 345.213C222.047 346.183 223.055 346.669 224.324 346.669ZM234.224 334.629H236.604V335.553C236.604 335.851 236.604 336.15 236.604 336.449C236.996 335.814 237.575 335.282 238.34 334.853C239.106 334.405 239.918 334.181 240.776 334.181C241.803 334.181 242.69 334.395 243.436 334.825C244.183 335.235 244.752 335.851 245.144 336.673C245.555 337.494 245.76 338.474 245.76 339.613V348.125H243.352V339.921C243.352 338.614 243.119 337.653 242.652 337.037C242.186 336.402 241.43 336.085 240.384 336.085C239.619 336.085 238.947 336.262 238.368 336.617C237.808 336.971 237.379 337.447 237.08 338.045C236.782 338.642 236.632 339.295 236.632 340.005V348.125H234.224V334.629ZM255.412 348.545C254.068 348.545 252.902 348.265 251.912 347.705C250.942 347.145 250.186 346.323 249.644 345.241C249.122 344.158 248.86 342.851 248.86 341.321C248.86 339.958 249.131 338.735 249.672 337.653C250.232 336.57 250.998 335.721 251.968 335.105C252.958 334.489 254.059 334.181 255.272 334.181C256.598 334.181 257.727 334.479 258.66 335.077C259.594 335.655 260.303 336.486 260.788 337.569C261.274 338.633 261.516 339.893 261.516 341.349V341.825H251.268C251.287 342.833 251.474 343.701 251.828 344.429C252.202 345.157 252.696 345.717 253.312 346.109C253.947 346.482 254.656 346.669 255.44 346.669C256.355 346.669 257.139 346.463 257.792 346.053C258.446 345.623 258.847 344.923 258.996 343.953H261.376C261.283 344.793 261.003 345.558 260.536 346.249C260.07 346.939 259.398 347.499 258.52 347.929C257.662 348.339 256.626 348.545 255.412 348.545ZM258.94 340.117C258.94 338.885 258.614 337.905 257.96 337.177C257.326 336.449 256.43 336.085 255.272 336.085C254.171 336.085 253.266 336.467 252.556 337.233C251.847 337.998 251.446 338.959 251.352 340.117H258.94ZM271.467 334.629H273.875V348.125H271.467V334.629ZM271.467 346.137H273.875V348.125H271.467V346.137ZM271.467 334.629H272.671V336.617H271.467V334.629ZM271.243 329.197H274.043V332.081H271.243V329.197ZM278.029 334.629H280.409V335.553C280.409 335.851 280.409 336.15 280.409 336.449C280.801 335.814 281.38 335.282 282.145 334.853C282.91 334.405 283.722 334.181 284.581 334.181C285.608 334.181 286.494 334.395 287.241 334.825C287.988 335.235 288.557 335.851 288.949 336.673C289.36 337.494 289.565 338.474 289.565 339.613V348.125H287.157V339.921C287.157 338.614 286.924 337.653 286.457 337.037C285.99 336.402 285.234 336.085 284.189 336.085C283.424 336.085 282.752 336.262 282.173 336.617C281.613 336.971 281.184 337.447 280.885 338.045C280.586 338.642 280.437 339.295 280.437 340.005V348.125H278.029V334.629ZM303.464 347.649L298.06 334.629H300.72L304.08 343.253C304.304 343.794 304.519 344.345 304.724 344.905C304.78 344.718 304.827 344.578 304.864 344.485C304.901 344.391 304.948 344.251 305.004 344.065C305.079 343.878 305.125 343.747 305.144 343.673C305.181 343.579 305.237 343.439 305.312 343.253L308.28 334.629H310.8L303.548 353.949H301L303.464 347.649ZM318.715 348.545C317.427 348.545 316.279 348.246 315.271 347.649C314.263 347.051 313.479 346.211 312.919 345.129C312.359 344.027 312.079 342.767 312.079 341.349C312.079 339.967 312.359 338.735 312.919 337.653C313.479 336.551 314.263 335.702 315.271 335.105C316.279 334.489 317.427 334.181 318.715 334.181C319.984 334.181 321.123 334.489 322.131 335.105C323.139 335.702 323.923 336.551 324.483 337.653C325.062 338.735 325.351 339.967 325.351 341.349C325.351 342.767 325.062 344.027 324.483 345.129C323.923 346.211 323.139 347.051 322.131 347.649C321.123 348.246 319.984 348.545 318.715 348.545ZM318.715 346.669C319.555 346.669 320.283 346.445 320.899 345.997C321.534 345.549 322.019 344.923 322.355 344.121C322.691 343.318 322.859 342.394 322.859 341.349C322.859 339.762 322.476 338.493 321.711 337.541C320.964 336.57 319.966 336.085 318.715 336.085C317.894 336.085 317.166 336.309 316.531 336.757C315.896 337.186 315.411 337.802 315.075 338.605C314.739 339.389 314.571 340.303 314.571 341.349C314.571 342.954 314.944 344.242 315.691 345.213C316.438 346.183 317.446 346.669 318.715 346.669ZM333.319 348.545C332.274 348.545 331.387 348.339 330.659 347.929C329.931 347.518 329.38 346.921 329.007 346.137C328.634 345.334 328.447 344.363 328.447 343.225V334.629H330.855V342.721C330.855 344.046 331.098 345.035 331.583 345.689C332.068 346.342 332.852 346.669 333.935 346.669C334.663 346.669 335.279 346.491 335.783 346.137C336.306 345.763 336.698 345.241 336.959 344.569C337.239 343.878 337.379 343.047 337.379 342.077V334.629H339.759V348.125H337.407V347.313C337.407 347.033 337.407 346.762 337.407 346.501V346.249C337.09 346.958 336.558 347.518 335.811 347.929C335.064 348.339 334.234 348.545 333.319 348.545ZM343.9 334.629H346.308V335.217C346.308 335.758 346.308 336.309 346.308 336.869C346.663 336.066 347.204 335.422 347.932 334.937C348.679 334.433 349.547 334.181 350.536 334.181C350.797 334.181 351.003 334.19 351.152 334.209V336.589C350.891 336.551 350.639 336.533 350.396 336.533C349.519 336.533 348.772 336.701 348.156 337.037C347.559 337.354 347.101 337.849 346.784 338.521C346.467 339.174 346.308 339.995 346.308 340.985V348.125H343.9V334.629ZM357.451 334.629H360.055L362.995 344.625C363.144 345.073 363.237 345.381 363.275 345.549C363.424 345.138 363.527 344.83 363.583 344.625L366.551 334.629H369.547L372.683 344.625C372.701 344.681 372.72 344.746 372.739 344.821C372.813 345.026 372.879 345.231 372.935 345.437C372.991 345.269 373.047 345.11 373.103 344.961C373.14 344.83 373.177 344.699 373.215 344.569L376.127 334.629H378.563L374.223 348.125H371.423L368.343 337.933C368.249 337.597 368.147 337.27 368.035 336.953C367.997 337.083 367.951 337.223 367.895 337.373C367.857 337.503 367.829 337.597 367.811 337.653C367.792 337.709 367.764 337.802 367.727 337.933L364.619 348.125H361.847L357.451 334.629ZM386.692 348.545C385.404 348.545 384.256 348.246 383.248 347.649C382.24 347.051 381.456 346.211 380.896 345.129C380.336 344.027 380.056 342.767 380.056 341.349C380.056 339.967 380.336 338.735 380.896 337.653C381.456 336.551 382.24 335.702 383.248 335.105C384.256 334.489 385.404 334.181 386.692 334.181C387.961 334.181 389.1 334.489 390.108 335.105C391.116 335.702 391.9 336.551 392.46 337.653C393.038 338.735 393.328 339.967 393.328 341.349C393.328 342.767 393.038 344.027 392.46 345.129C391.9 346.211 391.116 347.051 390.108 347.649C389.1 348.246 387.961 348.545 386.692 348.545ZM386.692 346.669C387.532 346.669 388.26 346.445 388.876 345.997C389.51 345.549 389.996 344.923 390.332 344.121C390.668 343.318 390.836 342.394 390.836 341.349C390.836 339.762 390.453 338.493 389.688 337.541C388.941 336.57 387.942 336.085 386.692 336.085C385.87 336.085 385.142 336.309 384.508 336.757C383.873 337.186 383.388 337.802 383.052 338.605C382.716 339.389 382.548 340.303 382.548 341.349C382.548 342.954 382.921 344.242 383.668 345.213C384.414 346.183 385.422 346.669 386.692 346.669ZM396.592 334.629H399V335.217C399 335.758 399 336.309 399 336.869C399.354 336.066 399.896 335.422 400.624 334.937C401.37 334.433 402.238 334.181 403.228 334.181C403.489 334.181 403.694 334.19 403.844 334.209V336.589C403.582 336.551 403.33 336.533 403.088 336.533C402.21 336.533 401.464 336.701 400.848 337.037C400.25 337.354 399.793 337.849 399.476 338.521C399.158 339.174 399 339.995 399 340.985V348.125H396.592V334.629ZM406.299 328.525H408.707V340.369C409.043 339.995 409.397 339.641 409.771 339.305L414.363 334.629H417.387L408.707 343.113V348.125H406.299V328.525ZM409.603 341.657L411.255 340.061L418.171 348.125H414.895L409.603 341.657ZM424.538 348.545C423.344 348.545 422.317 348.339 421.458 347.929C420.6 347.518 419.937 346.949 419.47 346.221C419.004 345.493 418.761 344.643 418.742 343.673H421.094C421.132 344.606 421.449 345.343 422.046 345.885C422.662 346.407 423.502 346.669 424.566 346.669C425.5 346.669 426.246 346.473 426.806 346.081C427.385 345.67 427.674 345.129 427.674 344.457C427.674 343.915 427.478 343.477 427.086 343.141C426.713 342.786 426.125 342.534 425.322 342.385L423.278 341.993C421.99 341.75 420.982 341.302 420.254 340.649C419.526 339.995 419.162 339.165 419.162 338.157C419.162 337.391 419.386 336.71 419.834 336.113C420.282 335.515 420.898 335.049 421.682 334.713C422.485 334.358 423.39 334.181 424.398 334.181C425.481 334.181 426.414 334.358 427.198 334.713C427.982 335.049 428.589 335.543 429.018 336.197C429.466 336.831 429.718 337.606 429.774 338.521H427.394C427.301 337.718 426.974 337.111 426.414 336.701C425.873 336.29 425.145 336.085 424.23 336.085C423.428 336.085 422.784 336.262 422.298 336.617C421.813 336.971 421.57 337.438 421.57 338.017C421.57 338.539 421.757 338.95 422.13 339.249C422.504 339.547 423.082 339.771 423.866 339.921L425.966 340.313C427.254 340.555 428.253 340.994 428.962 341.629C429.69 342.263 430.054 343.122 430.054 344.205C430.054 345.007 429.83 345.745 429.382 346.417C428.934 347.07 428.29 347.593 427.45 347.985C426.629 348.358 425.658 348.545 424.538 348.545ZM433.342 334.629H435.75V335.609C435.75 335.889 435.75 336.178 435.75 336.477C436.16 335.842 436.767 335.301 437.57 334.853C438.372 334.405 439.25 334.181 440.202 334.181C441.471 334.181 442.572 334.489 443.506 335.105C444.458 335.721 445.176 336.57 445.662 337.653C446.166 338.735 446.418 339.967 446.418 341.349C446.418 342.767 446.156 344.018 445.634 345.101C445.111 346.183 444.374 347.033 443.422 347.649C442.47 348.246 441.378 348.545 440.146 348.545C439.194 348.545 438.335 348.339 437.57 347.929C436.804 347.518 436.198 346.958 435.75 346.249C435.75 346.622 435.75 346.995 435.75 347.369V353.949H433.342V334.629ZM439.782 346.669C440.603 346.669 441.322 346.445 441.938 345.997C442.572 345.549 443.058 344.923 443.394 344.121C443.73 343.318 443.898 342.394 443.898 341.349C443.898 340.322 443.73 339.417 443.394 338.633C443.058 337.83 442.572 337.205 441.938 336.757C441.322 336.309 440.603 336.085 439.782 336.085C438.979 336.085 438.26 336.299 437.626 336.729C436.991 337.158 436.496 337.774 436.142 338.577C435.787 339.361 435.61 340.285 435.61 341.349C435.61 342.394 435.787 343.318 436.142 344.121C436.496 344.923 436.982 345.549 437.598 345.997C438.232 346.445 438.96 346.669 439.782 346.669ZM453.529 348.545C452.67 348.545 451.886 348.377 451.177 348.041C450.468 347.705 449.908 347.229 449.497 346.613C449.086 345.978 448.881 345.25 448.881 344.429C448.881 343.215 449.292 342.263 450.113 341.573C450.953 340.882 452.036 340.434 453.361 340.229L456.245 339.781C456.749 339.706 457.104 339.566 457.309 339.361C457.514 339.155 457.617 338.847 457.617 338.437C457.617 337.709 457.365 337.139 456.861 336.729C456.357 336.299 455.704 336.085 454.901 336.085C453.893 336.085 453.118 336.337 452.577 336.841C452.036 337.326 451.746 337.998 451.709 338.857H449.301C449.338 338.017 449.572 337.242 450.001 336.533C450.43 335.823 451.046 335.254 451.849 334.825C452.67 334.395 453.622 334.181 454.705 334.181C455.806 334.181 456.749 334.386 457.533 334.797C458.336 335.207 458.942 335.795 459.353 336.561C459.764 337.326 459.969 338.231 459.969 339.277V348.125H457.673V347.453C457.673 347.061 457.673 346.678 457.673 346.305C457.337 347.014 456.805 347.565 456.077 347.957C455.368 348.349 454.518 348.545 453.529 348.545ZM453.865 346.669C454.574 346.669 455.209 346.519 455.769 346.221C456.348 345.903 456.796 345.474 457.113 344.933C457.449 344.373 457.617 343.738 457.617 343.029V341.041C457.542 341.171 457.374 341.283 457.113 341.377C456.87 341.47 456.544 341.554 456.133 341.629L454.173 341.993C453.314 342.161 452.633 342.441 452.129 342.833C451.625 343.225 451.373 343.757 451.373 344.429C451.373 345.101 451.606 345.642 452.073 346.053C452.558 346.463 453.156 346.669 453.865 346.669ZM469.763 348.545C468.513 348.545 467.374 348.274 466.347 347.733C465.339 347.191 464.537 346.379 463.939 345.297C463.361 344.214 463.071 342.898 463.071 341.349C463.071 339.949 463.37 338.707 463.967 337.625C464.565 336.542 465.377 335.702 466.403 335.105C467.449 334.489 468.606 334.181 469.875 334.181C470.939 334.181 471.901 334.386 472.759 334.797C473.618 335.207 474.309 335.786 474.831 336.533C475.354 337.279 475.662 338.157 475.755 339.165H473.263C473.151 338.25 472.787 337.513 472.171 336.953C471.574 336.374 470.79 336.085 469.819 336.085C468.979 336.085 468.233 336.318 467.579 336.785C466.945 337.233 466.45 337.858 466.095 338.661C465.741 339.463 465.563 340.359 465.563 341.349C465.563 342.413 465.741 343.346 466.095 344.149C466.45 344.951 466.954 345.577 467.607 346.025C468.261 346.454 469.017 346.669 469.875 346.669C470.865 346.669 471.677 346.398 472.311 345.857C472.946 345.315 473.329 344.559 473.459 343.589H475.839C475.746 344.578 475.447 345.446 474.943 346.193C474.458 346.939 473.777 347.518 472.899 347.929C472.022 348.339 470.977 348.545 469.763 348.545ZM484.608 348.545C483.264 348.545 482.097 348.265 481.108 347.705C480.137 347.145 479.381 346.323 478.84 345.241C478.317 344.158 478.056 342.851 478.056 341.321C478.056 339.958 478.326 338.735 478.868 337.653C479.428 336.57 480.193 335.721 481.164 335.105C482.153 334.489 483.254 334.181 484.468 334.181C485.793 334.181 486.922 334.479 487.856 335.077C488.789 335.655 489.498 336.486 489.984 337.569C490.469 338.633 490.712 339.893 490.712 341.349V341.825H480.464C480.482 342.833 480.669 343.701 481.024 344.429C481.397 345.157 481.892 345.717 482.508 346.109C483.142 346.482 483.852 346.669 484.636 346.669C485.55 346.669 486.334 346.463 486.988 346.053C487.641 345.623 488.042 344.923 488.192 343.953H490.572C490.478 344.793 490.198 345.558 489.732 346.249C489.265 346.939 488.593 347.499 487.716 347.929C486.857 348.339 485.821 348.545 484.608 348.545ZM488.136 340.117C488.136 338.885 487.809 337.905 487.156 337.177C486.521 336.449 485.625 336.085 484.468 336.085C483.366 336.085 482.461 336.467 481.752 337.233C481.042 337.998 480.641 338.959 480.548 340.117H488.136Z" fill="#0F0E0D"></path>
<path d="M467.078 259.65L518.175 293.125L493.893 298.008L480.999 319.156L467.078 259.65Z" fill="#0F0E0D" stroke="white" stroke-width="5.6729" stroke-linejoin="round"></path>
</svg>
