<svg xmlns="http://www.w3.org/2000/svg" fill="none" viewBox="0 0 675 507" height="507" width="675">
<rect fill="white" height="506.25" width="675"></rect>
<rect stroke-dasharray="6 6" stroke-width="1.5" stroke="#CCCAC6" rx="13.25" height="444.5" width="613.5" y="30.875" x="30.75"></rect>
<path stroke-linecap="square" stroke-width="2.5" stroke="#0F0E0D" d="M324.696 117.161C323.507 115.946 322.61 114.477 322.074 112.865C321.537 111.252 321.374 109.538 321.597 107.853C321.821 106.169 322.425 104.557 323.363 103.14C324.302 101.723 325.551 100.538 327.015 99.6754C328.48 98.8126 330.121 98.2944 331.816 98.1601C333.51 98.0257 335.213 98.2787 336.795 98.8998C338.377 99.5209 339.797 100.494 340.947 101.745C342.097 102.996 342.948 104.493 343.434 106.122H346.298C347.843 106.121 349.347 106.618 350.588 107.538C351.829 108.459 352.742 109.754 353.19 111.232C353.638 112.711 353.599 114.294 353.079 115.749C352.558 117.203 351.584 118.452 350.299 119.31"></path>
<path stroke-linecap="square" stroke-width="2.5" stroke="#0F0E0D" d="M337.5 116.125L337.5 130.125"></path>
<path stroke-linecap="square" stroke-width="2.5" stroke="#0F0E0D" d="M343.5 120.125L337.5 114.125L331.5 120.125"></path>
<path fill="#0F0E0D" d="M211.709 154.325H217.181C219.069 154.325 220.677 154.629 222.005 155.237C223.333 155.845 224.357 156.781 225.077 158.045C225.797 159.293 226.157 160.853 226.157 162.725C226.157 164.421 225.821 165.901 225.149 167.165C224.493 168.429 223.517 169.405 222.221 170.093C220.925 170.781 219.349 171.125 217.493 171.125H211.709V154.325ZM217.253 168.869C218.549 168.869 219.653 168.653 220.565 168.221C221.477 167.789 222.181 167.117 222.677 166.205C223.173 165.293 223.421 164.133 223.421 162.725C223.421 160.725 222.901 159.197 221.861 158.141C220.821 157.085 219.261 156.557 217.181 156.557H214.349V168.869H217.253ZM228.81 159.485H231.306V160.181C231.306 160.629 231.29 161.069 231.258 161.501C231.578 160.781 232.034 160.205 232.626 159.773C233.234 159.325 233.954 159.101 234.786 159.101C235.01 159.101 235.202 159.117 235.362 159.149V161.573C235.122 161.525 234.874 161.501 234.618 161.501C233.93 161.501 233.338 161.629 232.842 161.885C232.346 162.141 231.962 162.541 231.69 163.085C231.434 163.629 231.306 164.317 231.306 165.149V171.125H228.81V159.485ZM240.467 171.509C239.763 171.509 239.099 171.365 238.475 171.077C237.867 170.789 237.379 170.373 237.011 169.829C236.643 169.285 236.459 168.653 236.459 167.933C236.459 166.797 236.835 165.941 237.587 165.365C238.355 164.773 239.379 164.381 240.659 164.189L242.747 163.901C243.195 163.837 243.507 163.717 243.683 163.541C243.875 163.365 243.971 163.117 243.971 162.797C243.971 162.253 243.771 161.821 243.371 161.501C242.987 161.165 242.475 160.997 241.835 160.997C241.067 160.997 240.459 161.197 240.011 161.597C239.579 161.981 239.339 162.509 239.291 163.181H236.771C236.819 162.429 237.043 161.741 237.443 161.117C237.859 160.493 238.427 160.005 239.147 159.653C239.867 159.285 240.707 159.101 241.667 159.101C242.723 159.101 243.603 159.293 244.307 159.677C245.027 160.045 245.563 160.589 245.915 161.309C246.267 162.013 246.443 162.869 246.443 163.877V171.125H244.091V170.597C244.091 170.261 244.115 169.909 244.163 169.541C243.843 170.165 243.371 170.653 242.747 171.005C242.123 171.341 241.363 171.509 240.467 171.509ZM240.995 169.637C241.555 169.637 242.067 169.517 242.531 169.277C242.995 169.021 243.355 168.669 243.611 168.221C243.883 167.773 244.019 167.261 244.019 166.685V165.173C243.923 165.285 243.771 165.381 243.563 165.461C243.355 165.541 243.067 165.613 242.699 165.677L241.355 165.941C240.619 166.085 240.043 166.309 239.627 166.613C239.211 166.917 239.003 167.341 239.003 167.885C239.003 168.413 239.195 168.837 239.579 169.157C239.963 169.477 240.435 169.637 240.995 169.637ZM254.592 176.477C253.536 176.477 252.608 176.293 251.808 175.925C251.024 175.557 250.424 175.045 250.008 174.389C249.592 173.733 249.384 172.965 249.384 172.085H251.88C251.896 172.837 252.144 173.429 252.624 173.861C253.12 174.293 253.792 174.509 254.64 174.509C255.616 174.509 256.384 174.245 256.944 173.717C257.52 173.189 257.808 172.405 257.808 171.365V170.021C257.808 169.621 257.824 169.253 257.856 168.917C257.52 169.509 257.024 169.981 256.368 170.333C255.728 170.685 254.984 170.861 254.136 170.861C253.096 170.861 252.176 170.629 251.376 170.165C250.592 169.685 249.976 169.005 249.528 168.125C249.096 167.229 248.88 166.189 248.88 165.005C248.88 163.837 249.112 162.805 249.576 161.909C250.056 161.013 250.696 160.325 251.496 159.845C252.296 159.349 253.168 159.101 254.112 159.101C255.04 159.101 255.8 159.285 256.392 159.653C257 160.021 257.488 160.509 257.856 161.117C257.824 160.765 257.808 160.413 257.808 160.061V159.485H260.304V170.645C260.304 172.581 259.808 174.037 258.816 175.013C257.824 175.989 256.416 176.477 254.592 176.477ZM254.712 168.893C255.352 168.893 255.912 168.733 256.392 168.413C256.888 168.077 257.272 167.613 257.544 167.021C257.832 166.429 257.976 165.757 257.976 165.005C257.976 164.253 257.832 163.581 257.544 162.989C257.272 162.381 256.888 161.909 256.392 161.573C255.896 161.237 255.336 161.069 254.712 161.069C254.072 161.069 253.504 161.237 253.008 161.573C252.512 161.893 252.12 162.357 251.832 162.965C251.56 163.557 251.424 164.237 251.424 165.005C251.424 165.757 251.56 166.429 251.832 167.021C252.12 167.613 252.512 168.077 253.008 168.413C253.504 168.733 254.072 168.893 254.712 168.893ZM272.295 171.509C271.591 171.509 270.927 171.365 270.303 171.077C269.695 170.789 269.207 170.373 268.839 169.829C268.471 169.285 268.287 168.653 268.287 167.933C268.287 166.797 268.663 165.941 269.415 165.365C270.183 164.773 271.207 164.381 272.487 164.189L274.575 163.901C275.023 163.837 275.335 163.717 275.511 163.541C275.703 163.365 275.799 163.117 275.799 162.797C275.799 162.253 275.599 161.821 275.199 161.501C274.815 161.165 274.303 160.997 273.663 160.997C272.895 160.997 272.287 161.197 271.839 161.597C271.407 161.981 271.167 162.509 271.119 163.181H268.599C268.647 162.429 268.871 161.741 269.271 161.117C269.687 160.493 270.255 160.005 270.975 159.653C271.695 159.285 272.535 159.101 273.495 159.101C274.551 159.101 275.431 159.293 276.135 159.677C276.855 160.045 277.391 160.589 277.743 161.309C278.095 162.013 278.271 162.869 278.271 163.877V171.125H275.919V170.597C275.919 170.261 275.943 169.909 275.991 169.541C275.671 170.165 275.199 170.653 274.575 171.005C273.951 171.341 273.191 171.509 272.295 171.509ZM272.823 169.637C273.383 169.637 273.895 169.517 274.359 169.277C274.823 169.021 275.183 168.669 275.439 168.221C275.711 167.773 275.847 167.261 275.847 166.685V165.173C275.751 165.285 275.599 165.381 275.391 165.461C275.183 165.541 274.895 165.613 274.527 165.677L273.183 165.941C272.447 166.085 271.871 166.309 271.455 166.613C271.039 166.917 270.831 167.341 270.831 167.885C270.831 168.413 271.023 168.837 271.407 169.157C271.791 169.477 272.263 169.637 272.823 169.637ZM281.38 159.485H283.852V160.157C283.852 160.461 283.836 160.781 283.804 161.117C284.156 160.525 284.636 160.045 285.244 159.677C285.868 159.293 286.588 159.101 287.404 159.101C288.268 159.101 289.012 159.293 289.636 159.677C290.276 160.045 290.764 160.581 291.1 161.285C291.436 161.989 291.604 162.821 291.604 163.781V171.125H289.108V164.117C289.108 163.125 288.908 162.373 288.508 161.861C288.124 161.333 287.532 161.069 286.732 161.069C286.172 161.069 285.668 161.213 285.22 161.501C284.788 161.773 284.452 162.149 284.212 162.629C283.988 163.109 283.876 163.637 283.876 164.213V171.125H281.38V159.485ZM299.395 171.509C298.355 171.509 297.435 171.277 296.635 170.813C295.835 170.333 295.203 169.629 294.739 168.701C294.275 167.757 294.043 166.637 294.043 165.341C294.043 164.077 294.275 162.981 294.739 162.053C295.219 161.109 295.867 160.381 296.683 159.869C297.499 159.357 298.419 159.101 299.443 159.101C300.307 159.101 301.051 159.293 301.675 159.677C302.299 160.061 302.779 160.541 303.115 161.117C303.083 160.797 303.067 160.445 303.067 160.061V154.325H305.539V171.125H303.067V170.549C303.067 170.149 303.083 169.805 303.115 169.517C302.811 170.077 302.331 170.549 301.675 170.933C301.035 171.317 300.275 171.509 299.395 171.509ZM299.899 169.565C300.539 169.565 301.107 169.389 301.603 169.037C302.115 168.685 302.507 168.189 302.779 167.549C303.067 166.893 303.211 166.149 303.211 165.317C303.211 164.037 302.907 163.013 302.299 162.245C301.691 161.461 300.891 161.069 299.899 161.069C299.275 161.069 298.707 161.253 298.195 161.621C297.699 161.973 297.307 162.469 297.019 163.109C296.731 163.749 296.587 164.485 296.587 165.317C296.587 166.165 296.723 166.909 296.995 167.549C297.283 168.189 297.675 168.685 298.171 169.037C298.683 169.389 299.259 169.565 299.899 169.565ZM318.849 171.509C317.809 171.509 316.889 171.277 316.089 170.813C315.289 170.333 314.657 169.629 314.193 168.701C313.729 167.757 313.497 166.637 313.497 165.341C313.497 164.077 313.729 162.981 314.193 162.053C314.673 161.109 315.321 160.381 316.137 159.869C316.953 159.357 317.873 159.101 318.897 159.101C319.761 159.101 320.505 159.293 321.129 159.677C321.753 160.061 322.233 160.541 322.569 161.117C322.537 160.797 322.521 160.445 322.521 160.061V154.325H324.993V171.125H322.521V170.549C322.521 170.149 322.537 169.805 322.569 169.517C322.265 170.077 321.785 170.549 321.129 170.933C320.489 171.317 319.729 171.509 318.849 171.509ZM319.353 169.565C319.993 169.565 320.561 169.389 321.057 169.037C321.569 168.685 321.961 168.189 322.233 167.549C322.521 166.893 322.665 166.149 322.665 165.317C322.665 164.037 322.361 163.013 321.753 162.245C321.145 161.461 320.345 161.069 319.353 161.069C318.729 161.069 318.161 161.253 317.649 161.621C317.153 161.973 316.761 162.469 316.473 163.109C316.185 163.749 316.041 164.485 316.041 165.317C316.041 166.165 316.177 166.909 316.449 167.549C316.737 168.189 317.129 168.685 317.625 169.037C318.137 169.389 318.713 169.565 319.353 169.565ZM328.278 159.485H330.774V160.181C330.774 160.629 330.758 161.069 330.726 161.501C331.046 160.781 331.502 160.205 332.094 159.773C332.702 159.325 333.422 159.101 334.254 159.101C334.478 159.101 334.67 159.117 334.83 159.149V161.573C334.59 161.525 334.342 161.501 334.086 161.501C333.398 161.501 332.806 161.629 332.31 161.885C331.814 162.141 331.43 162.541 331.158 163.085C330.902 163.629 330.774 164.317 330.774 165.149V171.125H328.278V159.485ZM341.664 171.509C340.528 171.509 339.512 171.261 338.616 170.765C337.736 170.253 337.048 169.533 336.552 168.605C336.072 167.661 335.832 166.565 335.832 165.317C335.832 164.101 336.08 163.021 336.576 162.077C337.072 161.133 337.76 160.405 338.64 159.893C339.52 159.365 340.528 159.101 341.664 159.101C342.784 159.101 343.784 159.365 344.664 159.893C345.56 160.405 346.256 161.133 346.752 162.077C347.264 163.021 347.52 164.101 347.52 165.317C347.52 166.565 347.264 167.661 346.752 168.605C346.256 169.533 345.56 170.253 344.664 170.765C343.784 171.261 342.784 171.509 341.664 171.509ZM341.664 169.565C342.336 169.565 342.92 169.397 343.416 169.061C343.912 168.709 344.296 168.213 344.568 167.573C344.84 166.933 344.976 166.181 344.976 165.317C344.976 164.005 344.672 162.973 344.064 162.221C343.456 161.453 342.656 161.069 341.664 161.069C341.008 161.069 340.432 161.245 339.936 161.597C339.44 161.933 339.056 162.421 338.784 163.061C338.512 163.701 338.376 164.453 338.376 165.317C338.376 166.629 338.672 167.669 339.264 168.437C339.856 169.189 340.656 169.565 341.664 169.565ZM350.075 159.485H352.571V160.181C352.571 160.469 352.555 160.781 352.523 161.117C352.891 160.525 353.403 160.045 354.059 159.677C354.731 159.293 355.491 159.101 356.339 159.101C357.395 159.101 358.315 159.373 359.099 159.917C359.899 160.445 360.507 161.181 360.923 162.125C361.355 163.053 361.571 164.117 361.571 165.317C361.571 166.549 361.347 167.637 360.899 168.581C360.451 169.509 359.819 170.229 359.003 170.741C358.203 171.253 357.291 171.509 356.267 171.509C355.387 171.509 354.643 171.333 354.035 170.981C353.427 170.629 352.923 170.141 352.523 169.517C352.555 169.885 352.571 170.229 352.571 170.549V176.069H350.075V159.485ZM355.739 169.565C356.395 169.565 356.971 169.389 357.467 169.037C357.963 168.669 358.347 168.165 358.619 167.525C358.891 166.885 359.027 166.141 359.027 165.293C359.027 164.477 358.891 163.749 358.619 163.109C358.347 162.469 357.963 161.973 357.467 161.621C356.987 161.253 356.411 161.069 355.739 161.069C355.115 161.069 354.547 161.245 354.035 161.597C353.539 161.949 353.147 162.445 352.859 163.085C352.587 163.709 352.451 164.445 352.451 165.293C352.451 166.141 352.587 166.885 352.859 167.525C353.147 168.165 353.539 168.669 354.035 169.037C354.531 169.389 355.099 169.565 355.739 169.565ZM373.705 159.485H378.457V161.501H373.705V159.485ZM370.513 161.501H368.281V159.485H370.513V157.733C370.513 156.517 370.841 155.581 371.497 154.925C372.169 154.253 373.025 153.917 374.065 153.917C374.337 153.917 374.593 153.941 374.833 153.989C375.073 154.021 375.273 154.069 375.433 154.133V156.149C375.113 156.085 374.849 156.053 374.641 156.053C374.145 156.053 373.745 156.197 373.441 156.485C373.153 156.757 373.009 157.157 373.009 157.685V159.485H375.433V161.501H373.009V171.125H370.513V161.501ZM377.401 159.485H379.897V171.125H377.401V159.485ZM377.401 169.109H379.897V171.125H377.401V169.109ZM377.401 159.485H378.649V161.501H377.401V159.485ZM377.281 154.733H380.017V157.493H377.281V154.733ZM383.169 154.325H385.665V171.125H383.169V154.325ZM383.169 154.325H384.417V156.341H383.169V154.325ZM383.169 169.109H385.665V171.125H383.169V169.109ZM394.023 171.509C392.855 171.509 391.839 171.269 390.975 170.789C390.111 170.293 389.439 169.581 388.959 168.653C388.479 167.725 388.239 166.597 388.239 165.269C388.239 164.085 388.479 163.029 388.959 162.101C389.455 161.157 390.135 160.421 390.999 159.893C391.863 159.365 392.831 159.101 393.903 159.101C395.055 159.101 396.039 159.357 396.855 159.869C397.687 160.381 398.319 161.109 398.751 162.053C399.183 162.981 399.399 164.069 399.399 165.317V165.845H390.759C390.759 166.597 390.903 167.253 391.191 167.813C391.479 168.373 391.863 168.805 392.343 169.109C392.839 169.413 393.399 169.565 394.023 169.565C394.759 169.565 395.375 169.389 395.871 169.037C396.383 168.685 396.695 168.149 396.807 167.429H399.303C399.223 168.197 398.967 168.893 398.535 169.517C398.103 170.125 397.495 170.613 396.711 170.981C395.943 171.333 395.047 171.509 394.023 171.509ZM396.807 164.069C396.791 163.141 396.527 162.397 396.015 161.837C395.503 161.277 394.799 160.997 393.903 160.997C393.039 160.997 392.319 161.293 391.743 161.885C391.183 162.461 390.863 163.189 390.783 164.069H396.807ZM406.381 171.509C405.325 171.509 404.405 171.333 403.621 170.981C402.853 170.629 402.253 170.133 401.821 169.493C401.405 168.837 401.173 168.077 401.125 167.213H403.621C403.653 167.965 403.901 168.557 404.365 168.989C404.845 169.421 405.509 169.637 406.357 169.637C407.077 169.637 407.661 169.485 408.109 169.181C408.557 168.861 408.781 168.445 408.781 167.933C408.781 167.501 408.621 167.157 408.301 166.901C407.981 166.645 407.485 166.453 406.813 166.325L405.205 166.013C404.037 165.789 403.133 165.389 402.493 164.813C401.853 164.237 401.533 163.493 401.533 162.581C401.533 161.925 401.725 161.333 402.109 160.805C402.509 160.277 403.061 159.861 403.765 159.557C404.469 159.253 405.269 159.101 406.165 159.101C407.157 159.101 408.013 159.261 408.733 159.581C409.453 159.901 410.013 160.349 410.413 160.925C410.813 161.501 411.029 162.189 411.061 162.989H408.589C408.525 162.365 408.269 161.877 407.821 161.525C407.389 161.173 406.813 160.997 406.093 160.997C405.469 160.997 404.965 161.133 404.581 161.405C404.197 161.661 404.005 162.013 404.005 162.461C404.005 162.877 404.149 163.197 404.437 163.421C404.741 163.645 405.245 163.829 405.949 163.973L407.557 164.285C408.725 164.509 409.629 164.901 410.269 165.461C410.909 166.021 411.229 166.781 411.229 167.741C411.229 168.445 411.029 169.085 410.629 169.661C410.229 170.237 409.661 170.693 408.925 171.029C408.205 171.349 407.357 171.509 406.381 171.509ZM419.169 154.325H421.665V160.037C421.665 160.213 421.657 160.365 421.641 160.493C421.641 160.605 421.633 160.709 421.617 160.805C421.617 160.885 421.617 160.989 421.617 161.117C421.953 160.509 422.425 160.021 423.033 159.653C423.641 159.285 424.361 159.101 425.193 159.101C426.057 159.101 426.801 159.293 427.425 159.677C428.065 160.045 428.553 160.581 428.889 161.285C429.225 161.989 429.393 162.821 429.393 163.781V171.125H426.897V164.117C426.897 163.125 426.697 162.373 426.297 161.861C425.897 161.333 425.297 161.069 424.497 161.069C423.937 161.069 423.441 161.213 423.009 161.501C422.577 161.773 422.241 162.149 422.001 162.629C421.777 163.109 421.665 163.637 421.665 164.213V171.125H419.169V154.325ZM437.616 171.509C436.448 171.509 435.432 171.269 434.568 170.789C433.704 170.293 433.032 169.581 432.552 168.653C432.072 167.725 431.832 166.597 431.832 165.269C431.832 164.085 432.072 163.029 432.552 162.101C433.048 161.157 433.728 160.421 434.592 159.893C435.456 159.365 436.424 159.101 437.496 159.101C438.648 159.101 439.632 159.357 440.448 159.869C441.28 160.381 441.912 161.109 442.344 162.053C442.776 162.981 442.992 164.069 442.992 165.317V165.845H434.352C434.352 166.597 434.496 167.253 434.784 167.813C435.072 168.373 435.456 168.805 435.936 169.109C436.432 169.413 436.992 169.565 437.616 169.565C438.352 169.565 438.968 169.389 439.464 169.037C439.976 168.685 440.288 168.149 440.4 167.429H442.896C442.816 168.197 442.56 168.893 442.128 169.517C441.696 170.125 441.088 170.613 440.304 170.981C439.536 171.333 438.64 171.509 437.616 171.509ZM440.4 164.069C440.384 163.141 440.12 162.397 439.608 161.837C439.096 161.277 438.392 160.997 437.496 160.997C436.632 160.997 435.912 161.293 435.336 161.885C434.776 162.461 434.456 163.189 434.376 164.069H440.4ZM445.607 159.485H448.103V160.181C448.103 160.629 448.087 161.069 448.055 161.501C448.375 160.781 448.831 160.205 449.423 159.773C450.031 159.325 450.751 159.101 451.583 159.101C451.807 159.101 451.999 159.117 452.159 159.149V161.573C451.919 161.525 451.671 161.501 451.415 161.501C450.727 161.501 450.135 161.629 449.639 161.885C449.143 162.141 448.759 162.541 448.487 163.085C448.231 163.629 448.103 164.317 448.103 165.149V171.125H445.607V159.485ZM458.945 171.509C457.777 171.509 456.761 171.269 455.897 170.789C455.033 170.293 454.361 169.581 453.881 168.653C453.401 167.725 453.161 166.597 453.161 165.269C453.161 164.085 453.401 163.029 453.881 162.101C454.377 161.157 455.057 160.421 455.921 159.893C456.785 159.365 457.753 159.101 458.825 159.101C459.977 159.101 460.961 159.357 461.777 159.869C462.609 160.381 463.241 161.109 463.673 162.053C464.105 162.981 464.321 164.069 464.321 165.317V165.845H455.681C455.681 166.597 455.825 167.253 456.113 167.813C456.401 168.373 456.785 168.805 457.265 169.109C457.761 169.413 458.321 169.565 458.945 169.565C459.681 169.565 460.297 169.389 460.793 169.037C461.305 168.685 461.617 168.149 461.729 167.429H464.225C464.145 168.197 463.889 168.893 463.457 169.517C463.025 170.125 462.417 170.613 461.633 170.981C460.865 171.333 459.969 171.509 458.945 171.509ZM461.729 164.069C461.713 163.141 461.449 162.397 460.937 161.837C460.425 161.277 459.721 160.997 458.825 160.997C457.961 160.997 457.241 161.293 456.665 161.885C456.105 162.461 455.785 163.189 455.705 164.069H461.729Z"></path>
<path fill="#8F8B85" d="M226.129 197.18C226.129 196.713 226.129 196.253 226.129 195.8C225.782 196.36 225.302 196.833 224.689 197.22C224.089 197.593 223.449 197.793 222.769 197.82V196.06C223.569 195.967 224.322 195.627 225.029 195.04C225.749 194.44 226.222 193.76 226.449 193H227.889V207H226.129V197.18ZM226.129 205.46H227.889V207H226.129V205.46ZM235.849 207.3C234.782 207.3 233.862 207.013 233.089 206.44C232.329 205.867 231.749 205.04 231.349 203.96C230.962 202.867 230.769 201.553 230.769 200.02C230.769 198.5 230.969 197.193 231.369 196.1C231.782 194.993 232.369 194.147 233.129 193.56C233.902 192.973 234.809 192.68 235.849 192.68C236.876 192.68 237.769 192.973 238.529 193.56C239.302 194.133 239.896 194.973 240.309 196.08C240.722 197.173 240.929 198.487 240.929 200.02C240.929 201.553 240.722 202.867 240.309 203.96C239.909 205.053 239.329 205.887 238.569 206.46C237.809 207.02 236.902 207.3 235.849 207.3ZM235.849 205.88C236.542 205.88 237.129 205.673 237.609 205.26C238.089 204.833 238.456 204.187 238.709 203.32C238.962 202.44 239.089 201.34 239.089 200.02C239.089 198.033 238.809 196.553 238.249 195.58C237.702 194.607 236.902 194.12 235.849 194.12C235.142 194.12 234.542 194.333 234.049 194.76C233.569 195.187 233.202 195.84 232.949 196.72C232.709 197.587 232.589 198.687 232.589 200.02C232.589 201.98 232.869 203.447 233.429 204.42C234.002 205.393 234.809 205.88 235.849 205.88ZM248.115 207.3C247.048 207.3 246.128 207.013 245.355 206.44C244.595 205.867 244.015 205.04 243.615 203.96C243.228 202.867 243.035 201.553 243.035 200.02C243.035 198.5 243.235 197.193 243.635 196.1C244.048 194.993 244.635 194.147 245.395 193.56C246.168 192.973 247.075 192.68 248.115 192.68C249.141 192.68 250.035 192.973 250.795 193.56C251.568 194.133 252.161 194.973 252.575 196.08C252.988 197.173 253.195 198.487 253.195 200.02C253.195 201.553 252.988 202.867 252.575 203.96C252.175 205.053 251.595 205.887 250.835 206.46C250.075 207.02 249.168 207.3 248.115 207.3ZM248.115 205.88C248.808 205.88 249.395 205.673 249.875 205.26C250.355 204.833 250.721 204.187 250.975 203.32C251.228 202.44 251.355 201.34 251.355 200.02C251.355 198.033 251.075 196.553 250.515 195.58C249.968 194.607 249.168 194.12 248.115 194.12C247.408 194.12 246.808 194.333 246.315 194.76C245.835 195.187 245.468 195.84 245.215 196.72C244.975 197.587 244.855 198.687 244.855 200.02C244.855 201.98 245.135 203.447 245.695 204.42C246.268 205.393 247.075 205.88 248.115 205.88ZM260.786 193H263.626L267.826 203.66C268.026 204.167 268.226 204.673 268.426 205.18C268.466 205.087 268.5 204.993 268.526 204.9C268.633 204.62 268.713 204.413 268.766 204.28C268.82 204.133 268.9 203.927 269.006 203.66L273.166 193H275.966V207H274.166V196.48C274.166 195.893 274.166 195.313 274.166 194.74L269.406 207H267.366L262.586 194.76C262.586 195.333 262.586 195.907 262.586 196.48V207H260.786V193ZM279.575 193H285.035C286.395 193 287.475 193.293 288.275 193.88C289.075 194.467 289.475 195.347 289.475 196.52C289.475 197.253 289.249 197.9 288.795 198.46C288.355 199.007 287.802 199.387 287.135 199.6C287.975 199.867 288.629 200.3 289.095 200.9C289.575 201.487 289.815 202.207 289.815 203.06C289.815 204.047 289.575 204.833 289.095 205.42C288.615 205.993 287.982 206.4 287.195 206.64C286.409 206.88 285.515 207 284.515 207H279.575V193ZM284.815 205.46C285.895 205.46 286.689 205.253 287.195 204.84C287.702 204.427 287.955 203.8 287.955 202.96C287.955 202.173 287.709 201.56 287.215 201.12C286.722 200.667 285.895 200.44 284.735 200.44H281.395V205.46H284.815ZM284.775 198.9C285.375 198.9 285.889 198.813 286.315 198.64C286.742 198.467 287.062 198.213 287.275 197.88C287.502 197.533 287.615 197.127 287.615 196.66C287.615 195.993 287.395 195.473 286.955 195.1C286.529 194.713 285.849 194.52 284.915 194.52H281.395V198.9H284.775ZM297.068 197.36H298.788V198.06C298.788 198.26 298.788 198.467 298.788 198.68C299.081 198.227 299.515 197.84 300.088 197.52C300.661 197.2 301.288 197.04 301.968 197.04C302.875 197.04 303.661 197.26 304.328 197.7C305.008 198.14 305.521 198.747 305.868 199.52C306.228 200.293 306.408 201.173 306.408 202.16C306.408 203.173 306.221 204.067 305.848 204.84C305.475 205.613 304.948 206.22 304.268 206.66C303.588 207.087 302.808 207.3 301.928 207.3C301.248 207.3 300.635 207.153 300.088 206.86C299.541 206.567 299.108 206.167 298.788 205.66C298.788 205.927 298.788 206.193 298.788 206.46V211.16H297.068V197.36ZM301.668 205.96C302.255 205.96 302.768 205.8 303.208 205.48C303.661 205.16 304.008 204.713 304.248 204.14C304.488 203.567 304.608 202.907 304.608 202.16C304.608 201.427 304.488 200.78 304.248 200.22C304.008 199.647 303.661 199.2 303.208 198.88C302.768 198.56 302.255 198.4 301.668 198.4C301.095 198.4 300.581 198.553 300.128 198.86C299.675 199.167 299.321 199.607 299.068 200.18C298.815 200.74 298.688 201.4 298.688 202.16C298.688 202.907 298.815 203.567 299.068 204.14C299.321 204.713 299.668 205.16 300.108 205.48C300.561 205.8 301.081 205.96 301.668 205.96ZM312.808 207.3C311.848 207.3 311.014 207.1 310.308 206.7C309.614 206.3 309.074 205.713 308.688 204.94C308.314 204.167 308.128 203.233 308.128 202.14C308.128 201.167 308.321 200.293 308.708 199.52C309.108 198.747 309.654 198.14 310.348 197.7C311.054 197.26 311.841 197.04 312.708 197.04C313.654 197.04 314.461 197.253 315.128 197.68C315.794 198.093 316.301 198.687 316.648 199.46C316.994 200.22 317.168 201.12 317.168 202.16V202.5H309.848C309.861 203.22 309.994 203.84 310.248 204.36C310.514 204.88 310.868 205.28 311.308 205.56C311.761 205.827 312.268 205.96 312.828 205.96C313.481 205.96 314.041 205.813 314.508 205.52C314.974 205.213 315.261 204.713 315.368 204.02H317.068C317.001 204.62 316.801 205.167 316.468 205.66C316.134 206.153 315.654 206.553 315.028 206.86C314.414 207.153 313.674 207.3 312.808 207.3ZM315.328 201.28C315.328 200.4 315.094 199.7 314.628 199.18C314.174 198.66 313.534 198.4 312.708 198.4C311.921 198.4 311.274 198.673 310.768 199.22C310.261 199.767 309.974 200.453 309.908 201.28H315.328ZM319.529 197.36H321.249V197.78C321.249 198.167 321.249 198.56 321.249 198.96C321.502 198.387 321.889 197.927 322.409 197.58C322.942 197.22 323.562 197.04 324.269 197.04C324.455 197.04 324.602 197.047 324.709 197.06V198.76C324.522 198.733 324.342 198.72 324.169 198.72C323.542 198.72 323.009 198.84 322.569 199.08C322.142 199.307 321.815 199.66 321.589 200.14C321.362 200.607 321.249 201.193 321.249 201.9V207H319.529V197.36ZM333.841 197.36H338.021V198.78H333.841V197.36ZM331.421 198.78H329.601V197.36H331.421V195.58C331.421 194.673 331.687 193.967 332.221 193.46C332.754 192.94 333.407 192.68 334.181 192.68C334.367 192.68 334.547 192.7 334.721 192.74C334.907 192.767 335.054 192.807 335.161 192.86V194.32C334.801 194.28 334.594 194.26 334.541 194.26C334.087 194.26 333.741 194.387 333.501 194.64C333.261 194.88 333.141 195.233 333.141 195.7V197.36H335.141V198.78H333.141V207H331.421V198.78ZM336.921 197.36H338.641V207H336.921V197.36ZM336.921 205.58H338.641V207H336.921V205.58ZM336.921 197.36H337.781V198.78H336.921V197.36ZM336.761 193.48H338.761V195.54H336.761V193.48ZM341.599 193H343.319V207H341.599V193ZM341.599 193H342.459V194.42H341.599V193ZM341.599 205.58H343.319V207H341.599V205.58ZM350.347 207.3C349.387 207.3 348.553 207.1 347.847 206.7C347.153 206.3 346.613 205.713 346.227 204.94C345.853 204.167 345.667 203.233 345.667 202.14C345.667 201.167 345.86 200.293 346.247 199.52C346.647 198.747 347.193 198.14 347.887 197.7C348.593 197.26 349.38 197.04 350.247 197.04C351.193 197.04 352 197.253 352.667 197.68C353.333 198.093 353.84 198.687 354.187 199.46C354.533 200.22 354.707 201.12 354.707 202.16V202.5H347.387C347.4 203.22 347.533 203.84 347.787 204.36C348.053 204.88 348.407 205.28 348.847 205.56C349.3 205.827 349.807 205.96 350.367 205.96C351.02 205.96 351.58 205.813 352.047 205.52C352.513 205.213 352.8 204.713 352.907 204.02H354.607C354.54 204.62 354.34 205.167 354.007 205.66C353.673 206.153 353.193 206.553 352.567 206.86C351.953 207.153 351.213 207.3 350.347 207.3ZM352.867 201.28C352.867 200.4 352.633 199.7 352.167 199.18C351.713 198.66 351.073 198.4 350.247 198.4C349.46 198.4 348.813 198.673 348.307 199.22C347.8 199.767 347.513 200.453 347.447 201.28H352.867ZM365.174 207.3C364.427 207.3 363.794 207.153 363.274 206.86C362.754 206.567 362.361 206.14 362.094 205.58C361.827 205.007 361.694 204.313 361.694 203.5V197.36H363.414V203.14C363.414 204.087 363.587 204.793 363.934 205.26C364.281 205.727 364.841 205.96 365.614 205.96C366.134 205.96 366.574 205.833 366.934 205.58C367.307 205.313 367.587 204.94 367.774 204.46C367.974 203.967 368.074 203.373 368.074 202.68V197.36H369.774V207H368.094V206.42C368.094 206.22 368.094 206.027 368.094 205.84V205.66C367.867 206.167 367.487 206.567 366.954 206.86C366.421 207.153 365.827 207.3 365.174 207.3ZM372.732 197.36H374.452V198.06C374.452 198.26 374.452 198.467 374.452 198.68C374.745 198.227 375.179 197.84 375.752 197.52C376.325 197.2 376.952 197.04 377.632 197.04C378.539 197.04 379.325 197.26 379.992 197.7C380.672 198.14 381.185 198.747 381.532 199.52C381.892 200.293 382.072 201.173 382.072 202.16C382.072 203.173 381.885 204.067 381.512 204.84C381.139 205.613 380.612 206.22 379.932 206.66C379.252 207.087 378.472 207.3 377.592 207.3C376.912 207.3 376.299 207.153 375.752 206.86C375.205 206.567 374.772 206.167 374.452 205.66C374.452 205.927 374.452 206.193 374.452 206.46V211.16H372.732V197.36ZM377.332 205.96C377.919 205.96 378.432 205.8 378.872 205.48C379.325 205.16 379.672 204.713 379.912 204.14C380.152 203.567 380.272 202.907 380.272 202.16C380.272 201.427 380.152 200.78 379.912 200.22C379.672 199.647 379.325 199.2 378.872 198.88C378.432 198.56 377.919 198.4 377.332 198.4C376.759 198.4 376.245 198.553 375.792 198.86C375.339 199.167 374.985 199.607 374.732 200.18C374.479 200.74 374.352 201.4 374.352 202.16C374.352 202.907 374.479 203.567 374.732 204.14C374.985 204.713 375.332 205.16 375.772 205.48C376.225 205.8 376.745 205.96 377.332 205.96ZM392.285 207.16C391.485 207.16 390.825 206.94 390.305 206.5C389.798 206.047 389.545 205.32 389.545 204.32V198.78H387.745V197.36H389.545V194.18H391.265V197.36H393.265V198.78H391.265V204.14C391.265 204.673 391.385 205.053 391.625 205.28C391.878 205.507 392.231 205.62 392.685 205.62C392.885 205.62 393.125 205.6 393.405 205.56V207.04C393.231 207.08 393.051 207.107 392.865 207.12C392.678 207.147 392.485 207.16 392.285 207.16ZM399.469 207.3C398.549 207.3 397.729 207.087 397.009 206.66C396.289 206.233 395.729 205.633 395.329 204.86C394.929 204.073 394.729 203.173 394.729 202.16C394.729 201.173 394.929 200.293 395.329 199.52C395.729 198.733 396.289 198.127 397.009 197.7C397.729 197.26 398.549 197.04 399.469 197.04C400.376 197.04 401.189 197.26 401.909 197.7C402.629 198.127 403.189 198.733 403.589 199.52C404.002 200.293 404.209 201.173 404.209 202.16C404.209 203.173 404.002 204.073 403.589 204.86C403.189 205.633 402.629 206.233 401.909 206.66C401.189 207.087 400.376 207.3 399.469 207.3ZM399.469 205.96C400.069 205.96 400.589 205.8 401.029 205.48C401.482 205.16 401.829 204.713 402.069 204.14C402.309 203.567 402.429 202.907 402.429 202.16C402.429 201.027 402.156 200.12 401.609 199.44C401.076 198.747 400.362 198.4 399.469 198.4C398.882 198.4 398.362 198.56 397.909 198.88C397.456 199.187 397.109 199.627 396.869 200.2C396.629 200.76 396.509 201.413 396.509 202.16C396.509 203.307 396.776 204.227 397.309 204.92C397.842 205.613 398.562 205.96 399.469 205.96ZM415.407 207.3C414.46 207.3 413.633 207.133 412.927 206.8C412.22 206.453 411.673 205.98 411.287 205.38C410.913 204.767 410.727 204.06 410.727 203.26H412.527C412.527 204.06 412.773 204.7 413.267 205.18C413.773 205.647 414.467 205.88 415.347 205.88C416.013 205.88 416.587 205.74 417.067 205.46C417.547 205.18 417.913 204.78 418.167 204.26C418.42 203.74 418.547 203.133 418.547 202.44C418.547 201.427 418.28 200.613 417.747 200C417.227 199.387 416.507 199.08 415.587 199.08C414.893 199.08 414.273 199.273 413.727 199.66C413.18 200.047 412.813 200.473 412.627 200.94H410.947L411.967 193H419.587V194.6H413.287L412.827 198.14L412.787 198.46C412.773 198.62 412.76 198.74 412.747 198.82C412.733 198.9 412.72 199.02 412.707 199.18C413.067 198.713 413.54 198.347 414.127 198.08C414.713 197.8 415.34 197.66 416.007 197.66C416.847 197.66 417.6 197.867 418.267 198.28C418.933 198.68 419.447 199.24 419.807 199.96C420.18 200.667 420.367 201.453 420.367 202.32C420.367 203.293 420.16 204.16 419.747 204.92C419.333 205.667 418.753 206.253 418.007 206.68C417.26 207.093 416.393 207.3 415.407 207.3ZM433.539 207.3C432.206 207.3 431.032 206.987 430.019 206.36C429.019 205.733 428.246 204.873 427.699 203.78C427.166 202.673 426.899 201.44 426.899 200.08C426.899 198.533 427.206 197.2 427.819 196.08C428.432 194.96 429.252 194.113 430.279 193.54C431.319 192.967 432.459 192.68 433.699 192.68C434.712 192.68 435.632 192.867 436.459 193.24C437.299 193.613 437.972 194.133 438.479 194.8C438.999 195.453 439.312 196.207 439.419 197.06H437.479C437.332 196.22 436.912 195.54 436.219 195.02C435.526 194.487 434.686 194.22 433.699 194.22C432.752 194.22 431.912 194.447 431.179 194.9C430.446 195.34 429.866 196 429.439 196.88C429.026 197.76 428.819 198.827 428.819 200.08C428.819 201.16 429.019 202.133 429.419 203C429.819 203.867 430.379 204.547 431.099 205.04C431.832 205.533 432.666 205.78 433.599 205.78C434.466 205.78 435.212 205.62 435.839 205.3C436.466 204.967 436.952 204.48 437.299 203.84C437.646 203.2 437.819 202.413 437.819 201.48V200.42L438.619 201.22H433.419V199.68H439.479V207H437.979V206.38C437.979 206.087 437.979 205.867 437.979 205.72C437.979 205.573 437.979 205.353 437.979 205.06C437.592 205.713 436.992 206.253 436.179 206.68C435.379 207.093 434.499 207.3 433.539 207.3ZM442.505 193H447.965C449.325 193 450.405 193.293 451.205 193.88C452.005 194.467 452.405 195.347 452.405 196.52C452.405 197.253 452.178 197.9 451.725 198.46C451.285 199.007 450.732 199.387 450.065 199.6C450.905 199.867 451.558 200.3 452.025 200.9C452.505 201.487 452.745 202.207 452.745 203.06C452.745 204.047 452.505 204.833 452.025 205.42C451.545 205.993 450.912 206.4 450.125 206.64C449.338 206.88 448.445 207 447.445 207H442.505V193ZM447.745 205.46C448.825 205.46 449.618 205.253 450.125 204.84C450.632 204.427 450.885 203.8 450.885 202.96C450.885 202.173 450.638 201.56 450.145 201.12C449.652 200.667 448.825 200.44 447.665 200.44H444.325V205.46H447.745ZM447.705 198.9C448.305 198.9 448.818 198.813 449.245 198.64C449.672 198.467 449.992 198.213 450.205 197.88C450.432 197.533 450.545 197.127 450.545 196.66C450.545 195.993 450.325 195.473 449.885 195.1C449.458 194.713 448.778 194.52 447.845 194.52H444.325V198.9H447.705Z"></path>
<path fill="#8F8B85" d="M334.538 263.3C333.618 263.3 332.798 263.087 332.078 262.66C331.358 262.233 330.798 261.633 330.398 260.86C329.998 260.073 329.798 259.173 329.798 258.16C329.798 257.173 329.998 256.293 330.398 255.52C330.798 254.733 331.358 254.127 332.078 253.7C332.798 253.26 333.618 253.04 334.538 253.04C335.444 253.04 336.258 253.26 336.978 253.7C337.698 254.127 338.258 254.733 338.658 255.52C339.071 256.293 339.278 257.173 339.278 258.16C339.278 259.173 339.071 260.073 338.658 260.86C338.258 261.633 337.698 262.233 336.978 262.66C336.258 263.087 335.444 263.3 334.538 263.3ZM334.538 261.96C335.138 261.96 335.658 261.8 336.098 261.48C336.551 261.16 336.898 260.713 337.138 260.14C337.378 259.567 337.498 258.907 337.498 258.16C337.498 257.027 337.224 256.12 336.678 255.44C336.144 254.747 335.431 254.4 334.538 254.4C333.951 254.4 333.431 254.56 332.978 254.88C332.524 255.187 332.178 255.627 331.938 256.2C331.698 256.76 331.577 257.413 331.577 258.16C331.577 259.307 331.844 260.227 332.378 260.92C332.911 261.613 333.631 261.96 334.538 261.96ZM341.609 253.36H343.329V253.78C343.329 254.167 343.329 254.56 343.329 254.96C343.582 254.387 343.969 253.927 344.489 253.58C345.022 253.22 345.642 253.04 346.349 253.04C346.536 253.04 346.682 253.047 346.789 253.06V254.76C346.602 254.733 346.422 254.72 346.249 254.72C345.622 254.72 345.089 254.84 344.649 255.08C344.222 255.307 343.896 255.66 343.669 256.14C343.442 256.607 343.329 257.193 343.329 257.9V263H341.609V253.36Z"></path>
<rect fill="white" rx="7.5" height="47" width="270.5" y="338.625" x="60.5"></rect>
<rect stroke="#CCCAC6" rx="7.5" height="47" width="270.5" y="338.625" x="60.5"></rect>
<path stroke-linecap="square" stroke-width="1.75" stroke="#0F0E0D" d="M148.418 360.958V370.292H167.085V360.958"></path>
<path stroke-linecap="square" stroke-width="1.75" stroke="#0F0E0D" d="M157.749 364.458V352.792M157.749 352.792L153.082 357.458M157.749 352.792L162.415 357.458"></path>
<path fill="#0F0E0D" d="M190.67 368.425C189.563 368.425 188.617 368.212 187.83 367.785C187.057 367.358 186.457 366.718 186.03 365.865C185.617 365.012 185.41 363.945 185.41 362.665V354.125H187.23V362.425C187.23 363.452 187.357 364.298 187.61 364.965C187.877 365.618 188.263 366.105 188.77 366.425C189.277 366.745 189.91 366.905 190.67 366.905C191.817 366.905 192.677 366.545 193.25 365.825C193.837 365.092 194.13 363.958 194.13 362.425V354.125H195.95V362.665C195.95 364.572 195.49 366.012 194.57 366.985C193.65 367.945 192.35 368.425 190.67 368.425ZM198.96 358.485H200.68V359.185C200.68 359.385 200.68 359.592 200.68 359.805C200.974 359.352 201.407 358.965 201.98 358.645C202.554 358.325 203.18 358.165 203.86 358.165C204.767 358.165 205.554 358.385 206.22 358.825C206.9 359.265 207.414 359.872 207.76 360.645C208.12 361.418 208.3 362.298 208.3 363.285C208.3 364.298 208.114 365.192 207.74 365.965C207.367 366.738 206.84 367.345 206.16 367.785C205.48 368.212 204.7 368.425 203.82 368.425C203.14 368.425 202.527 368.278 201.98 367.985C201.434 367.692 201 367.292 200.68 366.785C200.68 367.052 200.68 367.318 200.68 367.585V372.285H198.96V358.485ZM203.56 367.085C204.147 367.085 204.66 366.925 205.1 366.605C205.554 366.285 205.9 365.838 206.14 365.265C206.38 364.692 206.5 364.032 206.5 363.285C206.5 362.552 206.38 361.905 206.14 361.345C205.9 360.772 205.554 360.325 205.1 360.005C204.66 359.685 204.147 359.525 203.56 359.525C202.987 359.525 202.474 359.678 202.02 359.985C201.567 360.292 201.214 360.732 200.96 361.305C200.707 361.865 200.58 362.525 200.58 363.285C200.58 364.032 200.707 364.692 200.96 365.265C201.214 365.838 201.56 366.285 202 366.605C202.454 366.925 202.974 367.085 203.56 367.085ZM210.64 354.125H212.36V368.125H210.64V354.125ZM210.64 354.125H211.5V355.545H210.64V354.125ZM210.64 366.705H212.36V368.125H210.64V366.705ZM219.448 368.425C218.528 368.425 217.708 368.212 216.988 367.785C216.268 367.358 215.708 366.758 215.308 365.985C214.908 365.198 214.708 364.298 214.708 363.285C214.708 362.298 214.908 361.418 215.308 360.645C215.708 359.858 216.268 359.252 216.988 358.825C217.708 358.385 218.528 358.165 219.448 358.165C220.354 358.165 221.168 358.385 221.888 358.825C222.608 359.252 223.168 359.858 223.568 360.645C223.981 361.418 224.188 362.298 224.188 363.285C224.188 364.298 223.981 365.198 223.568 365.985C223.168 366.758 222.608 367.358 221.888 367.785C221.168 368.212 220.354 368.425 219.448 368.425ZM219.448 367.085C220.048 367.085 220.568 366.925 221.008 366.605C221.461 366.285 221.808 365.838 222.048 365.265C222.288 364.692 222.408 364.032 222.408 363.285C222.408 362.152 222.134 361.245 221.588 360.565C221.054 359.872 220.341 359.525 219.448 359.525C218.861 359.525 218.341 359.685 217.888 360.005C217.434 360.312 217.088 360.752 216.848 361.325C216.608 361.885 216.488 362.538 216.488 363.285C216.488 364.432 216.754 365.352 217.288 366.045C217.821 366.738 218.541 367.085 219.448 367.085ZM229.259 368.425C228.646 368.425 228.086 368.305 227.579 368.065C227.072 367.825 226.672 367.485 226.379 367.045C226.086 366.592 225.939 366.072 225.939 365.485C225.939 364.618 226.232 363.938 226.819 363.445C227.419 362.952 228.192 362.632 229.139 362.485L231.199 362.165C231.559 362.112 231.812 362.012 231.959 361.865C232.106 361.718 232.179 361.498 232.179 361.205C232.179 360.685 231.999 360.278 231.639 359.985C231.279 359.678 230.812 359.525 230.239 359.525C229.519 359.525 228.966 359.705 228.579 360.065C228.192 360.412 227.986 360.892 227.959 361.505H226.239C226.266 360.905 226.432 360.352 226.739 359.845C227.046 359.338 227.486 358.932 228.059 358.625C228.646 358.318 229.326 358.165 230.099 358.165C230.886 358.165 231.559 358.312 232.119 358.605C232.692 358.898 233.126 359.318 233.419 359.865C233.712 360.412 233.859 361.058 233.859 361.805V368.125H232.219V367.645C232.219 367.365 232.219 367.092 232.219 366.825C231.979 367.332 231.599 367.725 231.079 368.005C230.572 368.285 229.966 368.425 229.259 368.425ZM229.499 367.085C230.006 367.085 230.459 366.978 230.859 366.765C231.272 366.538 231.592 366.232 231.819 365.845C232.059 365.445 232.179 364.992 232.179 364.485V363.065C232.126 363.158 232.006 363.238 231.819 363.305C231.646 363.372 231.412 363.432 231.119 363.485L229.719 363.745C229.106 363.865 228.619 364.065 228.259 364.345C227.899 364.625 227.719 365.005 227.719 365.485C227.719 365.965 227.886 366.352 228.219 366.645C228.566 366.938 228.992 367.085 229.499 367.085ZM240.515 368.425C239.662 368.425 238.902 368.225 238.235 367.825C237.568 367.425 237.042 366.838 236.655 366.065C236.268 365.292 236.075 364.372 236.075 363.305C236.075 362.332 236.255 361.458 236.615 360.685C236.988 359.898 237.515 359.285 238.195 358.845C238.875 358.392 239.662 358.165 240.555 358.165C241.288 358.165 241.922 358.332 242.455 358.665C243.002 358.985 243.402 359.358 243.655 359.785C243.655 359.518 243.655 359.258 243.655 359.005V354.125H245.375V368.125H243.655V367.565C243.655 367.298 243.655 367.038 243.655 366.785C243.388 367.252 242.968 367.645 242.395 367.965C241.835 368.272 241.208 368.425 240.515 368.425ZM240.815 367.085C241.388 367.085 241.895 366.932 242.335 366.625C242.788 366.305 243.142 365.858 243.395 365.285C243.648 364.712 243.775 364.045 243.775 363.285C243.775 362.152 243.502 361.245 242.955 360.565C242.408 359.872 241.695 359.525 240.815 359.525C240.242 359.525 239.728 359.685 239.275 360.005C238.835 360.312 238.488 360.752 238.235 361.325C237.982 361.898 237.855 362.558 237.855 363.305C237.855 364.052 237.975 364.712 238.215 365.285C238.468 365.858 238.815 366.305 239.255 366.625C239.708 366.932 240.228 367.085 240.815 367.085Z"></path>
<rect fill="white" rx="7.5" height="47" width="270.5" y="338.625" x="344"></rect>
<rect stroke="#CCCAC6" rx="7.5" height="47" width="270.5" y="338.625" x="344"></rect>
<g clip-path="url(#clip0_5059_67753)">
<path fill="#0066DA" d="M437.867 371.058L439.102 373.19C439.358 373.64 439.727 373.992 440.16 374.249L444.57 366.615H435.75C435.75 367.113 435.878 367.61 436.135 368.059L437.867 371.058Z"></path>
<path fill="#00AC47" d="M449.75 357.635L445.34 350.001C444.907 350.258 444.538 350.611 444.282 351.06L436.135 365.172C435.883 365.612 435.75 366.109 435.75 366.615H444.57L449.75 357.635Z"></path>
<path fill="#EA4335" d="M459.34 374.249C459.773 373.992 460.142 373.64 460.399 373.19L460.912 372.308L463.366 368.059C463.622 367.61 463.75 367.113 463.75 366.615H454.93L456.807 370.304L459.34 374.249Z"></path>
<path fill="#00832D" d="M449.75 357.635L454.16 350.001C453.727 349.745 453.23 349.617 452.717 349.617H446.783C446.27 349.617 445.773 349.761 445.34 350.001L449.75 357.635Z"></path>
<path fill="#2684FC" d="M454.93 366.615H444.57L440.16 374.249C440.593 374.505 441.09 374.634 441.603 374.634H457.897C458.41 374.634 458.907 374.489 459.34 374.249L454.93 366.615Z"></path>
<path fill="#FFBA00" d="M459.292 358.116L455.218 351.06C454.962 350.611 454.593 350.258 454.16 350.002L449.75 357.635L454.93 366.616H463.734C463.734 366.118 463.606 365.621 463.349 365.172L459.292 358.116Z"></path>
</g>
<path fill="#0F0E0D" d="M477.55 354.125H481.75C483.31 354.125 484.643 354.365 485.75 354.845C486.87 355.325 487.737 356.085 488.35 357.125C488.963 358.165 489.27 359.492 489.27 361.105C489.27 362.532 488.997 363.772 488.45 364.825C487.917 365.878 487.123 366.692 486.07 367.265C485.017 367.838 483.723 368.125 482.19 368.125H477.55V354.125ZM481.97 366.585C483.117 366.585 484.09 366.398 484.89 366.025C485.69 365.652 486.303 365.058 486.73 364.245C487.157 363.432 487.37 362.385 487.37 361.105C487.37 359.318 486.923 357.965 486.03 357.045C485.137 356.112 483.757 355.645 481.89 355.645H479.37V366.585H481.97ZM491.683 358.485H493.403V358.905C493.403 359.292 493.403 359.685 493.403 360.085C493.656 359.512 494.043 359.052 494.563 358.705C495.096 358.345 495.716 358.165 496.423 358.165C496.61 358.165 496.756 358.172 496.863 358.185V359.885C496.676 359.858 496.496 359.845 496.323 359.845C495.696 359.845 495.163 359.965 494.723 360.205C494.296 360.432 493.97 360.785 493.743 361.265C493.516 361.732 493.403 362.318 493.403 363.025V368.125H491.683V358.485ZM498.617 358.485H500.337V368.125H498.617V358.485ZM498.617 366.705H500.337V368.125H498.617V366.705ZM498.617 358.485H499.477V359.905H498.617V358.485ZM498.457 354.605H500.457V356.665H498.457V354.605ZM502.104 358.485H503.984L506.444 365.465C506.551 365.772 506.658 366.085 506.764 366.405C506.871 366.085 506.978 365.772 507.084 365.465L509.484 358.485H511.284L507.624 368.125H505.804L502.104 358.485ZM516.915 368.425C515.955 368.425 515.122 368.225 514.415 367.825C513.722 367.425 513.182 366.838 512.795 366.065C512.422 365.292 512.235 364.358 512.235 363.265C512.235 362.292 512.428 361.418 512.815 360.645C513.215 359.872 513.762 359.265 514.455 358.825C515.162 358.385 515.948 358.165 516.815 358.165C517.762 358.165 518.568 358.378 519.235 358.805C519.902 359.218 520.408 359.812 520.755 360.585C521.102 361.345 521.275 362.245 521.275 363.285V363.625H513.955C513.968 364.345 514.102 364.965 514.355 365.485C514.622 366.005 514.975 366.405 515.415 366.685C515.868 366.952 516.375 367.085 516.935 367.085C517.588 367.085 518.148 366.938 518.615 366.645C519.082 366.338 519.368 365.838 519.475 365.145H521.175C521.108 365.745 520.908 366.292 520.575 366.785C520.242 367.278 519.762 367.678 519.135 367.985C518.522 368.278 517.782 368.425 516.915 368.425ZM519.435 362.405C519.435 361.525 519.202 360.825 518.735 360.305C518.282 359.785 517.642 359.525 516.815 359.525C516.028 359.525 515.382 359.798 514.875 360.345C514.368 360.892 514.082 361.578 514.015 362.405H519.435Z"></path>
<rect fill="white" rx="7.5" height="47" width="270.5" y="398.625" x="60.5"></rect>
<rect stroke="#CCCAC6" rx="7.5" height="47" width="270.5" y="398.625" x="60.5"></rect>
<path fill="#6763FB" d="M152.38 411.44C146.65 410.565 142.072 414.16 139.936 419.383C133.868 434.254 160.277 431.873 164.563 421.81C166.222 417.493 156.436 412.055 152.38 411.44Z"></path>
<path fill="#47B9E7" d="M148.385 429.953C141.994 429.953 136.894 426.834 139.936 419.383C141.503 415.558 144.391 412.593 148.078 411.64C146.542 411.241 144.975 411.026 143.392 411.01C142.086 410.995 140.781 411.195 139.536 411.625C134.651 413.622 137.14 424.545 139.813 428.386C142.255 431.858 145.973 433.24 149.875 433.24C152.764 433.194 155.606 432.549 158.217 431.32C162.796 429.215 164.148 426.419 163.518 423.577C160.553 427.556 153.977 429.953 148.385 429.953Z"></path>
<path fill="#1A40CD" d="M148.077 411.64C144.39 412.593 141.501 415.542 139.934 419.383C136.893 426.834 141.993 429.953 148.384 429.953C153.976 429.953 160.551 427.556 163.532 423.577C162.41 418.554 155.067 413.392 148.077 411.64Z"></path>
<path fill="white" d="M153.795 418.246C152.95 418.246 152.151 418.599 151.583 419.229C150.461 418 148.556 417.923 147.342 419.03C146.713 419.598 146.359 420.397 146.359 421.242V424.929H147.942V421.242C147.926 420.458 148.556 419.813 149.34 419.798C150.123 419.782 150.768 420.412 150.784 421.196C150.784 421.211 150.784 421.226 150.784 421.242V424.929H152.366V421.242C152.351 420.458 152.981 419.813 153.764 419.798C154.548 419.782 155.193 420.412 155.208 421.196C155.208 421.211 155.208 421.226 155.208 421.242V424.929H156.791V421.242C156.791 419.598 155.454 418.246 153.795 418.246ZM145.637 416.003C145.007 416.003 144.516 416.525 144.516 417.155C144.516 417.785 145.038 418.277 145.668 418.277C146.282 418.277 146.789 417.77 146.789 417.155C146.774 416.51 146.267 416.003 145.637 416.003Z"></path>
<path fill="#0F0E0D" d="M178.23 418.485H179.95V428.125H178.23V418.485ZM178.23 426.705H179.95V428.125H178.23V426.705ZM178.23 418.485H179.09V419.905H178.23V418.485ZM178.07 414.605H180.07V416.665H178.07V414.605ZM183.238 414.125H186.078L190.278 424.785C190.478 425.292 190.678 425.798 190.878 426.305C190.918 426.212 190.951 426.118 190.978 426.025C191.084 425.745 191.164 425.538 191.218 425.405C191.271 425.258 191.351 425.052 191.458 424.785L195.618 414.125H198.418V428.125H196.618V417.605C196.618 417.018 196.618 416.438 196.618 415.865L191.858 428.125H189.818L185.038 415.885C185.038 416.458 185.038 417.032 185.038 417.605V428.125H183.238V414.125ZM204.31 428.425C203.697 428.425 203.137 428.305 202.63 428.065C202.123 427.825 201.723 427.485 201.43 427.045C201.137 426.592 200.99 426.072 200.99 425.485C200.99 424.618 201.283 423.938 201.87 423.445C202.47 422.952 203.243 422.632 204.19 422.485L206.25 422.165C206.61 422.112 206.863 422.012 207.01 421.865C207.157 421.718 207.23 421.498 207.23 421.205C207.23 420.685 207.05 420.278 206.69 419.985C206.33 419.678 205.863 419.525 205.29 419.525C204.57 419.525 204.017 419.705 203.63 420.065C203.243 420.412 203.037 420.892 203.01 421.505H201.29C201.317 420.905 201.483 420.352 201.79 419.845C202.097 419.338 202.537 418.932 203.11 418.625C203.697 418.318 204.377 418.165 205.15 418.165C205.937 418.165 206.61 418.312 207.17 418.605C207.743 418.898 208.177 419.318 208.47 419.865C208.763 420.412 208.91 421.058 208.91 421.805V428.125H207.27V427.645C207.27 427.365 207.27 427.092 207.27 426.825C207.03 427.332 206.65 427.725 206.13 428.005C205.623 428.285 205.017 428.425 204.31 428.425ZM204.55 427.085C205.057 427.085 205.51 426.978 205.91 426.765C206.323 426.538 206.643 426.232 206.87 425.845C207.11 425.445 207.23 424.992 207.23 424.485V423.065C207.177 423.158 207.057 423.238 206.87 423.305C206.697 423.372 206.463 423.432 206.17 423.485L204.77 423.745C204.157 423.865 203.67 424.065 203.31 424.345C202.95 424.625 202.77 425.005 202.77 425.485C202.77 425.965 202.937 426.352 203.27 426.645C203.617 426.938 204.043 427.085 204.55 427.085ZM211.746 418.485H213.446V419.145C213.446 419.358 213.446 419.572 213.446 419.785C213.726 419.332 214.139 418.952 214.686 418.645C215.232 418.325 215.812 418.165 216.426 418.165C217.159 418.165 217.792 418.318 218.326 418.625C218.859 418.918 219.266 419.358 219.546 419.945C219.839 420.532 219.986 421.232 219.986 422.045V428.125H218.266V422.265C218.266 421.332 218.099 420.645 217.766 420.205C217.432 419.752 216.892 419.525 216.146 419.525C215.599 419.525 215.119 419.652 214.706 419.905C214.306 420.158 213.999 420.498 213.786 420.925C213.572 421.352 213.466 421.818 213.466 422.325V428.125H211.746V418.485ZM225.56 428.425C224.947 428.425 224.387 428.305 223.88 428.065C223.373 427.825 222.973 427.485 222.68 427.045C222.387 426.592 222.24 426.072 222.24 425.485C222.24 424.618 222.533 423.938 223.12 423.445C223.72 422.952 224.493 422.632 225.44 422.485L227.5 422.165C227.86 422.112 228.113 422.012 228.26 421.865C228.407 421.718 228.48 421.498 228.48 421.205C228.48 420.685 228.3 420.278 227.94 419.985C227.58 419.678 227.113 419.525 226.54 419.525C225.82 419.525 225.267 419.705 224.88 420.065C224.493 420.412 224.287 420.892 224.26 421.505H222.54C222.567 420.905 222.733 420.352 223.04 419.845C223.347 419.338 223.787 418.932 224.36 418.625C224.947 418.318 225.627 418.165 226.4 418.165C227.187 418.165 227.86 418.312 228.42 418.605C228.993 418.898 229.427 419.318 229.72 419.865C230.013 420.412 230.16 421.058 230.16 421.805V428.125H228.52V427.645C228.52 427.365 228.52 427.092 228.52 426.825C228.28 427.332 227.9 427.725 227.38 428.005C226.873 428.285 226.267 428.425 225.56 428.425ZM225.8 427.085C226.307 427.085 226.76 426.978 227.16 426.765C227.573 426.538 227.893 426.232 228.12 425.845C228.36 425.445 228.48 424.992 228.48 424.485V423.065C228.427 423.158 228.307 423.238 228.12 423.305C227.947 423.372 227.713 423.432 227.42 423.485L226.02 423.745C225.407 423.865 224.92 424.065 224.56 424.345C224.2 424.625 224.02 425.005 224.02 425.485C224.02 425.965 224.187 426.352 224.52 426.645C224.867 426.938 225.293 427.085 225.8 427.085ZM237.016 432.585C236.176 432.585 235.436 432.438 234.796 432.145C234.169 431.852 233.682 431.438 233.336 430.905C232.989 430.372 232.816 429.752 232.816 429.045H234.516C234.516 429.698 234.742 430.225 235.196 430.625C235.649 431.038 236.262 431.245 237.036 431.245C237.956 431.245 238.669 430.992 239.176 430.485C239.682 429.992 239.936 429.245 239.936 428.245V427.065C239.936 426.852 239.936 426.638 239.936 426.425C239.682 426.918 239.269 427.312 238.696 427.605C238.122 427.885 237.482 428.025 236.776 428.025C235.896 428.025 235.122 427.825 234.456 427.425C233.802 427.025 233.296 426.458 232.936 425.725C232.576 424.978 232.396 424.112 232.396 423.125C232.396 422.152 232.589 421.292 232.976 420.545C233.362 419.785 233.889 419.198 234.556 418.785C235.236 418.372 235.996 418.165 236.836 418.165C237.569 418.165 238.196 418.325 238.716 418.645C239.236 418.952 239.642 419.332 239.936 419.785C239.936 419.518 239.936 419.258 239.936 419.005V418.485H241.656V427.645C241.656 429.298 241.269 430.532 240.496 431.345C239.722 432.172 238.562 432.585 237.016 432.585ZM237.116 426.685C237.689 426.685 238.196 426.538 238.636 426.245C239.089 425.952 239.436 425.538 239.676 425.005C239.929 424.458 240.056 423.832 240.056 423.125C240.056 422.432 239.929 421.812 239.676 421.265C239.422 420.718 239.069 420.292 238.616 419.985C238.176 419.678 237.676 419.525 237.116 419.525C236.542 419.525 236.029 419.678 235.576 419.985C235.136 420.278 234.789 420.698 234.536 421.245C234.296 421.792 234.176 422.418 234.176 423.125C234.176 423.832 234.296 424.458 234.536 425.005C234.789 425.538 235.136 425.952 235.576 426.245C236.029 426.538 236.542 426.685 237.116 426.685ZM248.677 428.425C247.717 428.425 246.883 428.225 246.177 427.825C245.483 427.425 244.943 426.838 244.557 426.065C244.183 425.292 243.997 424.358 243.997 423.265C243.997 422.292 244.19 421.418 244.577 420.645C244.977 419.872 245.523 419.265 246.217 418.825C246.923 418.385 247.71 418.165 248.577 418.165C249.523 418.165 250.33 418.378 250.997 418.805C251.663 419.218 252.17 419.812 252.517 420.585C252.863 421.345 253.037 422.245 253.037 423.285V423.625H245.717C245.73 424.345 245.863 424.965 246.117 425.485C246.383 426.005 246.737 426.405 247.177 426.685C247.63 426.952 248.137 427.085 248.697 427.085C249.35 427.085 249.91 426.938 250.377 426.645C250.843 426.338 251.13 425.838 251.237 425.145H252.937C252.87 425.745 252.67 426.292 252.337 426.785C252.003 427.278 251.523 427.678 250.897 427.985C250.283 428.278 249.543 428.425 248.677 428.425ZM251.197 422.405C251.197 421.525 250.963 420.825 250.497 420.305C250.043 419.785 249.403 419.525 248.577 419.525C247.79 419.525 247.143 419.798 246.637 420.345C246.13 420.892 245.843 421.578 245.777 422.405H251.197Z"></path>
<rect fill="white" rx="7.5" height="47" width="270.5" y="398.625" x="344"></rect>
<rect stroke="#CCCAC6" rx="7.5" height="47" width="270.5" y="398.625" x="344"></rect>
<g clip-path="url(#clip1_5059_67753)">
<path fill="#036C70" d="M424.576 424.078C428.891 424.078 432.39 420.58 432.39 416.264C432.39 411.949 428.891 408.45 424.576 408.45C420.26 408.45 416.762 411.949 416.762 416.264C416.762 420.58 420.26 424.078 424.576 424.078Z"></path>
<path fill="#1A9BA1" d="M431.089 430.59C435.044 430.59 438.251 427.383 438.251 423.427C438.251 419.471 435.044 416.264 431.089 416.264C427.133 416.264 423.926 419.471 423.926 423.427C423.926 427.383 427.133 430.59 431.089 430.59Z"></path>
<path fill="#37C6D0" d="M425.551 435.799C428.607 435.799 431.085 433.321 431.085 430.264C431.085 427.207 428.607 424.729 425.551 424.729C422.494 424.729 420.016 427.207 420.016 430.264C420.016 433.321 422.494 435.799 425.551 435.799Z"></path>
<path fill="black" d="M425.879 415.502V429.398C425.876 429.881 425.583 430.314 425.137 430.498C424.995 430.558 424.842 430.589 424.688 430.589H420.025C420.019 430.479 420.019 430.375 420.019 430.264C420.017 430.155 420.021 430.046 420.032 429.938C420.151 427.857 421.433 426.02 423.346 425.191V423.98C419.089 423.306 416.184 419.307 416.859 415.05C416.864 415.02 416.869 414.991 416.874 414.962C416.906 414.742 416.952 414.525 417.01 414.31H424.688C425.345 414.313 425.877 414.845 425.879 415.502Z" opacity="0.1"></path>
<path fill="black" d="M424.037 414.962H416.874C416.15 419.211 419.009 423.243 423.258 423.967C423.387 423.989 423.516 424.007 423.646 424.023C421.627 424.98 420.156 427.699 420.031 429.938C420.02 430.047 420.016 430.155 420.018 430.264C420.018 430.375 420.018 430.479 420.025 430.59C420.036 430.809 420.065 431.026 420.109 431.241H424.036C424.519 431.238 424.952 430.945 425.136 430.499C425.196 430.356 425.227 430.204 425.227 430.049V416.153C425.225 415.497 424.693 414.965 424.037 414.962Z" opacity="0.2"></path>
<path fill="black" d="M424.036 414.962H416.874C416.15 419.212 419.009 423.244 423.259 423.967C423.346 423.982 423.433 423.995 423.521 424.007C421.567 425.033 420.154 427.745 420.032 429.939H424.036C424.692 429.934 425.223 429.403 425.228 428.747V416.153C425.226 415.496 424.694 414.964 424.036 414.962Z" opacity="0.2"></path>
<path fill="black" d="M423.385 414.962H416.873C416.19 418.974 418.704 422.838 422.649 423.838C421.156 425.545 420.239 427.68 420.032 429.939H423.385C424.042 429.936 424.574 429.404 424.577 428.747V416.153C424.576 415.495 424.043 414.962 423.385 414.962Z" opacity="0.2"></path>
<path fill="url(#paint0_linear_5059_67753)" d="M411.444 414.962H423.382C424.041 414.962 424.576 415.496 424.576 416.155V428.094C424.576 428.753 424.041 429.287 423.382 429.287H411.444C410.784 429.287 410.25 428.753 410.25 428.094V416.155C410.25 415.496 410.784 414.962 411.444 414.962Z"></path>
<path fill="white" d="M415.582 421.979C415.302 421.793 415.068 421.546 414.899 421.257C414.734 420.954 414.652 420.613 414.661 420.269C414.646 419.803 414.804 419.347 415.103 418.989C415.418 418.631 415.825 418.366 416.279 418.222C416.797 418.052 417.34 417.968 417.886 417.974C418.603 417.947 419.319 418.048 420.002 418.27V419.768C419.705 419.588 419.382 419.456 419.045 419.377C418.678 419.287 418.303 419.242 417.925 419.243C417.528 419.228 417.132 419.312 416.775 419.486C416.499 419.605 416.32 419.877 416.319 420.178C416.318 420.36 416.388 420.536 416.514 420.668C416.664 420.823 416.84 420.949 417.035 421.04C417.252 421.148 417.578 421.292 418.012 421.471C418.06 421.486 418.106 421.505 418.151 421.527C418.579 421.694 418.991 421.897 419.383 422.135C419.681 422.318 419.93 422.569 420.111 422.868C420.297 423.206 420.387 423.589 420.372 423.975C420.393 424.454 420.247 424.925 419.958 425.307C419.67 425.659 419.285 425.918 418.851 426.052C418.34 426.212 417.807 426.289 417.272 426.281C416.792 426.283 416.313 426.244 415.84 426.164C415.44 426.099 415.05 425.984 414.679 425.823V424.244C415.034 424.497 415.43 424.687 415.851 424.804C416.27 424.934 416.705 425.004 417.144 425.011C417.55 425.037 417.955 424.95 418.316 424.762C418.569 424.619 418.722 424.349 418.716 424.059C418.718 423.858 418.638 423.664 418.494 423.522C418.316 423.347 418.11 423.203 417.884 423.096C417.624 422.966 417.24 422.794 416.734 422.581C416.331 422.419 415.945 422.217 415.582 421.979Z"></path>
</g>
<path fill="#0F0E0D" d="M456.67 428.425C455.55 428.425 454.563 428.232 453.71 427.845C452.857 427.458 452.197 426.905 451.73 426.185C451.263 425.452 451.023 424.598 451.01 423.625H452.87C452.91 424.292 453.09 424.872 453.41 425.365C453.743 425.858 454.19 426.238 454.75 426.505C455.31 426.772 455.957 426.905 456.69 426.905C457.823 426.905 458.697 426.678 459.31 426.225C459.937 425.758 460.25 425.138 460.25 424.365C460.25 423.738 460.01 423.252 459.53 422.905C459.063 422.545 458.377 422.258 457.47 422.045L455.39 421.565C454.23 421.298 453.29 420.845 452.57 420.205C451.85 419.552 451.49 418.718 451.49 417.705C451.49 416.958 451.71 416.292 452.15 415.705C452.59 415.105 453.197 414.638 453.97 414.305C454.757 413.972 455.637 413.805 456.61 413.805C457.61 413.805 458.49 413.978 459.25 414.325C460.023 414.672 460.63 415.165 461.07 415.805C461.51 416.445 461.757 417.192 461.81 418.045H459.95C459.91 417.498 459.743 417.025 459.45 416.625C459.17 416.212 458.783 415.898 458.29 415.685C457.797 415.458 457.223 415.345 456.57 415.345C455.97 415.345 455.43 415.438 454.95 415.625C454.47 415.812 454.09 416.072 453.81 416.405C453.543 416.738 453.41 417.118 453.41 417.545C453.41 418.145 453.61 418.632 454.01 419.005C454.41 419.378 455.023 419.658 455.85 419.845L458.33 420.405C459.517 420.685 460.45 421.145 461.13 421.785C461.823 422.412 462.17 423.232 462.17 424.245C462.17 425.018 461.943 425.725 461.49 426.365C461.05 426.992 460.417 427.492 459.59 427.865C458.763 428.238 457.79 428.425 456.67 428.425ZM464.464 414.125H466.184V418.965C466.184 419.085 466.184 419.205 466.184 419.325C466.184 419.432 466.184 419.512 466.184 419.565C466.184 419.605 466.184 419.678 466.184 419.785C466.451 419.305 466.851 418.918 467.384 418.625C467.918 418.318 468.504 418.165 469.144 418.165C469.878 418.165 470.511 418.318 471.044 418.625C471.578 418.918 471.984 419.358 472.264 419.945C472.558 420.532 472.704 421.232 472.704 422.045V428.125H470.984V422.265C470.984 421.332 470.811 420.645 470.464 420.205C470.118 419.752 469.564 419.525 468.804 419.525C468.271 419.525 467.804 419.652 467.404 419.905C467.018 420.158 466.718 420.498 466.504 420.925C466.291 421.352 466.184 421.818 466.184 422.325V428.125H464.464V414.125ZM478.279 428.425C477.665 428.425 477.105 428.305 476.599 428.065C476.092 427.825 475.692 427.485 475.399 427.045C475.105 426.592 474.959 426.072 474.959 425.485C474.959 424.618 475.252 423.938 475.839 423.445C476.439 422.952 477.212 422.632 478.159 422.485L480.219 422.165C480.579 422.112 480.832 422.012 480.979 421.865C481.125 421.718 481.199 421.498 481.199 421.205C481.199 420.685 481.019 420.278 480.659 419.985C480.299 419.678 479.832 419.525 479.259 419.525C478.539 419.525 477.985 419.705 477.599 420.065C477.212 420.412 477.005 420.892 476.979 421.505H475.259C475.285 420.905 475.452 420.352 475.759 419.845C476.065 419.338 476.505 418.932 477.079 418.625C477.665 418.318 478.345 418.165 479.119 418.165C479.905 418.165 480.579 418.312 481.139 418.605C481.712 418.898 482.145 419.318 482.439 419.865C482.732 420.412 482.879 421.058 482.879 421.805V428.125H481.239V427.645C481.239 427.365 481.239 427.092 481.239 426.825C480.999 427.332 480.619 427.725 480.099 428.005C479.592 428.285 478.985 428.425 478.279 428.425ZM478.519 427.085C479.025 427.085 479.479 426.978 479.879 426.765C480.292 426.538 480.612 426.232 480.839 425.845C481.079 425.445 481.199 424.992 481.199 424.485V423.065C481.145 423.158 481.025 423.238 480.839 423.305C480.665 423.372 480.432 423.432 480.139 423.485L478.739 423.745C478.125 423.865 477.639 424.065 477.279 424.345C476.919 424.625 476.739 425.005 476.739 425.485C476.739 425.965 476.905 426.352 477.239 426.645C477.585 426.938 478.012 427.085 478.519 427.085ZM485.714 418.485H487.434V418.905C487.434 419.292 487.434 419.685 487.434 420.085C487.688 419.512 488.074 419.052 488.594 418.705C489.128 418.345 489.748 418.165 490.454 418.165C490.641 418.165 490.788 418.172 490.894 418.185V419.885C490.708 419.858 490.528 419.845 490.354 419.845C489.728 419.845 489.194 419.965 488.754 420.205C488.328 420.432 488.001 420.785 487.774 421.265C487.548 421.732 487.434 422.318 487.434 423.025V428.125H485.714V418.485ZM496.474 428.425C495.514 428.425 494.68 428.225 493.974 427.825C493.28 427.425 492.74 426.838 492.354 426.065C491.98 425.292 491.794 424.358 491.794 423.265C491.794 422.292 491.987 421.418 492.374 420.645C492.774 419.872 493.32 419.265 494.014 418.825C494.72 418.385 495.507 418.165 496.374 418.165C497.32 418.165 498.127 418.378 498.794 418.805C499.46 419.218 499.967 419.812 500.314 420.585C500.66 421.345 500.834 422.245 500.834 423.285V423.625H493.514C493.527 424.345 493.66 424.965 493.914 425.485C494.18 426.005 494.534 426.405 494.974 426.685C495.427 426.952 495.934 427.085 496.494 427.085C497.147 427.085 497.707 426.938 498.174 426.645C498.64 426.338 498.927 425.838 499.034 425.145H500.734C500.667 425.745 500.467 426.292 500.134 426.785C499.8 427.278 499.32 427.678 498.694 427.985C498.08 428.278 497.34 428.425 496.474 428.425ZM498.994 422.405C498.994 421.525 498.76 420.825 498.294 420.305C497.84 419.785 497.2 419.525 496.374 419.525C495.587 419.525 494.94 419.798 494.434 420.345C493.927 420.892 493.64 421.578 493.574 422.405H498.994ZM503.515 414.125H508.975C509.868 414.125 510.668 414.252 511.375 414.505C512.095 414.745 512.675 415.165 513.115 415.765C513.555 416.352 513.775 417.132 513.775 418.105C513.775 419.078 513.562 419.858 513.135 420.445C512.708 421.032 512.135 421.452 511.415 421.705C510.708 421.945 509.895 422.065 508.975 422.065H505.335V428.125H503.515V414.125ZM508.955 420.545C509.982 420.545 510.728 420.332 511.195 419.905C511.675 419.478 511.915 418.878 511.915 418.105C511.915 417.318 511.675 416.712 511.195 416.285C510.728 415.858 509.982 415.645 508.955 415.645H505.335V420.545H508.955ZM519.463 428.425C518.543 428.425 517.723 428.212 517.003 427.785C516.283 427.358 515.723 426.758 515.323 425.985C514.923 425.198 514.723 424.298 514.723 423.285C514.723 422.298 514.923 421.418 515.323 420.645C515.723 419.858 516.283 419.252 517.003 418.825C517.723 418.385 518.543 418.165 519.463 418.165C520.37 418.165 521.183 418.385 521.903 418.825C522.623 419.252 523.183 419.858 523.583 420.645C523.997 421.418 524.203 422.298 524.203 423.285C524.203 424.298 523.997 425.198 523.583 425.985C523.183 426.758 522.623 427.358 521.903 427.785C521.183 428.212 520.37 428.425 519.463 428.425ZM519.463 427.085C520.063 427.085 520.583 426.925 521.023 426.605C521.477 426.285 521.823 425.838 522.063 425.265C522.303 424.692 522.423 424.032 522.423 423.285C522.423 422.152 522.15 421.245 521.603 420.565C521.07 419.872 520.357 419.525 519.463 419.525C518.877 419.525 518.357 419.685 517.903 420.005C517.45 420.312 517.103 420.752 516.863 421.325C516.623 421.885 516.503 422.538 516.503 423.285C516.503 424.432 516.77 425.352 517.303 426.045C517.837 426.738 518.557 427.085 519.463 427.085ZM526.535 418.485H528.255V428.125H526.535V418.485ZM526.535 426.705H528.255V428.125H526.535V426.705ZM526.535 418.485H527.395V419.905H526.535V418.485ZM526.375 414.605H528.375V416.665H526.375V414.605ZM531.222 418.485H532.922V419.145C532.922 419.358 532.922 419.572 532.922 419.785C533.202 419.332 533.616 418.952 534.162 418.645C534.709 418.325 535.289 418.165 535.902 418.165C536.636 418.165 537.269 418.318 537.802 418.625C538.336 418.918 538.742 419.358 539.022 419.945C539.316 420.532 539.462 421.232 539.462 422.045V428.125H537.742V422.265C537.742 421.332 537.576 420.645 537.242 420.205C536.909 419.752 536.369 419.525 535.622 419.525C535.076 419.525 534.596 419.652 534.182 419.905C533.782 420.158 533.476 420.498 533.262 420.925C533.049 421.352 532.942 421.818 532.942 422.325V428.125H531.222V418.485ZM545.619 428.285C544.819 428.285 544.159 428.065 543.639 427.625C543.132 427.172 542.879 426.445 542.879 425.445V419.905H541.079V418.485H542.879V415.305H544.599V418.485H546.599V419.905H544.599V425.265C544.599 425.798 544.719 426.178 544.959 426.405C545.212 426.632 545.565 426.745 546.019 426.745C546.219 426.745 546.459 426.725 546.739 426.685V428.165C546.565 428.205 546.385 428.232 546.199 428.245C546.012 428.272 545.819 428.285 545.619 428.285Z"></path>
<defs>
<linearGradient gradientUnits="userSpaceOnUse" y2="430.22" x2="422.087" y1="414.029" x1="412.739" id="paint0_linear_5059_67753">
<stop stop-color="#058F92"></stop>
<stop stop-color="#038489" offset="0.5"></stop>
<stop stop-color="#026D71" offset="1"></stop>
</linearGradient>
<clipPath id="clip0_5059_67753">
<rect transform="translate(435.75 349.616)" fill="white" height="25.0172" width="28"></rect>
</clipPath>
<clipPath id="clip1_5059_67753">
<rect transform="translate(410.25 408.45)" fill="white" height="27.3488" width="28"></rect>
</clipPath>
</defs>
</svg>
