<svg width="676" height="507" viewBox="0 0 676 507" fill="none" xmlns="http://www.w3.org/2000/svg">
<rect width="675" height="506.25" transform="translate(0.960938 0.255371)" fill="#CCCAC6"></rect>
<path fill-rule="evenodd" clip-rule="evenodd" d="M486.861 101.123L486.827 101.158C486.348 101.656 485.556 101.67 485.059 101.192C484.562 100.713 484.547 99.9213 485.026 99.4241L485.061 99.3882L486.861 101.123ZM482.648 103.694C483.145 104.173 483.16 104.965 482.681 105.462L482.612 105.533C482.133 106.031 481.342 106.045 480.845 105.567C480.348 105.088 480.333 104.296 480.812 103.799L480.881 103.727C481.36 103.23 482.151 103.215 482.648 103.694ZM478.434 108.069C478.931 108.548 478.946 109.34 478.467 109.837L478.398 109.908C477.919 110.406 477.128 110.42 476.63 109.942C476.133 109.463 476.118 108.671 476.597 108.174L476.667 108.102C477.145 107.605 477.937 107.59 478.434 108.069ZM474.22 112.444C474.717 112.923 474.732 113.715 474.253 114.212L474.184 114.283C473.705 114.781 472.913 114.795 472.416 114.317C471.919 113.838 471.904 113.046 472.383 112.549L472.452 112.477C472.931 111.98 473.722 111.965 474.22 112.444ZM470.005 116.819C470.503 117.298 470.517 118.09 470.038 118.587L469.969 118.658C469.49 119.156 468.699 119.17 468.202 118.692C467.705 118.213 467.69 117.421 468.169 116.924L468.238 116.852C468.717 116.355 469.508 116.34 470.005 116.819ZM465.791 121.194C466.288 121.673 466.303 122.465 465.824 122.962L465.755 123.033C465.276 123.531 464.485 123.545 463.988 123.067C463.49 122.588 463.476 121.796 463.955 121.299L464.024 121.227C464.503 120.73 465.294 120.715 465.791 121.194ZM461.577 125.569C462.074 126.048 462.089 126.84 461.61 127.337L461.541 127.408C461.062 127.906 460.271 127.92 459.773 127.442C459.276 126.963 459.261 126.171 459.74 125.674L459.809 125.602C460.288 125.105 461.08 125.09 461.577 125.569ZM457.363 129.944C457.86 130.423 457.875 131.215 457.396 131.712L457.327 131.783C456.848 132.281 456.056 132.295 455.559 131.817C455.062 131.338 455.047 130.546 455.526 130.049L455.595 129.977C456.074 129.48 456.865 129.465 457.363 129.944ZM453.148 134.319C453.645 134.798 453.66 135.59 453.181 136.087L453.112 136.158C452.633 136.656 451.842 136.67 451.345 136.191C450.848 135.713 450.833 134.921 451.312 134.424L451.381 134.352C451.86 133.855 452.651 133.84 453.148 134.319ZM448.934 138.694C449.431 139.173 449.446 139.965 448.967 140.462L448.898 140.533C448.419 141.031 447.628 141.045 447.131 140.566C446.633 140.088 446.618 139.296 447.097 138.799L447.167 138.727C447.645 138.23 448.437 138.215 448.934 138.694ZM444.72 143.069C445.217 143.548 445.232 144.34 444.753 144.837L444.684 144.908C444.205 145.406 443.413 145.42 442.916 144.941C442.419 144.463 442.404 143.671 442.883 143.174L442.952 143.102C443.431 142.605 444.222 142.59 444.72 143.069ZM440.505 147.444C441.003 147.923 441.017 148.714 440.538 149.212L440.469 149.283C439.99 149.781 439.199 149.795 438.702 149.316C438.205 148.838 438.19 148.046 438.669 147.549L438.738 147.477C439.217 146.98 440.008 146.965 440.505 147.444ZM436.291 151.819C436.788 152.298 436.803 153.089 436.324 153.587L436.255 153.658C435.776 154.156 434.985 154.17 434.488 153.691C433.99 153.213 433.976 152.421 434.455 151.924L434.524 151.852C435.003 151.355 435.794 151.34 436.291 151.819ZM432.077 156.194C432.574 156.673 432.589 157.464 432.11 157.962L432.041 158.033C431.562 158.531 430.771 158.545 430.273 158.066C429.776 157.588 429.761 156.796 430.24 156.299L430.309 156.227C430.788 155.73 431.58 155.715 432.077 156.194ZM427.863 160.569C428.36 161.048 428.375 161.839 427.896 162.337L427.827 162.408C427.348 162.906 426.556 162.92 426.059 162.441C425.562 161.963 425.547 161.171 426.026 160.674L426.095 160.602C426.574 160.105 427.365 160.09 427.863 160.569ZM423.648 164.944C424.145 165.423 424.16 166.214 423.681 166.712L423.612 166.783C423.133 167.281 422.342 167.295 421.845 166.816C421.348 166.338 421.333 165.546 421.812 165.049L421.881 164.977C422.36 164.48 423.151 164.465 423.648 164.944ZM419.434 169.319C419.931 169.798 419.946 170.589 419.467 171.087L419.398 171.158C418.919 171.656 418.128 171.67 417.631 171.191C417.133 170.713 417.119 169.921 417.597 169.424L417.667 169.352C418.145 168.855 418.937 168.84 419.434 169.319ZM415.22 173.694C415.717 174.173 415.732 174.964 415.253 175.462L415.184 175.533C414.705 176.031 413.913 176.045 413.416 175.566C412.919 175.088 412.904 174.296 413.383 173.799L413.452 173.727C413.931 173.23 414.723 173.215 415.22 173.694ZM411.005 178.069C411.503 178.548 411.517 179.339 411.038 179.837L410.969 179.908C410.49 180.406 409.699 180.42 409.202 179.941C408.705 179.463 408.69 178.671 409.169 178.174L409.238 178.102C409.717 177.605 410.508 177.59 411.005 178.069ZM406.791 182.444C407.288 182.923 407.303 183.715 406.824 184.212L406.755 184.283C406.276 184.781 405.485 184.795 404.988 184.316C404.49 183.838 404.476 183.046 404.955 182.549L405.024 182.477C405.503 181.98 406.294 181.965 406.791 182.444ZM402.577 186.819C403.074 187.298 403.089 188.09 402.61 188.587L402.541 188.658C402.062 189.156 401.271 189.17 400.773 188.691C400.276 188.213 400.261 187.421 400.74 186.924L400.809 186.852C401.288 186.355 402.08 186.34 402.577 186.819ZM398.363 191.194C398.86 191.673 398.875 192.465 398.396 192.962L398.327 193.033C397.848 193.531 397.056 193.545 396.559 193.066C396.062 192.588 396.047 191.796 396.526 191.299L396.595 191.227C397.074 190.73 397.865 190.715 398.363 191.194ZM394.148 195.569C394.645 196.048 394.66 196.84 394.181 197.337L394.112 197.408C393.633 197.906 392.842 197.92 392.345 197.441C391.848 196.963 391.833 196.171 392.312 195.674L392.381 195.602C392.86 195.105 393.651 195.09 394.148 195.569ZM389.934 199.944C390.431 200.423 390.446 201.215 389.967 201.712L389.898 201.783C389.419 202.281 388.628 202.295 388.131 201.816C387.633 201.338 387.618 200.546 388.097 200.049L388.167 199.977C388.645 199.48 389.437 199.465 389.934 199.944ZM385.72 204.319C386.217 204.798 386.232 205.59 385.753 206.087L385.684 206.158C385.205 206.656 384.413 206.67 383.916 206.192C383.419 205.713 383.404 204.921 383.883 204.424L383.952 204.352C384.431 203.855 385.222 203.84 385.72 204.319ZM381.505 208.694C382.003 209.173 382.017 209.965 381.538 210.462L381.469 210.533C380.99 211.031 380.199 211.045 379.702 210.567C379.205 210.088 379.19 209.296 379.669 208.799L379.738 208.727C380.217 208.23 381.008 208.215 381.505 208.694ZM377.291 213.069C377.788 213.548 377.803 214.34 377.324 214.837L377.255 214.908C376.776 215.406 375.985 215.42 375.488 214.941C374.99 214.463 374.976 213.671 375.455 213.174L375.524 213.102C376.003 212.605 376.794 212.59 377.291 213.069ZM373.077 217.444C373.574 217.923 373.589 218.715 373.11 219.212L373.041 219.283C372.562 219.781 371.771 219.795 371.273 219.316C370.776 218.838 370.761 218.046 371.24 217.549L371.309 217.477C371.788 216.98 372.58 216.965 373.077 217.444ZM368.863 221.819C369.36 222.298 369.375 223.09 368.896 223.587L368.827 223.658C368.348 224.156 367.556 224.17 367.059 223.691C366.562 223.213 366.547 222.421 367.026 221.924L367.095 221.852C367.574 221.355 368.365 221.34 368.863 221.819ZM364.648 226.194C365.145 226.673 365.16 227.465 364.681 227.962L364.612 228.033C364.133 228.531 363.342 228.545 362.845 228.066C362.348 227.588 362.333 226.796 362.812 226.299L362.881 226.227C363.36 225.73 364.151 225.715 364.648 226.194ZM360.434 230.569C360.931 231.048 360.946 231.839 360.467 232.337L360.398 232.408C359.919 232.906 359.128 232.92 358.631 232.441C358.133 231.963 358.118 231.171 358.597 230.674L358.667 230.602C359.145 230.105 359.937 230.09 360.434 230.569ZM356.22 234.944C356.717 235.423 356.732 236.214 356.253 236.712L356.184 236.783C355.705 237.281 354.913 237.295 354.416 236.816C353.919 236.338 353.904 235.546 354.383 235.049L354.452 234.977C354.931 234.48 355.722 234.465 356.22 234.944ZM352.005 239.319C352.503 239.798 352.517 240.589 352.038 241.087L351.969 241.158C351.49 241.656 350.699 241.67 350.202 241.191C349.705 240.713 349.69 239.921 350.169 239.424L350.238 239.352C350.717 238.855 351.508 238.84 352.005 239.319ZM347.791 243.694C348.288 244.173 348.303 244.964 347.824 245.462L347.755 245.533C347.276 246.031 346.485 246.045 345.988 245.566C345.49 245.088 345.476 244.296 345.955 243.799L346.024 243.727C346.503 243.23 347.294 243.215 347.791 243.694ZM343.577 248.069C344.074 248.548 344.089 249.339 343.61 249.837L343.541 249.908C343.062 250.406 342.271 250.42 341.773 249.941C341.276 249.463 341.261 248.671 341.74 248.174L341.809 248.102C342.288 247.605 343.08 247.59 343.577 248.069ZM339.363 252.444C339.86 252.923 339.875 253.714 339.396 254.212L339.361 254.248L337.561 252.513L337.595 252.477C338.074 251.98 338.865 251.965 339.363 252.444Z" fill="#8F8B85"></path>
<path fill-rule="evenodd" clip-rule="evenodd" d="M190.061 101.123L190.095 101.158C190.574 101.656 191.366 101.67 191.863 101.192C192.36 100.713 192.375 99.9213 191.896 99.4241L191.861 99.3882L190.061 101.123ZM194.274 103.694C193.776 104.173 193.762 104.965 194.241 105.462L194.31 105.533C194.789 106.031 195.58 106.045 196.077 105.567C196.574 105.088 196.589 104.296 196.11 103.799L196.041 103.727C195.562 103.23 194.771 103.215 194.274 103.694ZM198.488 108.069C197.991 108.548 197.976 109.34 198.455 109.837L198.524 109.908C199.003 110.406 199.794 110.42 200.291 109.942C200.789 109.463 200.803 108.671 200.324 108.174L200.255 108.102C199.776 107.605 198.985 107.59 198.488 108.069ZM202.702 112.444C202.205 112.923 202.19 113.715 202.669 114.212L202.738 114.283C203.217 114.781 204.008 114.795 204.506 114.317C205.003 113.838 205.018 113.046 204.539 112.549L204.47 112.477C203.991 111.98 203.199 111.965 202.702 112.444ZM206.916 116.819C206.419 117.298 206.404 118.09 206.883 118.587L206.952 118.658C207.431 119.156 208.223 119.17 208.72 118.692C209.217 118.213 209.232 117.421 208.753 116.924L208.684 116.852C208.205 116.355 207.414 116.34 206.916 116.819ZM211.131 121.194C210.634 121.673 210.619 122.465 211.098 122.962L211.167 123.033C211.646 123.531 212.437 123.545 212.934 123.067C213.431 122.588 213.446 121.796 212.967 121.299L212.898 121.227C212.419 120.73 211.628 120.715 211.131 121.194ZM215.345 125.569C214.848 126.048 214.833 126.84 215.312 127.337L215.381 127.408C215.86 127.906 216.651 127.92 217.149 127.442C217.646 126.963 217.661 126.171 217.182 125.674L217.113 125.602C216.634 125.105 215.842 125.09 215.345 125.569ZM219.559 129.944C219.062 130.423 219.047 131.215 219.526 131.712L219.595 131.783C220.074 132.281 220.866 132.295 221.363 131.817C221.86 131.338 221.875 130.546 221.396 130.049L221.327 129.977C220.848 129.48 220.057 129.465 219.559 129.944ZM223.774 134.319C223.276 134.798 223.262 135.59 223.741 136.087L223.81 136.158C224.289 136.656 225.08 136.67 225.577 136.191C226.074 135.713 226.089 134.921 225.61 134.424L225.541 134.352C225.062 133.855 224.271 133.84 223.774 134.319ZM227.988 138.694C227.491 139.173 227.476 139.965 227.955 140.462L228.024 140.533C228.503 141.031 229.294 141.045 229.791 140.566C230.289 140.088 230.303 139.296 229.824 138.799L229.755 138.727C229.276 138.23 228.485 138.215 227.988 138.694ZM232.202 143.069C231.705 143.548 231.69 144.34 232.169 144.837L232.238 144.908C232.717 145.406 233.508 145.42 234.006 144.941C234.503 144.463 234.518 143.671 234.039 143.174L233.97 143.102C233.491 142.605 232.699 142.59 232.202 143.069ZM236.416 147.444C235.919 147.923 235.904 148.714 236.383 149.212L236.452 149.283C236.931 149.781 237.723 149.795 238.22 149.316C238.717 148.838 238.732 148.046 238.253 147.549L238.184 147.477C237.705 146.98 236.914 146.965 236.416 147.444ZM240.631 151.819C240.134 152.298 240.119 153.089 240.598 153.587L240.667 153.658C241.146 154.156 241.937 154.17 242.434 153.691C242.931 153.213 242.946 152.421 242.467 151.924L242.398 151.852C241.919 151.355 241.128 151.34 240.631 151.819ZM244.845 156.194C244.348 156.673 244.333 157.464 244.812 157.962L244.881 158.033C245.36 158.531 246.151 158.545 246.648 158.066C247.146 157.588 247.161 156.796 246.682 156.299L246.612 156.227C246.134 155.73 245.342 155.715 244.845 156.194ZM249.059 160.569C248.562 161.048 248.547 161.839 249.026 162.337L249.095 162.408C249.574 162.906 250.366 162.92 250.863 162.441C251.36 161.963 251.375 161.171 250.896 160.674L250.827 160.602C250.348 160.105 249.557 160.09 249.059 160.569ZM253.274 164.944C252.776 165.423 252.762 166.214 253.241 166.712L253.31 166.783C253.789 167.281 254.58 167.295 255.077 166.816C255.574 166.338 255.589 165.546 255.11 165.049L255.041 164.977C254.562 164.48 253.771 164.465 253.274 164.944ZM257.488 169.319C256.991 169.798 256.976 170.589 257.455 171.087L257.524 171.158C258.003 171.656 258.794 171.67 259.291 171.191C259.789 170.713 259.803 169.921 259.324 169.424L259.255 169.352C258.776 168.855 257.985 168.84 257.488 169.319ZM261.702 173.694C261.205 174.173 261.19 174.964 261.669 175.462L261.738 175.533C262.217 176.031 263.008 176.045 263.506 175.566C264.003 175.088 264.018 174.296 263.539 173.799L263.47 173.727C262.991 173.23 262.199 173.215 261.702 173.694ZM265.916 178.069C265.419 178.548 265.404 179.339 265.883 179.837L265.952 179.908C266.431 180.406 267.223 180.42 267.72 179.941C268.217 179.463 268.232 178.671 267.753 178.174L267.684 178.102C267.205 177.605 266.414 177.59 265.916 178.069ZM270.131 182.444C269.634 182.923 269.619 183.715 270.098 184.212L270.167 184.283C270.646 184.781 271.437 184.795 271.934 184.316C272.431 183.838 272.446 183.046 271.967 182.549L271.898 182.477C271.419 181.98 270.628 181.965 270.131 182.444ZM274.345 186.819C273.848 187.298 273.833 188.09 274.312 188.587L274.381 188.658C274.86 189.156 275.651 189.17 276.149 188.691C276.646 188.213 276.661 187.421 276.182 186.924L276.112 186.852C275.634 186.355 274.842 186.34 274.345 186.819ZM278.559 191.194C278.062 191.673 278.047 192.465 278.526 192.962L278.595 193.033C279.074 193.531 279.866 193.545 280.363 193.066C280.86 192.588 280.875 191.796 280.396 191.299L280.327 191.227C279.848 190.73 279.057 190.715 278.559 191.194ZM282.774 195.569C282.276 196.048 282.262 196.84 282.741 197.337L282.81 197.408C283.289 197.906 284.08 197.92 284.577 197.441C285.074 196.963 285.089 196.171 284.61 195.674L284.541 195.602C284.062 195.105 283.271 195.09 282.774 195.569ZM286.988 199.944C286.491 200.423 286.476 201.215 286.955 201.712L287.024 201.783C287.503 202.281 288.294 202.295 288.791 201.816C289.289 201.338 289.303 200.546 288.824 200.049L288.755 199.977C288.276 199.48 287.485 199.465 286.988 199.944ZM291.202 204.319C290.705 204.798 290.69 205.59 291.169 206.087L291.238 206.158C291.717 206.656 292.508 206.67 293.006 206.192C293.503 205.713 293.518 204.921 293.039 204.424L292.97 204.352C292.491 203.855 291.699 203.84 291.202 204.319ZM295.416 208.694C294.919 209.173 294.904 209.965 295.383 210.462L295.452 210.533C295.931 211.031 296.723 211.045 297.22 210.567C297.717 210.088 297.732 209.296 297.253 208.799L297.184 208.727C296.705 208.23 295.914 208.215 295.416 208.694ZM299.631 213.069C299.134 213.548 299.119 214.34 299.598 214.837L299.667 214.908C300.146 215.406 300.937 215.42 301.434 214.941C301.931 214.463 301.946 213.671 301.467 213.174L301.398 213.102C300.919 212.605 300.128 212.59 299.631 213.069ZM303.845 217.444C303.348 217.923 303.333 218.715 303.812 219.212L303.881 219.283C304.36 219.781 305.151 219.795 305.649 219.316C306.146 218.838 306.161 218.046 305.682 217.549L305.612 217.477C305.134 216.98 304.342 216.965 303.845 217.444ZM308.059 221.819C307.562 222.298 307.547 223.09 308.026 223.587L308.095 223.658C308.574 224.156 309.366 224.17 309.863 223.691C310.36 223.213 310.375 222.421 309.896 221.924L309.827 221.852C309.348 221.355 308.557 221.34 308.059 221.819ZM312.274 226.194C311.776 226.673 311.762 227.465 312.241 227.962L312.31 228.033C312.789 228.531 313.58 228.545 314.077 228.066C314.574 227.588 314.589 226.796 314.11 226.299L314.041 226.227C313.562 225.73 312.771 225.715 312.274 226.194ZM316.488 230.569C315.991 231.048 315.976 231.839 316.455 232.337L316.524 232.408C317.003 232.906 317.794 232.92 318.291 232.441C318.789 231.963 318.803 231.171 318.324 230.674L318.255 230.602C317.776 230.105 316.985 230.09 316.488 230.569ZM320.702 234.944C320.205 235.423 320.19 236.214 320.669 236.712L320.738 236.783C321.217 237.281 322.008 237.295 322.506 236.816C323.003 236.338 323.018 235.546 322.539 235.049L322.47 234.977C321.991 234.48 321.199 234.465 320.702 234.944ZM324.916 239.319C324.419 239.798 324.404 240.589 324.883 241.087L324.952 241.158C325.431 241.656 326.223 241.67 326.72 241.191C327.217 240.713 327.232 239.921 326.753 239.424L326.684 239.352C326.205 238.855 325.414 238.84 324.916 239.319ZM329.131 243.694C328.634 244.173 328.619 244.964 329.098 245.462L329.167 245.533C329.646 246.031 330.437 246.045 330.934 245.566C331.431 245.088 331.446 244.296 330.967 243.799L330.898 243.727C330.419 243.23 329.628 243.215 329.131 243.694ZM333.345 248.069C332.848 248.548 332.833 249.339 333.312 249.837L333.381 249.908C333.86 250.406 334.651 250.42 335.149 249.941C335.646 249.463 335.661 248.671 335.182 248.174L335.112 248.102C334.634 247.605 333.842 247.59 333.345 248.069ZM337.559 252.444C337.062 252.923 337.047 253.714 337.526 254.212L337.561 254.248L339.361 252.513L339.327 252.477C338.848 251.98 338.057 251.965 337.559 252.444Z" fill="#8F8B85"></path>
<path fill-rule="evenodd" clip-rule="evenodd" d="M190.061 405.638L190.095 405.602C190.574 405.105 191.366 405.09 191.863 405.569C192.36 406.048 192.375 406.839 191.896 407.337L191.861 407.373L190.061 405.638ZM194.274 403.066C193.776 402.588 193.762 401.796 194.241 401.299L194.31 401.227C194.789 400.73 195.58 400.715 196.077 401.194C196.574 401.673 196.589 402.464 196.11 402.962L196.041 403.033C195.562 403.531 194.771 403.545 194.274 403.066ZM198.488 398.691C197.991 398.213 197.976 397.421 198.455 396.924L198.524 396.852C199.003 396.355 199.794 396.34 200.291 396.819C200.789 397.298 200.803 398.089 200.324 398.587L200.255 398.658C199.776 399.156 198.985 399.17 198.488 398.691ZM202.702 394.316C202.205 393.838 202.19 393.046 202.669 392.549L202.738 392.477C203.217 391.98 204.008 391.965 204.506 392.444C205.003 392.923 205.018 393.714 204.539 394.212L204.47 394.283C203.991 394.781 203.199 394.795 202.702 394.316ZM206.916 389.941C206.419 389.463 206.404 388.671 206.883 388.174L206.952 388.102C207.431 387.605 208.223 387.59 208.72 388.069C209.217 388.548 209.232 389.339 208.753 389.837L208.684 389.908C208.205 390.406 207.414 390.42 206.916 389.941ZM211.131 385.566C210.634 385.088 210.619 384.296 211.098 383.799L211.167 383.727C211.646 383.23 212.437 383.215 212.934 383.694C213.431 384.173 213.446 384.964 212.967 385.462L212.898 385.533C212.419 386.031 211.628 386.045 211.131 385.566ZM215.345 381.191C214.848 380.713 214.833 379.921 215.312 379.424L215.381 379.352C215.86 378.855 216.651 378.84 217.149 379.319C217.646 379.798 217.661 380.589 217.182 381.087L217.113 381.158C216.634 381.656 215.842 381.67 215.345 381.191ZM219.559 376.816C219.062 376.338 219.047 375.546 219.526 375.049L219.595 374.977C220.074 374.48 220.866 374.465 221.363 374.944C221.86 375.423 221.875 376.214 221.396 376.712L221.327 376.783C220.848 377.281 220.057 377.295 219.559 376.816ZM223.774 372.441C223.276 371.963 223.262 371.171 223.741 370.674L223.81 370.602C224.289 370.105 225.08 370.09 225.577 370.569C226.074 371.048 226.089 371.839 225.61 372.337L225.541 372.408C225.062 372.906 224.271 372.92 223.774 372.441ZM227.988 368.066C227.491 367.588 227.476 366.796 227.955 366.299L228.024 366.227C228.503 365.73 229.294 365.715 229.791 366.194C230.289 366.673 230.303 367.464 229.824 367.962L229.755 368.033C229.276 368.531 228.485 368.545 227.988 368.066ZM232.202 363.691C231.705 363.213 231.69 362.421 232.169 361.924L232.238 361.852C232.717 361.355 233.508 361.34 234.006 361.819C234.503 362.298 234.518 363.09 234.039 363.587L233.97 363.658C233.491 364.156 232.699 364.17 232.202 363.691ZM236.416 359.317C235.919 358.838 235.904 358.046 236.383 357.549L236.452 357.477C236.931 356.98 237.723 356.965 238.22 357.444C238.717 357.923 238.732 358.715 238.253 359.212L238.184 359.283C237.705 359.781 236.914 359.795 236.416 359.317ZM240.631 354.942C240.134 354.463 240.119 353.671 240.598 353.174L240.667 353.102C241.146 352.605 241.937 352.59 242.434 353.069C242.931 353.548 242.946 354.34 242.467 354.837L242.398 354.908C241.919 355.406 241.128 355.42 240.631 354.942ZM244.845 350.567C244.348 350.088 244.333 349.296 244.812 348.799L244.881 348.727C245.36 348.23 246.151 348.215 246.648 348.694C247.146 349.173 247.161 349.965 246.682 350.462L246.612 350.533C246.134 351.031 245.342 351.045 244.845 350.567ZM249.059 346.192C248.562 345.713 248.547 344.921 249.026 344.424L249.095 344.352C249.574 343.855 250.366 343.84 250.863 344.319C251.36 344.798 251.375 345.59 250.896 346.087L250.827 346.158C250.348 346.656 249.557 346.67 249.059 346.192ZM253.274 341.817C252.776 341.338 252.762 340.546 253.241 340.049L253.31 339.977C253.789 339.48 254.58 339.465 255.077 339.944C255.574 340.423 255.589 341.215 255.11 341.712L255.041 341.783C254.562 342.281 253.771 342.295 253.274 341.817ZM257.488 337.442C256.991 336.963 256.976 336.171 257.455 335.674L257.524 335.602C258.003 335.105 258.794 335.09 259.291 335.569C259.789 336.048 259.803 336.84 259.324 337.337L259.255 337.408C258.776 337.906 257.985 337.92 257.488 337.442ZM261.702 333.067C261.205 332.588 261.19 331.796 261.669 331.299L261.738 331.227C262.217 330.73 263.008 330.715 263.506 331.194C264.003 331.673 264.018 332.465 263.539 332.962L263.47 333.033C262.991 333.531 262.199 333.545 261.702 333.067ZM265.916 328.692C265.419 328.213 265.404 327.421 265.883 326.924L265.952 326.852C266.431 326.355 267.223 326.34 267.72 326.819C268.217 327.298 268.232 328.09 267.753 328.587L267.684 328.658C267.205 329.156 266.414 329.17 265.916 328.692ZM270.131 324.316C269.634 323.838 269.619 323.046 270.098 322.549L270.167 322.477C270.646 321.98 271.437 321.965 271.934 322.444C272.431 322.923 272.446 323.715 271.967 324.212L271.898 324.283C271.419 324.781 270.628 324.795 270.131 324.316ZM274.345 319.941C273.848 319.463 273.833 318.671 274.312 318.174L274.381 318.102C274.86 317.605 275.651 317.59 276.149 318.069C276.646 318.548 276.661 319.34 276.182 319.837L276.112 319.908C275.634 320.406 274.842 320.42 274.345 319.941ZM278.559 315.566C278.062 315.088 278.047 314.296 278.526 313.799L278.595 313.727C279.074 313.23 279.866 313.215 280.363 313.694C280.86 314.173 280.875 314.965 280.396 315.462L280.327 315.533C279.848 316.031 279.057 316.045 278.559 315.566ZM282.774 311.191C282.276 310.713 282.262 309.921 282.741 309.424L282.81 309.352C283.289 308.855 284.08 308.84 284.577 309.319C285.074 309.798 285.089 310.59 284.61 311.087L284.541 311.158C284.062 311.656 283.271 311.67 282.774 311.191ZM286.988 306.816C286.491 306.338 286.476 305.546 286.955 305.049L287.024 304.977C287.503 304.48 288.294 304.465 288.791 304.944C289.289 305.423 289.303 306.215 288.824 306.712L288.755 306.783C288.276 307.281 287.485 307.295 286.988 306.816ZM291.202 302.441C290.705 301.963 290.69 301.171 291.169 300.674L291.238 300.602C291.717 300.105 292.508 300.09 293.006 300.569C293.503 301.048 293.518 301.839 293.039 302.337L292.97 302.408C292.491 302.906 291.699 302.92 291.202 302.441ZM295.416 298.066C294.919 297.588 294.904 296.796 295.383 296.299L295.452 296.227C295.931 295.73 296.723 295.715 297.22 296.194C297.717 296.673 297.732 297.464 297.253 297.962L297.184 298.033C296.705 298.531 295.914 298.545 295.416 298.066ZM299.631 293.691C299.134 293.213 299.119 292.421 299.598 291.924L299.667 291.852C300.146 291.355 300.937 291.34 301.434 291.819C301.931 292.298 301.946 293.089 301.467 293.587L301.398 293.658C300.919 294.156 300.128 294.17 299.631 293.691ZM303.845 289.316C303.348 288.838 303.333 288.046 303.812 287.549L303.881 287.477C304.36 286.98 305.151 286.965 305.649 287.444C306.146 287.923 306.161 288.714 305.682 289.212L305.612 289.283C305.134 289.781 304.342 289.795 303.845 289.316ZM308.059 284.941C307.562 284.463 307.547 283.671 308.026 283.174L308.095 283.102C308.574 282.605 309.366 282.59 309.863 283.069C310.36 283.548 310.375 284.34 309.896 284.837L309.827 284.908C309.348 285.406 308.557 285.42 308.059 284.941ZM312.274 280.566C311.776 280.088 311.762 279.296 312.241 278.799L312.31 278.727C312.789 278.23 313.58 278.215 314.077 278.694C314.574 279.173 314.589 279.965 314.11 280.462L314.041 280.533C313.562 281.031 312.771 281.045 312.274 280.566ZM316.488 276.191C315.991 275.713 315.976 274.921 316.455 274.424L316.524 274.352C317.003 273.855 317.794 273.84 318.291 274.319C318.789 274.798 318.803 275.59 318.324 276.087L318.255 276.158C317.776 276.656 316.985 276.67 316.488 276.191ZM320.702 271.816C320.205 271.338 320.19 270.546 320.669 270.049L320.738 269.977C321.217 269.48 322.008 269.465 322.506 269.944C323.003 270.423 323.018 271.215 322.539 271.712L322.47 271.783C321.991 272.281 321.199 272.295 320.702 271.816ZM324.916 267.441C324.419 266.963 324.404 266.171 324.883 265.674L324.952 265.602C325.431 265.105 326.223 265.09 326.72 265.569C327.217 266.048 327.232 266.84 326.753 267.337L326.684 267.408C326.205 267.906 325.414 267.92 324.916 267.441ZM329.131 263.066C328.634 262.588 328.619 261.796 329.098 261.299L329.167 261.227C329.646 260.73 330.437 260.715 330.934 261.194C331.431 261.673 331.446 262.465 330.967 262.962L330.898 263.033C330.419 263.531 329.628 263.545 329.131 263.066ZM333.345 258.691C332.848 258.213 332.833 257.421 333.312 256.924L333.381 256.852C333.86 256.355 334.651 256.34 335.149 256.819C335.646 257.298 335.661 258.09 335.182 258.587L335.112 258.658C334.634 259.156 333.842 259.17 333.345 258.691ZM337.559 254.316C337.062 253.838 337.047 253.046 337.526 252.549L337.561 252.513L339.361 254.248L339.327 254.283C338.848 254.781 338.057 254.795 337.559 254.316Z" fill="#8F8B85"></path>
<path fill-rule="evenodd" clip-rule="evenodd" d="M486.861 405.638L486.827 405.602C486.348 405.105 485.556 405.09 485.059 405.569C484.562 406.048 484.547 406.839 485.026 407.337L485.061 407.373L486.861 405.638ZM482.648 403.066C483.145 402.588 483.16 401.796 482.681 401.299L482.612 401.227C482.133 400.73 481.342 400.715 480.845 401.194C480.348 401.673 480.333 402.464 480.812 402.962L480.881 403.033C481.36 403.531 482.151 403.545 482.648 403.066ZM478.434 398.691C478.931 398.213 478.946 397.421 478.467 396.924L478.398 396.852C477.919 396.355 477.128 396.34 476.63 396.819C476.133 397.298 476.118 398.089 476.597 398.587L476.667 398.658C477.145 399.156 477.937 399.17 478.434 398.691ZM474.22 394.316C474.717 393.838 474.732 393.046 474.253 392.549L474.184 392.477C473.705 391.98 472.913 391.965 472.416 392.444C471.919 392.923 471.904 393.714 472.383 394.212L472.452 394.283C472.931 394.781 473.722 394.795 474.22 394.316ZM470.005 389.941C470.503 389.463 470.517 388.671 470.038 388.174L469.969 388.102C469.49 387.605 468.699 387.59 468.202 388.069C467.705 388.548 467.69 389.339 468.169 389.837L468.238 389.908C468.717 390.406 469.508 390.42 470.005 389.941ZM465.791 385.566C466.288 385.088 466.303 384.296 465.824 383.799L465.755 383.727C465.276 383.23 464.485 383.215 463.988 383.694C463.49 384.173 463.476 384.964 463.955 385.462L464.024 385.533C464.503 386.031 465.294 386.045 465.791 385.566ZM461.577 381.191C462.074 380.713 462.089 379.921 461.61 379.424L461.541 379.352C461.062 378.855 460.271 378.84 459.773 379.319C459.276 379.798 459.261 380.589 459.74 381.087L459.809 381.158C460.288 381.656 461.08 381.67 461.577 381.191ZM457.363 376.816C457.86 376.338 457.875 375.546 457.396 375.049L457.327 374.977C456.848 374.48 456.056 374.465 455.559 374.944C455.062 375.423 455.047 376.214 455.526 376.712L455.595 376.783C456.074 377.281 456.865 377.295 457.363 376.816ZM453.148 372.441C453.645 371.963 453.66 371.171 453.181 370.674L453.112 370.602C452.633 370.105 451.842 370.09 451.345 370.569C450.848 371.048 450.833 371.839 451.312 372.337L451.381 372.408C451.86 372.906 452.651 372.92 453.148 372.441ZM448.934 368.066C449.431 367.588 449.446 366.796 448.967 366.299L448.898 366.227C448.419 365.73 447.628 365.715 447.131 366.194C446.633 366.673 446.618 367.464 447.097 367.962L447.167 368.033C447.645 368.531 448.437 368.545 448.934 368.066ZM444.72 363.691C445.217 363.213 445.232 362.421 444.753 361.924L444.684 361.852C444.205 361.355 443.413 361.34 442.916 361.819C442.419 362.298 442.404 363.09 442.883 363.587L442.952 363.658C443.431 364.156 444.222 364.17 444.72 363.691ZM440.505 359.317C441.003 358.838 441.017 358.046 440.538 357.549L440.469 357.477C439.99 356.98 439.199 356.965 438.702 357.444C438.205 357.923 438.19 358.715 438.669 359.212L438.738 359.283C439.217 359.781 440.008 359.795 440.505 359.317ZM436.291 354.942C436.788 354.463 436.803 353.671 436.324 353.174L436.255 353.102C435.776 352.605 434.985 352.59 434.488 353.069C433.99 353.548 433.976 354.34 434.455 354.837L434.524 354.908C435.003 355.406 435.794 355.42 436.291 354.942ZM432.077 350.567C432.574 350.088 432.589 349.296 432.11 348.799L432.041 348.727C431.562 348.23 430.771 348.215 430.273 348.694C429.776 349.173 429.761 349.965 430.24 350.462L430.309 350.533C430.788 351.031 431.58 351.045 432.077 350.567ZM427.863 346.192C428.36 345.713 428.375 344.921 427.896 344.424L427.827 344.352C427.348 343.855 426.556 343.84 426.059 344.319C425.562 344.798 425.547 345.59 426.026 346.087L426.095 346.158C426.574 346.656 427.365 346.67 427.863 346.192ZM423.648 341.817C424.145 341.338 424.16 340.546 423.681 340.049L423.612 339.977C423.133 339.48 422.342 339.465 421.845 339.944C421.348 340.423 421.333 341.215 421.812 341.712L421.881 341.783C422.36 342.281 423.151 342.295 423.648 341.817ZM419.434 337.442C419.931 336.963 419.946 336.171 419.467 335.674L419.398 335.602C418.919 335.105 418.128 335.09 417.631 335.569C417.133 336.048 417.119 336.84 417.597 337.337L417.667 337.408C418.145 337.906 418.937 337.92 419.434 337.442ZM415.22 333.067C415.717 332.588 415.732 331.796 415.253 331.299L415.184 331.227C414.705 330.73 413.913 330.715 413.416 331.194C412.919 331.673 412.904 332.465 413.383 332.962L413.452 333.033C413.931 333.531 414.723 333.545 415.22 333.067ZM411.005 328.692C411.503 328.213 411.517 327.421 411.038 326.924L410.969 326.852C410.49 326.355 409.699 326.34 409.202 326.819C408.705 327.298 408.69 328.09 409.169 328.587L409.238 328.658C409.717 329.156 410.508 329.17 411.005 328.692ZM406.791 324.316C407.288 323.838 407.303 323.046 406.824 322.549L406.755 322.477C406.276 321.98 405.485 321.965 404.988 322.444C404.49 322.923 404.476 323.715 404.955 324.212L405.024 324.283C405.503 324.781 406.294 324.795 406.791 324.316ZM402.577 319.941C403.074 319.463 403.089 318.671 402.61 318.174L402.541 318.102C402.062 317.605 401.271 317.59 400.773 318.069C400.276 318.548 400.261 319.34 400.74 319.837L400.809 319.908C401.288 320.406 402.08 320.42 402.577 319.941ZM398.363 315.566C398.86 315.088 398.875 314.296 398.396 313.799L398.327 313.727C397.848 313.23 397.056 313.215 396.559 313.694C396.062 314.173 396.047 314.965 396.526 315.462L396.595 315.533C397.074 316.031 397.865 316.045 398.363 315.566ZM394.148 311.191C394.645 310.713 394.66 309.921 394.181 309.424L394.112 309.352C393.633 308.855 392.842 308.84 392.345 309.319C391.848 309.798 391.833 310.59 392.312 311.087L392.381 311.158C392.86 311.656 393.651 311.67 394.148 311.191ZM389.934 306.816C390.431 306.338 390.446 305.546 389.967 305.049L389.898 304.977C389.419 304.48 388.628 304.465 388.131 304.944C387.633 305.423 387.618 306.215 388.097 306.712L388.167 306.783C388.645 307.281 389.437 307.295 389.934 306.816ZM385.72 302.441C386.217 301.963 386.232 301.171 385.753 300.674L385.684 300.602C385.205 300.105 384.413 300.09 383.916 300.569C383.419 301.048 383.404 301.839 383.883 302.337L383.952 302.408C384.431 302.906 385.222 302.92 385.72 302.441ZM381.505 298.066C382.003 297.588 382.017 296.796 381.538 296.299L381.469 296.227C380.99 295.73 380.199 295.715 379.702 296.194C379.205 296.673 379.19 297.464 379.669 297.962L379.738 298.033C380.217 298.531 381.008 298.545 381.505 298.066ZM377.291 293.691C377.788 293.213 377.803 292.421 377.324 291.924L377.255 291.852C376.776 291.355 375.985 291.34 375.488 291.819C374.99 292.298 374.976 293.089 375.455 293.587L375.524 293.658C376.003 294.156 376.794 294.17 377.291 293.691ZM373.077 289.316C373.574 288.838 373.589 288.046 373.11 287.549L373.041 287.477C372.562 286.98 371.771 286.965 371.273 287.444C370.776 287.923 370.761 288.714 371.24 289.212L371.309 289.283C371.788 289.781 372.58 289.795 373.077 289.316ZM368.863 284.941C369.36 284.463 369.375 283.671 368.896 283.174L368.827 283.102C368.348 282.605 367.556 282.59 367.059 283.069C366.562 283.548 366.547 284.34 367.026 284.837L367.095 284.908C367.574 285.406 368.365 285.42 368.863 284.941ZM364.648 280.566C365.145 280.088 365.16 279.296 364.681 278.799L364.612 278.727C364.133 278.23 363.342 278.215 362.845 278.694C362.348 279.173 362.333 279.965 362.812 280.462L362.881 280.533C363.36 281.031 364.151 281.045 364.648 280.566ZM360.434 276.191C360.931 275.713 360.946 274.921 360.467 274.424L360.398 274.352C359.919 273.855 359.128 273.84 358.631 274.319C358.133 274.798 358.118 275.59 358.597 276.087L358.667 276.158C359.145 276.656 359.937 276.67 360.434 276.191ZM356.22 271.816C356.717 271.338 356.732 270.546 356.253 270.049L356.184 269.977C355.705 269.48 354.913 269.465 354.416 269.944C353.919 270.423 353.904 271.215 354.383 271.712L354.452 271.783C354.931 272.281 355.722 272.295 356.22 271.816ZM352.005 267.441C352.503 266.963 352.517 266.171 352.038 265.674L351.969 265.602C351.49 265.105 350.699 265.09 350.202 265.569C349.705 266.048 349.69 266.84 350.169 267.337L350.238 267.408C350.717 267.906 351.508 267.92 352.005 267.441ZM347.791 263.066C348.288 262.588 348.303 261.796 347.824 261.299L347.755 261.227C347.276 260.73 346.485 260.715 345.988 261.194C345.49 261.673 345.476 262.465 345.955 262.962L346.024 263.033C346.503 263.531 347.294 263.545 347.791 263.066ZM343.577 258.691C344.074 258.213 344.089 257.421 343.61 256.924L343.541 256.852C343.062 256.355 342.271 256.34 341.773 256.819C341.276 257.298 341.261 258.09 341.74 258.587L341.809 258.658C342.288 259.156 343.08 259.17 343.577 258.691ZM339.363 254.316C339.86 253.838 339.875 253.046 339.396 252.549L339.361 252.513L337.561 254.248L337.595 254.283C338.074 254.781 338.865 254.795 339.363 254.316Z" fill="#8F8B85"></path>
<path d="M295.914 195.942C295.914 190.459 300.359 186.015 305.842 186.015H359.734L395.19 221.47V310.818C395.19 316.301 390.745 320.746 385.262 320.746H305.842C300.359 320.746 295.914 316.301 295.914 310.818V195.942Z" fill="#E6E5E3"></path>
<path d="M395.191 221.47L369.663 221.47C364.181 221.47 359.736 217.026 359.736 211.543L359.736 186.015L395.191 221.47Z" fill="#8F8B85"></path>
<rect x="281.73" y="256.926" width="78.0023" height="42.5467" rx="9.92757" fill="#1470CC"></rect>
<path d="M290.091 280.864H293.585V284.2H290.091V280.864ZM295.976 270.301H301.098C302.687 270.301 304.037 270.566 305.149 271.095C306.274 271.625 307.128 272.412 307.71 273.458C308.292 274.491 308.584 275.761 308.584 277.27C308.584 278.66 308.299 279.878 307.73 280.924C307.174 281.956 306.333 282.764 305.208 283.346C304.083 283.915 302.72 284.2 301.118 284.2H295.976V270.301ZM300.9 281.579C301.813 281.579 302.601 281.433 303.262 281.142C303.938 280.838 304.46 280.361 304.831 279.713C305.202 279.064 305.387 278.25 305.387 277.27C305.387 275.867 305.01 274.795 304.255 274.054C303.501 273.299 302.389 272.922 300.92 272.922H299.073V281.579H300.9ZM316.927 284.557C315.577 284.557 314.379 284.273 313.333 283.703C312.301 283.134 311.48 282.3 310.871 281.202C310.276 280.09 309.978 278.773 309.978 277.25C309.978 275.768 310.276 274.477 310.871 273.379C311.48 272.267 312.307 271.42 313.353 270.837C314.399 270.242 315.583 269.944 316.907 269.944C318.244 269.944 319.442 270.248 320.501 270.857C321.573 271.453 322.414 272.307 323.023 273.418C323.631 274.517 323.936 275.794 323.936 277.25C323.936 278.759 323.631 280.07 323.023 281.182C322.414 282.28 321.58 283.121 320.521 283.703C319.462 284.273 318.264 284.557 316.927 284.557ZM316.927 281.956C317.668 281.956 318.323 281.777 318.893 281.42C319.475 281.049 319.925 280.513 320.243 279.812C320.574 279.097 320.739 278.243 320.739 277.25C320.739 276.284 320.574 275.45 320.243 274.749C319.925 274.034 319.475 273.491 318.893 273.121C318.323 272.737 317.668 272.545 316.927 272.545C316.172 272.545 315.517 272.73 314.961 273.101C314.405 273.471 313.969 274.014 313.651 274.729C313.346 275.444 313.194 276.284 313.194 277.25C313.194 278.243 313.346 279.097 313.651 279.812C313.969 280.513 314.405 281.049 314.961 281.42C315.517 281.777 316.172 281.956 316.927 281.956ZM332.184 284.557C330.808 284.557 329.603 284.266 328.571 283.684C327.538 283.101 326.737 282.254 326.168 281.142C325.612 280.03 325.334 278.707 325.334 277.171C325.334 275.702 325.639 274.418 326.248 273.319C326.857 272.221 327.697 271.387 328.769 270.817C329.842 270.235 331.046 269.944 332.383 269.944C333.548 269.944 334.587 270.156 335.5 270.579C336.427 271.003 337.168 271.625 337.724 272.446C338.293 273.266 338.631 274.239 338.737 275.364H335.54C335.434 274.504 335.103 273.816 334.547 273.299C334.004 272.783 333.276 272.525 332.363 272.525C331.622 272.525 330.96 272.71 330.378 273.081C329.808 273.438 329.358 273.968 329.027 274.669C328.71 275.371 328.551 276.205 328.551 277.171C328.551 278.164 328.71 279.024 329.027 279.752C329.345 280.467 329.782 281.016 330.338 281.4C330.907 281.784 331.562 281.976 332.304 281.976C333.217 281.976 333.978 281.698 334.587 281.142C335.196 280.586 335.56 279.851 335.679 278.938H338.796C338.69 280.05 338.359 281.03 337.803 281.877C337.261 282.724 336.506 283.386 335.54 283.862C334.587 284.326 333.468 284.557 332.184 284.557ZM343.623 276.933L338.819 270.301H342.611L344.954 273.816C345.232 274.252 345.424 274.59 345.53 274.828C345.596 274.683 345.669 274.55 345.748 274.431C345.827 274.299 345.9 274.173 345.966 274.054L346.125 273.816L348.428 270.301H352.102L347.336 276.893L352.658 284.2H348.826L346.145 280.229C345.933 279.911 345.708 279.521 345.47 279.057C345.311 279.362 345.073 279.759 344.755 280.249L342.035 284.2H338.342L343.623 276.933Z" fill="white"></path>
<path d="M376.633 281.196L427.73 314.67L403.448 319.554L390.554 340.701L376.633 281.196Z" fill="#0F0E0D" stroke="white" stroke-width="5.6729" stroke-linejoin="round"></path>
<rect x="60.9609" y="60.2554" width="260" height="80" rx="10" fill="white"></rect>
<path d="M161.564 106.575C160.391 106.575 159.364 106.375 158.484 105.975C157.604 105.575 156.924 105.002 156.444 104.255C155.964 103.495 155.697 102.615 155.644 101.615H157.924C157.964 102.255 158.151 102.809 158.484 103.275C158.817 103.742 159.251 104.102 159.784 104.355C160.331 104.595 160.944 104.715 161.624 104.715C162.624 104.715 163.404 104.522 163.964 104.135C164.537 103.749 164.824 103.202 164.824 102.495C164.824 101.909 164.611 101.449 164.184 101.115C163.757 100.782 163.117 100.529 162.264 100.355L160.044 99.8754C158.884 99.6354 157.944 99.1887 157.224 98.5354C156.504 97.8687 156.144 97.0154 156.144 95.9754C156.144 95.1887 156.371 94.4887 156.824 93.8754C157.277 93.262 157.904 92.782 158.704 92.4354C159.504 92.0887 160.411 91.9154 161.424 91.9154C162.491 91.9154 163.424 92.102 164.224 92.4754C165.024 92.8354 165.644 93.3487 166.084 94.0154C166.524 94.6687 166.771 95.442 166.824 96.3354H164.544C164.517 95.8287 164.377 95.3887 164.124 95.0154C163.871 94.6287 163.504 94.3287 163.024 94.1154C162.557 93.8887 161.997 93.7754 161.344 93.7754C160.784 93.7754 160.277 93.862 159.824 94.0354C159.384 94.1954 159.037 94.4287 158.784 94.7354C158.531 95.0287 158.404 95.3754 158.404 95.7754C158.404 96.3354 158.597 96.7754 158.984 97.0954C159.384 97.402 159.991 97.642 160.804 97.8154L163.224 98.3154C164.397 98.5687 165.331 99.022 166.024 99.6754C166.731 100.329 167.084 101.182 167.084 102.235C167.084 103.062 166.864 103.802 166.424 104.455C165.984 105.109 165.351 105.629 164.524 106.015C163.697 106.389 162.711 106.575 161.564 106.575ZM169.294 96.5554H171.374V97.1354C171.374 97.3754 171.36 97.6354 171.334 97.9154C171.64 97.422 172.067 97.022 172.614 96.7154C173.174 96.3954 173.807 96.2354 174.514 96.2354C175.394 96.2354 176.16 96.462 176.814 96.9154C177.48 97.3554 177.987 97.9687 178.334 98.7554C178.694 99.5287 178.874 100.415 178.874 101.415C178.874 102.442 178.687 103.349 178.314 104.135C177.94 104.909 177.414 105.509 176.734 105.935C176.067 106.362 175.307 106.575 174.454 106.575C173.72 106.575 173.1 106.429 172.594 106.135C172.087 105.842 171.667 105.435 171.334 104.915C171.36 105.222 171.374 105.509 171.374 105.775V110.375H169.294V96.5554ZM174.014 104.955C174.56 104.955 175.04 104.809 175.454 104.515C175.867 104.209 176.187 103.789 176.414 103.255C176.64 102.722 176.754 102.102 176.754 101.395C176.754 100.715 176.64 100.109 176.414 99.5754C176.187 99.042 175.867 98.6287 175.454 98.3354C175.054 98.0287 174.574 97.8754 174.014 97.8754C173.494 97.8754 173.02 98.022 172.594 98.3154C172.18 98.6087 171.854 99.022 171.614 99.5554C171.387 100.075 171.274 100.689 171.274 101.395C171.274 102.102 171.387 102.722 171.614 103.255C171.854 103.789 172.18 104.209 172.594 104.515C173.007 104.809 173.48 104.955 174.014 104.955ZM183.812 106.575C183.226 106.575 182.672 106.455 182.152 106.215C181.646 105.975 181.239 105.629 180.932 105.175C180.626 104.722 180.472 104.195 180.472 103.595C180.472 102.649 180.786 101.935 181.412 101.455C182.052 100.962 182.906 100.635 183.972 100.475L185.712 100.235C186.086 100.182 186.346 100.082 186.492 99.9354C186.652 99.7887 186.732 99.582 186.732 99.3154C186.732 98.862 186.566 98.502 186.232 98.2354C185.912 97.9554 185.486 97.8154 184.952 97.8154C184.312 97.8154 183.806 97.982 183.432 98.3154C183.072 98.6354 182.872 99.0754 182.832 99.6354H180.732C180.772 99.0087 180.959 98.4354 181.292 97.9154C181.639 97.3954 182.112 96.9887 182.712 96.6954C183.312 96.3887 184.012 96.2354 184.812 96.2354C185.692 96.2354 186.426 96.3954 187.012 96.7154C187.612 97.022 188.059 97.4754 188.352 98.0754C188.646 98.662 188.792 99.3754 188.792 100.215V106.255H186.832V105.815C186.832 105.535 186.852 105.242 186.892 104.935C186.626 105.455 186.232 105.862 185.712 106.155C185.192 106.435 184.559 106.575 183.812 106.575ZM184.252 105.015C184.719 105.015 185.146 104.915 185.532 104.715C185.919 104.502 186.219 104.209 186.432 103.835C186.659 103.462 186.772 103.035 186.772 102.555V101.295C186.692 101.389 186.566 101.469 186.392 101.535C186.219 101.602 185.979 101.662 185.672 101.715L184.552 101.935C183.939 102.055 183.459 102.242 183.112 102.495C182.766 102.749 182.592 103.102 182.592 103.555C182.592 103.995 182.752 104.349 183.072 104.615C183.392 104.882 183.786 105.015 184.252 105.015ZM191.383 96.5554H193.443V97.1154C193.443 97.3687 193.43 97.6354 193.403 97.9154C193.697 97.422 194.097 97.022 194.603 96.7154C195.123 96.3954 195.723 96.2354 196.403 96.2354C197.123 96.2354 197.743 96.3954 198.263 96.7154C198.797 97.022 199.203 97.4687 199.483 98.0554C199.763 98.642 199.903 99.3354 199.903 100.135V106.255H197.823V100.415C197.823 99.5887 197.657 98.962 197.323 98.5354C197.003 98.0954 196.51 97.8754 195.843 97.8754C195.377 97.8754 194.957 97.9954 194.583 98.2354C194.223 98.462 193.943 98.7754 193.743 99.1754C193.557 99.5754 193.463 100.015 193.463 100.495V106.255H191.383V96.5554ZM202.516 96.5554H204.596V106.255H202.516V96.5554ZM202.516 104.575H204.596V106.255H202.516V104.575ZM202.516 96.5554H203.556V98.2354H202.516V96.5554ZM202.416 92.5954H204.676V94.8954H202.416V92.5954ZM210.961 106.575C210.081 106.575 209.314 106.429 208.661 106.135C208.021 105.842 207.521 105.429 207.161 104.895C206.814 104.349 206.621 103.715 206.581 102.995H208.661C208.688 103.622 208.894 104.115 209.281 104.475C209.681 104.835 210.234 105.015 210.941 105.015C211.541 105.015 212.028 104.889 212.401 104.635C212.774 104.369 212.961 104.022 212.961 103.595C212.961 103.235 212.828 102.949 212.561 102.735C212.294 102.522 211.881 102.362 211.321 102.255L209.981 101.995C209.008 101.809 208.254 101.475 207.721 100.995C207.188 100.515 206.921 99.8954 206.921 99.1354C206.921 98.5887 207.081 98.0954 207.401 97.6554C207.734 97.2154 208.194 96.8687 208.781 96.6154C209.368 96.362 210.034 96.2354 210.781 96.2354C211.608 96.2354 212.321 96.3687 212.921 96.6354C213.521 96.902 213.988 97.2754 214.321 97.7554C214.654 98.2354 214.834 98.8087 214.861 99.4754H212.801C212.748 98.9554 212.534 98.5487 212.161 98.2554C211.801 97.962 211.321 97.8154 210.721 97.8154C210.201 97.8154 209.781 97.9287 209.461 98.1554C209.141 98.3687 208.981 98.662 208.981 99.0354C208.981 99.382 209.101 99.6487 209.341 99.8354C209.594 100.022 210.014 100.175 210.601 100.295L211.941 100.555C212.914 100.742 213.668 101.069 214.201 101.535C214.734 102.002 215.001 102.635 215.001 103.435C215.001 104.022 214.834 104.555 214.501 105.035C214.168 105.515 213.694 105.895 213.081 106.175C212.481 106.442 211.774 106.575 210.961 106.575ZM217.145 92.2554H219.225V97.0154C219.225 97.162 219.218 97.2887 219.205 97.3954C219.205 97.4887 219.198 97.5754 219.185 97.6554C219.185 97.722 219.185 97.8087 219.185 97.9154C219.465 97.4087 219.858 97.002 220.365 96.6954C220.872 96.3887 221.472 96.2354 222.165 96.2354C222.885 96.2354 223.505 96.3954 224.025 96.7154C224.558 97.022 224.965 97.4687 225.245 98.0554C225.525 98.642 225.665 99.3354 225.665 100.135V106.255H223.585V100.415C223.585 99.5887 223.418 98.962 223.085 98.5354C222.752 98.0954 222.252 97.8754 221.585 97.8754C221.118 97.8754 220.705 97.9954 220.345 98.2354C219.985 98.462 219.705 98.7754 219.505 99.1754C219.318 99.5754 219.225 100.015 219.225 100.495V106.255H217.145V92.2554Z" fill="#0F0E0D"></path>
<rect x="60.9609" y="366.505" width="260" height="80" rx="10" fill="white"></rect>
<path d="M152.773 412.825C151.773 412.825 150.939 412.632 150.273 412.245C149.606 411.845 149.113 411.299 148.793 410.605C148.473 409.899 148.313 409.065 148.313 408.105H150.553C150.566 409.012 150.739 409.719 151.073 410.225C151.419 410.719 151.993 410.965 152.793 410.965C153.633 410.965 154.226 410.712 154.573 410.205C154.933 409.699 155.113 408.972 155.113 408.025V398.505H157.353V408.305C157.353 409.239 157.166 410.045 156.793 410.725C156.419 411.405 155.886 411.925 155.193 412.285C154.499 412.645 153.693 412.825 152.773 412.825ZM162.894 412.825C162.308 412.825 161.754 412.705 161.234 412.465C160.728 412.225 160.321 411.879 160.014 411.425C159.708 410.972 159.554 410.445 159.554 409.845C159.554 408.899 159.868 408.185 160.494 407.705C161.134 407.212 161.988 406.885 163.054 406.725L164.794 406.485C165.168 406.432 165.428 406.332 165.574 406.185C165.734 406.039 165.814 405.832 165.814 405.565C165.814 405.112 165.648 404.752 165.314 404.485C164.994 404.205 164.568 404.065 164.034 404.065C163.394 404.065 162.888 404.232 162.514 404.565C162.154 404.885 161.954 405.325 161.914 405.885H159.814C159.854 405.259 160.041 404.685 160.374 404.165C160.721 403.645 161.194 403.239 161.794 402.945C162.394 402.639 163.094 402.485 163.894 402.485C164.774 402.485 165.508 402.645 166.094 402.965C166.694 403.272 167.141 403.725 167.434 404.325C167.728 404.912 167.874 405.625 167.874 406.465V412.505H165.914V412.065C165.914 411.785 165.934 411.492 165.974 411.185C165.708 411.705 165.314 412.112 164.794 412.405C164.274 412.685 163.641 412.825 162.894 412.825ZM163.334 411.265C163.801 411.265 164.228 411.165 164.614 410.965C165.001 410.752 165.301 410.459 165.514 410.085C165.741 409.712 165.854 409.285 165.854 408.805V407.545C165.774 407.639 165.648 407.719 165.474 407.785C165.301 407.852 165.061 407.912 164.754 407.965L163.634 408.185C163.021 408.305 162.541 408.492 162.194 408.745C161.848 408.999 161.674 409.352 161.674 409.805C161.674 410.245 161.834 410.599 162.154 410.865C162.474 411.132 162.868 411.265 163.334 411.265ZM170.465 402.805H172.545V403.385C172.545 403.625 172.532 403.885 172.505 404.165C172.812 403.672 173.239 403.272 173.785 402.965C174.345 402.645 174.979 402.485 175.685 402.485C176.565 402.485 177.332 402.712 177.985 403.165C178.652 403.605 179.159 404.219 179.505 405.005C179.865 405.779 180.045 406.665 180.045 407.665C180.045 408.692 179.859 409.599 179.485 410.385C179.112 411.159 178.585 411.759 177.905 412.185C177.239 412.612 176.479 412.825 175.625 412.825C174.892 412.825 174.272 412.679 173.765 412.385C173.259 412.092 172.839 411.685 172.505 411.165C172.532 411.472 172.545 411.759 172.545 412.025V416.625H170.465V402.805ZM175.185 411.205C175.732 411.205 176.212 411.059 176.625 410.765C177.039 410.459 177.359 410.039 177.585 409.505C177.812 408.972 177.925 408.352 177.925 407.645C177.925 406.965 177.812 406.359 177.585 405.825C177.359 405.292 177.039 404.879 176.625 404.585C176.225 404.279 175.745 404.125 175.185 404.125C174.665 404.125 174.192 404.272 173.765 404.565C173.352 404.859 173.025 405.272 172.785 405.805C172.559 406.325 172.445 406.939 172.445 407.645C172.445 408.352 172.559 408.972 172.785 409.505C173.025 410.039 173.352 410.459 173.765 410.765C174.179 411.059 174.652 411.205 175.185 411.205ZM184.984 412.825C184.398 412.825 183.844 412.705 183.324 412.465C182.818 412.225 182.411 411.879 182.104 411.425C181.798 410.972 181.644 410.445 181.644 409.845C181.644 408.899 181.958 408.185 182.584 407.705C183.224 407.212 184.078 406.885 185.144 406.725L186.884 406.485C187.258 406.432 187.518 406.332 187.664 406.185C187.824 406.039 187.904 405.832 187.904 405.565C187.904 405.112 187.738 404.752 187.404 404.485C187.084 404.205 186.658 404.065 186.124 404.065C185.484 404.065 184.978 404.232 184.604 404.565C184.244 404.885 184.044 405.325 184.004 405.885H181.904C181.944 405.259 182.131 404.685 182.464 404.165C182.811 403.645 183.284 403.239 183.884 402.945C184.484 402.639 185.184 402.485 185.984 402.485C186.864 402.485 187.598 402.645 188.184 402.965C188.784 403.272 189.231 403.725 189.524 404.325C189.818 404.912 189.964 405.625 189.964 406.465V412.505H188.004V412.065C188.004 411.785 188.024 411.492 188.064 411.185C187.798 411.705 187.404 412.112 186.884 412.405C186.364 412.685 185.731 412.825 184.984 412.825ZM185.424 411.265C185.891 411.265 186.318 411.165 186.704 410.965C187.091 410.752 187.391 410.459 187.604 410.085C187.831 409.712 187.944 409.285 187.944 408.805V407.545C187.864 407.639 187.738 407.719 187.564 407.785C187.391 407.852 187.151 407.912 186.844 407.965L185.724 408.185C185.111 408.305 184.631 408.492 184.284 408.745C183.938 408.999 183.764 409.352 183.764 409.805C183.764 410.245 183.924 410.599 184.244 410.865C184.564 411.132 184.958 411.265 185.424 411.265ZM192.555 402.805H194.615V403.365C194.615 403.619 194.602 403.885 194.575 404.165C194.869 403.672 195.269 403.272 195.775 402.965C196.295 402.645 196.895 402.485 197.575 402.485C198.295 402.485 198.915 402.645 199.435 402.965C199.969 403.272 200.375 403.719 200.655 404.305C200.935 404.892 201.075 405.585 201.075 406.385V412.505H198.995V406.665C198.995 405.839 198.829 405.212 198.495 404.785C198.175 404.345 197.682 404.125 197.015 404.125C196.549 404.125 196.129 404.245 195.755 404.485C195.395 404.712 195.115 405.025 194.915 405.425C194.729 405.825 194.635 406.265 194.635 406.745V412.505H192.555V402.805ZM207.928 412.825C206.955 412.825 206.108 412.625 205.388 412.225C204.668 411.812 204.108 411.219 203.708 410.445C203.308 409.672 203.108 408.732 203.108 407.625C203.108 406.639 203.308 405.759 203.708 404.985C204.121 404.199 204.688 403.585 205.408 403.145C206.128 402.705 206.935 402.485 207.828 402.485C208.788 402.485 209.608 402.699 210.288 403.125C210.981 403.552 211.508 404.159 211.868 404.945C212.228 405.719 212.408 406.625 212.408 407.665V408.105H205.208C205.208 408.732 205.328 409.279 205.568 409.745C205.808 410.212 206.128 410.572 206.528 410.825C206.941 411.079 207.408 411.205 207.928 411.205C208.541 411.205 209.055 411.059 209.468 410.765C209.895 410.472 210.155 410.025 210.248 409.425H212.328C212.261 410.065 212.048 410.645 211.688 411.165C211.328 411.672 210.821 412.079 210.168 412.385C209.528 412.679 208.781 412.825 207.928 412.825ZM210.248 406.625C210.235 405.852 210.015 405.232 209.588 404.765C209.161 404.299 208.575 404.065 207.828 404.065C207.108 404.065 206.508 404.312 206.028 404.805C205.561 405.285 205.295 405.892 205.228 406.625H210.248ZM218.227 412.825C217.347 412.825 216.58 412.679 215.927 412.385C215.287 412.092 214.787 411.679 214.427 411.145C214.08 410.599 213.887 409.965 213.847 409.245H215.927C215.953 409.872 216.16 410.365 216.547 410.725C216.947 411.085 217.5 411.265 218.207 411.265C218.807 411.265 219.293 411.139 219.667 410.885C220.04 410.619 220.227 410.272 220.227 409.845C220.227 409.485 220.093 409.199 219.827 408.985C219.56 408.772 219.147 408.612 218.587 408.505L217.247 408.245C216.273 408.059 215.52 407.725 214.987 407.245C214.453 406.765 214.187 406.145 214.187 405.385C214.187 404.839 214.347 404.345 214.667 403.905C215 403.465 215.46 403.119 216.047 402.865C216.633 402.612 217.3 402.485 218.047 402.485C218.873 402.485 219.587 402.619 220.187 402.885C220.787 403.152 221.253 403.525 221.587 404.005C221.92 404.485 222.1 405.059 222.127 405.725H220.067C220.013 405.205 219.8 404.799 219.427 404.505C219.067 404.212 218.587 404.065 217.987 404.065C217.467 404.065 217.047 404.179 216.727 404.405C216.407 404.619 216.247 404.912 216.247 405.285C216.247 405.632 216.367 405.899 216.607 406.085C216.86 406.272 217.28 406.425 217.867 406.545L219.207 406.805C220.18 406.992 220.933 407.319 221.467 407.785C222 408.252 222.267 408.885 222.267 409.685C222.267 410.272 222.1 410.805 221.767 411.285C221.433 411.765 220.96 412.145 220.347 412.425C219.747 412.692 219.04 412.825 218.227 412.825ZM228.651 412.825C227.677 412.825 226.831 412.625 226.111 412.225C225.391 411.812 224.831 411.219 224.431 410.445C224.031 409.672 223.831 408.732 223.831 407.625C223.831 406.639 224.031 405.759 224.431 404.985C224.844 404.199 225.411 403.585 226.131 403.145C226.851 402.705 227.657 402.485 228.551 402.485C229.511 402.485 230.331 402.699 231.011 403.125C231.704 403.552 232.231 404.159 232.591 404.945C232.951 405.719 233.131 406.625 233.131 407.665V408.105H225.931C225.931 408.732 226.051 409.279 226.291 409.745C226.531 410.212 226.851 410.572 227.251 410.825C227.664 411.079 228.131 411.205 228.651 411.205C229.264 411.205 229.777 411.059 230.191 410.765C230.617 410.472 230.877 410.025 230.971 409.425H233.051C232.984 410.065 232.771 410.645 232.411 411.165C232.051 411.672 231.544 412.079 230.891 412.385C230.251 412.679 229.504 412.825 228.651 412.825ZM230.971 406.625C230.957 405.852 230.737 405.232 230.311 404.765C229.884 404.299 229.297 404.065 228.551 404.065C227.831 404.065 227.231 404.312 226.751 404.805C226.284 405.285 226.017 405.892 225.951 406.625H230.971Z" fill="#0F0E0D"></path>
<rect x="355.961" y="60.2554" width="260" height="80" rx="10" fill="white"></rect>
<path d="M454.828 92.2554H464.228V94.1154H457.028V98.1354H463.928V100.015H457.028V104.375H464.508V106.255H454.828V92.2554ZM466.755 96.5554H468.815V97.1154C468.815 97.3687 468.801 97.6354 468.775 97.9154C469.068 97.422 469.468 97.022 469.975 96.7154C470.495 96.3954 471.095 96.2354 471.775 96.2354C472.495 96.2354 473.115 96.3954 473.635 96.7154C474.168 97.022 474.575 97.4687 474.855 98.0554C475.135 98.642 475.275 99.3354 475.275 100.135V106.255H473.195V100.415C473.195 99.5887 473.028 98.962 472.695 98.5354C472.375 98.0954 471.881 97.8754 471.215 97.8754C470.748 97.8754 470.328 97.9954 469.955 98.2354C469.595 98.462 469.315 98.7754 469.115 99.1754C468.928 99.5754 468.835 100.015 468.835 100.495V106.255H466.755V96.5554ZM482.087 110.715C481.207 110.715 480.434 110.562 479.767 110.255C479.114 109.949 478.614 109.522 478.267 108.975C477.921 108.429 477.747 107.789 477.747 107.055H479.827C479.841 107.682 480.047 108.175 480.447 108.535C480.861 108.895 481.421 109.075 482.127 109.075C482.941 109.075 483.581 108.855 484.047 108.415C484.527 107.975 484.767 107.322 484.767 106.455V105.335C484.767 105.002 484.781 104.695 484.807 104.415C484.527 104.909 484.114 105.302 483.567 105.595C483.034 105.889 482.414 106.035 481.707 106.035C480.841 106.035 480.074 105.842 479.407 105.455C478.754 105.055 478.241 104.489 477.867 103.755C477.507 103.009 477.327 102.142 477.327 101.155C477.327 100.182 477.521 99.322 477.907 98.5754C478.307 97.8287 478.841 97.2554 479.507 96.8554C480.174 96.442 480.901 96.2354 481.687 96.2354C482.461 96.2354 483.094 96.3887 483.587 96.6954C484.094 97.002 484.501 97.4087 484.807 97.9154C484.781 97.622 484.767 97.3287 484.767 97.0354V96.5554H486.847V105.855C486.847 107.469 486.434 108.682 485.607 109.495C484.781 110.309 483.607 110.715 482.087 110.715ZM482.187 104.395C482.721 104.395 483.187 104.262 483.587 103.995C484.001 103.715 484.321 103.329 484.547 102.835C484.787 102.342 484.907 101.782 484.907 101.155C484.907 100.529 484.787 99.9687 484.547 99.4754C484.321 98.9687 484.001 98.5754 483.587 98.2954C483.174 98.0154 482.707 97.8754 482.187 97.8754C481.654 97.8754 481.181 98.0154 480.767 98.2954C480.354 98.562 480.027 98.9487 479.787 99.4554C479.561 99.9487 479.447 100.515 479.447 101.155C479.447 101.782 479.561 102.342 479.787 102.835C480.027 103.329 480.354 103.715 480.767 103.995C481.181 104.262 481.654 104.395 482.187 104.395ZM489.567 92.2554H491.647V106.255H489.567V92.2554ZM489.567 92.2554H490.607V93.9354H489.567V92.2554ZM489.567 104.575H491.647V106.255H489.567V104.575ZM494.372 96.5554H496.452V106.255H494.372V96.5554ZM494.372 104.575H496.452V106.255H494.372V104.575ZM494.372 96.5554H495.412V98.2354H494.372V96.5554ZM494.272 92.5954H496.532V94.8954H494.272V92.5954ZM502.816 106.575C501.936 106.575 501.17 106.429 500.516 106.135C499.876 105.842 499.376 105.429 499.016 104.895C498.67 104.349 498.476 103.715 498.436 102.995H500.516C500.543 103.622 500.75 104.115 501.136 104.475C501.536 104.835 502.09 105.015 502.796 105.015C503.396 105.015 503.883 104.889 504.256 104.635C504.63 104.369 504.816 104.022 504.816 103.595C504.816 103.235 504.683 102.949 504.416 102.735C504.15 102.522 503.736 102.362 503.176 102.255L501.836 101.995C500.863 101.809 500.11 101.475 499.576 100.995C499.043 100.515 498.776 99.8954 498.776 99.1354C498.776 98.5887 498.936 98.0954 499.256 97.6554C499.59 97.2154 500.05 96.8687 500.636 96.6154C501.223 96.362 501.89 96.2354 502.636 96.2354C503.463 96.2354 504.176 96.3687 504.776 96.6354C505.376 96.902 505.843 97.2754 506.176 97.7554C506.51 98.2354 506.69 98.8087 506.716 99.4754H504.656C504.603 98.9554 504.39 98.5487 504.016 98.2554C503.656 97.962 503.176 97.8154 502.576 97.8154C502.056 97.8154 501.636 97.9287 501.316 98.1554C500.996 98.3687 500.836 98.662 500.836 99.0354C500.836 99.382 500.956 99.6487 501.196 99.8354C501.45 100.022 501.87 100.175 502.456 100.295L503.796 100.555C504.77 100.742 505.523 101.069 506.056 101.535C506.59 102.002 506.856 102.635 506.856 103.435C506.856 104.022 506.69 104.555 506.356 105.035C506.023 105.515 505.55 105.895 504.936 106.175C504.336 106.442 503.63 106.575 502.816 106.575ZM509.001 92.2554H511.081V97.0154C511.081 97.162 511.074 97.2887 511.061 97.3954C511.061 97.4887 511.054 97.5754 511.041 97.6554C511.041 97.722 511.041 97.8087 511.041 97.9154C511.321 97.4087 511.714 97.002 512.221 96.6954C512.727 96.3887 513.327 96.2354 514.021 96.2354C514.741 96.2354 515.361 96.3954 515.881 96.7154C516.414 97.022 516.821 97.4687 517.101 98.0554C517.381 98.642 517.521 99.3354 517.521 100.135V106.255H515.441V100.415C515.441 99.5887 515.274 98.962 514.941 98.5354C514.607 98.0954 514.107 97.8754 513.441 97.8754C512.974 97.8754 512.561 97.9954 512.201 98.2354C511.841 98.462 511.561 98.7754 511.361 99.1754C511.174 99.5754 511.081 100.015 511.081 100.495V106.255H509.001V92.2554Z" fill="#0F0E0D"></path>
<rect x="355.961" y="366.505" width="260" height="80" rx="10" fill="white"></rect>
<path d="M457.914 412.825C456.594 412.825 455.427 412.519 454.414 411.905C453.414 411.292 452.64 410.432 452.094 409.325C451.56 408.219 451.294 406.959 451.294 405.545C451.294 404.052 451.594 402.752 452.194 401.645C452.794 400.525 453.614 399.665 454.654 399.065C455.707 398.465 456.887 398.165 458.194 398.165C459.274 398.165 460.24 398.359 461.094 398.745C461.947 399.132 462.627 399.672 463.134 400.365C463.654 401.045 463.967 401.825 464.074 402.705H461.754C461.634 401.919 461.254 401.279 460.614 400.785C459.974 400.292 459.174 400.045 458.214 400.045C457.32 400.045 456.52 400.259 455.814 400.685C455.12 401.112 454.574 401.745 454.174 402.585C453.787 403.412 453.594 404.399 453.594 405.545C453.594 406.612 453.78 407.559 454.154 408.385C454.54 409.199 455.074 409.832 455.754 410.285C456.447 410.739 457.24 410.965 458.134 410.965C458.92 410.965 459.607 410.819 460.194 410.525C460.794 410.219 461.26 409.785 461.594 409.225C461.94 408.652 462.114 407.965 462.114 407.165V406.005L463.094 406.985H457.994V405.125H464.134V412.505H462.194V411.965C462.194 411.699 462.194 411.472 462.194 411.285C462.207 411.099 462.227 410.872 462.254 410.605C461.894 411.272 461.327 411.812 460.554 412.225C459.794 412.625 458.914 412.825 457.914 412.825ZM470.858 412.825C469.884 412.825 469.038 412.625 468.318 412.225C467.598 411.812 467.038 411.219 466.638 410.445C466.238 409.672 466.038 408.732 466.038 407.625C466.038 406.639 466.238 405.759 466.638 404.985C467.051 404.199 467.618 403.585 468.338 403.145C469.058 402.705 469.864 402.485 470.758 402.485C471.718 402.485 472.538 402.699 473.218 403.125C473.911 403.552 474.438 404.159 474.798 404.945C475.158 405.719 475.338 406.625 475.338 407.665V408.105H468.138C468.138 408.732 468.258 409.279 468.498 409.745C468.738 410.212 469.058 410.572 469.458 410.825C469.871 411.079 470.338 411.205 470.858 411.205C471.471 411.205 471.984 411.059 472.398 410.765C472.824 410.472 473.084 410.025 473.178 409.425H475.258C475.191 410.065 474.978 410.645 474.618 411.165C474.258 411.672 473.751 412.079 473.098 412.385C472.458 412.679 471.711 412.825 470.858 412.825ZM473.178 406.625C473.164 405.852 472.944 405.232 472.518 404.765C472.091 404.299 471.504 404.065 470.758 404.065C470.038 404.065 469.438 404.312 468.958 404.805C468.491 405.285 468.224 405.892 468.158 406.625H473.178ZM477.516 402.805H479.596V403.385C479.596 403.759 479.583 404.125 479.556 404.485C479.823 403.885 480.203 403.405 480.696 403.045C481.203 402.672 481.803 402.485 482.496 402.485C482.683 402.485 482.843 402.499 482.976 402.525V404.545C482.776 404.505 482.57 404.485 482.356 404.485C481.783 404.485 481.29 404.592 480.876 404.805C480.463 405.019 480.143 405.352 479.916 405.805C479.703 406.259 479.596 406.832 479.596 407.525V412.505H477.516V402.805ZM484.606 402.805H486.686V403.405C486.686 403.672 486.673 403.925 486.646 404.165C486.939 403.672 487.319 403.272 487.786 402.965C488.266 402.645 488.826 402.485 489.466 402.485C490.079 402.485 490.626 402.659 491.106 403.005C491.586 403.339 491.946 403.785 492.186 404.345C492.519 403.799 492.959 403.352 493.506 403.005C494.066 402.659 494.679 402.485 495.346 402.485C495.999 402.485 496.579 402.639 497.086 402.945C497.593 403.239 497.986 403.679 498.266 404.265C498.559 404.852 498.706 405.559 498.706 406.385V412.505H496.646V406.745C496.646 405.905 496.493 405.259 496.186 404.805C495.893 404.352 495.439 404.125 494.826 404.125C494.399 404.125 494.019 404.245 493.686 404.485C493.366 404.712 493.119 405.032 492.946 405.445C492.773 405.845 492.686 406.292 492.686 406.785V412.505H490.626V406.765C490.626 405.925 490.479 405.279 490.186 404.825C489.893 404.359 489.439 404.125 488.826 404.125C488.399 404.125 488.026 404.245 487.706 404.485C487.386 404.712 487.133 405.032 486.946 405.445C486.773 405.859 486.686 406.325 486.686 406.845V412.505H484.606V402.805ZM504.144 412.825C503.558 412.825 503.004 412.705 502.484 412.465C501.978 412.225 501.571 411.879 501.264 411.425C500.958 410.972 500.804 410.445 500.804 409.845C500.804 408.899 501.118 408.185 501.744 407.705C502.384 407.212 503.238 406.885 504.304 406.725L506.044 406.485C506.418 406.432 506.678 406.332 506.824 406.185C506.984 406.039 507.064 405.832 507.064 405.565C507.064 405.112 506.898 404.752 506.564 404.485C506.244 404.205 505.818 404.065 505.284 404.065C504.644 404.065 504.138 404.232 503.764 404.565C503.404 404.885 503.204 405.325 503.164 405.885H501.064C501.104 405.259 501.291 404.685 501.624 404.165C501.971 403.645 502.444 403.239 503.044 402.945C503.644 402.639 504.344 402.485 505.144 402.485C506.024 402.485 506.758 402.645 507.344 402.965C507.944 403.272 508.391 403.725 508.684 404.325C508.978 404.912 509.124 405.625 509.124 406.465V412.505H507.164V412.065C507.164 411.785 507.184 411.492 507.224 411.185C506.958 411.705 506.564 412.112 506.044 412.405C505.524 412.685 504.891 412.825 504.144 412.825ZM504.584 411.265C505.051 411.265 505.478 411.165 505.864 410.965C506.251 410.752 506.551 410.459 506.764 410.085C506.991 409.712 507.104 409.285 507.104 408.805V407.545C507.024 407.639 506.898 407.719 506.724 407.785C506.551 407.852 506.311 407.912 506.004 407.965L504.884 408.185C504.271 408.305 503.791 408.492 503.444 408.745C503.098 408.999 502.924 409.352 502.924 409.805C502.924 410.245 503.084 410.599 503.404 410.865C503.724 411.132 504.118 411.265 504.584 411.265ZM511.715 402.805H513.775V403.365C513.775 403.619 513.762 403.885 513.735 404.165C514.029 403.672 514.429 403.272 514.935 402.965C515.455 402.645 516.055 402.485 516.735 402.485C517.455 402.485 518.075 402.645 518.595 402.965C519.129 403.272 519.535 403.719 519.815 404.305C520.095 404.892 520.235 405.585 520.235 406.385V412.505H518.155V406.665C518.155 405.839 517.989 405.212 517.655 404.785C517.335 404.345 516.842 404.125 516.175 404.125C515.709 404.125 515.289 404.245 514.915 404.485C514.555 404.712 514.275 405.025 514.075 405.425C513.889 405.825 513.795 406.265 513.795 406.745V412.505H511.715V402.805Z" fill="#0F0E0D"></path>
</svg>
