<svg width="686" height="686" viewBox="0 0 686 686" fill="none" xmlns="http://www.w3.org/2000/svg">
<rect width="685" height="685" transform="translate(0.960938 0.980469)" fill="#FAFAF9"></rect>
<g clip-path="url(#clip0_468_2339)">
<path d="M172.898 274.98H258.523L284.211 300.668V386.293L258.523 411.98H172.898L147.211 386.293V300.668L172.898 274.98Z" fill="#0F0E0D"></path>
<g clip-path="url(#clip1_468_2339)">
<path d="M256.383 379.871H219.992L230.695 369.168V349.903H200.727V369.168L211.43 379.871H175.039L185.742 369.168V317.793L175.039 307.09H211.43L200.727 317.793V337.059H230.695V317.793L219.992 307.09H256.383L245.68 317.793V369.168L256.383 379.871Z" fill="#FAFAF9"></path>
</g>
</g>
<path d="M301.336 421.365L368.329 265.596H375.316L308.323 421.365H301.336Z" fill="#0F0E0D"></path>
<g clip-path="url(#clip2_468_2339)">
<path d="M533.434 274.98H432.966C429.498 274.98 426.688 277.791 426.688 281.259V309.23L484.913 326.355L539.713 309.23V281.259C539.713 277.791 536.902 274.98 533.434 274.98Z" fill="#41A5EE"></path>
<path d="M539.713 309.23H426.688V343.48L484.913 353.755L539.713 343.48V309.23Z" fill="#2B7CD3"></path>
<path d="M426.688 343.48V377.73L481.488 384.58L539.713 377.73V343.48H426.688Z" fill="#185ABD"></path>
<path d="M432.966 411.98H533.435C536.902 411.98 539.713 409.17 539.713 405.702V377.73H426.688V405.702C426.688 409.17 429.498 411.98 432.966 411.98Z" fill="#103F91"></path>
<path opacity="0.1" d="M468.359 302.381H426.688V388.006H468.359C471.822 387.995 474.626 385.19 474.638 381.728V308.659C474.626 305.196 471.822 302.392 468.359 302.381Z" fill="black"></path>
<path opacity="0.2" d="M464.934 305.805H426.688V391.43H464.934C468.397 391.418 471.201 388.614 471.213 385.152V312.083C471.201 308.62 468.397 305.816 464.934 305.805Z" fill="black"></path>
<path opacity="0.2" d="M464.934 305.805H426.688V384.58H464.934C468.397 384.568 471.201 381.764 471.213 378.302V312.083C471.201 308.62 468.397 305.816 464.934 305.805Z" fill="black"></path>
<path opacity="0.2" d="M461.509 305.805H426.688V384.58H461.509C464.972 384.568 467.776 381.764 467.787 378.302V312.083C467.776 308.62 464.972 305.816 461.509 305.805Z" fill="black"></path>
<path d="M398.716 305.805H461.509C464.977 305.805 467.787 308.615 467.787 312.083V374.877C467.787 378.344 464.977 381.155 461.509 381.155H398.716C395.248 381.155 392.438 378.344 392.438 374.877V312.083C392.438 308.615 395.248 305.805 398.716 305.805Z" fill="url(#paint0_linear_468_2339)"></path>
<path d="M418.198 353.954C418.321 354.923 418.403 355.766 418.441 356.489H418.585C418.64 355.804 418.754 354.978 418.927 354.012C419.101 353.046 419.257 352.23 419.396 351.563L426 323.074H434.538L441.388 351.135C441.786 352.88 442.071 354.649 442.241 356.43H442.354C442.482 354.704 442.72 352.988 443.067 351.293L448.53 323.061H456.301L446.704 363.887H437.624L431.117 336.85C430.929 336.072 430.713 335.055 430.476 333.805C430.24 332.555 430.093 331.64 430.035 331.065H429.922C429.846 331.729 429.699 332.716 429.48 334.024C429.26 335.332 429.085 336.3 428.952 336.928L422.835 363.88H413.601L403.953 323.074H411.865L417.814 351.622C417.948 352.207 418.074 352.988 418.198 353.954Z" fill="white"></path>
</g>
<defs>
<linearGradient id="paint0_linear_468_2339" x1="405.527" y1="300.899" x2="454.698" y2="386.06" gradientUnits="userSpaceOnUse">
<stop stop-color="#2368C4"></stop>
<stop offset="0.5" stop-color="#1A5DBE"></stop>
<stop offset="1" stop-color="#1146AC"></stop>
</linearGradient>
<clipPath id="clip0_468_2339">
<rect width="137" height="137" fill="white" transform="translate(147.211 274.98)"></rect>
</clipPath>
<clipPath id="clip1_468_2339">
<rect width="81.3438" height="72.7813" fill="white" transform="translate(175.039 307.09)"></rect>
</clipPath>
<clipPath id="clip2_468_2339">
<rect width="147.275" height="137" fill="white" transform="translate(392.438 274.98)"></rect>
</clipPath>
</defs>
</svg>
