<svg xmlns="http://www.w3.org/2000/svg" width="162" height="200" fill="none"><path fill="#8F8B85" d="m36.709 118.999-18.26-19.996-11.441 8.449v11.547H.706V81h6.302v19.676L33.613 81h9.083l-19.42 14.379 21.52 23.62h-8.087ZM95.68 118.999 77.42 99.003l-11.444 8.449v11.547h-6.304V81h6.304v19.676L92.586 81h9.081L82.245 95.379l21.525 23.62h-8.09ZM153.781 118.999 143.5 104.511h-19.215v14.488h-6.291V81h29.965c7.98 0 12.801 4.618 12.801 11.966 0 6.713-4.196 10.288-9.864 11.229L161.084 119l-7.303-.001Zm.53-26.035c0-4.202-2.579-6.248-7.867-6.248h-22.159v12.07h22.725c4.722 0 7.301-2.097 7.301-5.822Z"></path></svg>