<svg xmlns="http://www.w3.org/2000/svg" width="167" height="200" fill="none"><path fill="#8F8B85" d="M44.962 139.069a1.447 1.447 0 0 0 0 2.896c.782 0 1.419-.649 1.419-1.448 0-.798-.637-1.448-1.42-1.448ZM57.633 145.72l-.095.095c-.397.399-1.052.541-1.532.541-1.735 0-2.099-1.324-2.099-2.436v-7.901h4.13v-1.593h-4.13v-3.939l-.28-.212-1.462.196v3.955h-2.243v1.593h2.243v7.926c0 2.539 1.407 4.055 3.764 4.055.933 0 1.78-.294 2.451-.849l.165-.334-.542-1.019-.37-.078ZM39.377 134.426l-3.422 9.996-3.542-9.996h-1.087l-3.565 9.946-3.373-9.946H22.82l-.206.349 4.66 12.918h1.009l3.573-9.941 3.573 9.941h1.008l4.647-12.808.032-.089-.149-.37h-1.591ZM66.114 134.119c-1.893 0-3.805.751-5.114 2.011l-.077.072v.287l.68.96h.35l.071-.065c1.131-1.03 2.622-1.621 4.09-1.621 2.235 0 3.678 1.317 3.678 3.355v1.127c-.972-.477-2.378-.966-4.06-.966-3.304 0-5.523 1.773-5.523 4.411 0 2.578 2.066 4.31 5.14 4.31 1.743 0 3.355-.675 4.443-1.833v1.526h1.716v-8.371c0-3.21-2.067-5.203-5.394-5.203Zm3.678 7.852v.877c0 2.279-2.25 3.508-4.366 3.508-2.048 0-3.423-1.061-3.423-2.64 0-1.686 1.508-2.818 3.755-2.818 1.52 0 3.055.542 4.034 1.073ZM15.444 134.119c-1.893 0-3.805.751-5.115 2.011l-.077.072v.287l.68.96h.35l.071-.065c1.131-1.03 2.622-1.621 4.09-1.621 2.235 0 3.678 1.317 3.678 3.355v1.127c-.97-.477-2.377-.966-4.06-.966-3.303 0-5.523 1.773-5.523 4.411 0 2.578 2.066 4.31 5.14 4.31 1.744 0 3.356-.675 4.443-1.832v1.525h1.717v-8.371c0-3.21-2.067-5.203-5.394-5.203Zm3.677 7.852v.877c0 2.279-2.25 3.508-4.366 3.508-2.048 0-3.423-1.061-3.423-2.64 0-1.686 1.508-2.818 3.754-2.818 1.522 0 3.057.542 4.035 1.073ZM5.358 129.96v17.733h1.743v-17.718l-.283-.21-1.46.195ZM85.296 134.819l-.235-.393h-1.536l-4.058 5.283-4.059-5.283h-1.64l-.163.415 4.734 6.14-4.939 6.297.165.415h1.588l4.19-5.418 4.337 5.418h1.585l.235-.395-5.005-6.317 4.8-6.162ZM136.663 142.362c0 2.389-1.601 3.994-3.985 3.994-2.154 0-3.601-1.523-3.601-3.789v-8.141h-1.768v8.141c0 3.199 2.145 5.433 5.217 5.433 1.726 0 3.221-.659 4.213-1.833v1.526h1.692v-13.267h-1.768v7.936ZM159.92 136.439c-1.134-1.496-2.86-2.32-4.861-2.32-3.805 0-6.567 2.93-6.567 6.966 0 4.54 3.432 6.915 6.822 6.915 2.31 0 4.569-1.063 5.756-2.709l.047-.065v-.323l-.921-.77h-.342l-.074.101c-.923 1.249-2.77 2.122-4.491 2.122-2.692 0-4.717-1.894-5.007-4.64h10.895l.209-.002.034-.207c.026-.16.054-.326.054-.601-.001-1.687-.555-3.277-1.554-4.467Zm-9.608 3.606c.32-2.573 2.198-4.282 4.747-4.282 1.576 0 2.835.642 3.652 1.869.491.649.813 1.479.94 2.413h-9.339ZM124.953 145.72l-.095.095c-.337.339-.91.541-1.533.541-1.734 0-2.098-1.324-2.098-2.436v-7.901h4.129v-1.593h-4.129v-3.94l-.282-.211-1.46.196v3.955h-2.242v1.593h2.242v7.926c0 2.539 1.408 4.055 3.764 4.055.946 0 1.771-.286 2.45-.849l.165-.334-.541-1.019-.37-.078ZM148.414 134.542l-.069-.036c-.491-.261-1.054-.387-1.72-.387-1.37 0-2.57.653-3.398 1.819v-1.512h-1.691v13.267h1.742v-7.579c0-2.466 1.362-4.325 3.168-4.325.492 0 .865.086 1.174.271l.116.069.301-.152.516-1.158-.139-.277ZM89.551 139.069a1.447 1.447 0 0 0 0 2.896c.782 0 1.419-.649 1.419-1.448 0-.798-.637-1.448-1.419-1.448ZM103.072 130.173c-.655-.421-1.517-.652-2.427-.652-2.04 0-4.223 1.226-4.223 4.666v.238h-2.217v1.594h2.217v11.674h1.743v-11.674h4.027v-1.594h-4.027v-.238c0-1.966.89-3.048 2.506-3.048.577 0 1.088.143 1.607.451l.105.063.325-.133.518-1.006-.071-.288-.083-.053ZM113.394 142.362c0 2.389-1.601 3.994-3.984 3.994-2.154 0-3.601-1.523-3.601-3.789v-8.141h-1.767v8.141c0 3.199 2.145 5.433 5.216 5.433 1.726 0 3.221-.659 4.212-1.832v1.525h1.692v-13.267h-1.768v7.936ZM142.634 64c-12.327 0-20.609 6.96-20.609 17.319v.157c0 11.395 9.123 14.446 20.144 17.012 7.196 1.7 9.389 3.015 9.389 5.626v.158c0 2.628-2.379 4.135-6.527 4.135-6.218 0-12.104-2.183-17.501-6.489l-7.921 9.653c6.377 5.701 15.198 8.837 24.881 8.837 13.284 0 21.536-6.757 21.536-17.635v-.157c0-10.323-7.959-14.204-19.909-16.855-7.646-1.77-9.624-2.942-9.624-5.704v-.158c0-1.885 1.511-3.9 5.754-3.9 4.857 0 10.196 1.883 15.07 5.307l7.115-10.252C158.517 66.308 151.383 64 142.634 64ZM114.033 65.246H99.527l-13.395 22.34-13.396-22.34H58.229v53.899h12.975V85.28l14.772 23.2 14.85-23.363v34.028h13.207v-53.9ZM29.426 64c-8.71.207-13.044 5.286-14.386 7.23l-.473.713c-2.803 4.5-4.24 9.95-3.867 15.861l.01.155c.906 14.332 11.902 24.632 25.91 24.632.609 0 1.222-.019 1.841-.058 5.53-.351 10.069-1.786 13.874-4.385l-11.266-8.046c-3.247 3.952-6.571 6.588-12.215 6.588-7.577 0-12.91-6.355-12.91-14.492v-.155c0-7.905 5.333-14.337 12.91-14.337 5.18 0 8.736 2.48 11.828 6.354l11.289-8.757c-3.27-4.546-7.622-8.15-13.565-9.985-.076-.022-.146-.04-.223-.063a34.603 34.603 0 0 0-2.264-.57c-1.997-.421-4.154-.66-6.493-.685Z"></path><path fill="#8F8B85" d="M6.76 86.843c0-3.015.463-5.925 1.323-8.662a29.098 29.098 0 0 1 3.99-8.948l-.01.005C4.923 74.316.48 82.633.48 92.198v.155c0 16.197 12.448 28.053 27.91 28.053 7.685 0 13.271-2.135 17.636-5.527l-.022.007c-2.263.621-4.696 1.011-7.32 1.179-.667.042-1.331.062-1.988.062-3.65 0-7.136-.65-10.358-1.838C14.95 110.318 6.759 99.518 6.759 86.843Z"></path></svg>