<svg xmlns="http://www.w3.org/2000/svg" fill="none" viewBox="0 0 284 200" height="200" width="284">
<g clip-path="url(#clip0_5775_15585)">
<path fill="#8F8B85" d="M28.0036 78.4366C28.0036 84.6575 28.0036 89.8001 28.3382 92.5373C28.5055 94.4451 28.9236 95.8552 30.9309 96.104C31.8509 96.2699 33.2727 96.3528 33.8582 96.3528C34.2764 96.3528 34.36 96.5187 34.36 96.7676C34.36 97.0994 34.0255 97.2652 33.2727 97.2652C29.6764 97.2652 25.4945 97.0994 25.16 97.0994C24.8255 97.0994 20.7273 97.2652 18.72 97.2652C17.9673 97.2652 17.6327 97.0994 17.6327 96.7676C17.6327 96.6017 17.8 96.3528 18.1345 96.3528C18.72 96.3528 19.4727 96.1869 20.1418 96.104C21.48 95.8552 21.8145 94.4451 22.0655 92.5373C22.4 89.8001 22.4 84.6575 22.4 78.4366V50.8986L12.7818 51.0645C8.68364 51.1474 7.09455 51.5621 6.09091 53.1381C5.33818 54.2164 5.17091 54.6311 5.00364 55.1288C4.83636 55.6265 4.58545 55.7924 4.33455 55.7924C4.16727 55.7924 4 55.6265 4 55.2118C4 54.5482 5.33818 48.9908 5.42182 48.4102C5.58909 47.9955 5.84 47.166 6.09091 47.166C6.59273 47.166 7.17818 47.8296 9.01818 47.9955C10.9418 48.1614 13.4509 48.3273 14.2036 48.3273H38.8764C40.9673 48.3273 42.4727 48.1614 43.56 47.9955C44.5636 47.8296 45.1491 47.6637 45.4 47.6637C45.7345 47.6637 45.7345 48.0784 45.7345 48.4102C45.7345 50.4009 45.5673 54.88 45.5673 55.5435C45.5673 56.1242 45.4 56.373 45.0655 56.373C44.7309 56.373 44.5636 56.2071 44.5636 55.2947L44.48 54.5482C44.3127 52.5575 42.7236 51.0645 36.3673 50.9815L28.0873 50.8156V78.4366H28.0036Z"></path>
<path stroke-miterlimit="10" stroke-width="0.25" stroke="#8F8B85" fill="#8F8B85" d="M70.0732 84.7407C70.0732 88.888 70.0732 92.3717 70.3242 94.1965C70.4914 95.4407 70.7423 96.4361 71.9969 96.602C72.5823 96.6849 73.586 96.7678 74.0041 96.7678C74.2551 96.7678 74.3387 96.9337 74.3387 97.0167C74.3387 97.2655 74.0878 97.3485 73.6696 97.3485C71.2441 97.3485 68.4842 97.1826 68.2332 97.1826C67.9823 97.1826 65.2223 97.3485 63.9678 97.3485C63.466 97.3485 63.2987 97.2655 63.2987 97.0167C63.2987 96.8508 63.3823 96.7678 63.6332 96.7678C64.0514 96.7678 64.5532 96.6849 64.9714 96.602C65.8914 96.4361 66.0587 95.4407 66.226 94.1965C66.4769 92.3717 66.4769 88.9709 66.4769 84.7407V80.1787C66.4769 80.0128 66.3096 79.9299 66.226 79.9299H47.4914C47.3241 79.9299 47.2405 80.0128 47.2405 80.1787V84.7407C47.2405 88.888 47.2405 92.3717 47.4914 94.1965C47.6587 95.4407 47.9096 96.4361 49.1641 96.602C49.7496 96.6849 50.7532 96.7678 51.1714 96.7678C51.4223 96.7678 51.506 96.9337 51.506 97.0167C51.506 97.2655 51.2551 97.3485 50.8369 97.3485C48.4114 97.3485 45.6514 97.1826 45.4005 97.1826C45.1496 97.1826 42.3896 97.3485 41.1351 97.3485C40.6332 97.3485 40.466 97.2655 40.466 97.0167C40.466 96.8508 40.5496 96.7678 40.8005 96.7678C41.2187 96.7678 41.7205 96.6849 42.1387 96.602C42.9751 96.4361 43.226 95.4407 43.3932 94.1965C43.6441 92.3717 43.6441 88.9709 43.6441 84.7407V77.1097C43.6441 70.3082 43.6441 69.1469 43.5605 67.7368C43.4769 66.2438 43.1423 65.5802 41.6369 65.2485C41.3023 65.1655 40.5496 65.0826 40.1314 65.0826C39.9641 65.0826 39.7969 64.9996 39.7969 64.8337C39.7969 64.5849 40.0478 64.502 40.466 64.502C42.4732 64.502 45.2332 64.6678 45.4005 64.6678C45.6514 64.6678 48.4114 64.502 49.666 64.502C50.1678 64.502 50.3351 64.5849 50.3351 64.8337C50.3351 64.9996 50.1678 65.0826 50.0005 65.0826C49.666 65.0826 49.4151 65.1655 48.9132 65.2485C47.7423 65.4973 47.4078 66.2438 47.3241 67.7368C47.2405 69.1469 47.2405 70.3082 47.2405 77.1097V78.0221C47.2405 78.2709 47.4078 78.2709 47.4914 78.2709H66.0587C66.226 78.2709 66.3096 78.188 66.3096 78.0221V77.1097C66.3096 70.3082 66.3096 69.1469 66.226 67.7368C66.1423 66.2438 65.8078 65.5802 64.3023 65.2485C63.9678 65.1655 63.2151 65.0826 62.7969 65.0826C62.6296 65.0826 62.4623 64.9996 62.4623 64.8337C62.4623 64.5849 62.7132 64.502 63.1314 64.502C65.1387 64.502 67.8987 64.6678 68.066 64.6678C68.3169 64.6678 71.0769 64.502 72.3314 64.502C72.8332 64.502 73.0005 64.5849 73.0005 64.8337C73.0005 64.9996 72.8332 65.0826 72.666 65.0826C72.3314 65.0826 72.0805 65.1655 71.5787 65.2485C70.4078 65.4973 70.0732 66.2438 69.9896 67.7368C70.0732 69.064 70.0732 70.3082 70.0732 77.0268V84.7407Z"></path>
<path stroke-miterlimit="10" stroke-width="0.25" stroke="#8F8B85" fill="#8F8B85" d="M94.6604 63.8379C104.529 63.8379 111.889 69.9759 111.889 80.1782C111.889 89.9658 104.948 98.0115 94.4095 98.0115C82.3658 98.0115 77.3477 88.7216 77.3477 80.9247C77.3477 73.7914 82.5331 63.8379 94.6604 63.8379ZM95.5804 96.2697C99.5113 96.2697 107.708 94.0301 107.708 81.3394C107.708 70.8883 101.268 65.248 94.4095 65.248C87.0495 65.248 81.6131 70.0588 81.6131 79.5976C81.5295 89.7999 87.6349 96.2697 95.5804 96.2697Z"></path>
<path stroke-miterlimit="10" stroke-width="0.25" stroke="#8F8B85" fill="#8F8B85" d="M152.538 91.8736C152.706 93.4496 153.04 95.855 154.88 96.5186C156.135 96.9333 157.306 96.9333 157.724 96.9333C157.975 96.9333 158.058 97.0162 158.058 97.1821C158.058 97.431 157.64 97.5969 157.138 97.5969C156.135 97.5969 151.451 97.431 149.778 97.348C148.775 97.2651 148.524 97.0992 148.524 96.9333C148.524 96.7674 148.607 96.6845 148.858 96.6015C149.109 96.5186 149.109 95.855 149.025 95.0256L147.018 72.4643H146.851L136.062 95.1085C135.142 97.0162 134.975 97.431 134.64 97.431C134.306 97.431 134.138 97.0162 133.302 95.4403C132.131 93.2837 128.367 85.8186 128.2 85.3209C127.782 84.5744 122.931 74.1232 122.429 72.879H122.262L120.506 93.0349C120.422 93.6984 120.422 94.5279 120.422 95.2744C120.422 95.938 120.924 96.5186 121.593 96.6015C122.346 96.7674 123.015 96.8504 123.266 96.8504C123.433 96.8504 123.6 96.9333 123.6 97.0992C123.6 97.431 123.349 97.5139 122.847 97.5139C121.258 97.5139 119.084 97.348 118.749 97.348C118.331 97.348 116.24 97.5139 115.069 97.5139C114.651 97.5139 114.316 97.431 114.316 97.0992C114.316 96.9333 114.567 96.8504 114.735 96.8504C115.069 96.8504 115.404 96.8504 116.073 96.6845C117.495 96.4356 117.662 94.6938 117.829 93.0349L121.007 64.6674C121.091 64.1697 121.258 63.9209 121.509 63.9209C121.76 63.9209 121.927 64.0868 122.178 64.5845L135.644 91.9566L148.524 64.6674C148.691 64.2527 148.858 64.0038 149.193 64.0038C149.527 64.0038 149.611 64.3356 149.695 65.1651L152.538 91.8736Z"></path>
<path stroke-miterlimit="10" stroke-width="0.25" stroke="#8F8B85" fill="#8F8B85" d="M163.746 77.0267C163.746 70.2251 163.746 69.0639 163.662 67.6538C163.578 66.1608 163.244 65.4972 161.738 65.1655C161.404 65.0825 160.651 64.9996 160.233 64.9996C160.066 64.9996 159.898 64.9166 159.898 64.7507C159.898 64.5019 160.149 64.4189 160.568 64.4189C162.575 64.4189 165.168 64.5848 165.502 64.5848C166.506 64.5848 169.015 64.4189 171.022 64.4189C176.542 64.4189 178.466 66.2438 179.218 66.9073C180.222 67.8197 181.393 69.8104 181.393 72.05C181.393 78.1879 176.793 82.4182 170.604 82.4182C170.353 82.4182 169.935 82.4182 169.684 82.4182C169.433 82.4182 169.182 82.3352 169.182 82.0864C169.182 81.7546 169.433 81.6717 170.353 81.6717C174.618 81.6717 177.964 78.6027 177.964 74.5383C177.964 73.1282 177.797 70.2251 175.538 67.8197C173.197 65.4972 170.52 65.6631 169.517 65.6631C168.764 65.6631 168.011 65.7461 167.593 65.912C167.342 65.9949 167.258 66.3267 167.258 66.7414V84.6577C167.258 88.805 167.258 92.2887 167.509 94.1135C167.677 95.3577 167.928 96.3531 169.182 96.5189C169.768 96.6019 170.771 96.6848 171.189 96.6848C171.44 96.6848 171.524 96.8507 171.524 96.9337C171.524 97.1825 171.273 97.2655 170.855 97.2655C168.429 97.2655 165.669 97.0996 165.502 97.0996C165.335 97.0996 162.575 97.2655 161.32 97.2655C160.818 97.2655 160.651 97.1825 160.651 96.9337C160.651 96.7678 160.735 96.6848 160.986 96.6848C161.404 96.6848 161.906 96.6019 162.324 96.5189C163.16 96.3531 163.411 95.3577 163.578 94.1135C163.829 92.2887 163.829 88.8879 163.829 84.6577V77.0267H163.746Z"></path>
<path stroke-miterlimit="10" stroke-width="0.25" stroke="#8F8B85" fill="#8F8B85" d="M187.079 96.7674C186.494 96.4356 186.41 96.2697 186.41 95.1085C186.41 92.9519 186.577 91.21 186.661 90.4635C186.745 89.9659 186.828 89.8 186.996 89.8C187.247 89.8 187.33 89.9659 187.33 90.2976C187.33 90.7124 187.33 91.293 187.497 91.8736C188.167 95.1085 191.094 96.3527 194.021 96.3527C198.203 96.3527 200.294 93.3666 200.294 90.5465C200.294 87.5604 199.039 85.8186 195.276 82.7496L193.268 81.1736C188.585 77.3581 187.581 74.7038 187.581 71.7178C187.581 67.0728 191.094 63.9209 196.697 63.9209C198.37 63.9209 199.708 64.0868 200.796 64.3356C201.632 64.5015 201.967 64.5845 202.301 64.5845C202.636 64.5845 202.719 64.6674 202.719 64.9162C202.719 65.1651 202.552 66.5752 202.552 69.5612C202.552 70.2248 202.468 70.5566 202.217 70.5566C201.967 70.5566 201.883 70.3077 201.883 69.9759C201.799 69.4783 201.548 68.317 201.297 67.8193C201.047 67.3217 199.876 65.4969 195.777 65.4969C192.767 65.4969 190.341 67.4046 190.341 70.5566C190.341 73.0449 191.512 74.6209 195.694 77.8558L196.948 78.8511C202.134 82.9155 203.388 85.5697 203.388 89.0535C203.388 90.8783 202.719 94.1131 199.625 96.2697C197.701 97.5969 195.359 98.0945 193.017 98.0945C190.927 97.9286 188.919 97.6798 187.079 96.7674Z"></path>
<path stroke-miterlimit="10" stroke-width="0.25" stroke="#8F8B85" fill="#8F8B85" d="M225.051 63.8379C234.92 63.8379 242.28 69.9759 242.28 80.1782C242.28 89.9658 235.338 98.0115 224.8 98.0115C212.756 98.0115 207.738 88.7216 207.738 80.9247C207.738 73.7914 212.924 63.8379 225.051 63.8379ZM225.971 96.2697C229.902 96.2697 238.098 94.0301 238.098 81.3394C238.098 70.8883 231.658 65.248 224.716 65.248C217.356 65.248 211.92 70.0588 211.92 79.5976C211.92 89.7999 218.026 96.2697 225.971 96.2697Z"></path>
<path stroke-miterlimit="10" stroke-width="0.25" stroke="#8F8B85" fill="#8F8B85" d="M250.559 91.4588C250.642 95.0255 251.06 96.1867 252.231 96.5185C253.068 96.7673 254.071 96.7673 254.406 96.7673C254.657 96.7673 254.74 96.8503 254.74 97.0162C254.74 97.265 254.489 97.348 253.988 97.348C251.479 97.348 249.722 97.1821 249.304 97.1821C248.886 97.1821 247.046 97.348 245.122 97.348C244.704 97.348 244.453 97.265 244.453 97.0162C244.453 96.8503 244.62 96.7673 244.788 96.7673C245.122 96.7673 245.959 96.6844 246.544 96.5185C247.631 96.1867 247.882 94.9425 247.882 90.9611L247.966 65.9945C247.966 64.3356 248.133 63.8379 248.468 63.8379C248.802 63.8379 249.555 64.8332 249.973 65.248C250.642 65.9945 257.166 72.9619 263.94 80.1782C268.289 84.8232 273.057 90.1317 274.479 91.5418L273.977 69.3953C273.893 66.5751 273.642 65.5798 272.304 65.248C271.551 65.0821 270.548 64.9991 270.129 64.9991C269.795 64.9991 269.795 64.8332 269.795 64.6673C269.795 64.4185 270.129 64.3356 270.631 64.3356C272.639 64.3356 274.729 64.5015 275.231 64.5015C275.733 64.5015 277.155 64.3356 278.995 64.3356C279.497 64.3356 279.748 64.4185 279.748 64.6673C279.748 64.8332 279.58 64.9991 279.246 64.9991C278.995 64.9991 278.744 64.9991 278.159 65.165C276.737 65.4968 276.569 66.4092 276.569 69.0635L276.486 94.5278C276.486 97.4309 276.402 97.5968 276.068 97.5968C275.733 97.5968 275.231 97.0991 272.889 94.7766C272.388 94.3619 266.115 87.9751 261.431 82.9984C256.329 77.5239 251.395 72.0495 249.973 70.4735L250.559 91.4588Z"></path>
<path fill="#8F8B85" d="M114.316 134.673C114.316 140.977 114.316 146.203 114.651 148.94C114.818 150.848 115.236 152.258 117.244 152.59C118.164 152.755 119.669 152.838 120.255 152.838C120.673 152.838 120.756 153.004 120.756 153.253C120.756 153.585 120.422 153.751 119.669 153.751C115.989 153.751 111.807 153.585 111.473 153.585C111.138 153.585 106.956 153.751 104.949 153.751C104.196 153.751 103.862 153.585 103.862 153.253C103.862 153.087 104.029 152.838 104.364 152.838C104.949 152.838 105.785 152.673 106.371 152.59C107.709 152.341 108.044 150.848 108.295 148.94C108.629 146.203 108.629 140.977 108.629 134.673V127.789C108.629 127.54 108.462 127.374 108.211 127.374H80.1928C80.0255 127.374 79.7746 127.457 79.7746 127.789V134.673C79.7746 140.977 79.7746 146.203 80.1091 148.94C80.2764 150.848 80.6946 152.258 82.7019 152.59C83.6219 152.755 85.1273 152.838 85.7128 152.838C86.1309 152.838 86.2146 153.004 86.2146 153.253C86.2146 153.585 85.88 153.751 85.1273 153.751C81.4473 153.751 77.2655 153.585 76.9309 153.585C76.5964 153.585 72.4146 153.751 70.4073 153.751C69.6546 153.751 69.32 153.585 69.32 153.253C69.32 153.087 69.4873 152.838 69.8219 152.838C70.4073 152.838 71.2437 152.673 71.8291 152.59C73.1673 152.341 73.5019 150.848 73.7528 148.94C74.0873 146.203 74.0873 140.977 74.0873 134.673V123.061C74.0873 112.776 74.0873 110.951 73.92 108.794C73.7528 106.555 73.2509 105.476 71.0764 105.062C70.5746 104.896 69.4037 104.896 68.8182 104.896C68.5673 104.896 68.3164 104.73 68.3164 104.481C68.3164 104.066 68.6509 103.983 69.4037 103.983C72.4146 103.983 76.5964 104.149 76.9309 104.149C77.2655 104.149 81.4473 103.983 83.4546 103.983C84.2073 103.983 84.5419 104.149 84.5419 104.481C84.5419 104.73 84.2909 104.896 84.04 104.896C83.5382 104.896 83.2037 104.979 82.3673 105.062C80.6109 105.393 80.0255 106.472 79.9419 108.794C79.7746 110.868 79.7746 112.776 79.7746 123.061V124.471C79.7746 124.803 79.9419 124.886 80.1928 124.886H108.378C108.545 124.886 108.796 124.803 108.796 124.471V123.061C108.796 112.776 108.796 110.951 108.629 108.794C108.462 106.555 107.96 105.476 105.785 105.062C105.284 104.896 104.113 104.896 103.527 104.896C103.276 104.896 103.025 104.73 103.025 104.481C103.025 104.066 103.36 103.983 104.113 103.983C107.124 103.983 111.305 104.149 111.64 104.149C111.975 104.149 116.156 103.983 118.164 103.983C118.916 103.983 119.251 104.149 119.251 104.481C119.251 104.73 119 104.896 118.749 104.896C118.247 104.896 117.913 104.979 117.076 105.062C115.32 105.393 114.735 106.472 114.651 108.794C114.484 110.868 114.484 112.776 114.484 123.061V134.673H114.316Z"></path>
<path stroke-miterlimit="10" stroke-width="0.25" stroke="#8F8B85" fill="#8F8B85" d="M129.37 124.305C129.37 128.453 129.37 131.936 129.621 133.761C129.788 135.005 130.039 136.001 131.294 136.166C131.879 136.249 132.883 136.332 133.301 136.332C133.552 136.332 133.635 136.498 133.635 136.581C133.635 136.83 133.384 136.913 132.966 136.913C130.541 136.913 127.781 136.747 127.53 136.747C127.279 136.747 124.519 136.913 123.264 136.913C122.763 136.913 122.595 136.83 122.595 136.581C122.595 136.415 122.679 136.332 122.93 136.332C123.348 136.332 123.85 136.249 124.268 136.166C125.188 136.001 125.355 135.005 125.523 133.761C125.774 131.936 125.774 128.535 125.774 124.305V116.674C125.774 109.873 125.774 108.628 125.69 107.301C125.606 105.808 125.188 105.062 124.184 104.896C123.683 104.73 123.097 104.73 122.846 104.73C122.679 104.73 122.512 104.647 122.512 104.481C122.512 104.232 122.763 104.149 123.181 104.149C124.603 104.149 127.363 104.315 127.614 104.315C127.864 104.315 130.624 104.149 131.879 104.149C132.381 104.149 132.548 104.232 132.548 104.481C132.548 104.647 132.381 104.73 132.214 104.73C131.879 104.73 131.628 104.813 131.126 104.896C129.955 105.145 129.621 105.891 129.537 107.384C129.454 108.794 129.454 110.039 129.454 116.757V124.305H129.37Z"></path>
<path stroke-miterlimit="10" stroke-width="0.25" stroke="#8F8B85" fill="#8F8B85" d="M144.008 130.941C144.091 134.508 144.51 135.669 145.681 136.001C146.517 136.25 147.521 136.25 147.855 136.25C148.106 136.25 148.19 136.333 148.19 136.499C148.19 136.747 147.939 136.83 147.437 136.83C144.928 136.83 143.171 136.664 142.753 136.664C142.335 136.664 140.495 136.83 138.571 136.83C138.153 136.83 137.902 136.747 137.902 136.499C137.902 136.333 138.07 136.25 138.237 136.25C138.571 136.25 139.408 136.167 140.077 136.001C141.164 135.669 141.415 134.425 141.415 130.444L141.499 105.477C141.499 103.735 141.666 103.32 142.001 103.32C142.335 103.32 143.088 104.316 143.506 104.73C144.175 105.477 150.699 112.444 157.473 119.661C161.822 124.306 166.59 129.614 168.011 131.024L167.51 108.961C167.426 106.14 167.175 105.145 165.837 104.813C165.084 104.647 163.997 104.564 163.662 104.564C163.328 104.564 163.328 104.399 163.328 104.233C163.328 103.984 163.662 103.901 164.164 103.901C166.171 103.901 168.262 104.067 168.764 104.067C169.266 104.067 170.688 103.901 172.528 103.901C173.03 103.901 173.281 103.984 173.281 104.233C173.281 104.399 173.113 104.564 172.779 104.564C172.528 104.564 172.277 104.564 171.691 104.73C170.27 105.062 170.102 105.975 170.102 108.629L170.019 134.093C170.019 136.996 169.935 137.162 169.601 137.162C169.266 137.162 168.764 136.665 166.422 134.342C165.921 133.927 159.648 127.54 154.964 122.564C149.862 117.089 144.928 111.615 143.506 110.039L144.008 130.941Z"></path>
<path stroke-miterlimit="10" stroke-width="0.25" stroke="#8F8B85" fill="#8F8B85" d="M182.144 116.592C182.144 109.79 182.144 108.546 182.061 107.219C181.977 105.726 181.642 105.062 180.137 104.731C179.802 104.648 179.05 104.565 178.631 104.565C178.464 104.565 178.297 104.482 178.297 104.316C178.297 104.067 178.548 103.984 178.966 103.984C179.97 103.984 181.141 103.984 182.144 104.067L183.984 104.15C184.319 104.15 193.017 104.15 194.021 104.15C194.857 104.067 195.526 103.984 195.944 103.901C196.195 103.901 196.362 103.652 196.53 103.652C196.697 103.652 196.697 103.818 196.697 104.067C196.697 104.399 196.446 104.897 196.362 106.141C196.279 106.555 196.195 108.463 196.111 109.044C196.028 109.293 195.944 109.541 195.777 109.541C195.526 109.541 195.442 109.293 195.442 108.961C195.442 108.629 195.359 107.883 195.191 107.385C194.857 106.721 194.439 106.141 192.097 105.892C191.344 105.809 186.577 105.726 186.075 105.726C185.908 105.726 185.824 105.892 185.824 106.141V118.168C185.824 118.5 185.908 118.583 186.075 118.583C186.661 118.583 192.013 118.583 193.017 118.5C194.104 118.417 194.69 118.334 195.108 117.919C195.442 117.587 195.61 117.338 195.777 117.338C195.944 117.338 196.028 117.421 196.028 117.67C196.028 117.919 195.777 118.666 195.693 120.076C195.61 120.988 195.526 122.564 195.526 122.896C195.526 123.228 195.526 123.725 195.191 123.725C194.941 123.725 194.857 123.559 194.857 123.31C194.857 122.896 194.857 122.398 194.69 121.9C194.522 121.32 194.104 120.573 192.431 120.407C191.261 120.241 186.911 120.159 186.159 120.159C185.908 120.159 185.824 120.324 185.824 120.49V124.306C185.824 125.799 185.741 130.859 185.824 131.771C185.991 134.757 186.577 135.338 190.926 135.338C192.097 135.338 194.021 135.338 195.108 134.84C196.279 134.342 196.781 133.513 197.115 131.688C197.199 131.19 197.282 131.024 197.533 131.024C197.784 131.024 197.784 131.356 197.784 131.688C197.784 132.02 197.45 135.006 197.199 135.918C196.864 137.079 196.53 137.079 194.857 137.079C191.595 137.079 189.17 136.997 187.413 136.914C185.741 136.831 184.653 136.748 183.984 136.748C183.901 136.748 183.148 136.748 182.228 136.831C181.391 136.831 180.304 136.914 179.719 136.914C179.217 136.914 179.05 136.831 179.05 136.582C179.05 136.416 179.133 136.333 179.384 136.333C179.802 136.333 180.304 136.25 180.722 136.167C181.642 136.001 181.81 135.006 181.977 133.762C182.228 131.937 182.228 128.536 182.228 124.306V116.592H182.144Z"></path>
<path fill="#8F8B85" d="M64.7185 103.901H17.7148V107.136H64.7185V103.901Z"></path>
<path fill="#8F8B85" d="M276.568 103.984H201.797V107.219H276.568V103.984Z"></path>
<path fill="#8F8B85" d="M197.783 143.052H122.594V146.287H197.783V143.052Z"></path>
</g>
<defs>
<clipPath id="clip0_5775_15585">
<rect transform="translate(4 47)" fill="white" height="107" width="276"></rect>
</clipPath>
</defs>
</svg>
