<svg xmlns="http://www.w3.org/2000/svg" fill="none" viewBox="0 0 219 200" height="200" width="219">
<path fill="#8F8B85" d="M104.279 84.2734H114.024V115.723H106.803V94.5741L97.5655 115.723L87.8433 94.5475V115.723H81.1055V84.2734H90.7367L97.6803 100.551L104.279 84.2734Z"></path>
<path fill="#8F8B85" d="M117.617 84.2734V115.723H135.763V110.391H124.652V102.39H135.304V97.0081H124.652V89.7928H135.763V84.2734H117.617Z"></path>
<path fill="#8F8B85" d="M162.828 100.004C162.828 111.711 175.046 121.079 187.919 114.813V108.075C178.014 115.015 169.391 108.059 169.532 100.273C169.629 95.0981 173.106 90.1767 179.833 89.793C183.141 89.6052 185.382 90.4275 187.919 92.8573V85.8507C178.617 80.3383 162.828 86.4053 162.828 100.004Z"></path>
<path fill="#8F8B85" d="M190.887 115.723H197.575V84.5762H190.887V115.723Z"></path>
<path fill="#8F8B85" d="M205.968 98.8581L216.076 84.6445H208.264L198.25 98.8315L209.876 115.723H217.546L205.968 98.8581Z"></path>
<path fill="#8F8B85" d="M138.891 84.2734V115.723H145.95V98.8268L157.619 115.723H165.144L155.906 102.517C160.187 100.898 161.576 97.3087 161.576 93.7206C161.576 90.1353 158.567 84.2734 151.276 84.2734H138.891ZM145.95 89.5068H149.031C154.241 89.5068 154.519 92.9126 154.519 94.1843C154.519 96.6141 152.457 98.6832 149.796 98.6832H145.95V89.5068Z"></path>
<path fill="#8F8B85" d="M17.7716 84.275C17.7716 75.5891 24.8133 68.5488 33.4978 68.5488C42.1851 68.5488 49.224 75.5891 49.224 84.275H17.7716ZM17.7716 115.726C17.7716 107.041 24.8133 99.9998 33.4978 99.9998C24.8133 99.9998 17.7716 92.9608 17.7716 84.275C9.08717 84.275 2.04688 91.3153 2.04688 99.9998C2.04688 108.687 9.08717 115.726 17.7716 115.726ZM17.7716 115.726C17.7716 124.413 24.8133 131.452 33.4978 131.452C42.1851 131.452 49.224 124.413 49.224 115.726H17.7716ZM33.4978 99.9998C42.1851 99.9998 49.224 107.041 49.224 115.726C57.9098 115.726 64.9515 108.687 64.9515 99.9998C64.9515 91.3153 57.9098 84.275 49.224 84.275C49.224 92.9608 42.1851 99.9998 33.4978 99.9998Z"></path>
</svg>
