<svg xmlns="http://www.w3.org/2000/svg" fill="none" viewBox="0 0 268 200" height="200" width="268">
<path fill="#8F8B85" d="M40.2403 99.5C40.2403 104.231 38.5962 107.517 33.0707 107.517H28.8678V91.4832H33.0707C38.5962 91.4832 40.2403 94.769 40.2403 99.5ZM153.866 90.7421C148.291 90.7421 146.585 94.0896 146.585 99.5C146.585 104.91 148.291 108.258 153.866 108.258C159.441 108.258 161.147 104.91 161.147 99.5C161.147 94.0896 159.454 90.7421 153.866 90.7421ZM265.725 102.786L239.902 128.59C236.626 131.864 233.251 133 227.998 133H4.72601C2.1672 133 0.078125 130.912 0.078125 128.355V70.6445C0.078125 68.0876 2.1672 66 4.72601 66H227.998C233.251 66 236.626 67.1364 239.902 70.4098L265.725 96.2142C267.529 98.03 267.529 100.982 265.725 102.786ZM46.1985 99.4876C46.1985 91.3721 42.4159 86.2211 33.2314 86.2211H22.922V112.754H33.2314C42.4283 112.754 46.1985 107.603 46.1985 99.4876ZM73.9993 86.2211H53.7637V112.767H73.9993V107.517H59.7095V101.884H72.3058V96.7207H59.7095V91.4709H73.9993V86.2211ZM106.028 86.2211H100.082L100.403 103.107L86.8551 86.2211H81.9106V112.767H87.8564L87.5845 95.8807L101.083 112.767H106.028V86.2211ZM135.757 86.2334H112.913V91.4832H121.356V112.767H127.302V91.4832H135.757V86.2334ZM167.142 99.5C167.142 90.7421 163.162 85.5911 153.866 85.5911C144.571 85.5911 140.59 90.7421 140.59 99.5C140.59 108.258 144.571 113.409 153.866 113.409C163.162 113.409 167.142 108.258 167.142 99.5ZM198.763 86.2211H192.817L193.138 103.107L179.59 86.2211H174.646V112.767H180.592L180.32 95.8807L193.818 112.767H198.763V86.2211ZM228.01 104.799C228.01 99.1665 225.624 97.4742 217.651 96.7824C213.819 96.4613 212.336 96.0413 212.336 94.0772V94.0525C212.348 91.8167 213.733 90.8656 217.663 90.8656C221.162 90.8656 224.413 91.5079 226.799 92.4097V87.0487C224.512 86.0481 220.371 85.5664 217.713 85.5664C209.839 85.5664 206.551 88.9263 206.551 94.0649C206.551 99.2035 208.936 100.958 216.909 101.649C220.729 101.971 222.114 102.6 222.114 104.787C222.114 106.973 220.568 108.085 216.217 108.085C212.657 108.085 209.097 107.344 206.971 106.492V111.853C208.837 112.705 213.51 113.397 216.168 113.397C224.932 113.397 228.01 109.58 228.01 104.799Z"></path>
</svg>
