<svg xmlns="http://www.w3.org/2000/svg" fill="none" viewBox="0 0 287 196" height="196" width="287">
<path fill="#FAFAF9" d="M168.397 81.596V70.167C171.38 68.758 173.47 65.74 173.47 62.237V61.973C173.47 57.139 169.515 53.185 164.682 53.185H164.418C159.584 53.185 155.629 57.14 155.629 61.973V62.237C155.629 65.74 157.72 68.758 160.703 70.167V81.596C156.261 82.282 152.203 84.114 148.854 86.81L117.474 62.399C117.68 61.604 117.825 60.785 117.826 59.926C117.834 54.451 113.401 50.007 107.926 50C102.451 49.993 98.007 54.426 98 59.901C97.993 65.376 102.426 69.82 107.901 69.827C109.685 69.829 111.337 69.322 112.784 68.499L143.653 92.512C141.028 96.475 139.49 101.221 139.49 106.331C139.49 111.681 141.18 116.629 144.036 120.699L134.648 130.087C133.906 129.864 133.135 129.709 132.32 129.709C127.821 129.709 124.174 133.356 124.174 137.855C124.174 142.354 127.821 146.001 132.32 146.001C136.819 146.001 140.466 142.354 140.466 137.855C140.466 137.04 140.31 136.27 140.088 135.528L149.374 126.242C153.589 129.46 158.838 131.392 164.55 131.392C178.39 131.392 189.61 120.172 189.61 106.332C189.61 93.803 180.406 83.451 168.397 81.596ZM164.551 119.179C157.455 119.179 151.702 113.427 151.702 106.331C151.702 99.235 157.455 93.483 164.551 93.483C171.647 93.483 177.399 99.235 177.399 106.331C177.399 113.427 171.646 119.179 164.551 119.179Z"></path>
</svg>
