<svg xmlns="http://www.w3.org/2000/svg" fill="none" viewBox="0 0 501 200" height="200" width="501">
<path fill="#FAFAF9" d="M170.726 81.384H164.039V118.617H170.726V81.384Z"></path>
<path fill="#FAFAF9" d="M85.853 80.7232C70.6627 76.678 57.1235 90.2446 61.1412 105.435C62.9024 112.122 68.3236 117.516 74.9831 119.277C90.1734 123.322 103.713 109.755 99.6949 94.5651C97.9337 87.878 92.5125 82.4844 85.853 80.7232ZM93.6132 100.069C93.6132 107.609 88.2196 113.718 80.4868 113.718C72.7541 113.718 67.2779 107.526 67.2779 99.9587V99.8762C67.2779 92.3361 72.6716 86.1719 80.4043 86.1719C88.137 86.1719 93.6132 92.4736 93.6132 100.014V100.096V100.041V100.069Z"></path>
<path fill="#FAFAF9" d="M428.627 81.384H414.758V118.617H428.627C440.323 118.617 448.386 110.499 448.386 100.014V99.9316C448.386 89.447 440.295 81.4116 428.627 81.4116V81.384ZM441.561 100.069C441.561 107.334 436.47 112.618 428.627 112.618H421.307V87.3005H428.627C436.443 87.3005 441.561 92.6667 441.561 99.9866V100.069Z"></path>
<path fill="#FAFAF9" d="M238.426 96.7394H216.218V81.384H209.504V118.589H216.218V103.014H238.426V118.589H245.168V81.384H238.426V96.7394Z"></path>
<path fill="#FAFAF9" d="M342.857 81.384L329.95 98.9685L317.072 81.384H310.109V118.589H316.521V90.933L329.84 109.04L343.269 90.8504V118.589H349.819V81.384H342.857Z"></path>
<path fill="#FAFAF9" d="M38.7472 81.384L25.8685 98.9685L12.9622 81.384H6V118.589H12.4394V90.933L25.7584 109.04L39.16 90.8504V118.589H45.7094V81.384H38.7472Z"></path>
<path fill="#FAFAF9" d="M114.969 118.589H121.518V87.4375H130.655C137.534 87.4375 139.103 91.0149 139.103 93.6842C139.103 97.8395 135.36 99.7933 132.141 99.7933H124.518L139.103 118.589H146.863L136.158 104.884C141.029 103.646 145.707 99.8484 145.707 93.7392C145.707 86.1166 140.231 81.5485 131.728 81.4109H115.024V118.644H114.941V118.589H114.969Z"></path>
<path fill="#FAFAF9" d="M280.694 81.384H274.392L258.156 118.617H264.843L268.916 109.068H286.005L290.078 118.617H296.985L280.749 81.384H280.694ZM271.448 103.014L277.419 88.9241L283.391 103.014H271.393H271.448Z"></path>
<path fill="#FAFAF9" d="M385.292 81.384H378.99L362.754 118.617H369.441L373.514 109.068H390.603L394.676 118.617H401.583L385.347 81.384H385.292ZM376.073 103.014L382.044 88.9241L388.016 103.014H376.018H376.073Z"></path>
<path fill="#FAFAF9" d="M481.465 103.014H488.207L478.741 81.3839H472.467L456.176 118.589H462.863L475.494 88.924L481.465 103.014Z"></path>
<path fill="#FAFAF9" d="M484.023 109.039L488.069 118.588H495.003L490.848 109.039H484.023Z"></path>
</svg>
