<svg xmlns="http://www.w3.org/2000/svg" fill="none" viewBox="0 0 287 196" height="196" width="287">
<g clip-path="url(#clip0_1341_33)">
<path fill="#FAFAF9" d="M99.943 138.167C91.5391 138.167 88.9858 131.52 88.9858 109.849C88.9858 91.0112 91.6662 84.2384 99.2156 84.2384C101.101 84.1449 102.982 84.5097 104.699 85.3021C106.416 86.0944 107.919 87.2913 109.083 88.792C107.549 88.543 106.004 88.3783 104.453 88.2986C98.7285 88.2986 94.2204 93.2238 94.2204 99.505C94.1989 101.062 94.4865 102.607 95.0664 104.05C95.6462 105.493 96.5064 106.804 97.5963 107.906C98.6862 109.007 99.9838 109.878 101.412 110.465C102.841 111.053 104.372 111.346 105.914 111.327C112.857 111.327 117.976 106.03 117.976 98.6463C117.976 88.9193 109.327 82.1457 96.9045 82.1457C90.5578 82.2028 84.3816 84.2253 79.2108 87.9399C74.04 91.6545 70.124 96.8819 67.9923 102.915V54H39V55.603H41.9225C46.3091 55.603 47.5245 57.3241 47.5245 64.0987V128.313C47.5245 135.331 45.8192 138.411 41.9225 138.411H39V140.01H72.6164V138.412C69.3274 138.166 67.9895 137.302 67.9895 135.332V121.277C69.9982 127.039 73.7284 132.03 78.6659 135.563C83.6034 139.095 89.5051 140.995 95.5574 141C106.717 141 114.92 134.922 117.945 125.74L117.042 125.461C113.806 133.895 107.005 138.166 99.9421 138.166"></path>
<path fill="#FAFAF9" d="M166.174 96.5554H158.525V95.6121H159.145C159.508 95.6308 159.872 95.5995 160.227 95.5192C160.307 95.5039 160.379 95.4611 160.432 95.3982C160.485 95.3352 160.514 95.2559 160.516 95.1735C160.353 94.6054 160.069 94.0803 159.682 93.6355L156.727 89.423L154.977 90.9703V93.9738C154.953 94.2043 154.977 94.4375 155.049 94.6578C155.121 94.878 155.239 95.0802 155.394 95.2506C155.868 95.5459 156.425 95.6741 156.979 95.6149V96.5582H150.09V95.6112C150.533 95.6336 150.975 95.5705 151.395 95.4253C151.517 95.3813 151.63 95.3121 151.725 95.222C151.82 95.132 151.896 95.0231 151.947 94.9022C152.042 94.602 152.085 94.2877 152.074 93.9729V85.2374C152.087 84.9235 152.048 84.6095 151.96 84.3081C151.91 84.1866 151.834 84.0771 151.739 83.9869C151.644 83.8968 151.531 83.8279 151.407 83.785C150.984 83.6373 150.537 83.5742 150.09 83.5991V82.6521H156.976V83.5954C156.405 83.5229 155.826 83.6544 155.34 83.9671C155.059 84.3256 154.927 84.78 154.972 85.2347V89.4165L159.257 85.6343C159.497 85.4345 159.716 85.2093 159.908 84.9624C160.041 84.7799 160.113 84.559 160.112 84.3323C160.112 83.8398 159.648 83.5935 158.72 83.5935V82.6475H165.008V83.5907C164.605 83.6179 164.205 83.676 163.811 83.7645C163.495 83.8434 163.192 83.9687 162.912 84.1362C162.577 84.3377 162.257 84.5642 161.956 84.8137C161.612 85.0931 161.067 85.5612 160.321 86.2179L158.878 87.478L162.941 93.3205C163.268 93.8042 163.624 94.2679 164.006 94.7089C164.255 94.9908 164.56 95.2163 164.901 95.3705C165.303 95.5216 165.728 95.5996 166.157 95.601L166.174 96.5554Z"></path>
<path fill="#FAFAF9" d="M173.401 91.1022C173.401 89.5447 172.792 88.766 171.574 88.766C171.313 88.7519 171.052 88.8034 170.815 88.916C170.579 89.0285 170.373 89.1986 170.218 89.4109C169.881 89.9098 169.699 90.4986 169.695 91.1022H173.401ZM175.919 92.0455H169.672C169.68 92.1747 169.698 92.4507 169.729 92.8753C169.763 93.3202 169.859 93.7581 170.013 94.1764C170.174 94.6229 170.46 95.0128 170.835 95.299C171.291 95.626 171.842 95.7896 172.401 95.7636C172.847 95.7453 173.286 95.651 173.701 95.4848C174.239 95.2753 174.7 94.903 175.02 94.4189L175.812 94.9616C175.41 95.6017 174.844 96.1198 174.173 96.461C173.503 96.8021 172.753 96.9536 172.004 96.8992C171.281 96.9077 170.561 96.793 169.876 96.56C169.276 96.358 168.722 96.0377 168.245 95.6177C167.804 95.2236 167.454 94.7371 167.218 94.1922C166.978 93.6351 166.857 93.0337 166.861 92.4265C166.856 91.6215 167.061 90.8294 167.456 90.1302C167.857 89.4207 168.446 88.8384 169.157 88.4491C169.932 88.0229 170.803 87.8073 171.685 87.8237C172.51 87.7966 173.326 88.0064 174.037 88.4287C174.649 88.8017 175.141 89.3464 175.452 89.9964C175.758 90.636 175.915 91.3373 175.913 92.0473"></path>
<path fill="#FAFAF9" d="M182.903 96.5554H177.062V95.6121H177.5C177.795 95.6325 178.09 95.5762 178.358 95.4486C178.443 95.3999 178.516 95.3331 178.573 95.2529C178.63 95.1726 178.669 95.0809 178.688 94.9839C178.736 94.6963 178.756 94.4047 178.749 94.1132V85.3778C178.749 84.8859 178.635 84.5714 178.407 84.4345C177.98 84.2612 177.519 84.1909 177.061 84.2291V83.2859L181.368 82.4031V94.1122C181.361 94.402 181.38 94.6918 181.423 94.9783C181.441 95.0749 181.479 95.1665 181.535 95.2467C181.591 95.3269 181.664 95.3939 181.748 95.443C182.014 95.5747 182.31 95.633 182.605 95.6121H182.9L182.903 96.5554Z"></path>
<path fill="#FAFAF9" d="M189.891 96.5554H184.051V95.6121H184.488C184.783 95.6325 185.079 95.5762 185.346 95.4486C185.431 95.3998 185.505 95.333 185.562 95.2528C185.619 95.1726 185.658 95.0808 185.676 94.9839C185.724 94.6963 185.744 94.4047 185.738 94.1132V85.3778C185.738 84.8859 185.623 84.5714 185.395 84.4345C184.968 84.2612 184.507 84.1909 184.049 84.2291V83.2859L188.355 82.4031V94.1122C188.348 94.4021 188.367 94.6919 188.411 94.9783C188.429 95.0748 188.467 95.1664 188.523 95.2466C188.579 95.3268 188.651 95.3938 188.736 95.443C189.002 95.5748 189.299 95.6331 189.596 95.6121H189.89L189.891 96.5554Z"></path>
<path fill="#FAFAF9" d="M197.352 91.1022C197.352 89.5447 196.743 88.766 195.525 88.766C195.264 88.7521 195.003 88.8037 194.767 88.9162C194.53 89.0288 194.325 89.1987 194.169 89.4109C193.832 89.9097 193.65 90.4985 193.646 91.1022H197.352ZM199.87 92.0455H193.623C193.629 92.1743 193.648 92.451 193.679 92.8753C193.715 93.3201 193.811 93.7578 193.964 94.1764C194.125 94.6229 194.41 95.0128 194.786 95.299C195.242 95.626 195.793 95.7896 196.351 95.7636C196.797 95.7455 197.237 95.6512 197.651 95.4848C198.19 95.2756 198.652 94.9033 198.973 94.4189L199.765 94.9616C199.362 95.6018 198.795 96.12 198.124 96.4612C197.453 96.8023 196.703 96.9537 195.954 96.8992C195.23 96.9075 194.511 96.7929 193.826 96.56C193.227 96.3574 192.673 96.0371 192.198 95.6177C191.757 95.2234 191.406 94.737 191.17 94.1922C190.932 93.6347 190.812 93.0334 190.817 92.4265C190.811 91.6215 191.016 90.8293 191.411 90.1302C191.812 89.4209 192.4 88.8386 193.111 88.4491C193.887 88.0228 194.758 87.8073 195.641 87.8237C196.466 87.7966 197.282 88.0064 197.993 88.4287C198.606 88.8014 199.097 89.3462 199.408 89.9964C199.713 90.6361 199.871 91.3373 199.869 92.0473"></path>
<path fill="#FAFAF9" d="M209.975 89.4444C209.984 89.6176 209.956 89.7907 209.894 89.9523C209.831 90.1139 209.736 90.2604 209.613 90.382C209.387 90.6058 209.083 90.7301 208.766 90.7277C208.564 90.7204 208.367 90.6643 208.19 90.564C208.014 90.4638 207.864 90.3223 207.753 90.1516C207.654 90.017 207.541 89.8925 207.417 89.7798C207.31 89.6971 207.177 89.6561 207.042 89.6646C206.774 89.6703 206.515 89.7555 206.295 89.9096C206.076 90.0636 205.906 90.2797 205.808 90.5307C205.519 91.0853 205.367 91.7023 205.366 92.3289V94.1187C205.33 94.5243 205.406 94.9319 205.584 95.2971C205.731 95.508 206.115 95.6149 206.737 95.6149H207.276V96.5572H200.966V95.6177H201.496C202.064 95.6177 202.412 95.5083 202.54 95.2896C202.697 94.9218 202.764 94.521 202.733 94.1215V91.1245C202.753 90.7905 202.707 90.4559 202.596 90.1404C202.55 90.0406 202.481 89.9531 202.395 89.8846C202.31 89.8161 202.21 89.7685 202.103 89.7455C201.727 89.6664 201.344 89.6336 200.961 89.6479V88.7009L204.92 87.8199C205.074 88.5522 205.17 89.2959 205.205 90.0438C205.396 89.6388 205.647 89.2658 205.951 88.9379C206.249 88.6122 206.599 88.3395 206.986 88.1313C207.347 87.9323 207.751 87.8266 208.161 87.8237C208.401 87.8108 208.641 87.8458 208.868 87.9266C209.094 88.0075 209.302 88.1326 209.481 88.2948C209.638 88.4413 209.763 88.6197 209.847 88.8183C209.931 89.0169 209.972 89.2312 209.968 89.4471"></path>
<path fill="#FAFAF9" d="M221.664 96.5554H216.448V95.6112C216.789 95.6484 217.132 95.5592 217.413 95.3603C217.506 95.2635 217.577 95.1481 217.623 95.0216C217.669 94.8952 217.688 94.7604 217.678 94.6262V91.185C217.681 90.8764 217.659 90.5681 217.612 90.2631C217.568 89.9866 217.446 89.7287 217.261 89.5197C217.149 89.4023 217.013 89.3116 216.861 89.2541C216.71 89.1966 216.548 89.1736 216.387 89.187C216.048 89.1924 215.715 89.2821 215.418 89.4481C215.11 89.603 214.848 89.8386 214.661 90.1302C214.485 90.407 214.363 90.7147 214.3 91.0372C214.245 91.3847 214.219 91.7363 214.224 92.0882V93.8539C214.216 94.2052 214.235 94.5566 214.281 94.9049C214.295 95.0089 214.331 95.1088 214.385 95.1987C214.438 95.2886 214.509 95.3666 214.594 95.4281C214.855 95.5747 215.154 95.6394 215.452 95.614V96.5572H210.131V95.6112C210.47 95.6293 210.81 95.5807 211.131 95.4681C211.225 95.4331 211.31 95.3764 211.378 95.3025C211.447 95.2286 211.497 95.1396 211.526 95.0425C211.588 94.7369 211.614 94.4249 211.602 94.1132V85.5162C211.643 85.1548 211.557 84.7903 211.358 84.4866C210.992 84.2567 210.559 84.1609 210.131 84.2152V83.2934L214.224 82.4105V89.3264C214.598 88.9233 215.016 88.5639 215.469 88.2549C216.011 87.934 216.635 87.7821 217.262 87.8181C217.62 87.8189 217.975 87.8708 218.318 87.9724C218.658 88.068 218.979 88.2203 219.269 88.4231C219.526 88.5935 219.738 88.826 219.884 89.0996C220.186 89.7034 220.329 90.3753 220.301 91.0511V94.1178C220.265 94.5235 220.341 94.9311 220.52 95.2962C220.664 95.5071 221.049 95.614 221.672 95.614L221.664 96.5554Z"></path>
<path fill="#FAFAF9" d="M228.788 94.4747V91.9312C227.89 92.1385 227.051 92.5519 226.336 93.1393C226.026 93.4443 225.84 93.8552 225.813 94.2916C225.808 94.431 225.83 94.57 225.879 94.7005C225.928 94.8309 226.002 94.9501 226.098 95.0508C226.205 95.1502 226.331 95.2268 226.469 95.2762C226.606 95.3255 226.752 95.3465 226.897 95.338C227.24 95.3465 227.578 95.2672 227.882 95.1075C228.201 94.9263 228.503 94.717 228.786 94.4821M233.448 94.4003C233.462 94.8631 233.354 95.3212 233.133 95.7274C232.939 96.0768 232.643 96.3582 232.286 96.534C231.91 96.7128 231.498 96.8022 231.082 96.7951C230.578 96.8141 230.08 96.6723 229.66 96.39C229.314 96.1707 229.068 95.8223 228.975 95.4207C228.03 96.264 226.823 96.7496 225.562 96.7942C224.92 96.8219 224.286 96.6325 223.763 96.2561C223.54 96.0948 223.361 95.8811 223.239 95.6336C223.117 95.3862 223.056 95.1124 223.063 94.8362C223.057 94.3695 223.188 93.9116 223.439 93.5194C223.726 93.0912 224.103 92.7323 224.544 92.4683C225.089 92.1318 225.67 91.8584 226.276 91.6533C226.946 91.4173 227.783 91.1695 228.787 90.9099V90.3198C228.81 89.91 228.689 89.5052 228.445 89.1767C228.278 89.0194 228.079 88.9008 227.862 88.8292C227.645 88.7576 227.416 88.7348 227.189 88.7623C226.785 88.7247 226.383 88.8418 226.061 89.0903C225.804 89.3619 225.642 89.7113 225.601 90.0847C225.56 90.3622 225.458 90.6268 225.301 90.8588C225.182 90.9763 225.038 91.0647 224.88 91.1171C224.721 91.1694 224.553 91.1844 224.388 91.1608C224.117 91.1655 223.852 91.0792 223.635 90.9155C223.526 90.8298 223.44 90.7187 223.383 90.5917C223.327 90.4647 223.302 90.3258 223.311 90.1869C223.328 89.8447 223.431 89.5125 223.611 89.2219C223.791 88.9313 224.041 88.6918 224.338 88.5262C225.297 87.9864 226.392 87.7407 227.487 87.819C228.568 87.7054 229.654 87.9734 230.561 88.5773C230.839 88.8334 231.058 89.148 231.202 89.4988C231.347 89.8497 231.413 90.2283 231.397 90.6079V93.8483C231.393 94.1495 231.403 94.4506 231.429 94.7507C231.437 94.9103 231.495 95.0631 231.596 95.1865C231.66 95.2438 231.736 95.2864 231.819 95.3112C231.901 95.336 231.988 95.3426 232.073 95.3304C232.158 95.3182 232.24 95.2876 232.312 95.2406C232.384 95.1936 232.445 95.1314 232.492 95.0583C232.626 94.8632 232.696 94.6297 232.69 94.392L233.448 94.4003Z"></path>
<path fill="#FAFAF9" d="M240.172 96.5554H234.333V95.6121H234.77C235.065 95.6324 235.36 95.5761 235.627 95.4486C235.712 95.3995 235.786 95.3327 235.843 95.2525C235.9 95.1724 235.94 95.0808 235.959 94.9839C236.005 94.6961 236.024 94.4046 236.018 94.1132V85.3778C236.018 84.8859 235.904 84.5714 235.675 84.4345C235.249 84.2611 234.788 84.1907 234.33 84.2291V83.2859L238.637 82.4031V94.1122C238.63 94.4021 238.649 94.6919 238.693 94.9783C238.71 95.075 238.748 95.1667 238.804 95.247C238.86 95.3273 238.933 95.3941 239.018 95.443C239.284 95.5748 239.579 95.6332 239.875 95.6121H240.17L240.172 96.5554Z"></path>
<path fill="#FAFAF9" d="M249.99 94.1197C250.002 94.6663 249.816 95.1986 249.468 95.6177C249.084 96.0583 248.589 96.3859 248.035 96.5656C247.359 96.7922 246.65 96.9016 245.937 96.889C245.395 96.8883 244.855 96.835 244.324 96.7301C243.83 96.6395 243.35 96.4793 242.9 96.2543L242.504 96.8304H241.713L241.612 94.1652H242.465C242.66 94.6815 243.022 95.1165 243.492 95.4002C244.198 95.8092 245.006 95.9998 245.818 95.9485C246.097 95.9467 246.375 95.9278 246.652 95.8918C246.956 95.851 247.249 95.7445 247.51 95.5796C247.643 95.4982 247.751 95.3818 247.824 95.2427C247.896 95.1037 247.929 94.9474 247.92 94.7906C247.926 94.6489 247.889 94.5087 247.814 94.3888C247.739 94.2689 247.629 94.175 247.5 94.1197C246.989 93.9024 246.46 93.7323 245.92 93.6113C244.986 93.371 244.221 93.1436 243.624 92.9292C243.06 92.7347 242.544 92.4203 242.111 92.0074C241.906 91.8055 241.745 91.5624 241.638 91.2939C241.531 91.0253 241.481 90.7372 241.492 90.448C241.488 90.0579 241.589 89.674 241.783 89.3368C241.978 88.9996 242.259 88.7215 242.596 88.5318C243.473 88.0233 244.476 87.778 245.486 87.8246C246.087 87.8092 246.687 87.8717 247.272 88.0105C247.659 88.1116 248.036 88.2452 248.4 88.4101L248.643 87.8869H249.456V90.2659H248.628C248.54 89.9631 248.362 89.6947 248.119 89.4964C247.812 89.2417 247.454 89.0581 247.069 88.9584C246.573 88.8254 246.062 88.7628 245.549 88.7725C245.073 88.7728 244.598 88.8245 244.132 88.9268C243.663 89.029 243.427 89.2725 243.427 89.6553C243.422 89.7977 243.471 89.9367 243.564 90.0438C243.699 90.174 243.86 90.2724 244.037 90.3319C244.423 90.4685 244.816 90.5839 245.215 90.6776C245.776 90.8216 246.111 90.908 246.22 90.9331C247.168 91.1537 248.082 91.5025 248.937 91.9702C249.294 92.1935 249.581 92.513 249.767 92.8927C249.954 93.2724 250.031 93.698 249.99 94.1197Z"></path>
<path fill="#FAFAF9" d="M163.694 114.265H162.739C162.607 113.698 162.369 113.162 162.038 112.685C161.517 113.231 160.922 113.7 160.271 114.079C159.441 114.508 158.513 114.709 157.581 114.664C156.372 114.672 155.182 114.357 154.132 113.751C153.076 113.147 152.201 112.267 151.599 111.204C150.96 110.084 150.632 108.81 150.651 107.517C150.647 106.567 150.821 105.625 151.164 104.74C151.497 103.876 151.994 103.087 152.628 102.416C153.271 101.742 154.043 101.206 154.897 100.841C155.807 100.451 156.787 100.255 157.776 100.265C158.565 100.24 159.35 100.378 160.083 100.671C160.817 100.964 161.483 101.405 162.042 101.967C162.232 101.556 162.379 101.127 162.479 100.685H163.393L163.555 105.796H162.58C162.419 104.967 162.094 104.179 161.624 103.48C161.204 102.841 160.642 102.309 159.983 101.927C159.379 101.576 158.695 101.39 157.998 101.389C157.255 101.38 156.527 101.604 155.915 102.029C155.251 102.519 154.747 103.199 154.468 103.98C154.09 105.027 153.913 106.137 153.945 107.251C153.916 108.326 154.064 109.398 154.382 110.424C154.596 111.135 154.966 111.788 155.463 112.336C155.825 112.721 156.267 113.021 156.758 113.213C157.148 113.359 157.56 113.437 157.977 113.443C158.777 113.453 159.562 113.217 160.227 112.767C160.888 112.323 161.446 111.741 161.866 111.061C162.267 110.435 162.556 109.743 162.719 109.016H163.694V114.265Z"></path>
<path fill="#FAFAF9" d="M171.713 112.328V109.787C170.814 109.995 169.975 110.408 169.26 110.995C168.951 111.301 168.765 111.711 168.738 112.147C168.731 112.286 168.753 112.426 168.801 112.556C168.85 112.687 168.925 112.806 169.021 112.906C169.128 113.006 169.254 113.083 169.391 113.132C169.529 113.181 169.674 113.202 169.82 113.194C170.162 113.202 170.501 113.123 170.805 112.963C171.124 112.782 171.427 112.573 171.709 112.338M176.372 112.256C176.386 112.719 176.277 113.177 176.057 113.583C175.862 113.932 175.566 114.214 175.209 114.39C174.833 114.568 174.421 114.658 174.005 114.651C173.5 114.669 173.003 114.527 172.583 114.246C172.237 114.026 171.991 113.678 171.898 113.276C170.953 114.119 169.746 114.605 168.486 114.65C167.844 114.678 167.211 114.488 166.687 114.112C166.465 113.951 166.284 113.737 166.162 113.49C166.039 113.242 165.979 112.968 165.985 112.692C165.98 112.225 166.111 111.767 166.361 111.374C166.649 110.946 167.026 110.587 167.466 110.323C168.012 109.987 168.593 109.713 169.199 109.508C169.87 109.272 170.707 109.024 171.711 108.765V108.18C171.734 107.77 171.613 107.365 171.369 107.037C171.202 106.88 171.003 106.761 170.786 106.689C170.569 106.618 170.339 106.595 170.113 106.622C169.709 106.585 169.307 106.702 168.986 106.951C168.728 107.222 168.566 107.571 168.525 107.945C168.486 108.223 168.383 108.487 168.225 108.718C168.106 108.836 167.962 108.925 167.804 108.978C167.645 109.031 167.477 109.045 167.312 109.021C167.041 109.026 166.777 108.94 166.56 108.776C166.451 108.69 166.365 108.579 166.308 108.452C166.251 108.325 166.226 108.186 166.235 108.047C166.252 107.705 166.355 107.373 166.535 107.082C166.715 106.791 166.966 106.552 167.263 106.386C168.222 105.847 169.316 105.601 170.412 105.679C171.492 105.566 172.579 105.834 173.485 106.438C173.764 106.693 173.983 107.008 174.128 107.359C174.273 107.71 174.34 108.088 174.323 108.468V111.709C174.323 112.118 174.333 112.419 174.354 112.611C174.361 112.771 174.42 112.924 174.521 113.047C174.586 113.104 174.661 113.147 174.744 113.172C174.826 113.197 174.913 113.204 174.998 113.192C175.083 113.179 175.164 113.149 175.236 113.101C175.308 113.054 175.37 112.992 175.415 112.918C175.55 112.723 175.619 112.49 175.613 112.252L176.372 112.256Z"></path>
<path fill="#FAFAF9" d="M186.223 107.295C186.231 107.468 186.204 107.642 186.142 107.803C186.08 107.965 185.984 108.111 185.862 108.233C185.635 108.457 185.33 108.581 185.013 108.579C184.81 108.571 184.613 108.515 184.437 108.415C184.261 108.315 184.111 108.173 184 108.002C183.899 107.868 183.787 107.744 183.664 107.631C183.556 107.549 183.423 107.508 183.288 107.516C183.021 107.521 182.761 107.606 182.541 107.76C182.322 107.914 182.152 108.131 182.054 108.382C181.765 108.937 181.613 109.554 181.612 110.182V111.965C181.577 112.371 181.652 112.778 181.83 113.143C181.977 113.355 182.361 113.461 182.983 113.461H183.521V114.404H177.216V113.465H177.745C178.316 113.465 178.658 113.35 178.791 113.137C178.948 112.769 179.014 112.368 178.984 111.969V108.975C179.004 108.64 178.957 108.306 178.846 107.99C178.799 107.891 178.73 107.804 178.645 107.736C178.559 107.668 178.459 107.62 178.353 107.596C177.977 107.518 177.594 107.485 177.211 107.499V106.554L181.17 105.673C181.325 106.405 181.421 107.149 181.456 107.897C181.647 107.492 181.899 107.119 182.202 106.791C182.5 106.465 182.851 106.192 183.239 105.984C183.599 105.785 184.001 105.679 184.411 105.676C184.651 105.664 184.891 105.699 185.118 105.779C185.344 105.86 185.552 105.985 185.731 106.148C185.888 106.294 186.012 106.473 186.096 106.671C186.18 106.87 186.222 107.084 186.218 107.3"></path>
<path fill="#FAFAF9" d="M196.098 107.295C196.107 107.468 196.079 107.642 196.017 107.803C195.955 107.965 195.859 108.111 195.737 108.233C195.511 108.457 195.206 108.581 194.89 108.579C194.688 108.571 194.49 108.515 194.314 108.415C194.138 108.315 193.988 108.173 193.877 108.002C193.776 107.869 193.664 107.744 193.541 107.631C193.433 107.549 193.299 107.508 193.164 107.516C192.897 107.521 192.637 107.607 192.418 107.761C192.198 107.915 192.029 108.131 191.93 108.382C191.643 108.938 191.493 109.556 191.494 110.183V111.966C191.459 112.371 191.534 112.779 191.712 113.144C191.858 113.356 192.242 113.462 192.864 113.462H193.403V114.405H187.095V113.465H187.624C188.192 113.465 188.541 113.356 188.67 113.137C188.827 112.769 188.894 112.368 188.863 111.969V108.975C188.882 108.641 188.836 108.306 188.727 107.99C188.68 107.891 188.611 107.804 188.525 107.736C188.44 107.668 188.34 107.62 188.234 107.596C187.858 107.518 187.475 107.485 187.092 107.499V106.554L191.051 105.673C191.206 106.405 191.302 107.149 191.337 107.897C191.528 107.492 191.78 107.119 192.083 106.791C192.381 106.464 192.731 106.192 193.119 105.984C193.479 105.785 193.881 105.68 194.291 105.676C194.532 105.663 194.772 105.698 194.999 105.779C195.226 105.86 195.435 105.985 195.614 106.148C195.771 106.294 195.895 106.473 195.979 106.671C196.063 106.87 196.104 107.084 196.101 107.3"></path>
<path fill="#FAFAF9" d="M202.914 112.328V109.787C202.016 109.995 201.177 110.408 200.462 110.995C200.153 111.3 199.966 111.711 199.939 112.147C199.933 112.287 199.955 112.426 200.004 112.556C200.053 112.687 200.128 112.806 200.224 112.906C200.331 113.006 200.457 113.083 200.594 113.132C200.732 113.181 200.878 113.202 201.023 113.194C201.365 113.202 201.703 113.123 202.005 112.963C202.325 112.782 202.628 112.573 202.911 112.338M207.574 112.256C207.588 112.719 207.479 113.177 207.259 113.583C207.064 113.932 206.768 114.214 206.411 114.39C206.035 114.568 205.624 114.657 205.208 114.651C204.703 114.669 204.205 114.528 203.784 114.245C203.438 114.027 203.192 113.678 203.099 113.276C202.154 114.119 200.948 114.604 199.687 114.65C199.045 114.678 198.412 114.488 197.889 114.112C197.666 113.951 197.486 113.737 197.364 113.489C197.242 113.242 197.181 112.968 197.188 112.692C197.183 112.225 197.314 111.767 197.564 111.374C197.852 110.947 198.229 110.588 198.669 110.323C199.214 109.986 199.796 109.713 200.402 109.508C201.072 109.272 201.909 109.024 202.914 108.764V108.18C202.937 107.77 202.815 107.365 202.572 107.037C202.405 106.88 202.206 106.761 201.989 106.689C201.772 106.618 201.542 106.595 201.316 106.622C200.913 106.586 200.512 106.703 200.191 106.95C199.933 107.222 199.771 107.571 199.73 107.945C199.69 108.222 199.588 108.487 199.43 108.718C199.312 108.837 199.167 108.926 199.009 108.978C198.85 109.031 198.682 109.045 198.517 109.021C198.246 109.026 197.981 108.939 197.764 108.776C197.656 108.69 197.569 108.579 197.512 108.452C197.456 108.325 197.431 108.186 197.439 108.047C197.456 107.705 197.56 107.373 197.74 107.082C197.919 106.791 198.17 106.552 198.467 106.386C199.427 105.847 200.521 105.601 201.617 105.679C202.697 105.566 203.783 105.834 204.69 106.438C204.968 106.693 205.188 107.008 205.332 107.359C205.477 107.71 205.544 108.088 205.527 108.468V111.708C205.527 112.118 205.538 112.418 205.557 112.611C205.565 112.771 205.624 112.923 205.724 113.047C205.789 113.104 205.865 113.146 205.947 113.171C206.029 113.196 206.116 113.203 206.201 113.191C206.286 113.178 206.367 113.148 206.439 113.101C206.511 113.054 206.573 112.992 206.619 112.918C206.753 112.723 206.823 112.49 206.817 112.252L207.574 112.256Z"></path>
<path fill="#FAFAF9" d="M217.423 107.295C217.432 107.468 217.405 107.641 217.342 107.803C217.28 107.965 217.185 108.111 217.063 108.233C216.836 108.457 216.531 108.581 216.214 108.579C216.012 108.571 215.814 108.515 215.638 108.415C215.462 108.315 215.312 108.173 215.201 108.002C215.1 107.869 214.988 107.744 214.865 107.631C214.757 107.549 214.625 107.508 214.49 107.516C214.222 107.521 213.962 107.606 213.742 107.76C213.523 107.914 213.353 108.13 213.254 108.382C212.966 108.937 212.814 109.554 212.812 110.182V111.965C212.777 112.371 212.852 112.778 213.032 113.143C213.175 113.355 213.561 113.461 214.183 113.461H214.721V114.404H208.417V113.465H208.943C209.514 113.465 209.857 113.35 209.99 113.137C210.147 112.769 210.213 112.368 210.182 111.969V108.975C210.202 108.641 210.156 108.306 210.046 107.99C209.998 107.892 209.93 107.805 209.845 107.736C209.759 107.668 209.66 107.62 209.554 107.596C209.179 107.518 208.795 107.485 208.412 107.499V106.554L212.371 105.673C212.525 106.405 212.618 107.148 212.652 107.896C212.844 107.491 213.096 107.118 213.399 106.79C213.697 106.463 214.047 106.191 214.436 105.983C214.795 105.784 215.197 105.678 215.607 105.676C215.847 105.662 216.088 105.697 216.315 105.778C216.542 105.859 216.75 105.984 216.929 106.147C217.086 106.293 217.21 106.472 217.294 106.67C217.378 106.869 217.419 107.083 217.415 107.299"></path>
<path fill="#FAFAF9" d="M225.73 112.348V108.199C225.434 107.839 225.094 107.519 224.717 107.245C224.308 106.953 223.816 106.802 223.314 106.814C222.983 106.814 222.659 106.911 222.38 107.093C222.096 107.271 221.856 107.513 221.68 107.8C221.325 108.543 221.171 109.367 221.233 110.189C221.171 111.089 221.393 111.986 221.867 112.751C222.04 113.014 222.275 113.231 222.55 113.381C222.826 113.531 223.134 113.61 223.447 113.612C223.892 113.613 224.331 113.496 224.717 113.273C225.115 113.04 225.461 112.726 225.73 112.351M229.84 114.288C228.52 114.337 227.206 114.493 225.91 114.753C225.789 114.407 225.727 114.043 225.726 113.677C224.931 114.367 223.919 114.749 222.871 114.753C222.088 114.758 221.32 114.541 220.653 114.127C219.973 113.712 219.412 113.124 219.027 112.421C218.624 111.704 218.415 110.893 218.422 110.068C218.425 109.533 218.515 109.002 218.69 108.497C218.87 107.969 219.151 107.483 219.519 107.067C219.902 106.625 220.379 106.276 220.914 106.044C221.514 105.788 222.161 105.662 222.813 105.673C223.268 105.662 223.721 105.728 224.154 105.868C224.472 105.971 224.774 106.121 225.048 106.314C225.291 106.497 225.519 106.697 225.733 106.914V103.553C225.749 103.221 225.71 102.888 225.619 102.569C225.586 102.475 225.53 102.391 225.456 102.324C225.383 102.258 225.293 102.212 225.197 102.19C224.864 102.121 224.524 102.087 224.184 102.087V101.144L228.349 100.263V111.744C228.338 112.086 228.36 112.428 228.414 112.766C228.436 112.861 228.482 112.95 228.547 113.022C228.613 113.095 228.695 113.149 228.787 113.181C229.128 113.289 229.485 113.343 229.842 113.339L229.84 114.288Z"></path>
</g>
<defs>
<clipPath id="clip0_1341_33">
<rect transform="translate(39 54)" fill="white" height="87" width="211"></rect>
</clipPath>
</defs>
</svg>
