<svg xmlns="http://www.w3.org/2000/svg" fill="none" viewBox="0 0 201 196" height="196" width="201">
<path fill="#FAFAF9" d="M0.953125 156.455V40H200.953V156.455H0.953125ZM84.0904 75.2471H72.8137V94.2021H84.0904V91.3586H76.0706V85.9396H82.8754V83.1194H76.0706V78.0905H84.0904V75.2471ZM64.1863 107.356C64.1863 110.49 66.0341 112.07 70.1643 112.629L70.1663 112.631C73.0583 113.019 73.9821 113.895 73.9821 115.546V115.692C73.9821 117.272 72.8156 118.367 70.7738 118.367H70.5545C68.5146 118.367 67.2743 117.198 67.2743 114.502H64.0175V114.745C64.0175 119.094 66.4455 121.208 70.6748 121.208C74.9041 121.208 77.3108 119.118 77.3108 115.57V115.302C77.3108 111.973 75.3408 110.49 71.2105 109.931C68.2215 109.518 67.5169 108.643 67.5169 107.088V106.942C67.5169 105.459 68.6815 104.464 70.4807 104.464H70.7C72.9593 104.464 73.8831 105.727 73.8831 108.571H77.14V108.012C77.14 103.734 75.1719 101.62 70.6748 101.62C66.5678 101.62 64.1863 103.759 64.1863 107.113V107.356ZM60.8809 48.5614H57.43H57.428V67.5164H60.5141V58.4523L60.417 54.4424L67.416 67.5164H70.867V48.5614H67.7809V57.6255L67.8799 61.6354L60.8809 48.5614ZM41.7571 48.5614H38.3061V67.5164H41.3922V58.4523L41.2951 54.4424L48.2941 67.5164H51.745V48.5614H48.659V57.6255L48.756 61.6354L41.7571 48.5614ZM39.5949 75.249H36.1439H36.142V94.206H39.228V85.1399L39.131 81.13L46.1299 94.204H49.5809V75.2471H46.4948V84.3131L46.5938 88.3231L39.5949 75.249ZM12.8645 48.5614H9.60768V67.5164H20.1799V64.673H12.8645V48.5614ZM15.5372 75.249H9.60768H9.60574V94.206H12.8626V87.1333H15.5372C18.5029 87.1333 21.8801 86.2579 21.8801 81.4211V80.9359C21.8801 76.1244 18.501 75.249 15.5372 75.249ZM15.6828 147.894C19.912 147.894 22.3188 145.803 22.3188 142.255L22.3207 142.257V141.989C22.3207 138.661 20.3507 137.178 16.2204 136.619C13.2314 136.207 12.5268 135.33 12.5268 133.775V133.63C12.5268 132.147 13.6914 131.151 15.4906 131.151H15.7099C17.9692 131.151 18.893 132.415 18.893 135.258H22.1499V134.699C22.1499 130.422 20.1799 128.308 15.6847 128.308C11.5777 128.308 9.19621 130.447 9.19621 133.801V134.043C9.19621 137.178 11.042 138.758 15.1742 139.317C18.0662 139.705 18.9901 140.58 18.9901 142.232V142.378C18.9901 143.958 17.8236 145.052 15.7817 145.052H15.5624C13.5225 145.052 12.2823 143.886 12.2823 141.188H9.0254V141.43C9.0254 145.78 11.4535 147.894 15.6828 147.894ZM19.3045 120.892H22.5614V101.937H19.3045V109.811H12.8645V101.937H9.60768V120.892H12.8645V112.629H19.3045V120.892ZM24.1879 48.5614H20.6399L26.1327 61.7325V67.5164H29.3895V61.7325L34.8823 48.5614H31.3343L27.7611 57.7225L24.1879 48.5614ZM30.2882 94.206V75.249H27.0313V94.206H30.2882ZM33.2772 147.892C37.6268 147.892 39.8142 145.9 39.8142 141.429V141.427V141.184H36.534C36.534 143.565 35.6839 145.048 33.4732 145.048H33.2539C30.5308 145.048 29.6807 142.861 29.6807 138.583V137.611C29.6807 133.335 30.556 131.147 33.2539 131.147H33.4732C35.781 131.147 36.534 132.725 36.534 135.74H39.8142V134.913C39.8142 130.295 37.6268 128.302 33.2772 128.302C28.5394 128.302 26.352 131.05 26.352 137.611V138.583C26.352 145.145 28.5375 147.892 33.2772 147.892ZM34.7833 121.208C39.5696 121.208 41.3689 119.189 41.3689 114.937H41.3669V101.935H38.112V114.815C38.112 117.316 37.2386 118.363 34.7833 118.363C32.3281 118.363 31.4294 117.318 31.4294 114.815V101.935H28.1726V114.937C28.1726 119.191 29.997 121.208 34.7833 121.208ZM54.078 147.577H57.3349V128.62H54.078V136.495H47.638V128.62H44.3812V147.577H47.638V139.315H54.078V147.577ZM56.1684 113.308C57.8939 112.629 59.2544 111.146 59.2544 108.109L59.2564 108.111V107.624C59.2564 102.812 55.8772 101.937 52.9135 101.937H46.982V120.892H50.2389V113.819H53.0105L55.7317 120.892H59.2544L56.1684 113.308ZM58.5732 94.204V88.6142L58.5751 88.6122L60.4947 85.8911L64.3338 94.2021H67.9556L62.5598 82.9506L67.9556 75.2471H64.0175L58.5732 83.6319V75.2471H55.3163V94.204H58.5732ZM75.2204 147.674H79.4478L79.4458 147.672L82.7027 128.62H79.3022L77.1381 143.3L74.149 128.62H70.044L67.0783 143.3L64.9161 128.62H61.5137L64.7705 147.674H68.9746L72.1091 132.316L75.2204 147.674ZM81.4391 101.935V104.778H85.9595V120.89H89.2164V104.778H93.7368V101.935H81.4391ZM90.1403 131.466H98.1601V131.464V128.62H86.8834V147.577H98.1601V144.734H90.1403V139.315H96.9451V136.497H90.1403V131.466ZM98.4979 86.6228C100.223 85.9415 101.584 84.4587 101.584 81.4211H101.586V80.9359C101.586 76.1244 98.2087 75.249 95.2429 75.249H89.3134V94.206H92.5703V87.1333H95.34L98.0612 94.206H101.584L98.4979 86.6228ZM109.604 147.894C112.812 147.894 114.683 146.824 115.972 145.683L115.97 145.679V137.611H109.967V140.429H112.713V144.099C112.082 144.61 111.061 145.048 109.724 145.048H109.507C106.518 145.048 105.594 142.861 105.594 138.583V137.611C105.594 133.335 106.541 131.147 109.336 131.147H109.555C111.937 131.147 112.715 132.727 112.715 135.742H115.972V134.915C115.972 130.297 113.711 128.304 109.361 128.304C104.621 128.304 102.263 131.052 102.263 137.613V138.585C102.263 145.147 104.621 147.894 109.604 147.894ZM110.796 121.206C112.859 121.206 114.586 120.672 115.995 119.748H115.997L117.018 120.892H120.882L118.136 117.732C119.471 115.983 120.178 113.722 120.178 111.366V111.292H116.847V111.366C116.871 112.72 116.597 114.065 116.044 115.302L112.373 111.098C114.318 109.955 116.238 108.716 116.238 106.115V105.848C116.238 103.538 114.732 101.618 111.232 101.618C107.733 101.618 106.201 103.538 106.201 105.848V106.115C106.201 108.012 106.857 109.13 108.024 110.539C106.494 111.632 105.229 113.114 105.229 115.57V115.836C105.229 119.092 107.296 121.206 110.796 121.206ZM135.29 147.577H138.545V128.622H133.759L129.7 141.941L125.667 128.622H120.879V147.577H124.135V138.197L124.038 134.284L128.072 147.577H131.329L135.387 134.284L135.29 138.197V147.577ZM152.446 143.251L153.49 147.577H156.989L152.007 128.525H147.512L142.53 147.577H146.054L147.098 143.251H152.446ZM174.411 147.577V128.622H171.325V137.686L171.424 141.696L164.425 128.622H160.974V147.579H164.06V138.513L163.963 134.503L170.962 147.577H174.411ZM182.431 134.503L189.43 147.577V147.579H192.881V128.622H189.795V137.686L189.892 141.696L182.893 128.622H179.442V147.579H182.528V138.513L182.431 134.503ZM18.5793 81.0562V81.3221C18.5793 83.824 16.9256 84.2859 15.6621 84.2859H12.8672V78.0905H15.6621C16.9256 78.0905 18.5793 78.5525 18.5793 81.0562ZM95.3613 78.0925H92.5664V84.2879H95.3613C96.6249 84.2879 98.2785 83.8259 98.2785 81.3241V81.0562C98.2785 78.5525 96.6249 78.0905 95.3613 78.0905V78.0925ZM113.03 106.139V105.968C113.03 105.044 112.422 104.291 111.303 104.291H111.132C110.014 104.291 109.406 105.044 109.406 105.968V106.139C109.406 107.185 109.891 108.155 110.549 109.007C111.91 108.206 113.028 107.404 113.028 106.139H113.03ZM50.2383 104.778H53.0332V104.776C54.2967 104.776 55.9504 105.238 55.9504 107.74V108.008C55.9504 110.514 54.2967 110.974 53.0332 110.974H50.2383V104.778ZM108.484 115.399V115.57C108.484 117.318 109.385 118.436 111.256 118.436H111.376C112.362 118.45 113.329 118.163 114.148 117.612L109.895 112.703C109.045 113.407 108.486 114.234 108.486 115.399H108.484ZM147.781 140.41H151.743L149.773 132.244L147.781 140.41Z" clip-rule="evenodd" fill-rule="evenodd"></path>
</svg>
