<svg xmlns="http://www.w3.org/2000/svg" fill="none" viewBox="0 0 287 196" height="196" width="287">
<g clip-path="url(#clip0_1182_1243)">
<path fill="#FAFAF9" d="M112.994 137.596L106.96 121.429L95.8606 138.003L84.8028 121.429L78.7681 137.596H75L83.9935 114.638L95.8636 132.341L107.772 114.638L116.765 137.596H112.997H112.994Z"></path>
<path fill="#FAFAF9" d="M144.147 132.016H129.078L125.474 137.593H121.545L136.614 114.635L151.725 137.593H147.754L144.15 132.016H144.147ZM130.984 129.026H142.203L136.614 120.335L130.984 129.026Z"></path>
<path fill="#FAFAF9" d="M180.406 118.72C177.53 117.71 173.724 117.426 170.076 117.426C167.038 117.426 161.528 117.587 161.528 120.742C161.528 127.167 182.066 120.742 182.066 131.17C182.066 136.991 175.383 138.003 169.712 138.003C165.539 138.003 160.962 137.517 157.602 136.628L157.722 133.678C161.205 134.688 165.824 135.173 169.753 135.173C173.926 135.173 178.747 134.568 178.747 131.334C178.747 124.382 158.209 131.009 158.209 120.987C158.209 115.246 165.296 114.641 169.997 114.641C174.697 114.641 178.058 115.126 180.568 115.934L180.406 118.723V118.72Z"></path>
<path fill="#FAFAF9" d="M191.668 137.596V115.042H195.193V137.596H191.668Z"></path>
<path fill="#FAFAF9" d="M210.544 120.941V137.593H206.979V114.635L230.472 131.975V115.039H233.997V137.997L210.544 120.941Z"></path>
<path fill="#F2F1F0" d="M166.373 59L137.375 100.288H149.626L166.373 76.4837L183.116 100.288H195.371L166.373 59Z" opacity="0.8"></path>
<path fill="#E6E5E3" d="M144.941 59L115.943 100.288H128.198L144.941 76.4837L161.688 100.288H173.939L144.941 59Z" opacity="0.8"></path>
</g>
<defs>
<clipPath id="clip0_1182_1243">
<rect transform="translate(75 59)" fill="white" height="79" width="159"></rect>
</clipPath>
</defs>
</svg>
