<svg xmlns="http://www.w3.org/2000/svg" fill="none" viewBox="0 0 286 200" height="200" width="286">
<path fill="#FAFAF9" d="M45.3047 140.5V60.5037L49.9073 60.5L50.1224 140.5H45.3047Z"></path>
<path fill="#FAFAF9" d="M10.1248 91.84C15.4988 92.2622 21.7074 91.2733 26.9776 91.84C31.48 92.3215 34.0317 96.5515 29.6182 99.1851L29.3809 99.9482C34.2727 101.445 33.4605 106.723 28.7355 107.975C23.4097 109.39 15.7251 107.86 10.1211 108.43V108.06C11.2374 108.267 10.8369 107.497 10.8629 106.786C11.0075 102.526 11.0335 97.7331 10.8629 93.4809C10.8332 92.7697 11.2449 92.0029 10.1211 92.2067V91.8363L10.1248 91.84ZM15.3097 98.1073H26.6067C28.1124 97.3813 27.7341 94.4217 26.2358 94.4217H15.3097V98.1073ZM15.3097 105.478H26.6067C26.7699 105.478 27.9604 104.634 28.0902 104.375C28.9284 102.993 27.6785 101.052 26.2358 101.052H15.3097V105.475V105.478Z"></path>
<path fill="#FAFAF9" d="M150.119 81.5168L149.544 82.9725L155.683 92.2067L162.67 82.4466L162.344 81.5168H168.641C168.604 81.9169 168.07 82.1206 167.981 82.5206C167.562 84.4319 167.599 94.6699 167.877 96.8368C167.981 97.6405 168.259 97.8554 168.637 98.4739H163.082C163.041 98.0887 163.823 97.7072 163.823 97.5516V87.047L156.039 98.4739L147.898 87.4137V97.5516C147.898 97.7072 148.68 98.0887 148.64 98.4739H143.455C143.414 98.0887 144.196 97.7072 144.196 97.5516V82.4392C144.196 82.2836 143.414 81.9021 143.455 81.5168H150.123H150.119Z"></path>
<path fill="#FAFAF9" d="M106.601 81.5168C107.569 81.6317 109.872 82.4021 110.751 82.917C114.323 85.0097 113.748 88.9842 110.113 90.5436C109.42 90.8399 107.239 90.9733 107.532 91.6511L113.826 98.4777H107.528L107.565 97.1775L101.787 91.1029H95.6749V97.5554C95.6749 97.9035 97.0064 97.9776 96.7876 98.4777H90.8609C90.8201 98.0924 91.6027 97.7109 91.6027 97.5554V82.4428C91.6027 82.2873 90.8201 81.9058 90.8609 81.5205C95.8381 81.9465 101.739 80.9464 106.601 81.5205V81.5168ZM96.0458 88.5212H106.601C106.731 88.5212 107.892 87.9545 108.088 87.7952C109.672 86.4062 108.429 85.2579 106.968 84.469H96.0421V88.5249L96.0458 88.5212Z"></path>
<path fill="#FAFAF9" d="M201.23 98.4774C201.067 98.3588 201.816 97.7995 201.89 97.4736C202.309 95.5623 202.272 85.3206 201.994 83.1575C201.89 82.3537 201.612 82.1388 201.234 81.5203H215.865C216.763 81.5203 219.637 82.3129 220.598 82.7093C227.021 85.3688 226.535 95.4067 220.115 97.5439C219.314 97.8106 216.54 98.4774 215.869 98.4774H201.238H201.23ZM206.415 95.5253H216.97C217.104 95.5253 218.736 94.7696 218.992 94.5881C221.165 93.0658 221.547 88.3209 219.911 86.3281C219.552 85.891 217.033 84.465 216.599 84.465H206.415V95.5253Z"></path>
<path fill="#FAFAF9" d="M138.086 81.5168C138.175 81.5168 138.579 80.8168 138.642 81.3353V84.8357C138.505 85.0172 138.163 84.469 138.086 84.469H123.087V88.5249H132.53C132.752 88.5249 133.709 87.6322 133.824 87.7878V91.8437C133.442 91.8845 133.06 91.1066 132.901 91.1066H123.087V95.5292H138.086C138.201 95.5292 138.609 95.0218 139.009 95.1625V98.8481C138.876 99.0296 138.534 98.4814 138.456 98.4814H117.902C117.939 98.0814 118.473 97.8776 118.563 97.4776C118.982 95.5663 118.945 85.3246 118.666 83.1614C118.563 82.3577 118.284 82.1428 117.906 81.5242C124.623 81.4131 131.369 81.6724 138.089 81.5242L138.086 81.5168Z"></path>
<path fill="#FAFAF9" d="M276.418 82.9945L274.189 86.6763C272.383 84.8317 269.52 84.2242 266.987 84.0835C265.21 83.9835 259.629 84.1316 259.365 86.5096L259.543 87.432C260.864 89.3544 274.445 86.2207 276.441 91.2582C279.352 98.5997 266.03 98.8441 261.791 98.4663C259.325 98.2478 257.055 97.0551 254.562 96.9958L256.791 92.9473L257.522 93.1992L257.863 94.2548C261.238 96.0661 266.394 96.4624 270.043 95.266C273.262 94.2104 273.177 92.1065 269.843 91.5583C266.241 90.9656 254.911 92.6547 254.911 86.8615C254.911 81.4832 265.129 81.1906 268.815 81.5203C271.456 81.7573 273.922 83.1908 276.415 82.9908L276.418 82.9945Z"></path>
<path fill="#FAFAF9" d="M250.308 81.5166C250.412 81.5017 250.724 80.961 250.861 81.1499V84.8354C250.464 84.9761 250.052 84.4687 249.937 84.4687H234.939V88.5246H244.752C244.908 88.5246 245.294 87.7468 245.676 87.7875V91.8397L245.309 91.1026H234.939V95.5253H250.308C250.431 95.5253 251.098 94.7919 251.235 95.3438V98.8441C250.831 98.9849 250.423 98.4774 250.308 98.4774H230.125C230.162 98.0774 230.696 97.8737 230.785 97.4736C231.204 95.5623 231.167 85.3206 230.889 83.1575C230.785 82.3537 230.507 82.1388 230.129 81.5203H250.312L250.308 81.5166Z"></path>
<path fill="#FAFAF9" d="M172.344 98.4776C172.444 97.9108 173.137 97.9071 173.464 97.4664C174.476 96.107 181.853 83.3058 181.931 82.4502C181.961 82.1279 181.49 81.6131 181.601 81.5242H187.709L187.324 82.6206L197.526 98.4776H191.6C192.405 97.5145 190.257 94.355 189.493 94.1216C187.557 94.2994 180.332 93.4845 179.198 94.4254C178.519 94.9884 177.091 97.6108 177.9 98.4776H172.344ZM187.898 91.4732L184.379 85.5838L180.859 91.4732H187.895H187.898Z"></path>
<path fill="#FAFAF9" d="M85.3063 82.9944L82.7064 86.6688H81.9832C81.9053 85.7206 81.1561 85.465 80.3773 85.1316C75.7561 83.1537 65.0414 83.6537 65.6608 90.5469C66.0354 94.7103 71.6653 95.9993 75.133 95.9141C77.4659 95.8548 82.2168 95.0474 82.8955 92.5768L86.0443 95.8882C84.3642 96.0845 82.9178 97.1513 81.3082 97.6291C74.4914 99.6626 60.2496 98.7292 61.633 88.732C62.512 82.3758 72.2142 81.0868 77.3546 81.498C80.2549 81.7313 82.6322 83.3463 85.3025 82.9907L85.3063 82.9944Z"></path>
<path fill="#FAFAF9" d="M125.247 111.838C128.377 111.727 134.363 113.138 133.287 117.283C132.06 122.013 120.522 122.12 118.359 117.742C116.405 113.786 122.35 111.942 125.247 111.838ZM120.978 118.635C123.17 120.609 129.534 120.617 131.155 117.735C134.066 111.801 119.134 110.66 120.143 117.068C120.206 117.479 120.674 118.357 120.981 118.635H120.978Z"></path>
<path fill="#FAFAF9" d="M179.379 120.594V112.116H186.971C187.635 112.116 190.112 113.053 190.683 113.583C192.159 114.949 192.393 117.231 191.069 118.776C190.661 119.25 188.161 120.594 187.713 120.594H179.379ZM181.6 119.857C184.163 119.983 189.752 120.279 190.001 116.675C190.29 112.434 184.415 112.69 181.6 112.853V119.857Z"></path>
<path fill="#FAFAF9" d="M195.801 118.994C195.489 118.683 194.714 117.412 194.625 117.005L194.844 115.157C197.169 109.815 212.142 111.438 209.779 117.475C208.144 121.65 198.734 121.891 195.801 118.99V118.994ZM200.021 112.938C198.46 113.219 196.138 115.186 196.568 116.905C197.484 121.016 206.834 120.987 207.802 117.368C208.952 113.075 203.114 112.382 200.021 112.938Z"></path>
<path fill="#FAFAF9" d="M218.208 111.834C219.221 111.786 224.409 112.346 224.565 113.042L224.005 113.961C222.985 113.646 222.102 113.038 221.016 112.886C219.836 112.72 213.694 112.442 215.107 114.712C215.897 115.987 222.31 115.476 224.179 116.742C226.935 119.876 221.561 120.909 219.213 120.983C218.364 121.009 212.697 120.494 212.723 119.676L213.936 118.813C215.137 120.639 224.669 120.432 222.918 117.635C220.704 115.85 210.216 117.798 213.683 112.894C214.351 112.457 217.34 111.879 218.208 111.838V111.834Z"></path>
<path fill="#FAFAF9" d="M114.936 112.856L113.96 113.916C112.54 112.534 105.371 112.193 104.94 114.149C104.881 114.868 105.589 115.012 106.109 115.19C108.998 116.179 112.951 115.138 115.258 117.524C116.185 120.25 111.353 120.928 109.584 120.983C107.247 121.054 104.929 120.546 102.719 119.857C103.961 117.979 104.996 119.49 106.643 119.82C108.137 120.12 112.951 120.257 113.419 118.509L113.092 117.461C111.071 116.249 104.792 117.112 103.431 115.283L103.067 114.168C103.353 111.149 112.918 111.767 114.936 112.864V112.856Z"></path>
<path fill="#FAFAF9" d="M95.2488 112.175L100.118 120.591L97.9488 120.535C97.4148 116.887 92.126 118.802 89.4408 118.442L88.5767 120.531L86.7891 120.591L91.273 112.156L95.2488 112.175ZM96.0462 117.275L93.2683 112.86L90.4904 117.275H96.0462Z"></path>
<path fill="#FAFAF9" d="M170.043 112.194L175.302 120.591C173.217 120.946 172.646 120.213 171.893 118.461L164.809 118.446L163.374 120.52L161.598 120.595L166.471 112.179L170.039 112.197L170.043 112.194ZM165.303 117.276H171.229L168.448 112.849C167.335 112.857 166.108 116.465 165.303 117.276Z"></path>
<path fill="#FAFAF9" d="M149.378 112.857L148.076 114.327C147.293 112.383 142.976 112.572 141.218 113.027C138.722 113.675 137.064 116.535 139.134 118.624C140.873 120.38 147.078 120.632 148.443 118.383L150.116 119.483C147.312 120.272 145.239 121.254 142.194 120.92C139.149 120.587 134.709 118.302 136.631 114.724C138.552 111.146 146.014 111.646 149.378 112.857Z"></path>
<path fill="#FAFAF9" d="M72.0494 112.194L74.564 112.479L69.1937 116.905V120.598H67.1575L66.9795 116.538L61.9727 112.301C65.0843 111.019 66.082 114.709 68.4074 115.779L72.0532 112.197L72.0494 112.194Z"></path>
<path fill="#FAFAF9" d="M156.788 120.594H154.566C155.175 118.028 155.178 114.698 154.566 112.12H157.159C157.341 112.253 156.788 112.59 156.788 112.668V120.594Z"></path>
</svg>
