<svg width="99" height="143" viewBox="0 0 99 143" fill="none" xmlns="http://www.w3.org/2000/svg">
<mask id="mask0_771_2712" style="mask-type:luminance" maskUnits="userSpaceOnUse" x="0" y="33" width="99" height="77">
<path d="M98.9355 33.4004H0.015625V109.6H98.9355V33.4004Z" fill="white"></path>
</mask>
<g mask="url(#mask0_771_2712)">
<path d="M98.937 67.8299C98.735 67.8386 98.5321 67.8552 98.3301 67.8552C86.1123 67.856 73.8936 67.856 61.6758 67.856C61.4755 67.856 61.2761 67.856 61.0305 67.856V72.3199H43.1875V67.8482H61.0157V67.2972C61.0157 56.1706 61.0157 45.0431 61.014 33.9165C61.014 33.7448 60.987 33.5721 60.973 33.4004C67.4455 33.4004 73.918 33.4004 80.3904 33.4004V37.4161H84.3786V43.3875H93.9039V57.8934H98.937V67.8299ZM78.9188 44.8269H62.4542V52.8523H73.17V57.8437H78.9188V44.8269ZM92.4828 44.8269H84.3934V57.8358H92.4828V44.8269ZM78.9171 38.8408H62.4525V43.3517H78.9171V38.8408ZM71.7471 59.3075H62.4551V66.4201H71.7471V59.3075ZM92.4654 66.4271V59.311H84.4029V66.4271H92.4654ZM78.9188 34.8328H62.4499V37.3865H78.9188V34.8328ZM73.1761 66.421H78.9188V59.3127H73.1761V66.421ZM62.4481 57.8367H71.7497V54.3057H62.4481V57.8367ZM82.9261 57.8498V44.8269H80.3948V57.8498H82.9261ZM97.5168 59.3171H93.9179V66.407H97.5168V59.3171ZM80.3817 66.4218H82.9322V59.3049H80.3817V66.4218ZM82.9383 38.8477H80.3904V43.3439H82.9383V38.8477Z" fill="#8F8B85"></path>
<path d="M0.0195312 85.0024C2.35843 84.2823 4.68688 83.5272 7.04232 82.8673C7.63096 82.7025 8.30581 82.8428 8.98065 82.8428V85.2317C9.18267 85.1288 9.31416 85.0643 9.44303 84.9955C10.326 84.5273 11.1846 84.0059 12.0945 83.5979C15.7962 81.9379 19.4813 83.2753 21.1036 86.9964C22.6527 90.55 22.549 94.1115 20.4444 97.4473C19.012 99.7176 16.7915 100.853 14.1948 101.304C12.6214 101.578 11.0444 101.488 9.46742 101.346C9.32809 101.334 9.1879 101.324 9.02419 101.31V107.219C9.86362 107.406 10.7048 107.61 11.5529 107.777C11.8864 107.842 12.0136 107.976 11.9822 108.322C11.9439 108.74 11.9578 109.161 11.9491 109.582H0.280763C0.289471 109.148 0.32256 108.712 0.298178 108.278C0.280763 107.968 0.393964 107.847 0.685673 107.781C1.44499 107.61 2.19821 107.409 2.94795 107.222V86.7453H0.0195312C0.0195312 86.1637 0.0195312 85.5831 0.0195312 85.0016V85.0024ZM9.01897 99.2154C9.5841 99.2154 10.1179 99.2372 10.6491 99.2119C12.8251 99.1081 14.463 97.9163 15.1675 95.857C15.8423 93.8831 15.8946 91.8648 15.3312 89.8569C14.9411 88.4654 14.1017 87.4401 12.6745 86.9815C11.4589 86.5918 10.2476 86.774 9.01897 86.9554V99.2163V99.2154Z" fill="#8F8B85"></path>
<path d="M37.7206 101.447V90.3364C37.6893 90.3207 37.6588 90.305 37.6275 90.2902C37.5421 90.4227 37.4533 90.5535 37.3714 90.6886C35.2668 94.1629 33.1595 97.6347 31.0636 101.115C30.9025 101.382 30.7353 101.492 30.4166 101.487C29.0416 101.468 27.6658 101.48 26.2404 101.48V86.8498C25.043 86.7243 23.8928 86.6031 22.6946 86.4776C22.6946 85.9693 22.6824 85.4793 22.7059 84.991C22.7102 84.9056 22.8478 84.7774 22.9453 84.753C24.9838 84.2456 27.0136 83.6946 29.0704 83.2787C29.8889 83.1131 30.7692 83.2517 31.6809 83.2517V94.9363C31.7106 94.9433 31.7402 94.9502 31.7698 94.9572C31.8612 94.8177 31.957 94.6817 32.0423 94.5387C34.2297 90.8944 36.4197 87.2518 38.5975 83.6013C38.7664 83.3188 38.9406 83.1985 39.2802 83.2064C40.3965 83.2308 41.5146 83.2151 42.6318 83.2151H43.1473V96.9921C43.3032 96.8143 43.3894 96.7288 43.4608 96.632C44.7991 94.8421 46.141 93.0539 47.4655 91.2544C47.5908 91.0844 47.664 90.8351 47.6657 90.6215C47.6805 88.5011 47.6814 86.3799 47.6675 84.2596C47.6649 83.9326 47.7728 83.7208 48.0236 83.5246C49.9454 82.0241 52.7232 82.8062 53.3397 85.032C53.5835 85.9117 53.5043 86.7984 53.0741 87.5717C52.4489 88.6956 51.7732 89.8054 50.9947 90.8264C48.3371 94.312 45.6264 97.7567 42.927 101.21C42.8277 101.337 42.6335 101.466 42.4829 101.467C40.9599 101.486 39.4361 101.479 37.9122 101.477C37.8573 101.477 37.8034 101.461 37.7206 101.448V101.447Z" fill="#8F8B85"></path>
<path d="M64.9325 84.767C63.1204 85.0783 61.8099 85.9484 61.048 87.5587C60.3061 89.1272 60.1755 90.8012 60.3278 92.4969C60.3932 93.2266 60.5403 93.9677 60.7754 94.6608C61.7751 97.606 64.2873 98.9539 67.2766 98.0942C68.4382 97.7603 69.5371 97.2067 70.6622 96.7481C70.8607 96.667 71.0497 96.5615 71.2926 96.4438C71.3074 96.599 71.3248 96.7045 71.3257 96.8108C71.3283 97.3627 71.3275 97.9146 71.3275 98.4665C71.3275 99.7359 71.3222 99.7246 70.1789 100.23C67.5483 101.392 64.8193 101.941 61.9283 101.754C57.7617 101.486 54.3265 98.3601 53.7483 94.2162C53.427 91.9119 53.6638 89.6887 54.8219 87.6363C56.3057 85.0051 58.6542 83.5813 61.5513 83.0138C63.6298 82.6066 65.7049 82.631 67.732 83.3424C68.6768 83.6737 69.5189 84.1716 70.1867 84.9344C70.7719 85.6023 71.0871 86.3843 71.142 87.2675C71.25 88.9938 70.0605 90.3365 68.3024 90.4916C67.18 90.591 66.1403 90.3269 65.185 89.7506C65.0527 89.6704 64.9473 89.4341 64.9447 89.2684C64.9255 87.9467 64.9342 86.625 64.9342 85.3041C64.9342 85.1481 64.9342 84.992 64.9342 84.7705L64.9325 84.767Z" fill="#8F8B85"></path>
</g>
</svg>
