<svg xmlns="http://www.w3.org/2000/svg" width="307" height="200" fill="none"><path fill="#8F8B85" d="M55.557 88.211c0-.141.14-1.677.31-3.413.4-4.073.64-6.636.879-9.356.105-1.206.223-2.375.26-2.599l.069-.407h8.408l-.068.407a237.185 237.185 0 0 0-.822 5.355c-.65 4.486-1.518 10.063-1.584 10.17-.035.055-1.725.1-3.757.1-3.642 0-3.695-.004-3.695-.257ZM38.683 112.471c2.691-2.965 4.623-6.924 5.35-10.96.31-1.725.37-5.087.122-6.78-1.15-7.846-6.316-14.438-13.646-17.415-2.774-1.127-5.027-1.55-8.27-1.55-2.585 0-4.232.226-6.27.858-.549.17-1.017.291-1.04.268-.023-.023.408-.416.958-.874 2.878-2.396 6.2-3.976 9.95-4.735 1.239-.25 1.785-.287 4.246-.283 2.579.004 2.96.034 4.404.342 4.225.9 7.719 2.748 10.827 5.726 3.628 3.478 5.815 7.742 6.547 12.77.29 1.985.204 5.416-.183 7.32-1.128 5.548-4.244 10.359-8.858 13.672-1.083.778-4.422 2.563-4.794 2.563-.099 0 .197-.415.657-.922ZM239.654 84.836h8.659v2.254c0 1.327.048 2.255.118 2.255.065 0 .369-.324.675-.72 2.692-3.478 6.749-5.124 11.525-4.676 4.998.468 7.925 2.92 9.009 7.547.469 2.006.508 3.168.508 15.254v11.778h-8.91l-.002-10.677c-.001-5.873-.055-11.176-.119-11.785-.242-2.297-.933-3.48-2.474-4.237-.756-.371-.947-.41-2.287-.457-1.66-.059-2.595.117-3.839.724-1.791.873-3.252 2.663-3.756 4.602-.172.664-.197 2.11-.197 11.296v10.534h-8.91V84.836ZM181.123 117.559c-.334-.902-.89-2.321-3.839-9.802-1.019-2.584-2.071-5.257-4.608-11.711a272.772 272.772 0 0 0-1.043-2.63c-.369-.86-3.139-7.997-3.205-8.26l-.081-.32h10.3l.208.72c.114.396.65 2.073 1.19 3.726.54 1.654 1.519 4.669 2.174 6.701.656 2.032 1.769 5.471 2.473 7.64.705 2.17 1.321 4.087 1.369 4.259.144.508.301.32.652-.78.182-.57 1.077-3.347 1.988-6.171l2.726-8.455a695.13 695.13 0 0 1 1.777-5.448l.708-2.13 4.926-.032c2.709-.018 4.925-.008 4.925.023 0 .03-.288.778-.641 1.66-.631 1.583-1.062 2.674-2.909 7.368a3891.34 3891.34 0 0 1-3.937 9.957 9900.498 9900.498 0 0 0-4.412 11.147l-1.362 3.445-9.019.065-.36-.972ZM157.206 72.433l8.847.066.063 46.029h-8.91V72.433ZM69.173 72.499l11.369-.066.173.414c.152.364 5.399 15.976 9.848 29.305.845 2.531 1.582 4.603 1.638 4.603.116 0 .117-.002 1.253-3.319.472-1.378 1.462-4.253 2.2-6.388.74-2.136 1.728-5.01 2.197-6.388.47-1.378 1.709-4.985 2.753-8.016 1.044-3.031 2.154-6.266 2.466-7.188.312-.922.681-1.98.819-2.35l.253-.672 11.087.065v45.967l-8.722.066v-15.37c0-8.756-.047-15.319-.11-15.251-.06.065-.393.964-.741 1.998-.347 1.033-1.263 3.71-2.035 5.949-.772 2.239-1.817 5.282-2.321 6.763-.504 1.482-1.547 4.525-2.32 6.764-.771 2.239-1.785 5.198-2.253 6.576l-.85 2.505-7.4.066-.638-1.787c-.676-1.897-2.336-6.672-3.863-11.118-.509-1.481-1.552-4.496-2.319-6.7-.766-2.205-1.78-5.136-2.253-6.513-1.39-4.051-1.538-4.444-1.655-4.371-.062.037-.1.388-.087.779.013.391.015 7.235.003 15.209l-.021 14.497H69.11l.063-46.03ZM219.763 83.918c-2.629.007-4.093.219-6.086.88-5.364 1.778-9.098 6.154-10.284 12.05-.704 3.497-.578 8.13.312 11.511 1.714 6.505 6.375 10.372 13.298 11.03 3.437.327 7.096.015 9.594-.816 3.804-1.265 6.398-3.919 7.636-7.81.208-.655.417-1.416.464-1.691.046-.276.112-.6.145-.722.057-.208-.186-.219-4.295-.188l-4.356.033-.15.501c-.368 1.229-1.254 2.41-2.241 2.987-1.088.636-2.259.895-4.037.891-1.855-.004-2.932-.256-4.266-.998-2.029-1.128-3.279-3.532-3.631-6.982l-.073-.72h23.5l-.07-3.351c-.073-3.527-.168-4.32-.792-6.596-.947-3.453-3.448-6.715-6.266-8.172-2.705-1.399-4.759-1.847-8.402-1.837Zm-.063 6.628c4.315.012 6.614 2.216 6.946 6.658l.058.783h-14.753l.06-.595c.271-2.695 1.812-5.074 3.936-6.077 1.294-.611 2.085-.773 3.753-.769ZM137.793 83.867c-3.282-.095-6.143.504-8.795 1.832-2.963 1.484-5.029 3.589-6.591 6.716-1.336 2.672-1.832 4.908-1.934 8.703-.167 6.248 1.246 10.744 4.398 13.995 2.475 2.555 5.892 4.016 10.122 4.331 2.229.166 5.429.005 7.216-.364 2.025-.417 4.079-1.307 5.452-2.362 2.344-1.8 3.988-4.703 4.595-8.115l.084-.471h-8.648l-.159.533c-.545 1.818-1.788 3.04-3.69 3.628-1.297.402-3.742.398-5.161-.007-1.851-.529-2.996-1.4-3.955-3.011a10.676 10.676 0 0 1-.757-1.582c-.31-.886-.623-2.536-.623-3.286v-.532l23.404-.063.038-1.441c.092-3.424-.333-6.88-1.13-9.206-1.894-5.525-6.146-8.676-12.433-9.215a25.34 25.34 0 0 0-1.433-.083Zm-.611 6.666c1.761.015 3.489.475 4.555 1.285 1.371 1.04 2.418 3.519 2.418 5.723v.446h-14.718l.087-.845c.314-3.066 2.475-5.655 5.297-6.347a9.633 9.633 0 0 1 2.361-.262ZM19.541 119.589c-9.96-1.26-17.718-8.873-19.141-18.784-.099-.689-.18-2.034-.182-2.99-.011-8.38 4.586-15.81 12.17-19.669 1.913-.973 2.078-1.003 1.377-.248-1.422 1.532-3.11 4.01-3.835 5.629a28.128 28.128 0 0 0-1.65 5.043c-.314 1.465-.34 1.808-.337 4.407.003 3.258.16 4.247 1.134 7.129.647 1.914.996 2.648 2.15 4.511 2.454 3.968 6.546 7.342 10.854 8.949 4.598 1.716 9.48 1.903 14.122.543 1-.293 1.03-.295.816-.052-.122.139-.9.754-1.729 1.366-2.097 1.551-4.788 2.885-7.153 3.547-2.448.685-6.035.944-8.596.619ZM278.556 130.922a21.04 21.04 0 0 1-3.697-.687c-.514-.149-.658-.243-.621-.408.026-.118.192-.891.368-1.717.697-3.267.983-4.513 1.053-4.595.041-.047.441.004.889.114 1.203.293 3.881.291 4.728-.003.807-.281 1.612-.981 2.138-1.858.379-.632 1.791-4.209 1.822-4.617.008-.104-.623-1.654-1.403-3.445l-2.451-5.636c-.569-1.309-1.613-3.704-2.32-5.323a1106.54 1106.54 0 0 1-1.85-4.259c-.31-.723-.975-2.245-1.478-3.382a724.88 724.88 0 0 1-1.889-4.32c-.537-1.24-1.327-3.056-1.757-4.034-.429-.978-.752-1.807-.717-1.842.035-.035 2.346-.067 5.136-.071l5.072-.008.171.41c.094.225.596 1.62 1.115 3.102.52 1.481 1.49 4.215 2.155 6.075 1.253 3.498 2.751 7.699 3.855 10.809.35.985.681 1.746.735 1.691.055-.055 1.719-4.976 3.7-10.935 1.98-5.959 3.658-10.907 3.729-10.995.101-.127 1.139-.158 4.867-.147 2.607.009 4.765.041 4.797.073.032.032-.208.718-.533 1.524-.326.807-.966 2.425-1.424 3.596-.863 2.21-3.25 8.267-4.417 11.21-.369.93-.934 2.367-1.256 3.194a1077.1 1077.1 0 0 1-1.153 2.943l-1.505 3.82c-3.226 8.202-3.876 9.816-4.745 11.774-.459 1.033-1.121 2.358-1.471 2.943-.589.985-1.636 2.391-2.01 2.698-1.444 1.189-2.661 1.807-4.18 2.124-1.205.251-3.822.338-5.453.182Z"></path></svg>