<svg xmlns="http://www.w3.org/2000/svg" width="364" height="200" fill="none"><path fill="#8F8B85" d="M363.32 118.879h-8.154l-7.49-14.013h-8.396v14.013h-7.127V83.181h17.818c8.155 0 12.021 3.262 12.021 10.752 0 5.496-2.477 9-6.886 10.027l8.214 14.919Zm-15.281-29.356h-8.759v9h8.759c4.288 0 6.402-.905 6.402-4.53 0-3.563-2.114-4.47-6.402-4.47Zm-44.698 26.215c-3.504-2.899-5.255-7.671-5.255-14.013 0-12.624 5.134-18.544 16.187-18.544h12.021v6.222h-11.779c-5.134 0-7.792 2.657-8.154 8.275h19.933v6.282h-19.933c0 6.402 2.476 8.758 8.154 8.758h11.779V119h-12.141c-4.289-.121-7.43-.544-10.812-3.262Zm-17.155 3.141h-7.369V89.403h-11.054V83.12H297.3v6.282h-11.114v29.476Zm-20.718 0-3.141-8.517h-14.919l-3.02 8.517h-7.672l14.557-35.698h7.732l14.557 35.698h-8.094Zm-10.631-28.57-5.013 13.772h10.147l-5.134-13.772Zm-32.798 28.57-7.249-26.698-6.402 26.698h-8.759l-11.416-35.698h7.792l7.913 27.423 6.644-27.423h8.517l7.671 27.423 7.369-27.423h7.369l-10.51 35.698h-8.939Zm-60.886-3.141c-3.504-2.899-5.255-7.671-5.255-14.013 0-12.624 5.134-18.544 16.188-18.544h12.02v6.222h-11.779c-5.134 0-7.792 2.657-8.154 8.275h19.812v6.282h-19.933c0 6.402 2.476 8.758 8.154 8.758h11.779V119h-12.141c-4.168-.121-7.43-.544-10.691-3.262Zm-35.94 0c-3.503-2.899-5.255-7.671-5.255-14.013 0-12.624 5.134-18.544 16.188-18.544h15.523v6.161h-15.523c-5.738 0-8.154 3.866-8.154 12.02 0 8.155 2.235 11.175 8.154 11.175h8.094v-8.396h-9.665v-6.282h17.034V119h-15.523c-4.289-.121-7.49-.362-11.054-3.262h.181Zm-24.825 3.141H84.502V83.181h15.644c11.054 0 16.188 5.86 16.188 18.544 0 6.523-1.752 11.174-5.255 14.013-3.504 2.9-6.524 3.141-10.752 3.141h.061Zm-.363-29.597h-8.396v23.315h8.396c6.403 0 8.396-2.899 8.396-11.657 0-8.759-2.054-11.658-8.396-11.658ZM71.334 83h7.49v35.698h-7.49V83Zm-11.9 35.698-7.49-14.013h-8.577v14.013H36.24V83h17.819c8.154 0 12.02 3.262 12.02 10.752 0 5.496-2.477 9-6.886 10.027l8.517 14.919h-8.275Zm-7.127-29.295h-8.819v9h8.759c4.288 0 6.402-.906 6.402-4.53 0-3.625-2.114-4.41-6.523-4.41l.181-.06ZM19.69 118.698H.904V83h17.517c3.987 0 6.886.362 8.759 1.63 2.597 1.994 4.047 5.135 3.744 8.397-.241 3.262-2.174 6.16-5.013 7.731 3.322 1.269 5.436 4.591 5.134 8.155.121 6.886-3.624 9.906-11.416 9.906.06.06.06-.121.06-.121Zm-1.088-29.295H8.032v8.275h10.57c3.262 0 4.772-1.269 4.772-4.108 0-2.838-1.51-3.986-4.772-3.986v-.181Zm.121 14.557H8.032v8.396h10.63c3.262 0 4.773-1.269 4.773-4.108 0-2.839-1.631-4.107-4.772-4.107.06-.06.06-.181.06-.181Z"></path></svg>