<svg xmlns="http://www.w3.org/2000/svg" width="413" height="198" fill="none"><path fill="#8F8B85" d="M38.986 118.254c.063-.5.063-1.006 0-1.505a26.434 26.434 0 0 0-.23-3.457L35.44 87.71l-11.854 28.568a9.294 9.294 0 0 0-.828 2.563h-1.036a12.816 12.816 0 0 0-.806-2.563L9.408 88.651 6.44 112.328a25.46 25.46 0 0 0-.322 3.621c-.007.79.07 1.579.23 2.352H.2v-.612c2.302 0 3.223-1.222 3.706-4.702l3.568-26.452v-.4a8.357 8.357 0 0 0 0-.846 4.014 4.014 0 0 0-1.076-2.473 3.86 3.86 0 0 0-2.377-1.195v-.612h7.688c.075.61.263 1.2.552 1.74L23.633 110.4l10.91-26.217c.56-.962.869-2.055.898-3.174h7.481v.612c-2.187.164-3.222 1.128-3.222 2.845a3.39 3.39 0 0 0 0 .776l.16.94 3.822 27.087c.483 3.292 1.265 4.303 3.498 4.467v.494h-8.194M77.034 118.771v-.212a20.188 20.188 0 0 0-.99-3.762l-4.603-11.944H60.76l-4.259 11.215a11.963 11.963 0 0 0-1.15 4.703h-5.893v-.565a4.73 4.73 0 0 0 2.7-1.126 4.91 4.91 0 0 0 1.558-2.518l12.568-31.954c.207-.513.354-1.05.437-1.599h1.197c.102.588.264 1.163.484 1.717l12.36 30.496c1.473 3.715 2.509 4.702 4.604 4.984v.565h-8.333ZM66.01 88.792l-4.604 12.156h9.207L66.01 88.792ZM121.021 114.068a54.124 54.124 0 0 0-1.496 5.549c-.775.056-1.545.174-2.302.353l-1.979.47c-1.804.366-3.64.547-5.479.541a18.918 18.918 0 0 1-7.545-1.274 19.235 19.235 0 0 1-6.469-4.168 19.721 19.721 0 0 1-4.373-6.409 20.063 20.063 0 0 1-1.592-7.641c.079-5.489 2.28-10.722 6.122-14.559 3.842-3.837 9.014-5.965 14.387-5.921 1.893.006 3.778.242 5.616.705 1.303.345 2.638.55 3.982.612v.4c.233 1.797.572 3.58 1.013 5.337v.4h-.599c-1.289-3.48-5.248-5.596-10.542-5.596-8.838 0-14.938 7.053-14.938 17.422 0 10.91 6.33 18.811 14.938 18.811 4.926 0 9.322-2.352 10.773-5.714l.598.235v.353M151.888 87.17a4.317 4.317 0 0 0-.474-1.603 4.219 4.219 0 0 0-1.046-1.29c-1.197-.916-2.462-1.34-6.698-1.34h-6.33v15.19h10.473a13.74 13.74 0 0 0 3.407-.4v2.657a12.601 12.601 0 0 0-3.407-.329H137.34v14.107a10.125 10.125 0 0 0 .53 4.515h-7.734v-.612c2.141 0 2.877-1.175 2.877-4.302V85.547c0-2.563-.944-3.809-2.946-3.809v-.729h22.235v.447c0 1.458 0 3.386.161 5.079v.588h-.575M184.527 118.771v-.212a20.675 20.675 0 0 0-.99-3.762l-4.604-11.944H168.23l-4.258 11.215a11.974 11.974 0 0 0-1.151 4.703h-5.87v-.565a4.762 4.762 0 0 0 2.697-1.13 4.935 4.935 0 0 0 1.562-2.514l12.567-31.954a7.217 7.217 0 0 0 .415-1.599h1.197c.099.589.261 1.164.483 1.717l12.291 30.566c1.473 3.715 2.509 4.703 4.604 4.985v.564l-8.24-.07Zm-11.026-29.979-4.603 12.156h9.207l-4.604-12.156ZM229.112 118.771a12.5 12.5 0 0 1-7.366-2.351 12.492 12.492 0 0 1-2.302-2.61 53.265 53.265 0 0 1-3.913-6.184 19.599 19.599 0 0 0-4.488-6.043 7.063 7.063 0 0 0-4.097-1.011h-.322v-1.317h1.91c5.847 0 8.724-2.727 8.724-8.3a8.42 8.42 0 0 0-.62-3.707 8.25 8.25 0 0 0-2.165-3.041 10.073 10.073 0 0 0-6.583-1.575 13.124 13.124 0 0 0-2.832.211v30.967c0 3.056 0 3.291.553 4.396h-8.287v-.611c2.302 0 3.108-1.34 3.108-4.514V86.3c0-4.021-1.266-4.703-3.108-4.703v-.588h10.75c4.419 0 7.526.165 10.473 2.07a9.078 9.078 0 0 1 2.673 3.225 9.283 9.283 0 0 1 .964 4.11c0 5.126-3.775 8.818-10.082 9.876 3.752.776 6.053 2.68 9.644 8.088l2.463 3.692a14.29 14.29 0 0 0 4.604 4.961 5.32 5.32 0 0 0 2.9.846c.413.051.83.051 1.243 0l.161.565c-1.303.327-2.64.493-3.982.493M264.375 112.869a55.123 55.123 0 0 0-.806 5.502v.4c-1.749-.165-5.109-.282-7.135-.282h-16.573v-.612c2.44 0 3.269-1.34 3.269-5.055V85.5c0-3.597-1.588-3.926-3.2-3.926v-.565h10.934v.612c-2.302.164-3.154 1.34-3.154 4.208v28.921c0 1.011 0 1.129.161 1.293.162.165.76.447 2.072.447h6.468c4.788 0 6.583-1.011 7.55-4.279h.552v.446M294.252 118.771v-.212a20.157 20.157 0 0 0-.99-3.762l-4.603-11.944h-10.658l-4.258 11.215a11.974 11.974 0 0 0-1.151 4.703H266.7v-.565a4.762 4.762 0 0 0 2.696-1.13 4.935 4.935 0 0 0 1.562-2.514l12.522-31.954a7.48 7.48 0 0 0 .437-1.599h1.197a8.16 8.16 0 0 0 .483 1.717l12.292 30.566c1.496 3.715 2.509 4.703 4.603 4.985v.564l-8.24-.07Zm-10.934-29.979-4.603 12.156h9.207l-4.604-12.156ZM341.599 86.793v29.274a14.656 14.656 0 0 0 0 2.633h-1.45a.581.581 0 0 0 0-.235c-.207-.329-.644-.94-1.289-1.857-.161-.236-.322-.4-.483-.612l-22.834-27.933.207 24.5c-.057 2.012.199 4.02.76 5.949h-6.261v-.588c2.578 0 3.269-1.246 3.269-5.102V85.524c-1.197-2.163-2.901-3.833-4.305-3.903v-.612h6.744l23.663 29.039-.208-24.877v-1.082a8.79 8.79 0 0 0-.368-3.08h6.008v.682c-2.532 0-3.43 1.34-3.43 5.102M378.589 112.752c-.53 3.197-.691 4.161-.852 5.737v.282a.383.383 0 0 0-.207 0h-23.317v-.565c2.302-.164 3.038-1.246 3.038-4.89V86.229c0-3.08-.99-4.444-3.199-4.49v-.73h22.741l.207 5.902h-.575a3.653 3.653 0 0 0-.535-1.801 3.555 3.555 0 0 0-1.353-1.28 12.616 12.616 0 0 0-6.398-.846h-6.561v15.378h10.105c1.245.09 2.495-.021 3.706-.33v2.704a11.732 11.732 0 0 0-3.775-.399h-10.036v16.012s.622.282 2.993.282h2.831c5.708 0 7.297-.235 8.701-1.246.507-.362.934-.83 1.252-1.373a4.542 4.542 0 0 0 .589-1.778h.576v.4M399.604 120.981a23.181 23.181 0 0 1-7.642-1.575 13.123 13.123 0 0 0-2.003-.471v-6.912h.622a9.642 9.642 0 0 0 3.602 5.268 9.291 9.291 0 0 0 6.042 1.785c5.087 0 9-3.48 9-7.735a6.51 6.51 0 0 0-.557-2.862 6.387 6.387 0 0 0-1.745-2.311 17.343 17.343 0 0 0-5.524-2.845 28.305 28.305 0 0 1-7.112-3.504 9.68 9.68 0 0 1-2.924-3.542 9.904 9.904 0 0 1-.989-4.523c.029-1.46.344-2.9.925-4.235a10.961 10.961 0 0 1 2.458-3.538c1.042-1 2.269-1.779 3.608-2.29 1.34-.51 2.767-.742 4.195-.682 1.545.02 3.086.177 4.604.47 1.045.223 2.109.34 3.176.353v.517c.461 2.892.737 4.233 1.059 5.573l-.483.141a9.532 9.532 0 0 0-3.74-4.007 9.255 9.255 0 0 0-5.283-1.236 6.772 6.772 0 0 0-2.77.41 6.886 6.886 0 0 0-2.383 1.5 7.059 7.059 0 0 0-1.605 2.343 7.19 7.19 0 0 0-.562 2.8 6.03 6.03 0 0 0 .509 2.594 5.917 5.917 0 0 0 1.563 2.11 16.816 16.816 0 0 0 5.202 2.797 37.676 37.676 0 0 1 6.905 3.315 9.56 9.56 0 0 1 3.277 3.511 9.794 9.794 0 0 1 1.188 4.695 12.437 12.437 0 0 1-1.002 4.797 12.19 12.19 0 0 1-2.771 4.005 11.9 11.9 0 0 1-4.09 2.568c-1.52.565-3.136.808-4.75.716Z"></path></svg>