<svg width="120" height="158" viewBox="0 0 120 158" fill="none" xmlns="http://www.w3.org/2000/svg">
<circle cx="60" cy="60" r="38.5" stroke="#FAFAF9" strokeWidth="3"/>
<path d="M34.0541 30.8108C41.0438 33.5077 50.1027 35.1351 60 35.1351C69.8973 35.1351 78.9562 33.5077 85.946 30.8108" stroke="#FAFAF9" strokeWidth="3"/>
<path d="M34.0541 89.189C41.0438 86.4921 50.1027 84.8646 60 84.8646C69.8973 84.8646 78.9562 86.4921 85.946 89.189" stroke="#FAFAF9" strokeWidth="3"/>
<path d="M77.5474 77.2971C74.409 90.7276 67.7305 100 59.9976 100L59.4956 99.9875C51.9765 99.5959 45.5188 90.4361 42.4487 77.2971H45.5327C46.4235 80.9208 47.5799 84.1842 48.936 86.9719C52.3175 93.9226 56.416 97 59.9976 97.0002C63.5792 97.0001 67.6785 93.9228 71.0601 86.9719C72.4162 84.1843 73.5716 80.9208 74.4624 77.2971H77.5474ZM60.5005 20.0129C68.224 20.4156 74.829 30.0685 77.7915 43.7834H74.7173C73.7971 39.7264 72.5496 36.0906 71.0601 33.0286C67.6785 26.0776 63.5792 23.0004 59.9976 23.0002C56.4159 23.0005 52.3175 26.0777 48.936 33.0286C47.4464 36.0906 46.198 39.7263 45.2778 43.7834H42.2056C45.2322 29.7724 52.059 20.0006 59.9976 20.0002L60.5005 20.0129Z" fill="#FAFAF9"/>
<path d="M43.0481 67.7701V72.9728H30.7656V67.7701H33.1305V54.6599H30.7656V49.4572H43.0481V54.6599H40.6981V67.7701H43.0481Z" fill="#FAFAF9"/>
<path d="M56.247 73.4015C55.439 73.4015 54.7493 73.3423 54.1778 73.2241C53.6063 73.1059 53.0742 72.9137 52.5815 72.6477C52.0987 72.3816 51.5814 72.0367 51.0296 71.613L50.5122 72.9728H45.7382V65.7748H50.4827C50.7881 66.6025 51.2562 67.1888 51.8868 67.5336C52.5273 67.8687 53.3107 68.0362 54.2369 68.0362C54.8084 68.0362 55.2962 67.9229 55.7002 67.6962C56.1042 67.4597 56.3062 67.1494 56.3062 66.7651C56.3062 66.2822 56.0992 65.9226 55.6854 65.6861C55.2715 65.4398 54.6902 65.2131 53.9413 65.0062C52.9855 64.75 52.1184 64.479 51.3399 64.1933C50.5714 63.9075 49.8816 63.6119 49.2707 63.3065C48.0488 62.6955 47.0635 61.8284 46.3146 60.7051C45.5657 59.5818 45.1913 58.089 45.1913 56.2266C45.1913 54.7979 45.5017 53.5366 46.1225 52.4429C46.7334 51.359 47.6104 50.5165 48.7534 49.9154C49.9062 49.3045 51.2611 48.999 52.818 48.999C54.7197 48.999 56.2224 49.605 57.326 50.817L58.0798 49.4277H62.3218V56.4779H57.7842C57.3605 55.5911 56.8925 54.9752 56.3801 54.6304C55.8677 54.2855 55.1631 54.113 54.2665 54.113C53.5866 54.113 53.0594 54.2362 52.685 54.4826C52.3105 54.719 52.1233 55.0491 52.1233 55.4728C52.1233 55.9458 52.3943 56.3055 52.9362 56.5518C53.4683 56.808 54.2271 57.0445 55.2124 57.2613C56.9368 57.6554 58.4247 58.153 59.6761 58.7541C60.8979 59.3552 61.8734 60.2075 62.6026 61.3111C63.3416 62.4048 63.7111 63.8188 63.7111 65.5531C63.7111 67.0213 63.4057 68.3515 62.7948 69.5438C62.174 70.7361 61.2921 71.6771 60.1491 72.3668C59.0159 73.0566 57.7152 73.4015 56.247 73.4015Z" fill="#FAFAF9"/>
<path d="M77.6047 73.4015C75.1512 73.4015 73.0277 72.8743 71.2344 71.82C69.4509 70.7656 68.0911 69.3172 67.155 67.4745C66.2287 65.6319 65.7656 63.5282 65.7656 61.1633C65.7656 58.7097 66.2287 56.5715 67.155 54.7486C68.0812 52.9158 69.4312 51.5018 71.2048 50.5066C72.9883 49.5016 75.1216 48.999 77.6047 48.999C80.078 48.999 82.2064 49.4966 83.9899 50.4918C85.7635 51.4969 87.1134 52.9158 88.0397 54.7486C88.9758 56.5814 89.4438 58.7196 89.4438 61.1633C89.4438 63.5282 88.9807 65.6319 88.0545 67.4745C87.1282 69.3172 85.7684 70.7656 83.9751 71.82C82.1916 72.8743 80.0681 73.4015 77.6047 73.4015ZM77.6047 68.1544C78.6689 68.1544 79.4818 67.509 80.0435 66.2182C80.615 64.9274 80.9008 63.203 80.9008 61.0451C80.9008 58.9462 80.6249 57.2859 80.0731 56.0641C79.5311 54.8422 78.7083 54.2313 77.6047 54.2313C76.4913 54.2313 75.6636 54.8422 75.1216 56.0641C74.5797 57.2859 74.3087 58.9462 74.3087 61.0451C74.3087 63.203 74.5895 64.9274 75.1512 66.2182C75.7128 67.509 76.5307 68.1544 77.6047 68.1544Z" fill="#FAFAF9"/>
<path d="M20.4696 144.4H22.1076V157H20.4696V144.4ZM20.4696 155.614H22.1076V157H20.4696V155.614ZM20.4696 144.4H22.1076V145.768H20.4696V144.4ZM29.5143 157.27C28.5063 157.27 27.6183 157.096 26.8503 156.748C26.0823 156.4 25.4883 155.902 25.0683 155.254C24.6483 154.594 24.4323 153.826 24.4203 152.95H26.0943C26.1303 153.55 26.2923 154.072 26.5803 154.516C26.8803 154.96 27.2823 155.302 27.7863 155.542C28.2903 155.782 28.8723 155.902 29.5323 155.902C30.5523 155.902 31.3383 155.698 31.8903 155.29C32.4543 154.87 32.7363 154.312 32.7363 153.616C32.7363 153.052 32.5203 152.614 32.0883 152.302C31.6683 151.978 31.0503 151.72 30.2343 151.528L28.3623 151.096C27.3183 150.856 26.4723 150.448 25.8243 149.872C25.1763 149.284 24.8523 148.534 24.8523 147.622C24.8523 146.95 25.0503 146.35 25.4463 145.822C25.8423 145.282 26.3883 144.862 27.0843 144.562C27.7923 144.262 28.5843 144.112 29.4603 144.112C30.3603 144.112 31.1523 144.268 31.8363 144.58C32.5323 144.892 33.0783 145.336 33.4743 145.912C33.8703 146.488 34.0923 147.16 34.1403 147.928H32.4663C32.4303 147.436 32.2803 147.01 32.0163 146.65C31.7643 146.278 31.4163 145.996 30.9723 145.804C30.5283 145.6 30.0123 145.498 29.4243 145.498C28.8843 145.498 28.3983 145.582 27.9663 145.75C27.5343 145.918 27.1923 146.152 26.9403 146.452C26.7003 146.752 26.5803 147.094 26.5803 147.478C26.5803 148.018 26.7603 148.456 27.1203 148.792C27.4803 149.128 28.0323 149.38 28.7763 149.548L31.0083 150.052C32.0763 150.304 32.9163 150.718 33.5283 151.294C34.1523 151.858 34.4643 152.596 34.4643 153.508C34.4643 154.204 34.2603 154.84 33.8523 155.416C33.4563 155.98 32.8863 156.43 32.1423 156.766C31.3983 157.102 30.5223 157.27 29.5143 157.27ZM42.0193 157.27C40.8913 157.27 39.8713 157 38.9593 156.46C38.0593 155.908 37.3453 155.134 36.8173 154.138C36.3013 153.142 36.0433 151.996 36.0433 150.7C36.0433 149.404 36.3013 148.258 36.8173 147.262C37.3453 146.266 38.0593 145.492 38.9593 144.94C39.8713 144.388 40.8913 144.112 42.0193 144.112C43.1593 144.112 44.1793 144.388 45.0793 144.94C45.9913 145.492 46.7053 146.266 47.2213 147.262C47.7373 148.258 47.9953 149.404 47.9953 150.7C47.9953 151.996 47.7313 153.142 47.2033 154.138C46.6873 155.134 45.9733 155.908 45.0613 156.46C44.1613 157 43.1473 157.27 42.0193 157.27ZM42.0193 155.902C42.8713 155.902 43.6153 155.692 44.2513 155.272C44.8873 154.852 45.3793 154.252 45.7273 153.472C46.0873 152.68 46.2673 151.756 46.2673 150.7C46.2673 149.644 46.0873 148.726 45.7273 147.946C45.3793 147.154 44.8813 146.548 44.2333 146.128C43.5973 145.708 42.8593 145.498 42.0193 145.498C41.1913 145.498 40.4533 145.708 39.8053 146.128C39.1693 146.548 38.6713 147.154 38.3113 147.946C37.9513 148.726 37.7713 149.644 37.7713 150.7C37.7713 151.756 37.9453 152.68 38.2933 153.472C38.6533 154.252 39.1513 154.852 39.7873 155.272C40.4233 155.692 41.1673 155.902 42.0193 155.902ZM53.9374 157C53.9374 156.448 54.0214 155.956 54.1894 155.524C54.3574 155.08 54.6274 154.648 54.9994 154.228C55.3834 153.796 55.9054 153.328 56.5654 152.824L58.2754 151.51L58.3114 151.474C59.0074 150.934 59.5714 150.388 60.0034 149.836C60.4354 149.272 60.6514 148.636 60.6514 147.928C60.6514 147.448 60.5554 147.016 60.3634 146.632C60.1714 146.248 59.8954 145.948 59.5354 145.732C59.1754 145.516 58.7494 145.408 58.2574 145.408C57.7414 145.408 57.2914 145.528 56.9074 145.768C56.5234 146.008 56.2234 146.368 56.0074 146.848C55.7914 147.316 55.6834 147.886 55.6834 148.558V148.792H54.0634V148.378C54.0634 147.502 54.2434 146.746 54.6034 146.11C54.9754 145.462 55.4794 144.97 56.1154 144.634C56.7514 144.286 57.4654 144.112 58.2574 144.112C59.0374 144.112 59.7334 144.268 60.3454 144.58C60.9574 144.892 61.4314 145.336 61.7674 145.912C62.1154 146.476 62.2894 147.142 62.2894 147.91C62.2894 148.534 62.1634 149.116 61.9114 149.656C61.6594 150.184 61.2814 150.712 60.7774 151.24C60.2734 151.756 59.6074 152.326 58.7794 152.95L57.8974 153.616C57.2494 154.096 56.7694 154.486 56.4574 154.786C56.1454 155.086 55.9594 155.344 55.8994 155.56H62.5054V157H53.9374ZM65.8423 157C65.9503 155.548 66.1963 154.162 66.5803 152.842C66.9643 151.522 67.4863 150.274 68.1463 149.098C68.8183 147.922 69.6283 146.836 70.5763 145.84H63.7363V144.4H72.0703V145.948C70.7743 147.388 69.7123 149.074 68.8843 151.006C68.0683 152.938 67.6183 154.936 67.5343 157H65.8423ZM77.8658 157.27C76.9058 157.27 76.0778 157.012 75.3818 156.496C74.6978 155.98 74.1758 155.236 73.8158 154.264C73.4678 153.28 73.2938 152.098 73.2938 150.718C73.2938 149.35 73.4738 148.174 73.8338 147.19C74.2058 146.194 74.7338 145.432 75.4178 144.904C76.1138 144.376 76.9298 144.112 77.8658 144.112C78.7898 144.112 79.5938 144.376 80.2778 144.904C80.9738 145.42 81.5078 146.176 81.8798 147.172C82.2518 148.156 82.4378 149.338 82.4378 150.718C82.4378 152.098 82.2518 153.28 81.8798 154.264C81.5198 155.248 80.9978 155.998 80.3138 156.514C79.6298 157.018 78.8138 157.27 77.8658 157.27ZM77.8658 155.992C78.4898 155.992 79.0178 155.806 79.4498 155.434C79.8818 155.05 80.2118 154.468 80.4398 153.688C80.6678 152.896 80.7818 151.906 80.7818 150.718C80.7818 148.93 80.5298 147.598 80.0258 146.722C79.5338 145.846 78.8138 145.408 77.8658 145.408C77.2298 145.408 76.6898 145.6 76.2458 145.984C75.8138 146.368 75.4838 146.956 75.2558 147.748C75.0398 148.528 74.9318 149.518 74.9318 150.718C74.9318 152.482 75.1838 153.802 75.6878 154.678C76.2038 155.554 76.9298 155.992 77.8658 155.992ZM88.9049 157.27C87.9449 157.27 87.1169 157.012 86.4209 156.496C85.7369 155.98 85.2149 155.236 84.8549 154.264C84.5069 153.28 84.3329 152.098 84.3329 150.718C84.3329 149.35 84.5129 148.174 84.8729 147.19C85.2449 146.194 85.7729 145.432 86.4569 144.904C87.1529 144.376 87.9689 144.112 88.9049 144.112C89.8289 144.112 90.6329 144.376 91.3169 144.904C92.0129 145.42 92.5469 146.176 92.9189 147.172C93.2909 148.156 93.4769 149.338 93.4769 150.718C93.4769 152.098 93.2909 153.28 92.9189 154.264C92.5589 155.248 92.0369 155.998 91.3529 156.514C90.6689 157.018 89.8529 157.27 88.9049 157.27ZM88.9049 155.992C89.5289 155.992 90.0569 155.806 90.4889 155.434C90.9209 155.05 91.2509 154.468 91.4789 153.688C91.7069 152.896 91.8209 151.906 91.8209 150.718C91.8209 148.93 91.5689 147.598 91.0649 146.722C90.5729 145.846 89.8529 145.408 88.9049 145.408C88.2689 145.408 87.7289 145.6 87.2849 145.984C86.8529 146.368 86.5229 146.956 86.2949 147.748C86.0789 148.528 85.9709 149.518 85.9709 150.718C85.9709 152.482 86.2229 153.802 86.7269 154.678C87.2429 155.554 87.9689 155.992 88.9049 155.992ZM97.928 148.162C97.928 147.742 97.928 147.328 97.928 146.92C97.616 147.424 97.184 147.85 96.632 148.198C96.092 148.534 95.516 148.714 94.904 148.738V147.154C95.624 147.07 96.302 146.764 96.938 146.236C97.586 145.696 98.012 145.084 98.216 144.4H99.512V157H97.928V148.162ZM97.928 155.614H99.512V157H97.928V155.614Z" fill="#FAFAF9"/>
</svg>
