<svg width="120" height="158" viewBox="0 0 120 158" fill="none" xmlns="http://www.w3.org/2000/svg">
<path d="M59.9999 98.3333C59.9999 98.3333 93.3332 85 93.3332 61.6667V35L59.9999 25L26.6666 35V61.6667C26.6666 85 59.9999 98.3333 59.9999 98.3333Z" stroke="#FAFAF9" strokeWidth="3" stroke-linecap="round"/>
<path d="M74.9991 51.6667L58.3325 68.3334L49.9991 60.0001" stroke="#FAFAF9" strokeWidth="3.30556" stroke-linecap="square"/>
<path d="M34.612 157.27C33.604 157.27 32.716 157.096 31.948 156.748C31.18 156.4 30.586 155.902 30.166 155.254C29.746 154.594 29.53 153.826 29.518 152.95H31.192C31.228 153.55 31.39 154.072 31.678 154.516C31.978 154.96 32.38 155.302 32.884 155.542C33.388 155.782 33.97 155.902 34.63 155.902C35.65 155.902 36.436 155.698 36.988 155.29C37.552 154.87 37.834 154.312 37.834 153.616C37.834 153.052 37.618 152.614 37.186 152.302C36.766 151.978 36.148 151.72 35.332 151.528L33.46 151.096C32.416 150.856 31.57 150.448 30.922 149.872C30.274 149.284 29.95 148.534 29.95 147.622C29.95 146.95 30.148 146.35 30.544 145.822C30.94 145.282 31.486 144.862 32.182 144.562C32.89 144.262 33.682 144.112 34.558 144.112C35.458 144.112 36.25 144.268 36.934 144.58C37.63 144.892 38.176 145.336 38.572 145.912C38.968 146.488 39.19 147.16 39.238 147.928H37.564C37.528 147.436 37.378 147.01 37.114 146.65C36.862 146.278 36.514 145.996 36.07 145.804C35.626 145.6 35.11 145.498 34.522 145.498C33.982 145.498 33.496 145.582 33.064 145.75C32.632 145.918 32.29 146.152 32.038 146.452C31.798 146.752 31.678 147.094 31.678 147.478C31.678 148.018 31.858 148.456 32.218 148.792C32.578 149.128 33.13 149.38 33.874 149.548L36.106 150.052C37.174 150.304 38.014 150.718 38.626 151.294C39.25 151.858 39.562 152.596 39.562 153.508C39.562 154.204 39.358 154.84 38.95 155.416C38.554 155.98 37.984 156.43 37.24 156.766C36.496 157.102 35.62 157.27 34.612 157.27ZM47.1169 157.27C45.9889 157.27 44.9689 157 44.0569 156.46C43.1569 155.908 42.4429 155.134 41.9149 154.138C41.3989 153.142 41.1409 151.996 41.1409 150.7C41.1409 149.404 41.3989 148.258 41.9149 147.262C42.4429 146.266 43.1569 145.492 44.0569 144.94C44.9689 144.388 45.9889 144.112 47.1169 144.112C48.2569 144.112 49.2769 144.388 50.1769 144.94C51.0889 145.492 51.8029 146.266 52.3189 147.262C52.8349 148.258 53.0929 149.404 53.0929 150.7C53.0929 151.996 52.8289 153.142 52.3009 154.138C51.7849 155.134 51.0709 155.908 50.1589 156.46C49.2589 157 48.2449 157.27 47.1169 157.27ZM47.1169 155.902C47.9689 155.902 48.7129 155.692 49.3489 155.272C49.9849 154.852 50.4769 154.252 50.8249 153.472C51.1849 152.68 51.3649 151.756 51.3649 150.7C51.3649 149.644 51.1849 148.726 50.8249 147.946C50.4769 147.154 49.9789 146.548 49.3309 146.128C48.6949 145.708 47.9569 145.498 47.1169 145.498C46.2889 145.498 45.5509 145.708 44.9029 146.128C44.2669 146.548 43.7689 147.154 43.4089 147.946C43.0489 148.726 42.8689 149.644 42.8689 150.7C42.8689 151.756 43.0429 152.68 43.3909 153.472C43.7509 154.252 44.2489 154.852 44.8849 155.272C45.5209 155.692 46.2649 155.902 47.1169 155.902ZM60.8115 157.27C59.6115 157.27 58.5555 157.006 57.6435 156.478C56.7435 155.938 56.0415 155.17 55.5375 154.174C55.0335 153.166 54.7815 151.984 54.7815 150.628C54.7815 149.344 55.0395 148.21 55.5555 147.226C56.0835 146.23 56.8095 145.462 57.7335 144.922C58.6575 144.382 59.6955 144.112 60.8475 144.112C61.8435 144.112 62.7315 144.304 63.5115 144.688C64.2915 145.06 64.9155 145.576 65.3835 146.236C65.8515 146.896 66.1275 147.64 66.2115 148.468H64.4115C64.2435 147.532 63.8475 146.806 63.2235 146.29C62.5995 145.762 61.7835 145.498 60.7755 145.498C59.9235 145.498 59.1735 145.708 58.5255 146.128C57.8895 146.536 57.3915 147.13 57.0315 147.91C56.6835 148.678 56.5095 149.584 56.5095 150.628C56.5095 151.672 56.6895 152.596 57.0495 153.4C57.4095 154.192 57.9135 154.804 58.5615 155.236C59.2095 155.668 59.9475 155.884 60.7755 155.884C61.7955 155.884 62.6295 155.62 63.2775 155.092C63.9255 154.564 64.3395 153.844 64.5195 152.932H66.2295C66.1215 153.82 65.8275 154.594 65.3475 155.254C64.8675 155.902 64.2375 156.4 63.4575 156.748C62.6775 157.096 61.7955 157.27 60.8115 157.27ZM67.7362 157C67.7362 156.448 67.8202 155.956 67.9882 155.524C68.1562 155.08 68.4262 154.648 68.7982 154.228C69.1822 153.796 69.7042 153.328 70.3642 152.824L72.0742 151.51L72.1102 151.474C72.8062 150.934 73.3702 150.388 73.8022 149.836C74.2342 149.272 74.4502 148.636 74.4502 147.928C74.4502 147.448 74.3542 147.016 74.1622 146.632C73.9702 146.248 73.6942 145.948 73.3342 145.732C72.9742 145.516 72.5482 145.408 72.0562 145.408C71.5402 145.408 71.0902 145.528 70.7062 145.768C70.3222 146.008 70.0222 146.368 69.8062 146.848C69.5902 147.316 69.4822 147.886 69.4822 148.558V148.792H67.8622V148.378C67.8622 147.502 68.0422 146.746 68.4022 146.11C68.7742 145.462 69.2782 144.97 69.9142 144.634C70.5502 144.286 71.2642 144.112 72.0562 144.112C72.8362 144.112 73.5322 144.268 74.1442 144.58C74.7562 144.892 75.2302 145.336 75.5662 145.912C75.9142 146.476 76.0882 147.142 76.0882 147.91C76.0882 148.534 75.9622 149.116 75.7102 149.656C75.4582 150.184 75.0802 150.712 74.5762 151.24C74.0722 151.756 73.4062 152.326 72.5782 152.95L71.6962 153.616C71.0482 154.096 70.5682 154.486 70.2562 154.786C69.9442 155.086 69.7582 155.344 69.6982 155.56H76.3042V157H67.7362ZM83.0126 144.4H84.6506V157H83.0126V144.4ZM83.0126 155.614H84.6506V157H83.0126V155.614ZM83.0126 144.4H84.6506V145.768H83.0126V144.4ZM87.8993 144.4H89.5373V157H87.8993V144.4ZM87.8993 155.614H89.5373V157H87.8993V155.614ZM87.8993 144.4H89.5373V145.768H87.8993V144.4Z" fill="#FAFAF9"/>
</svg>
