<svg width="120" height="158" viewBox="0 0 120 158" fill="none" xmlns="http://www.w3.org/2000/svg">
<g clipPath="url(#clip0_214_9002)">
<path d="M60.0002 48.4304C63.6511 48.4306 66.6106 51.3909 66.6106 55.0417V58.3474H68.2639C69.1766 58.3475 69.9162 59.0871 69.9163 59.9998V69.9167C69.9162 70.8295 69.1766 71.569 68.2639 71.5691H51.7356C50.8231 71.5688 50.0833 70.8293 50.0833 69.9167V59.9998C50.0834 59.0872 50.8231 58.3477 51.7356 58.3474H53.3889V55.0417C53.3889 51.3908 56.3493 48.4304 60.0002 48.4304ZM60.0002 50.9099C57.718 50.9099 55.8684 52.7595 55.8684 55.0417V58.3474H64.1321V55.0417C64.1321 52.7596 62.2824 50.9101 60.0002 50.9099Z" fill="#FAFAF9"/>
<path d="M60.3937 19.7053L61.6925 23.7024H65.8953L62.4952 26.1728L63.7939 30.1699L60.3937 27.6995L56.9936 30.1699L58.2923 26.1728L54.8921 23.7024H59.095L60.3937 19.7053Z" fill="#FAFAF9"/>
<path d="M77.0555 26.0518L78.3542 30.0489H82.5571L79.1569 32.5192L80.4556 36.5163L77.0555 34.046L73.6553 36.5163L74.9541 32.5192L71.5539 30.0489H75.7567L77.0555 26.0518Z" fill="#FAFAF9"/>
<path d="M42.9428 26.0518L41.6441 30.0489H37.4412L40.8414 32.5192L39.5426 36.5163L42.9428 34.046L46.343 36.5163L45.0442 32.5192L48.4444 30.0489H44.2416L42.9428 26.0518Z" fill="#FAFAF9"/>
<path d="M81.0204 85.5518L82.3192 89.5489H86.522L83.1219 92.0192L84.4206 96.0163L81.0204 93.546L77.6203 96.0163L78.919 92.0192L75.5188 89.5489H79.7217L81.0204 85.5518Z" fill="#FAFAF9"/>
<path d="M38.9747 85.5518L37.6759 89.5489H33.4731L36.8733 92.0192L35.5745 96.0163L38.9747 93.546L42.3749 96.0163L41.0761 92.0192L44.4763 89.5489H40.2734L38.9747 85.5518Z" fill="#FAFAF9"/>
<path d="M91.3357 71.2725L92.6345 75.2696H96.8373L93.4372 77.7399L94.7359 81.737L91.3357 79.2667L87.9356 81.737L89.2343 77.7399L85.8341 75.2696H90.037L91.3357 71.2725Z" fill="#FAFAF9"/>
<path d="M28.6601 71.2725L27.3614 75.2696H23.1585L26.5587 77.7399L25.2599 81.737L28.6601 79.2667L32.0603 81.737L30.7615 77.7399L34.1617 75.2696H29.9589L28.6601 71.2725Z" fill="#FAFAF9"/>
<path d="M94.5074 53.8191L95.8061 57.8162H100.009L96.6088 60.2866L97.9076 64.2837L94.5074 61.8133L91.1072 64.2837L92.406 60.2866L89.0058 57.8162H93.2086L94.5074 53.8191Z" fill="#FAFAF9"/>
<path d="M25.4885 53.8191L24.1897 57.8162H19.9869L23.387 60.2866L22.0883 64.2837L25.4885 61.8133L28.8886 64.2837L27.5899 60.2866L30.9901 57.8162H26.7872L25.4885 53.8191Z" fill="#FAFAF9"/>
<path d="M91.3357 36.3655L92.6345 40.3626H96.8373L93.4372 42.8329L94.7359 46.8301L91.3357 44.3597L87.9356 46.8301L89.2343 42.8329L85.8341 40.3626H90.037L91.3357 36.3655Z" fill="#FAFAF9"/>
<path d="M28.6594 36.3655L27.3606 40.3626H23.1578L26.5579 42.8329L25.2592 46.8301L28.6594 44.3597L32.0595 46.8301L30.7608 42.8329L34.161 40.3626H29.9581L28.6594 36.3655Z" fill="#FAFAF9"/>
<path d="M60.3937 88.7251L61.6925 92.7222H65.8953L62.4952 95.1926L63.7939 99.1897L60.3937 96.7193L56.9936 99.1897L58.2923 95.1926L54.8921 92.7222H59.095L60.3937 88.7251Z" fill="#FAFAF9"/>
</g>
<path d="M42.1775 157.27C40.9775 157.27 39.9215 156.988 39.0095 156.424C38.1095 155.86 37.4135 155.086 36.9215 154.102C36.4415 153.106 36.2015 151.996 36.2015 150.772C36.2015 149.38 36.4775 148.18 37.0295 147.172C37.5815 146.164 38.3195 145.402 39.2435 144.886C40.1795 144.37 41.2055 144.112 42.3215 144.112C43.2335 144.112 44.0615 144.28 44.8055 144.616C45.5615 144.952 46.1675 145.42 46.6235 146.02C47.0915 146.608 47.3735 147.286 47.4695 148.054H45.7235C45.5915 147.298 45.2135 146.686 44.5895 146.218C43.9655 145.738 43.2095 145.498 42.3215 145.498C41.4695 145.498 40.7135 145.702 40.0535 146.11C39.3935 146.506 38.8715 147.1 38.4875 147.892C38.1155 148.684 37.9295 149.644 37.9295 150.772C37.9295 151.744 38.1095 152.62 38.4695 153.4C38.8295 154.18 39.3335 154.792 39.9815 155.236C40.6415 155.68 41.3915 155.902 42.2315 155.902C43.0115 155.902 43.6835 155.758 44.2475 155.47C44.8115 155.17 45.2495 154.732 45.5615 154.156C45.8735 153.58 46.0295 152.872 46.0295 152.032V151.078L46.7495 151.798H42.0695V150.412H47.5235V157H46.1735V156.442C46.1735 156.178 46.1735 155.98 46.1735 155.848C46.1735 155.716 46.1735 155.518 46.1735 155.254C45.8255 155.842 45.2855 156.328 44.5535 156.712C43.8335 157.084 43.0415 157.27 42.1775 157.27ZM50.247 144.4H54.027C55.431 144.4 56.631 144.616 57.627 145.048C58.635 145.48 59.415 146.164 59.967 147.1C60.519 148.036 60.795 149.23 60.795 150.682C60.795 151.966 60.549 153.082 60.057 154.03C59.577 154.978 58.863 155.71 57.915 156.226C56.967 156.742 55.803 157 54.423 157H50.247V144.4ZM54.225 155.614C55.257 155.614 56.133 155.446 56.853 155.11C57.573 154.774 58.125 154.24 58.509 153.508C58.893 152.776 59.085 151.834 59.085 150.682C59.085 149.074 58.683 147.856 57.879 147.028C57.075 146.188 55.833 145.768 54.153 145.768H51.885V155.614H54.225ZM63.2548 144.4H68.1688C68.9728 144.4 69.6928 144.514 70.3288 144.742C70.9768 144.958 71.4988 145.336 71.8948 145.876C72.2908 146.404 72.4888 147.106 72.4888 147.982C72.4888 148.858 72.2968 149.56 71.9128 150.088C71.5288 150.616 71.0128 150.994 70.3648 151.222C69.7288 151.438 68.9968 151.546 68.1688 151.546H64.8928V157H63.2548V144.4ZM68.1508 150.178C69.0748 150.178 69.7468 149.986 70.1668 149.602C70.5988 149.218 70.8148 148.678 70.8148 147.982C70.8148 147.274 70.5988 146.728 70.1668 146.344C69.7468 145.96 69.0748 145.768 68.1508 145.768H64.8928V150.178H68.1508ZM74.5927 144.4H79.8667C80.6827 144.4 81.3907 144.544 81.9907 144.832C82.6027 145.108 83.0707 145.51 83.3947 146.038C83.7187 146.554 83.8807 147.154 83.8807 147.838C83.8807 148.522 83.7127 149.122 83.3767 149.638C83.0527 150.142 82.5847 150.538 81.9727 150.826C81.3607 151.102 80.6347 151.24 79.7947 151.24H79.0927L79.3807 150.7L84.0787 157H81.9907L77.8867 151.276H76.2307V157H74.5927V144.4ZM79.5427 149.89C80.4067 149.89 81.0667 149.722 81.5227 149.386C81.9787 149.038 82.2067 148.522 82.2067 147.838C82.2067 147.154 81.9787 146.638 81.5227 146.29C81.0667 145.942 80.4067 145.768 79.5427 145.768H76.2307V149.89H79.5427Z" fill="#FAFAF9"/>
<defs>
<clipPath id="clip0_214_9002">
<rect width="79.3333" height="79.3333" fill="white" transform="translate(20.3333 20.3333)"/>
</clipPath>
</defs>
</svg>
