<svg width="120" height="158" viewBox="0 0 120 158" fill="none" xmlns="http://www.w3.org/2000/svg">
<g clipPath="url(#clip0_214_8994)">
<path d="M60.0002 48.4304C63.6511 48.4306 66.6106 51.3909 66.6106 55.0417V58.3474H68.2639C69.1766 58.3475 69.9162 59.0871 69.9163 59.9998V69.9167C69.9162 70.8295 69.1766 71.569 68.2639 71.5691H51.7356C50.8231 71.5688 50.0833 70.8293 50.0833 69.9167V59.9998C50.0834 59.0872 50.8231 58.3477 51.7356 58.3474H53.3889V55.0417C53.3889 51.3908 56.3493 48.4304 60.0002 48.4304ZM60.0002 50.9099C57.718 50.9099 55.8684 52.7595 55.8684 55.0417V58.3474H64.1321V55.0417C64.1321 52.7596 62.2824 50.9101 60.0002 50.9099Z" fill="#FAFAF9"/>
<path d="M60.3938 19.7053L61.6925 23.7024H65.8954L62.4952 26.1728L63.794 30.1699L60.3938 27.6995L56.9936 30.1699L58.2924 26.1728L54.8922 23.7024H59.095L60.3938 19.7053Z" fill="#FAFAF9"/>
<path d="M77.0555 26.0518L78.3543 30.0489H82.5571L79.157 32.5192L80.4557 36.5163L77.0555 34.046L73.6554 36.5163L74.9541 32.5192L71.5539 30.0489H75.7568L77.0555 26.0518Z" fill="#FAFAF9"/>
<path d="M42.9428 26.0518L41.644 30.0489H37.4412L40.8413 32.5192L39.5426 36.5163L42.9428 34.046L46.3429 36.5163L45.0442 32.5192L48.4444 30.0489H44.2415L42.9428 26.0518Z" fill="#FAFAF9"/>
<path d="M81.0204 85.5518L82.3192 89.5489H86.522L83.1219 92.0192L84.4206 96.0163L81.0204 93.546L77.6203 96.0163L78.919 92.0192L75.5188 89.5489H79.7217L81.0204 85.5518Z" fill="#FAFAF9"/>
<path d="M38.9747 85.5518L37.6759 89.5489H33.4731L36.8733 92.0192L35.5745 96.0163L38.9747 93.546L42.3749 96.0163L41.0761 92.0192L44.4763 89.5489H40.2734L38.9747 85.5518Z" fill="#FAFAF9"/>
<path d="M91.3357 71.2725L92.6345 75.2696H96.8373L93.4372 77.7399L94.7359 81.737L91.3357 79.2667L87.9356 81.737L89.2343 77.7399L85.8341 75.2696H90.037L91.3357 71.2725Z" fill="#FAFAF9"/>
<path d="M28.6601 71.2725L27.3614 75.2696H23.1585L26.5587 77.7399L25.2599 81.737L28.6601 79.2667L32.0603 81.737L30.7615 77.7399L34.1617 75.2696H29.9589L28.6601 71.2725Z" fill="#FAFAF9"/>
<path d="M94.5073 53.8191L95.8061 57.8162H100.009L96.6087 60.2866L97.9075 64.2837L94.5073 61.8133L91.1071 64.2837L92.4059 60.2866L89.0057 57.8162H93.2086L94.5073 53.8191Z" fill="#FAFAF9"/>
<path d="M25.4885 53.8191L24.1898 57.8162H19.9869L23.3871 60.2866L22.0884 64.2837L25.4885 61.8133L28.8887 64.2837L27.59 60.2866L30.9901 57.8162H26.7873L25.4885 53.8191Z" fill="#FAFAF9"/>
<path d="M91.3357 36.3655L92.6345 40.3626H96.8373L93.4372 42.8329L94.7359 46.8301L91.3357 44.3597L87.9356 46.8301L89.2343 42.8329L85.8341 40.3626H90.037L91.3357 36.3655Z" fill="#FAFAF9"/>
<path d="M28.6593 36.3655L27.3606 40.3626H23.1577L26.5579 42.8329L25.2591 46.8301L28.6593 44.3597L32.0595 46.8301L30.7607 42.8329L34.1609 40.3626H29.9581L28.6593 36.3655Z" fill="#FAFAF9"/>
<path d="M60.3938 88.7251L61.6925 92.7222H65.8954L62.4952 95.1926L63.794 99.1897L60.3938 96.7193L56.9936 99.1897L58.2924 95.1926L54.8922 92.7222H59.095L60.3938 88.7251Z" fill="#FAFAF9"/>
</g>
<path d="M42.5303 157.27C41.3303 157.27 40.2743 157.006 39.3623 156.478C38.4623 155.938 37.7603 155.17 37.2563 154.174C36.7523 153.166 36.5003 151.984 36.5003 150.628C36.5003 149.344 36.7583 148.21 37.2743 147.226C37.8023 146.23 38.5283 145.462 39.4523 144.922C40.3763 144.382 41.4143 144.112 42.5663 144.112C43.5623 144.112 44.4503 144.304 45.2303 144.688C46.0103 145.06 46.6343 145.576 47.1023 146.236C47.5703 146.896 47.8463 147.64 47.9303 148.468H46.1303C45.9623 147.532 45.5663 146.806 44.9423 146.29C44.3183 145.762 43.5023 145.498 42.4943 145.498C41.6423 145.498 40.8923 145.708 40.2443 146.128C39.6083 146.536 39.1103 147.13 38.7503 147.91C38.4023 148.678 38.2283 149.584 38.2283 150.628C38.2283 151.672 38.4083 152.596 38.7683 153.4C39.1283 154.192 39.6323 154.804 40.2803 155.236C40.9283 155.668 41.6663 155.884 42.4943 155.884C43.5143 155.884 44.3483 155.62 44.9963 155.092C45.6443 154.564 46.0583 153.844 46.2383 152.932H47.9483C47.8403 153.82 47.5463 154.594 47.0663 155.254C46.5863 155.902 45.9563 156.4 45.1763 156.748C44.3963 157.096 43.5143 157.27 42.5303 157.27ZM55.503 157.27C54.303 157.27 53.247 157.006 52.335 156.478C51.435 155.938 50.733 155.17 50.229 154.174C49.725 153.166 49.473 151.984 49.473 150.628C49.473 149.344 49.731 148.21 50.247 147.226C50.775 146.23 51.501 145.462 52.425 144.922C53.349 144.382 54.387 144.112 55.539 144.112C56.535 144.112 57.423 144.304 58.203 144.688C58.983 145.06 59.607 145.576 60.075 146.236C60.543 146.896 60.819 147.64 60.903 148.468H59.103C58.935 147.532 58.539 146.806 57.915 146.29C57.291 145.762 56.475 145.498 55.467 145.498C54.615 145.498 53.865 145.708 53.217 146.128C52.581 146.536 52.083 147.13 51.723 147.91C51.375 148.678 51.201 149.584 51.201 150.628C51.201 151.672 51.381 152.596 51.741 153.4C52.101 154.192 52.605 154.804 53.253 155.236C53.901 155.668 54.639 155.884 55.467 155.884C56.487 155.884 57.321 155.62 57.969 155.092C58.617 154.564 59.031 153.844 59.211 152.932H60.921C60.813 153.82 60.519 154.594 60.039 155.254C59.559 155.902 58.929 156.4 58.149 156.748C57.369 157.096 56.487 157.27 55.503 157.27ZM63.2196 144.4H68.1336C68.9376 144.4 69.6576 144.514 70.2936 144.742C70.9416 144.958 71.4636 145.336 71.8596 145.876C72.2556 146.404 72.4536 147.106 72.4536 147.982C72.4536 148.858 72.2616 149.56 71.8776 150.088C71.4936 150.616 70.9776 150.994 70.3296 151.222C69.6936 151.438 68.9616 151.546 68.1336 151.546H64.8576V157H63.2196V144.4ZM68.1156 150.178C69.0396 150.178 69.7116 149.986 70.1316 149.602C70.5636 149.218 70.7796 148.678 70.7796 147.982C70.7796 147.274 70.5636 146.728 70.1316 146.344C69.7116 145.96 69.0396 145.768 68.1156 145.768H64.8576V150.178H68.1156ZM77.2238 144.4H79.2038L84.2618 157H82.4438L78.5378 146.848C78.5018 146.752 78.4658 146.656 78.4298 146.56C78.3458 146.332 78.2618 146.11 78.1778 145.894C78.1298 146.038 78.0878 146.146 78.0518 146.218C78.0278 146.29 77.9918 146.398 77.9438 146.542L77.8178 146.848L73.9118 157H72.1838L77.2238 144.4ZM75.0818 151.888H81.2558V153.256H75.0818V151.888Z" fill="#FAFAF9"/>
<defs>
<clipPath id="clip0_214_8994">
<rect width="79.3333" height="79.3333" fill="white" transform="translate(20.3333 20.3333)"/>
</clipPath>
</defs>
</svg>
